<svg width="48" height="48" viewBox="0 0 48 48" fill="none" xmlns="http://www.w3.org/2000/svg">
<path d="M16.4079 20.0785C14.2746 20.0785 12.5491 18.353 12.5491 16.2197C12.5491 14.0863 14.2746 12.3608 16.4079 12.3608C18.5412 12.3608 20.2667 14.0863 20.2667 16.2197C20.2667 18.353 18.5412 20.0785 16.4079 20.0785Z" fill="white"/>
<path d="M16.4078 20.549C14.0235 20.549 12.0784 18.6039 12.0784 16.2195C12.0784 13.8352 14.0235 11.8901 16.4078 11.8901C18.7921 11.8901 20.7372 13.8352 20.7372 16.2195C20.7686 18.6039 18.8235 20.549 16.4078 20.549ZM16.4078 12.7999C14.5254 12.7999 13.0195 14.3372 13.0195 16.1882C13.0195 18.0705 14.5568 19.5764 16.4078 19.5764C18.2901 19.5764 19.796 18.0392 19.796 16.1882C19.8274 14.3372 18.2901 12.7999 16.4078 12.7999Z" fill="#666633"/>
<path d="M0.313721 0.627441V47.6863H47.3725V0.627441H0.313721ZM7.84313 10.9176C7.84313 9.28626 9.2549 8.15685 10.8863 8.15685H23.8431V24.1569H7.84313V10.9176Z" fill="white"/>
<path d="M48 48H0V0H48V48ZM0.941177 47.0588H47.0588V0.941177H0.941177V47.0588ZM24.4706 24.4706H7.52941V10.9176C7.52941 9.03529 9.00392 7.52941 10.8863 7.52941H24.4706V24.4706ZM8.47059 23.5294H23.5294V8.47059H10.8863C9.50588 8.47059 8.47059 9.50588 8.47059 10.9176V23.5294Z" fill="#666633"/>
<path d="M10.8862 8.15674C9.25478 8.15674 7.84302 9.28615 7.84302 10.9175V24.1567H23.843V8.15674H10.8862ZM16.4077 20.0783C14.2744 20.0783 12.5489 18.3528 12.5489 16.2195C12.5489 14.0861 14.2744 12.3607 16.4077 12.3607C18.5411 12.3607 20.2665 14.0861 20.2665 16.2195C20.2665 18.3528 18.5411 20.0783 16.4077 20.0783Z" fill="#CCCC99"/>
<path d="M24.4705 24.4705H7.5293V10.9175C7.5293 9.03518 9.00381 7.5293 10.8862 7.5293H24.4705V24.4705ZM8.47047 23.5293H23.5293V8.47047H10.8862C9.50577 8.47047 8.47047 9.50577 8.47047 10.9175V23.5293ZM16.4077 20.5489C14.0234 20.5489 12.0783 18.6038 12.0783 16.2195C12.0783 13.8352 14.0234 11.8901 16.4077 11.8901C18.792 11.8901 20.7371 13.8352 20.7371 16.2195C20.7685 18.6038 18.8234 20.5489 16.4077 20.5489ZM16.4077 12.7999C14.5254 12.7999 13.0195 14.3371 13.0195 16.1881C13.0195 18.0705 14.5567 19.5764 16.4077 19.5764C18.2901 19.5764 19.796 18.0391 19.796 16.1881C19.8273 14.3371 18.2901 12.7999 16.4077 12.7999Z" fill="#666633"/>
<path d="M12.5491 16.2197C12.5491 14.0863 14.2746 12.3608 16.4079 12.3608C18.5412 12.3608 20.2667 14.0863 20.2667 16.2197C20.2667 18.353 18.5412 20.0785 16.4079 20.0785C14.2746 20.0785 12.5491 18.353 12.5491 16.2197Z" fill="white"/>
<path d="M16.4078 20.4861C14.0548 20.4861 12.1411 18.5724 12.1411 16.2194C12.1411 13.8665 14.0548 11.9214 16.4078 11.9214C18.7921 11.9214 20.7058 13.8351 20.7058 16.2194C20.7058 18.5724 18.7921 20.4861 16.4078 20.4861ZM16.4078 12.7371C14.4941 12.7371 12.9568 14.2743 12.9568 16.1881C12.9568 18.1018 14.4941 19.639 16.4078 19.639C18.3215 19.639 19.8588 18.1018 19.8588 16.1881C19.8901 14.3057 18.3215 12.7371 16.4078 12.7371Z" fill="#666633"/>
<path d="M40.1567 10.9175V37.3018C40.1567 38.9332 38.9018 40.4705 37.2705 40.4705H10.8862C9.25478 40.4705 7.84302 38.9332 7.84302 37.3018V24.1567H23.843V8.15674H37.2705C38.9018 8.15674 40.1567 9.28615 40.1567 10.9175Z" fill="#CCCC99"/>
<path d="M37.2705 40.7842H10.8862C9.03518 40.7842 7.5293 39.2156 7.5293 37.3018V23.5293H23.5293V7.5293H37.2705C39.2156 7.5293 40.7842 9.03518 40.7842 10.9175V37.3018C40.7842 39.1842 39.1842 40.7842 37.2705 40.7842ZM8.47047 24.4705V37.3018C8.47047 38.745 9.53714 39.843 10.8862 39.843H37.2705C38.6509 39.843 39.843 38.6509 39.843 37.3018V10.9175C39.843 9.56851 38.6822 8.47047 37.2705 8.47047H24.4705V24.4705H8.47047Z" fill="#666633"/>
<path d="M24.4705 24.1567H23.5293V40.1567H24.4705V24.1567Z" fill="#666633"/>
<path d="M40.1567 23.5293H23.843V24.4705H40.1567V23.5293Z" fill="#666633"/>
<path d="M16.4078 20.549C14.0235 20.549 12.0784 18.6039 12.0784 16.2195C12.0784 13.8352 14.0235 11.8901 16.4078 11.8901C18.7921 11.8901 20.7372 13.8352 20.7372 16.2195C20.7686 18.6039 18.8235 20.549 16.4078 20.549ZM16.4078 12.7999C14.5254 12.7999 13.0195 14.3372 13.0195 16.1882C13.0195 18.0705 14.5568 19.5764 16.4078 19.5764C18.2901 19.5764 19.796 18.0392 19.796 16.1882C19.8274 14.3372 18.2901 12.7999 16.4078 12.7999Z" fill="#666633"/>
<path d="M16.4079 35.765C18.5391 35.765 20.2667 34.0374 20.2667 31.9062C20.2667 29.775 18.5391 28.0474 16.4079 28.0474C14.2767 28.0474 12.5491 29.775 12.5491 31.9062C12.5491 34.0374 14.2767 35.765 16.4079 35.765Z" fill="white"/>
<path d="M16.4078 36.2355C14.0235 36.2355 12.0784 34.2904 12.0784 31.9061C12.0784 29.5218 14.0235 27.5767 16.4078 27.5767C18.7921 27.5767 20.7372 29.5218 20.7372 31.9061C20.7372 34.2904 18.8235 36.2355 16.4078 36.2355ZM16.4078 28.4865C14.5254 28.4865 13.0195 30.0237 13.0195 31.8747C13.0195 33.7257 14.5568 35.2629 16.4078 35.2629C18.2588 35.2629 19.796 33.7257 19.796 31.8747C19.796 30.0237 18.2901 28.4865 16.4078 28.4865Z" fill="#666633"/>
<path d="M32.4079 20.0785C34.5391 20.0785 36.2667 18.3508 36.2667 16.2197C36.2667 14.0885 34.5391 12.3608 32.4079 12.3608C30.2767 12.3608 28.5491 14.0885 28.5491 16.2197C28.5491 18.3508 30.2767 20.0785 32.4079 20.0785Z" fill="white"/>
<path d="M32.4078 20.549C30.0235 20.549 28.0784 18.6039 28.0784 16.2195C28.0784 13.8352 30.0235 11.8901 32.4078 11.8901C34.7921 11.8901 36.7372 13.8352 36.7372 16.2195C36.7686 18.6039 34.8235 20.549 32.4078 20.549ZM32.4078 12.7999C30.5254 12.7999 29.0195 14.3372 29.0195 16.1882C29.0195 18.0705 30.5568 19.5764 32.4078 19.5764C34.2588 19.5764 35.796 18.0392 35.796 16.1882C35.8274 14.3372 34.2901 12.7999 32.4078 12.7999Z" fill="#666633"/>
<path d="M32.4079 35.765C34.5391 35.765 36.2667 34.0374 36.2667 31.9062C36.2667 29.775 34.5391 28.0474 32.4079 28.0474C30.2767 28.0474 28.5491 29.775 28.5491 31.9062C28.5491 34.0374 30.2767 35.765 32.4079 35.765Z" fill="white"/>
<path d="M32.4078 36.2355C30.0235 36.2355 28.0784 34.2904 28.0784 31.9061C28.0784 29.5218 30.0235 27.5767 32.4078 27.5767C34.7921 27.5767 36.7372 29.5218 36.7372 31.9061C36.7372 34.2904 34.8235 36.2355 32.4078 36.2355ZM32.4078 28.4865C30.5254 28.4865 29.0195 30.0237 29.0195 31.8747C29.0195 33.7257 30.5568 35.2629 32.4078 35.2629C34.2588 35.2629 35.796 33.7257 35.796 31.8747C35.796 30.0237 34.2901 28.4865 32.4078 28.4865Z" fill="#666633"/>
<path d="M25.0981 16.6272H22.902C22.651 16.6272 22.4314 16.4076 22.4314 16.1566C22.4314 15.9056 22.651 15.686 22.902 15.686H25.0981C25.349 15.686 25.5686 15.9056 25.5686 16.1566C25.5686 16.4076 25.349 16.6272 25.0981 16.6272Z" fill="#666633"/>
<path d="M32.4706 25.5684C32.2196 25.5684 32 25.3488 32 25.0978V22.9017C32 22.6508 32.2196 22.4312 32.4706 22.4312C32.7216 22.4312 32.9412 22.6508 32.9412 22.9017V25.0978C32.9412 25.3488 32.7216 25.5684 32.4706 25.5684Z" fill="#666633"/>
<path d="M16.4706 25.5684C16.2196 25.5684 16 25.3488 16 25.0978V22.9017C16 22.6508 16.2196 22.4312 16.4706 22.4312C16.7216 22.4312 16.9412 22.6508 16.9412 22.9017V25.0978C16.9412 25.3488 16.7216 25.5684 16.4706 25.5684Z" fill="#666633"/>
<path d="M25.0981 32.3137H22.902C22.651 32.3137 22.4314 32.0941 22.4314 31.8431C22.4314 31.5922 22.651 31.3726 22.902 31.3726H25.0981C25.349 31.3726 25.5686 31.5922 25.5686 31.8431C25.5686 32.0941 25.349 32.3137 25.0981 32.3137Z" fill="#666633"/>
<path d="M23.0275 42.9177C23.2527 42.9177 23.4353 42.7351 23.4353 42.5099C23.4353 42.2846 23.2527 42.1021 23.0275 42.1021C22.8022 42.1021 22.6196 42.2846 22.6196 42.5099C22.6196 42.7351 22.8022 42.9177 23.0275 42.9177Z" fill="#666633"/>
<path d="M23.0274 43.3882C22.5568 43.3882 22.1489 43.0117 22.1489 42.5098C22.1489 42.0078 22.5254 41.6313 23.0274 41.6313C23.5293 41.6313 23.9058 42.0078 23.9058 42.5098C23.9058 43.0117 23.4979 43.3882 23.0274 43.3882ZM23.0274 42.447C22.996 42.447 22.9332 42.4784 22.9332 42.5412C22.9332 42.6353 23.0901 42.6353 23.0901 42.5412C23.1215 42.4784 23.0901 42.447 23.0274 42.447Z" fill="#666633"/>
<path d="M20.9569 42.9177C21.1822 42.9177 21.3648 42.7351 21.3648 42.5099C21.3648 42.2846 21.1822 42.1021 20.9569 42.1021C20.7317 42.1021 20.5491 42.2846 20.5491 42.5099C20.5491 42.7351 20.7317 42.9177 20.9569 42.9177Z" fill="#666633"/>
<path d="M20.9568 43.3882C20.4862 43.3882 20.0784 43.0117 20.0784 42.5098C20.0784 42.0078 20.4548 41.6313 20.9568 41.6313C21.4588 41.6313 21.8352 42.0078 21.8352 42.5098C21.8352 43.0117 21.4274 43.3882 20.9568 43.3882ZM20.9568 42.447C20.9254 42.447 20.8627 42.4784 20.8627 42.5412C20.8627 42.6353 21.0195 42.6353 21.0195 42.5412C21.0195 42.4784 20.9882 42.447 20.9568 42.447Z" fill="#666633"/>
<path d="M25.1298 42.9177C25.355 42.9177 25.5376 42.7351 25.5376 42.5099C25.5376 42.2846 25.355 42.1021 25.1298 42.1021C24.9045 42.1021 24.7219 42.2846 24.7219 42.5099C24.7219 42.7351 24.9045 42.9177 25.1298 42.9177Z" fill="#666633"/>
<path d="M25.1297 43.3882C24.6591 43.3882 24.2512 43.0117 24.2512 42.5098C24.2512 42.0078 24.6277 41.6313 25.1297 41.6313C25.6316 41.6313 26.0081 42.0078 26.0081 42.5098C26.0081 43.0117 25.6002 43.3882 25.1297 43.3882ZM25.1297 42.447C25.0983 42.447 25.0355 42.4784 25.0355 42.5412C25.0355 42.6353 25.1924 42.6353 25.1924 42.5412C25.1924 42.4784 25.161 42.447 25.1297 42.447Z" fill="#666633"/>
<path d="M27.2316 42.9177C27.4568 42.9177 27.6394 42.7351 27.6394 42.5099C27.6394 42.2846 27.4568 42.1021 27.2316 42.1021C27.0063 42.1021 26.8237 42.2846 26.8237 42.5099C26.8237 42.7351 27.0063 42.9177 27.2316 42.9177Z" fill="#666633"/>
<path d="M27.2315 43.3882C26.7609 43.3882 26.353 43.0117 26.353 42.5098C26.353 42.0078 26.7295 41.6313 27.2315 41.6313C27.7334 41.6313 28.1099 42.0078 28.1099 42.5098C28.1099 43.0117 27.7021 43.3882 27.2315 43.3882ZM27.2315 42.447C27.2001 42.447 27.1373 42.4784 27.1373 42.5412C27.1373 42.6353 27.2942 42.6353 27.2942 42.5412C27.2942 42.4784 27.2628 42.447 27.2315 42.447Z" fill="#666633"/>
</svg>
