<svg width="69" height="71" viewBox="0 0 69 71" fill="none" xmlns="http://www.w3.org/2000/svg">
<g filter="url(#filter0_d)">
<circle cx="32.5" cy="30.5" r="29.5" fill="white" stroke="#7F6A23" stroke-width="2"/>
<path d="M21.732 38.1C19.62 39.732 18.072 40.548 17.088 40.548C16.56 40.548 16.164 40.284 15.9 39.756C15.66 39.252 15.54 38.7 15.54 38.1C15.54 36.948 16.02 35.22 16.98 32.916C17.964 30.612 18.9 29.46 19.788 29.46C20.244 29.46 20.628 30.36 20.94 32.16C21.276 33.96 21.612 35.268 21.948 36.084C23.58 34.356 25.944 31.476 29.04 27.444C32.928 22.332 35.508 19.536 36.78 19.056C37.212 18.888 37.656 18.804 38.112 18.804C38.568 18.804 38.94 18.9 39.228 19.092C39.54 19.284 39.696 19.524 39.696 19.812C39.696 20.22 39.348 20.46 38.652 20.532C37.812 20.988 36.516 22.092 34.764 23.844C33.012 25.548 31.608 27.144 30.552 28.632C27.984 32.208 25.344 35.124 22.632 37.38C23.976 39.372 26.088 40.368 28.968 40.368C29.28 40.368 29.748 40.344 30.372 40.296C37.044 39.672 41.772 36.78 44.556 31.62C45.684 29.556 46.248 27.516 46.248 25.5C46.248 23.484 45.516 21.672 44.052 20.064C42.876 18.744 41.592 17.928 40.2 17.616C38.832 17.304 37.428 17.148 35.988 17.148C32.292 17.148 28.884 18 25.764 19.704C22.476 21.504 20.832 23.52 20.832 25.752C20.832 26.352 20.988 26.844 21.3 27.228C21.636 27.612 21.864 27.828 21.984 27.876H21.768C21.144 27.756 20.592 27.444 20.112 26.94C19.584 26.316 19.32 25.656 19.32 24.96C19.32 22.56 20.82 20.496 23.82 18.768C26.844 17.04 30.384 16.176 34.44 16.176C36.312 16.176 38.232 16.392 40.2 16.824C42.168 17.256 43.956 18.288 45.564 19.92C47.412 21.84 48.336 24.012 48.336 26.436C48.336 28.236 47.808 30.096 46.752 32.016C44.928 35.328 42.204 37.752 38.58 39.288C35.676 40.512 32.544 41.124 29.184 41.124C25.824 41.124 23.34 40.116 21.732 38.1ZM16.836 37.956C16.836 38.7 16.98 39.348 17.268 39.9C18.3 39.444 19.548 38.496 21.012 37.056C20.316 35.904 19.872 35.004 19.68 34.356C19.512 33.684 19.392 32.808 19.32 31.728C17.664 34.104 16.836 36.18 16.836 37.956ZM21.984 27.876C22.008 27.876 22.032 27.864 22.056 27.84C22.056 27.888 22.044 27.912 22.02 27.912C22.02 27.912 22.008 27.9 21.984 27.876Z" fill="#7F6A23"/>
</g>
<defs>
<filter id="filter0_d" x="0" y="0" width="69" height="71" filterUnits="userSpaceOnUse" color-interpolation-filters="sRGB">
<feFlood flood-opacity="0" result="BackgroundImageFix"/>
<feColorMatrix in="SourceAlpha" type="matrix" values="0 0 0 0 0 0 0 0 0 0 0 0 0 0 0 0 0 0 127 0"/>
<feOffset dx="2" dy="6"/>
<feGaussianBlur stdDeviation="2"/>
<feColorMatrix type="matrix" values="0 0 0 0 0 0 0 0 0 0 0 0 0 0 0 0 0 0 0.25 0"/>
<feBlend mode="normal" in2="BackgroundImageFix" result="effect1_dropShadow"/>
<feBlend mode="normal" in="SourceGraphic" in2="effect1_dropShadow" result="shape"/>
</filter>
</defs>
</svg>
