<svg width="40" height="25" viewBox="0 0 40 25" fill="none" xmlns="http://www.w3.org/2000/svg">
<path d="M33.8999 18.0002H37.5999C38.6999 18.0002 39.5999 17.1002 39.5999 16.0002V13.7002C39.5999 12.6002 38.6999 11.7002 37.5999 11.7002H33.8999C32.7999 11.7002 31.8999 12.6002 31.8999 13.7002V16.0002C31.8999 17.1002 32.7999 18.0002 33.8999 18.0002Z" fill="#7F6A23"/>
<path d="M2 18.1999H5.7C6.8 18.1999 7.7 17.2999 7.7 16.1999V13.8999C7.7 12.7999 6.8 11.8999 5.7 11.8999H2C0.9 11.8999 0 12.7999 0 13.8999V16.1999C0 17.2999 0.9 18.1999 2 18.1999Z" fill="#7F6A23"/>
<path d="M4.1 7.7002H35.8V20.1002C35.8 22.7002 33.7 24.8002 31.1 24.8002H8.7C6.1 24.8002 4 22.7002 4 20.1002V7.7002H4.1Z" fill="#CCCCCC"/>
<path d="M9.09995 21.1C9.89995 21.1 10.5 20.5 10.5 19.7V10.4C10.6 9.6 9.89995 9 9.09995 9C8.29995 9 7.69995 9.6 7.69995 10.4V19.7C7.69995 20.5 8.29995 21.1 9.09995 21.1Z" fill="white"/>
<path d="M6.8001 2.5H33.0001C34.5001 2.5 35.7001 3.7 35.7001 5.2H4.1001C4.1001 3.7 5.3001 2.5 6.8001 2.5Z" fill="#CCCCCC"/>
<path d="M20.2999 4.2C21.4597 4.2 22.4 3.2598 22.4 2.1C22.4 0.940202 21.4597 0 20.2999 0C19.1402 0 18.2 0.940202 18.2 2.1C18.2 3.2598 19.1402 4.2 20.2999 4.2Z" fill="#CCCCCC"/>
</svg>
