<svg width="51" height="30" viewBox="0 0 51 30" fill="none" xmlns="http://www.w3.org/2000/svg">
<path d="M50.0001 3.0001L37.2001 15.7001C36.9001 16.0001 36.5001 16.2001 36.0001 16.2001C35.9001 16.2001 35.7001 16.2001 35.6001 16.1001L31.5001 20.2001L30.4001 19.1001L34.5001 15.0001C34.3001 14.4001 34.5001 13.8001 34.9001 13.4001L47.7001 0.600098C48.0001 0.300098 48.4001 0.100098 48.9001 0.100098C49.3001 0.100098 49.7001 0.300098 50.1001 0.600098C50.6001 1.3001 50.6001 2.3001 50.0001 3.0001Z" fill="#7F6A23"/>
<path d="M31.6 20.4L30.3 19.1L30.4 19L34.4001 15C34.2001 14.4 34.4001 13.7 34.9001 13.3L47.6 0.5C47.9 0.2 48.3 0 48.8 0C49.3 0 49.7 0.2 50.1 0.5C50.4 0.8 50.6 1.3 50.6 1.8C50.6 2.3 50.4 2.7 50.1 3.1L37.3 15.8C36.9 16.2 36.3001 16.4 35.7001 16.3L31.6 20.4ZM30.7001 19.1L31.6 20L35.6 16H35.7001C36.2001 16.1 36.8 16 37.1 15.6L49.9001 2.8C50.2001 2.5 50.3 2.2 50.3 1.8C50.3 1.4 50.1001 1 49.9001 0.8C49.3001 0.2 48.4 0.2 47.8 0.8L35 13.5C34.6 13.9 34.5 14.5 34.6 15V15.1L34.5 15.2L30.7001 19.1Z" fill="#7F6A23"/>
<path d="M0 12.6001H31.7V25.0001C31.7 27.6001 29.6 29.7001 27 29.7001H4.7C2.1 29.7001 0 27.6001 0 25.0001V12.6001Z" fill="#CCCCCC" fill-opacity="0.83"/>
<path d="M3.4 26.3002C4.2 26.3002 4.8 25.7002 4.8 24.9002V15.6002C4.8 14.8002 4.2 14.2002 3.4 14.2002C2.6 14.2002 2 14.8002 2 15.6002V24.9002C2 25.6002 2.6 26.3002 3.4 26.3002Z" fill="white"/>
</svg>
