<svg width="69" height="71" viewBox="0 0 69 71" fill="none" xmlns="http://www.w3.org/2000/svg">
<g filter="url(#filter0_d)">
<circle cx="32.5" cy="30.5" r="29.5" fill="white" stroke="#7F6A23" stroke-width="2"/>
<path d="M19.188 45.656C19.188 44.984 20.568 42.38 23.328 37.844C21.36 37.844 20.052 37.928 19.404 38.096C18.324 38.36 17.52 38.9 16.992 39.716C16.8 39.98 16.632 40.124 16.488 40.148C16.368 40.172 16.308 40.124 16.308 40.004C16.308 39.86 16.356 39.74 16.452 39.644C17.364 38.42 18.264 37.58 19.152 37.124C20.04 36.668 21.444 36.44 23.364 36.44C23.652 36.44 23.94 36.44 24.228 36.44C25.692 34.208 27.744 30.896 30.384 26.504C31.368 24.656 31.86 23.156 31.86 22.004C31.86 20.156 30.732 19.22 28.476 19.196C28.332 19.196 28.2 19.196 28.08 19.196C25.008 19.196 22.212 19.964 19.692 21.5C17.172 23.036 15.18 24.944 13.716 27.224C12.252 29.504 11.52 31.556 11.52 33.38C11.52 35.612 12.564 36.728 14.652 36.728C16.308 36.728 17.724 35.996 18.9 34.532C20.076 33.068 20.664 31.676 20.664 30.356C20.664 29.612 20.472 29 20.088 28.52C20.04 28.472 20.016 28.412 20.016 28.34C20.016 28.172 20.112 28.088 20.304 28.088C20.4 28.088 20.472 28.124 20.52 28.196C21 28.82 21.24 29.564 21.24 30.428C21.24 31.892 20.64 33.392 19.44 34.928C18.24 36.44 16.98 37.28 15.66 37.448C15.252 37.52 14.856 37.556 14.472 37.556C12.936 37.556 11.748 37.064 10.908 36.08C10.092 35.192 9.684 33.992 9.684 32.48C9.684 31.856 9.756 31.22 9.9 30.572C10.62 27.332 12.696 24.5 16.128 22.076C19.584 19.652 23.46 18.44 27.756 18.44C29.412 18.44 30.828 18.8 32.004 19.52C33.204 20.216 33.804 21.2 33.804 22.472C33.804 23.744 33.36 25.088 32.472 26.504L25.956 36.512C26.724 36.536 28.092 36.656 30.06 36.872C32.052 37.064 33.54 37.16 34.524 37.16C35.532 37.16 36.204 37.148 36.54 37.124L37.908 34.856C40.236 30.944 42.924 27.296 45.972 23.912C49.044 20.504 51.72 18.392 54 17.576C54.072 17.552 54.144 17.54 54.216 17.54C54.384 17.54 54.468 17.636 54.468 17.828C54.468 17.9 54.432 17.96 54.36 18.008C52.824 18.872 50.616 20.972 47.736 24.308C44.88 27.62 42.408 31.028 40.32 34.532L38.916 36.908C40.02 36.764 40.812 36.488 41.292 36.08C41.388 36.008 41.472 36.056 41.544 36.224C41.616 36.368 41.604 36.476 41.508 36.548C40.788 37.1 39.768 37.496 38.448 37.736C36.768 40.856 35.928 43.052 35.928 44.324C35.928 45.14 36.276 45.548 36.972 45.548C37.452 45.548 38.004 45.38 38.628 45.044C39.276 44.732 39.708 44.456 39.924 44.216C40.14 44 40.272 43.892 40.32 43.892C40.368 43.892 40.38 43.964 40.356 44.108C40.332 44.276 40.284 44.408 40.212 44.504C39.804 44.888 39.192 45.296 38.376 45.728C37.56 46.16 36.9 46.376 36.396 46.376C35.892 46.376 35.52 46.292 35.28 46.124C34.512 45.62 34.128 44.744 34.128 43.496C34.128 42.248 34.764 40.424 36.036 38.024C35.148 38.096 34.32 38.132 33.552 38.132C33.288 38.132 30.468 38.048 25.092 37.88C23.388 40.568 22.02 43.016 20.988 45.224C20.676 45.872 20.292 46.196 19.836 46.196C19.404 46.196 19.188 46.016 19.188 45.656Z" fill="#7F6A23"/>
</g>
<defs>
<filter id="filter0_d" x="0" y="0" width="69" height="71" filterUnits="userSpaceOnUse" color-interpolation-filters="sRGB">
<feFlood flood-opacity="0" result="BackgroundImageFix"/>
<feColorMatrix in="SourceAlpha" type="matrix" values="0 0 0 0 0 0 0 0 0 0 0 0 0 0 0 0 0 0 127 0"/>
<feOffset dx="2" dy="6"/>
<feGaussianBlur stdDeviation="2"/>
<feColorMatrix type="matrix" values="0 0 0 0 0 0 0 0 0 0 0 0 0 0 0 0 0 0 0.25 0"/>
<feBlend mode="normal" in2="BackgroundImageFix" result="effect1_dropShadow"/>
<feBlend mode="normal" in="SourceGraphic" in2="effect1_dropShadow" result="shape"/>
</filter>
</defs>
</svg>
