<svg width="46" height="48" viewBox="0 0 46 48" fill="none" xmlns="http://www.w3.org/2000/svg">
<g filter="url(#filter0_d)">
<circle cx="20.9888" cy="19.0925" r="17.5915" fill="white" stroke="#7F6A23" stroke-width="2"/>
<path d="M15.094 25.828C15.094 25.492 15.784 24.19 17.164 21.922C16.18 21.922 15.526 21.964 15.202 22.048C14.662 22.18 14.26 22.45 13.996 22.858C13.9 22.99 13.816 23.062 13.744 23.074C13.684 23.086 13.654 23.062 13.654 23.002C13.654 22.93 13.678 22.87 13.726 22.822C14.182 22.21 14.632 21.79 15.076 21.562C15.52 21.334 16.222 21.22 17.182 21.22C17.326 21.22 17.47 21.22 17.614 21.22C18.346 20.104 19.372 18.448 20.692 16.252C21.184 15.328 21.43 14.578 21.43 14.002C21.43 13.078 20.866 12.61 19.738 12.598C19.666 12.598 19.6 12.598 19.54 12.598C18.004 12.598 16.606 12.982 15.346 13.75C14.086 14.518 13.09 15.472 12.358 16.612C11.626 17.752 11.26 18.778 11.26 19.69C11.26 20.806 11.782 21.364 12.826 21.364C13.654 21.364 14.362 20.998 14.95 20.266C15.538 19.534 15.832 18.838 15.832 18.178C15.832 17.806 15.736 17.5 15.544 17.26C15.52 17.236 15.508 17.206 15.508 17.17C15.508 17.086 15.556 17.044 15.652 17.044C15.7 17.044 15.736 17.062 15.76 17.098C16 17.41 16.12 17.782 16.12 18.214C16.12 18.946 15.82 19.696 15.22 20.464C14.62 21.22 13.99 21.64 13.33 21.724C13.126 21.76 12.928 21.778 12.736 21.778C11.968 21.778 11.374 21.532 10.954 21.04C10.546 20.596 10.342 19.996 10.342 19.24C10.342 18.928 10.378 18.61 10.45 18.286C10.81 16.666 11.848 15.25 13.564 14.038C15.292 12.826 17.23 12.22 19.378 12.22C20.206 12.22 20.914 12.4 21.502 12.76C22.102 13.108 22.402 13.6 22.402 14.236C22.402 14.872 22.18 15.544 21.736 16.252L18.478 21.256C18.862 21.268 19.546 21.328 20.53 21.436C21.526 21.532 22.27 21.58 22.762 21.58C23.266 21.58 23.602 21.574 23.77 21.562L24.454 20.428C25.618 18.472 26.962 16.648 28.486 14.956C30.022 13.252 31.36 12.196 32.5 11.788C32.536 11.776 32.572 11.77 32.608 11.77C32.692 11.77 32.734 11.818 32.734 11.914C32.734 11.95 32.716 11.98 32.68 12.004C31.912 12.436 30.808 13.486 29.368 15.154C27.94 16.81 26.704 18.514 25.66 20.266L24.958 21.454C25.51 21.382 25.906 21.244 26.146 21.04C26.194 21.004 26.236 21.028 26.272 21.112C26.308 21.184 26.302 21.238 26.254 21.274C25.894 21.55 25.384 21.748 24.724 21.868C23.884 23.428 23.464 24.526 23.464 25.162C23.464 25.57 23.638 25.774 23.986 25.774C24.226 25.774 24.502 25.69 24.814 25.522C25.138 25.366 25.354 25.228 25.462 25.108C25.57 25 25.636 24.946 25.66 24.946C25.684 24.946 25.69 24.982 25.678 25.054C25.666 25.138 25.642 25.204 25.606 25.252C25.402 25.444 25.096 25.648 24.688 25.864C24.28 26.08 23.95 26.188 23.698 26.188C23.446 26.188 23.26 26.146 23.14 26.062C22.756 25.81 22.564 25.372 22.564 24.748C22.564 24.124 22.882 23.212 23.518 22.012C23.074 22.048 22.66 22.066 22.276 22.066C22.144 22.066 20.734 22.024 18.046 21.94C17.194 23.284 16.51 24.508 15.994 25.612C15.838 25.936 15.646 26.098 15.418 26.098C15.202 26.098 15.094 26.008 15.094 25.828Z" fill="#7F6A23"/>
</g>
<defs>
<filter id="filter0_d" x="0.397217" y="0.500977" width="45.1831" height="47.1831" filterUnits="userSpaceOnUse" color-interpolation-filters="sRGB">
<feFlood flood-opacity="0" result="BackgroundImageFix"/>
<feColorMatrix in="SourceAlpha" type="matrix" values="0 0 0 0 0 0 0 0 0 0 0 0 0 0 0 0 0 0 127 0"/>
<feOffset dx="2" dy="6"/>
<feGaussianBlur stdDeviation="2"/>
<feColorMatrix type="matrix" values="0 0 0 0 0 0 0 0 0 0 0 0 0 0 0 0 0 0 0.25 0"/>
<feBlend mode="normal" in2="BackgroundImageFix" result="effect1_dropShadow"/>
<feBlend mode="normal" in="SourceGraphic" in2="effect1_dropShadow" result="shape"/>
</filter>
</defs>
</svg>
