<svg height="480pt" viewBox="-104 0 480 480" width="480pt" xmlns="http://www.w3.org/2000/svg"><path d="m271.507812 181.265625-64-176c-1.152343-3.160156-4.152343-5.26171875-7.511718-5.265625h-128c-3.363282.00390625-6.363282 2.105469-7.515625 5.265625l-64 176c-.890625 2.449219-.5312502 5.183594.964843 7.320313 1.496094 2.136718 3.941407 3.414062 6.550782 3.414062h104v16h-40c-4.421875 0-8 3.582031-8 8v32c0 4.417969 3.578125 8 8 8h13.070312c-28.300781 20.378906-45.074218 53.125-45.074218 88s16.773437 67.621094 45.074218 88h-37.070312c-4.421875 0-8 3.582031-8 8v32c0 4.417969 3.578125 8 8 8h176c4.417968 0 8-3.582031 8-8v-32c0-4.417969-3.582032-8-8-8h-37.074219c28.300781-20.378906 45.074219-53.125 45.074219-88s-16.773438-67.621094-45.074219-88h13.074219c4.417968 0 8-3.582031 8-8v-32c0-4.417969-3.582032-8-8-8h-40v-16h104c2.605468 0 5.050781-1.277344 6.546875-3.414062 1.496093-2.136719 1.855469-4.871094.964843-7.320313zm-55.511718 266.734375v16h-160v-16zm0-104c0 48.519531-35.890625 88-80 88-44.113282 0-80-39.480469-80-88s35.886718-88 80-88c44.109375 0 80 39.480469 80 88zm-24-104h-112v-16h112zm-48-32h-16v-16h16zm-124.578125-32 58.175781-160h116.800781l58.175781 160zm0 0"/></svg>