<?xml version="1.0" encoding="UTF-8" standalone="no"?>
<!-- Generator: Gravit.io -->
<svg xmlns="http://www.w3.org/2000/svg" xmlns:xlink="http://www.w3.org/1999/xlink" style="isolation:isolate" viewBox="0 0 140 140" width="140pt" height="140pt">
	<defs>
		<clipPath id="_clipPath_QxPq4105HsmbKPwHeodzNPaD2c8yrP8s">
			<rect width="140" height="140"/>
		</clipPath>
	</defs>
	<g clip-path="url(#_clipPath_QxPq4105HsmbKPwHeodzNPaD2c8yrP8s)">
		<g/>
		<g>
			<path d=" M 90.184 17.792 L 90.184 17.792 L 90.184 17.792 Q 89.869 18.092 89.56 18.608 L 89.56 18.608 L 89.56 18.608 Q 89.25 19.124 89.097 19.621 L 89.097 19.621 L 89.097 19.621 Q 88.944 20.118 88.857 20.56 L 88.857 20.56 L 88.857 20.56 Q 88.654 20.514 88.616 20.502 L 88.616 20.502 L 88.616 20.502 Q 87.951 20.297 88.151 19.647 L 88.151 19.647 L 88.151 19.647 Q 88.224 19.41 88.678 18.521 L 88.678 18.521 L 88.678 18.521 Q 89.133 17.631 89.278 17.161 L 89.278 17.161 L 89.278 17.161 Q 89.423 16.691 89.071 16.582 L 89.071 16.582 L 89.071 16.582 Q 88.635 16.448 87.925 17.15 L 87.925 17.15 L 87.925 17.15 Q 87.214 17.852 86.844 19.052 L 86.844 19.052 L 86.844 19.052 Q 86.727 19.434 86.64 19.876 L 86.64 19.876 L 86.64 19.876 Q 86.437 19.83 86.399 19.819 L 86.399 19.819 L 86.399 19.819 Q 85.734 19.613 85.934 18.964 L 85.934 18.964 L 85.934 18.964 Q 85.96 18.88 86.442 17.873 L 86.442 17.873 L 86.442 17.873 Q 86.924 16.866 87.114 16.251 L 87.114 16.251 L 87.114 16.251 Q 87.303 15.635 87.331 15.083 L 87.331 15.083 L 87.331 15.083 Q 87.736 15.4 87.814 15.784 L 87.814 15.784 L 87.814 15.784 Q 87.892 16.169 87.744 16.65 L 87.744 16.65 L 87.744 16.65 Q 87.668 16.895 87.499 17.253 L 87.499 17.253 L 87.499 17.253 Q 87.995 16.569 88.609 16.205 L 88.609 16.205 L 88.609 16.205 Q 89.224 15.842 89.606 15.96 L 89.606 15.96 L 89.606 15.96 Q 90.462 16.224 90.054 17.547 L 90.054 17.547 L 90.054 17.547 Q 90.526 17.022 91.006 16.781 L 91.006 16.781 L 91.006 16.781 Q 91.487 16.54 91.808 16.639 L 91.808 16.639 L 91.808 16.639 Q 92.274 16.783 92.379 17.121 L 92.379 17.121 L 92.379 17.121 Q 92.484 17.459 92.337 17.937 L 92.337 17.937 L 92.337 17.937 Q 92.189 18.414 91.774 19.232 L 91.774 19.232 L 91.774 19.232 Q 91.359 20.05 91.237 20.444 L 91.237 20.444 L 91.237 20.444 Q 91.116 20.838 91.16 21.048 L 91.16 21.048 L 91.16 21.048 Q 91.204 21.258 91.401 21.461 L 91.401 21.461 L 91.401 21.461 Q 91.299 21.438 91.116 21.382 L 91.116 21.382 L 91.116 21.382 Q 90.626 21.231 90.456 20.956 L 90.456 20.956 L 90.456 20.956 Q 90.285 20.682 90.436 20.193 L 90.436 20.193 L 90.436 20.193 Q 90.523 19.91 90.941 19.097 L 90.941 19.097 L 90.941 19.097 Q 91.359 18.284 91.484 17.879 L 91.484 17.879 L 91.484 17.879 Q 91.64 17.374 91.288 17.266 L 91.288 17.266 L 91.288 17.266 Q 91.089 17.204 90.794 17.348 L 90.794 17.348 L 90.794 17.348 Q 90.498 17.491 90.184 17.792 Z  M 94.759 19.524 L 94.759 19.524 L 94.759 19.524 Q 94.383 19.8 94.099 20.133 L 94.099 20.133 L 94.099 20.133 Q 93.816 20.467 93.66 20.818 L 93.66 20.818 L 93.66 20.818 Q 93.505 21.169 93.553 21.484 L 93.553 21.484 L 93.553 21.484 Q 93.602 21.799 93.895 21.928 L 93.895 21.928 L 93.895 21.928 Q 94.304 22.11 94.862 21.819 L 94.862 21.819 L 94.862 21.819 Q 95.42 21.528 95.897 20.974 L 95.897 20.974 L 95.897 20.974 Q 96.374 20.419 96.616 19.875 L 96.616 19.875 L 96.616 19.875 Q 96.857 19.33 96.969 18.959 L 96.969 18.959 L 96.969 18.959 Q 97.151 19.022 97.195 19.042 L 97.195 19.042 L 97.195 19.042 Q 97.816 19.317 97.535 19.953 L 97.535 19.953 L 97.535 19.953 Q 97.473 20.092 96.858 21.006 L 96.858 21.006 L 96.858 21.006 Q 96.244 21.919 95.98 22.515 L 95.98 22.515 L 95.98 22.515 Q 95.716 23.111 95.738 23.673 L 95.738 23.673 L 95.738 23.673 Q 95.32 23.373 95.249 22.97 L 95.249 22.97 L 95.249 22.97 Q 95.178 22.567 95.437 21.982 L 95.437 21.982 L 95.437 21.982 Q 95.483 21.879 95.642 21.6 L 95.642 21.6 L 95.642 21.6 Q 95.136 22.207 94.451 22.411 L 94.451 22.411 L 94.451 22.411 Q 93.766 22.615 93.287 22.403 L 93.287 22.403 L 93.287 22.403 Q 92.807 22.191 92.675 21.699 L 92.675 21.699 L 92.675 21.699 Q 92.543 21.207 92.827 20.567 L 92.827 20.567 L 92.827 20.567 Q 93.11 19.927 93.618 19.422 L 93.618 19.422 L 93.618 19.422 Q 94.127 18.916 94.803 18.682 L 94.803 18.682 L 94.803 18.682 Q 95.48 18.448 96.073 18.711 L 96.073 18.711 L 96.073 18.711 Q 96.329 18.824 96.59 19.063 L 96.59 19.063 L 96.59 19.063 Q 96.11 18.981 95.622 19.115 L 95.622 19.115 L 95.622 19.115 Q 95.134 19.249 94.759 19.524 Z  M 98.342 23.048 L 98.342 23.048 Q 98.125 23.448 98.142 23.785 L 98.142 23.785 L 98.142 23.785 Q 98.159 24.122 98.486 24.3 L 98.486 24.3 L 98.486 24.3 Q 98.813 24.477 99.242 24.332 L 99.242 24.332 L 99.242 24.332 Q 99.671 24.188 100.105 23.781 L 100.105 23.781 L 100.105 23.781 Q 100.54 23.375 100.966 22.883 L 100.966 22.883 L 100.966 22.883 Q 101.392 22.391 101.792 21.789 L 101.792 21.789 L 101.792 21.789 Q 102.535 20.672 102.909 19.983 L 102.909 19.983 L 102.909 19.983 Q 103.283 19.293 103.41 18.925 L 103.41 18.925 L 103.41 18.925 Q 104.008 19.55 103.344 20.774 L 103.344 20.774 L 103.344 20.774 Q 103.073 21.273 102.017 22.657 L 102.017 22.657 L 102.017 22.657 Q 100.961 24.041 100.584 24.737 L 100.584 24.737 L 100.584 24.737 Q 100.206 25.433 100.006 25.953 L 100.006 25.953 L 100.006 25.953 Q 99.678 25.602 99.717 25.177 L 99.717 25.177 L 99.717 25.177 Q 99.756 24.752 100.046 24.218 L 100.046 24.218 L 100.046 24.218 Q 99.5 24.704 98.88 24.823 L 98.88 24.823 L 98.88 24.823 Q 98.261 24.942 97.8 24.692 L 97.8 24.692 L 97.8 24.692 Q 97.339 24.442 97.247 23.933 L 97.247 23.933 L 97.247 23.933 Q 97.155 23.423 97.529 22.734 L 97.529 22.734 L 97.529 22.734 Q 98.151 21.588 99.153 21.176 L 99.153 21.176 L 99.153 21.176 Q 100.155 20.764 101.048 21.248 L 101.048 21.248 L 101.048 21.248 Q 101.301 21.386 101.547 21.619 L 101.547 21.619 L 101.547 21.619 Q 101.027 21.437 100.501 21.502 L 100.501 21.502 L 100.501 21.502 Q 99.974 21.567 99.565 21.818 L 99.565 21.818 L 99.565 21.818 Q 98.731 22.33 98.342 23.048 L 98.342 23.048 L 98.342 23.048 Z  M 105.276 24.327 L 105.276 24.327 L 105.276 24.327 Q 104.878 24.059 104.294 24.331 L 104.294 24.331 L 104.294 24.331 Q 103.71 24.603 103.201 25.157 L 103.201 25.157 L 103.387 25.282 L 103.387 25.282 Q 103.739 25.519 104.064 25.594 L 104.064 25.594 L 104.064 25.594 Q 104.39 25.669 104.637 25.604 L 104.637 25.604 L 104.637 25.604 Q 105.108 25.478 105.367 25.093 L 105.367 25.093 L 105.367 25.093 Q 105.515 24.874 105.501 24.672 L 105.501 24.672 L 105.501 24.672 Q 105.488 24.47 105.276 24.327 Z  M 104.4 27.644 L 104.4 27.644 Q 103.759 27.936 103.26 27.889 L 103.26 27.889 L 103.26 27.889 Q 102.761 27.842 102.28 27.518 L 102.28 27.518 L 102.28 27.518 Q 101.799 27.193 101.727 26.527 L 101.727 26.527 L 101.727 26.527 Q 101.655 25.861 102.174 25.092 L 102.174 25.092 L 102.174 25.092 Q 102.765 24.216 103.701 23.844 L 103.701 23.844 L 103.701 23.844 Q 104.157 23.669 104.67 23.716 L 104.67 23.716 L 104.67 23.716 Q 105.183 23.763 105.634 24.067 L 105.634 24.067 L 105.634 24.067 Q 106.629 24.738 105.981 25.7 L 105.981 25.7 L 105.981 25.7 Q 105.592 26.277 104.923 26.303 L 104.923 26.303 L 104.923 26.303 Q 104.253 26.33 103.663 25.932 L 103.663 25.932 L 103.663 25.932 Q 103.272 25.668 103.009 25.385 L 103.009 25.385 L 103.009 25.385 Q 102.958 25.447 102.864 25.586 L 102.864 25.586 L 102.864 25.586 Q 102.072 26.76 102.769 27.229 L 102.769 27.229 L 102.769 27.229 Q 103.425 27.672 104.275 27.3 L 104.275 27.3 L 104.275 27.3 Q 104.498 27.498 104.4 27.644 L 104.4 27.644 L 104.4 27.644 Z  M 63.994 15.362 L 63.994 15.362 Q 64.167 14.436 64.65 13.764 L 64.65 13.764 L 64.65 13.764 Q 65.133 13.093 65.611 13.045 L 65.611 13.045 L 65.611 13.045 Q 66.089 12.997 66.317 13.268 L 66.317 13.268 L 66.317 13.268 Q 66.545 13.538 66.595 14.036 L 66.595 14.036 L 66.595 14.036 Q 66.645 14.533 66.58 15.448 L 66.58 15.448 L 66.58 15.448 Q 66.514 16.363 66.556 16.773 L 66.556 16.773 L 66.556 16.773 Q 66.597 17.183 66.719 17.36 L 66.719 17.36 L 66.719 17.36 Q 66.841 17.537 67.101 17.647 L 67.101 17.647 L 67.101 17.647 Q 66.999 17.666 66.808 17.685 L 66.808 17.685 L 66.808 17.685 Q 66.298 17.736 66.034 17.549 L 66.034 17.549 L 66.034 17.549 Q 65.77 17.363 65.719 16.853 L 65.719 16.853 L 65.719 16.853 Q 65.69 16.559 65.759 15.647 L 65.759 15.647 L 65.759 15.647 Q 65.829 14.736 65.786 14.314 L 65.786 14.314 L 65.786 14.314 Q 65.734 13.788 65.368 13.825 L 65.368 13.825 L 65.368 13.825 Q 65.153 13.847 64.913 14.1 L 64.913 14.1 L 64.913 14.1 Q 64.673 14.353 64.469 14.763 L 64.469 14.763 L 64.469 14.763 Q 64.265 15.174 64.161 15.783 L 64.161 15.783 L 64.161 15.783 Q 64.057 16.393 64.115 16.97 L 64.115 16.97 L 64.115 16.97 Q 64.173 17.547 64.248 17.821 L 64.248 17.821 L 64.248 17.821 Q 64.059 17.856 64.035 17.858 L 64.035 17.858 L 64.035 17.858 Q 63.661 17.896 63.466 17.754 L 63.466 17.754 L 63.466 17.754 Q 63.271 17.613 63.237 17.275 L 63.237 17.275 L 63.237 17.275 Q 63.203 16.936 63.25 15.959 L 63.25 15.959 L 63.25 15.959 Q 63.375 12.955 63.221 11.419 L 63.221 11.419 L 63.221 11.419 Q 63.152 10.727 63.032 10.497 L 63.032 10.497 L 63.032 10.497 Q 63.511 10.618 63.73 10.926 L 63.73 10.926 L 63.73 10.926 Q 63.95 11.233 64.008 11.807 L 64.008 11.807 L 64.008 11.807 Q 64.048 12.205 64.02 13.494 L 64.02 13.494 L 64.02 13.494 Q 63.992 14.783 63.994 15.362 L 63.994 15.362 L 63.994 15.362 Z  M 69.323 14.327 L 69.323 14.327 L 69.323 14.327 Q 69.098 14.735 68.981 15.157 L 68.981 15.157 L 68.981 15.157 Q 68.864 15.579 68.871 15.963 L 68.871 15.963 L 68.871 15.963 Q 68.877 16.347 69.053 16.612 L 69.053 16.612 L 69.053 16.612 Q 69.23 16.877 69.55 16.872 L 69.55 16.872 L 69.55 16.872 Q 69.998 16.864 70.382 16.366 L 70.382 16.366 L 70.382 16.366 Q 70.765 15.867 70.966 15.164 L 70.966 15.164 L 70.966 15.164 Q 71.166 14.46 71.156 13.864 L 71.156 13.864 L 71.156 13.864 Q 71.146 13.268 71.092 12.885 L 71.092 12.885 L 71.092 12.885 Q 71.283 12.866 71.331 12.865 L 71.331 12.865 L 71.331 12.865 Q 72.011 12.854 72.023 13.55 L 72.023 13.55 L 72.023 13.55 Q 72.025 13.702 71.851 14.789 L 71.851 14.789 L 71.851 14.789 Q 71.678 15.876 71.688 16.528 L 71.688 16.528 L 71.688 16.528 Q 71.699 17.18 71.956 17.68 L 71.956 17.68 L 71.956 17.68 Q 71.45 17.584 71.216 17.248 L 71.216 17.248 L 71.216 17.248 Q 70.983 16.912 70.972 16.272 L 70.972 16.272 L 70.972 16.272 Q 70.97 16.16 70.997 15.839 L 70.997 15.839 L 70.997 15.839 Q 70.794 16.603 70.257 17.076 L 70.257 17.076 L 70.257 17.076 Q 69.721 17.549 69.197 17.558 L 69.197 17.558 L 69.197 17.558 Q 68.673 17.566 68.347 17.176 L 68.347 17.176 L 68.347 17.176 Q 68.02 16.785 68.009 16.085 L 68.009 16.085 L 68.009 16.085 Q 67.997 15.385 68.246 14.713 L 68.246 14.713 L 68.246 14.713 Q 68.494 14.041 69.01 13.544 L 69.01 13.544 L 69.01 13.544 Q 69.526 13.047 70.174 13.037 L 70.174 13.037 L 70.174 13.037 Q 70.454 13.032 70.792 13.138 L 70.792 13.138 L 70.792 13.138 Q 70.322 13.266 69.935 13.593 L 69.935 13.593 L 69.935 13.593 Q 69.549 13.919 69.323 14.327 Z  M 77.359 14.407 L 77.359 14.407 L 77.359 14.407 Q 77.322 14.773 77.074 15.685 L 77.074 15.685 L 77.074 15.685 Q 76.826 16.597 76.784 17.019 L 76.784 17.019 L 76.784 17.019 Q 76.741 17.441 76.826 17.638 L 76.826 17.638 L 76.826 17.638 Q 76.911 17.835 77.144 17.995 L 77.144 17.995 L 77.144 17.995 Q 77.04 17.993 76.849 17.974 L 76.849 17.974 L 76.849 17.974 Q 76.308 17.92 76.101 17.694 L 76.101 17.694 L 76.101 17.694 Q 75.894 17.468 75.947 16.943 L 75.947 16.943 L 75.947 16.943 Q 75.977 16.648 76.226 15.769 L 76.226 15.769 L 76.226 15.769 Q 76.475 14.889 76.517 14.467 L 76.517 14.467 L 76.517 14.467 Q 76.57 13.942 76.251 13.91 L 76.251 13.91 L 76.251 13.91 Q 75.742 13.859 75.106 14.704 L 75.106 14.704 L 75.106 14.704 Q 74.471 15.549 74.344 16.814 L 74.344 16.814 L 74.344 16.814 Q 74.294 17.316 74.314 17.599 L 74.314 17.599 L 74.314 17.599 Q 74.105 17.594 74.065 17.59 L 74.065 17.59 L 74.065 17.59 Q 73.365 17.52 73.433 16.836 L 73.433 16.836 L 73.433 16.836 Q 73.449 16.676 73.723 15.627 L 73.723 15.627 L 73.723 15.627 Q 73.997 14.577 74.061 13.944 L 74.061 13.944 L 74.061 13.944 Q 74.124 13.311 74.042 12.764 L 74.042 12.764 L 74.042 12.764 Q 74.494 12.994 74.647 13.351 L 74.647 13.351 L 74.647 13.351 Q 74.8 13.708 74.757 14.142 L 74.757 14.142 L 74.757 14.142 Q 74.713 14.576 74.56 15.14 L 74.56 15.14 L 74.56 15.14 Q 74.913 14.266 75.536 13.706 L 75.536 13.706 L 75.536 13.706 Q 76.159 13.145 76.645 13.194 L 76.645 13.194 L 76.645 13.194 Q 77.472 13.277 77.359 14.407 Z  M 79.257 16.49 L 79.257 16.49 Q 79.166 16.937 79.282 17.255 L 79.282 17.255 L 79.282 17.255 Q 79.397 17.572 79.762 17.645 L 79.762 17.645 L 79.762 17.645 Q 80.127 17.719 80.494 17.455 L 80.494 17.455 L 80.494 17.455 Q 80.862 17.19 81.158 16.675 L 81.158 16.675 L 81.158 16.675 Q 81.454 16.159 81.717 15.564 L 81.717 15.564 L 81.717 15.564 Q 81.981 14.968 82.186 14.275 L 82.186 14.275 L 82.186 14.275 Q 82.568 12.989 82.724 12.221 L 82.724 12.221 L 82.724 12.221 Q 82.879 11.452 82.892 11.063 L 82.892 11.063 L 82.892 11.063 Q 83.648 11.485 83.372 12.85 L 83.372 12.85 L 83.372 12.85 Q 83.259 13.406 82.656 15.039 L 82.656 15.039 L 82.656 15.039 Q 82.052 16.672 81.895 17.448 L 81.895 17.448 L 81.895 17.448 Q 81.738 18.225 81.7 18.78 L 81.7 18.78 L 81.7 18.78 Q 81.283 18.541 81.196 18.123 L 81.196 18.123 L 81.196 18.123 Q 81.109 17.706 81.229 17.11 L 81.229 17.11 L 81.229 17.11 Q 80.85 17.735 80.292 18.03 L 80.292 18.03 L 80.292 18.03 Q 79.735 18.326 79.221 18.222 L 79.221 18.222 L 79.221 18.222 Q 78.707 18.118 78.47 17.658 L 78.47 17.658 L 78.47 17.658 Q 78.232 17.197 78.388 16.429 L 78.388 16.429 L 78.388 16.429 Q 78.646 15.151 79.483 14.463 L 79.483 14.463 L 79.483 14.463 Q 80.32 13.775 81.316 13.977 L 81.316 13.977 L 81.316 13.977 Q 81.598 14.034 81.902 14.185 L 81.902 14.185 L 81.902 14.185 Q 81.352 14.163 80.867 14.38 L 80.867 14.38 L 80.867 14.38 Q 80.383 14.596 80.065 14.956 L 80.065 14.956 L 80.065 14.956 Q 79.419 15.691 79.257 16.49 L 79.257 16.49 L 79.257 16.49 Z  M 36.456 28.927 L 36.456 28.927 L 36.456 28.927 Q 35.771 29.492 34.843 29.323 L 34.843 29.323 L 34.843 29.323 Q 33.916 29.154 33.041 28.092 L 33.041 28.092 L 33.041 28.092 Q 32.395 27.308 32.116 26.454 L 32.116 26.454 L 32.116 26.454 Q 31.838 25.6 32.04 24.745 L 32.04 24.745 L 32.04 24.745 Q 32.241 23.889 32.92 23.329 L 32.92 23.329 L 32.92 23.329 Q 33.599 22.77 34.18 22.845 L 34.18 22.845 L 34.18 22.845 Q 34.761 22.921 35.112 23.347 L 35.112 23.347 L 35.112 23.347 Q 35.463 23.773 35.459 24.208 L 35.459 24.208 L 35.459 24.208 Q 35.454 24.642 35.108 24.927 L 35.108 24.927 L 35.108 24.927 Q 34.997 25.018 34.796 25.101 L 34.796 25.101 L 34.796 25.101 Q 34.815 24.836 34.702 24.478 L 34.702 24.478 L 34.702 24.478 Q 34.589 24.121 34.365 23.849 L 34.365 23.849 L 34.365 23.849 Q 34.141 23.578 33.836 23.503 L 33.836 23.503 L 33.836 23.503 Q 33.53 23.428 33.216 23.687 L 33.216 23.687 L 33.216 23.687 Q 32.74 24.079 32.69 24.779 L 32.69 24.779 L 32.69 24.779 Q 32.639 25.479 32.922 26.205 L 32.922 26.205 L 32.922 26.205 Q 33.204 26.931 33.703 27.536 L 33.703 27.536 L 33.703 27.536 Q 34.405 28.388 35.081 28.541 L 35.081 28.541 L 35.081 28.541 Q 35.756 28.695 36.275 28.267 L 36.275 28.267 L 36.275 28.267 Q 36.621 27.982 36.812 27.472 L 36.812 27.472 L 36.812 27.472 Q 37.003 26.962 36.912 26.374 L 36.912 26.374 L 36.912 26.374 Q 37.005 26.297 37.131 26.287 L 37.131 26.287 L 37.131 26.287 Q 37.257 26.276 37.303 26.332 L 37.303 26.332 L 37.303 26.332 Q 37.496 27.271 37.18 27.957 L 37.18 27.957 L 37.18 27.957 Q 36.906 28.555 36.456 28.927 Z  M 40.184 23.06 L 40.184 23.06 L 40.184 23.06 Q 39.748 22.414 39.395 22.241 L 39.395 22.241 L 39.395 22.241 Q 39.043 22.069 38.741 22.273 L 38.741 22.273 L 38.741 22.273 Q 38.439 22.476 38.333 22.977 L 38.333 22.977 L 38.333 22.977 Q 38.227 23.478 38.344 24.031 L 38.344 24.031 L 38.344 24.031 Q 38.461 24.584 38.777 25.051 L 38.777 25.051 L 38.777 25.051 Q 39.092 25.519 39.501 25.74 L 39.501 25.74 L 39.501 25.74 Q 39.911 25.961 40.276 25.715 L 40.276 25.715 L 40.276 25.715 Q 40.793 25.366 40.707 24.536 L 40.707 24.536 L 40.707 24.536 Q 40.62 23.707 40.184 23.06 Z  M 38.088 24.102 L 38.088 24.102 Q 37.857 23.216 38.064 22.599 L 38.064 22.599 L 38.064 22.599 Q 38.27 21.982 38.711 21.685 L 38.711 21.685 L 38.711 21.685 Q 39.152 21.387 39.706 21.578 L 39.706 21.578 L 39.706 21.578 Q 40.259 21.77 40.707 22.433 L 40.707 22.433 L 40.707 22.433 Q 41.199 23.163 41.34 23.974 L 41.34 23.974 L 41.34 23.974 Q 41.494 24.874 41.087 25.544 L 41.087 25.544 L 41.087 25.544 Q 40.871 25.911 40.487 26.171 L 40.487 26.171 L 40.487 26.171 Q 39.949 26.533 39.243 26.358 L 39.243 26.358 L 39.243 26.358 Q 38.536 26.183 37.975 25.351 L 37.975 25.351 L 37.975 25.351 Q 37.414 24.518 37.361 23.667 L 37.361 23.667 L 37.361 23.667 Q 37.307 22.815 37.763 22.16 L 37.763 22.16 L 37.763 22.16 Q 37.896 22.071 37.985 22.203 L 37.985 22.203 L 37.985 22.203 Q 37.619 23.077 38.088 24.102 L 38.088 24.102 L 38.088 24.102 Z  M 42.965 21.309 L 42.965 21.309 Q 42.899 20.499 43.149 19.912 L 43.149 19.912 L 43.149 19.912 Q 43.4 19.326 43.833 19.091 L 43.833 19.091 L 43.833 19.091 Q 44.265 18.857 44.735 19.052 L 44.735 19.052 L 44.735 19.052 Q 45.205 19.248 45.564 19.909 L 45.564 19.909 L 45.564 19.909 Q 46.132 20.957 45.982 21.998 L 45.982 21.998 L 45.982 21.998 Q 45.833 23.039 45.059 23.459 L 45.059 23.459 L 45.059 23.459 Q 44.785 23.608 44.436 23.651 L 44.436 23.651 L 44.436 23.651 Q 44.906 23.26 45.069 22.612 L 45.069 22.612 L 45.069 22.612 Q 45.231 21.964 45.142 21.371 L 45.142 21.371 L 45.142 21.371 Q 45.052 20.778 44.837 20.381 L 44.837 20.381 L 44.837 20.381 Q 44.621 19.983 44.366 19.849 L 44.366 19.849 L 44.366 19.849 Q 44.111 19.714 43.851 19.855 L 43.851 19.855 L 43.851 19.855 Q 43.366 20.118 43.278 20.862 L 43.278 20.862 L 43.278 20.862 Q 43.19 21.606 43.486 22.638 L 43.486 22.638 L 43.486 22.638 Q 43.781 23.67 44.313 24.651 L 44.313 24.651 L 44.313 24.651 Q 44.845 25.632 45.379 26.28 L 45.379 26.28 L 45.379 26.28 Q 44.939 26.491 44.601 26.456 L 44.601 26.456 L 44.601 26.456 Q 44.263 26.421 44.015 25.964 L 44.015 25.964 L 44.015 25.964 Q 43.924 25.795 43.263 24.065 L 43.263 24.065 L 43.263 24.065 Q 42.602 22.334 42.129 21.462 L 42.129 21.462 L 42.129 21.462 Q 41.656 20.59 41.226 20.05 L 41.226 20.05 L 41.226 20.05 Q 41.763 19.932 42.162 20.248 L 42.162 20.248 L 42.162 20.248 Q 42.561 20.564 42.965 21.309 L 42.965 21.309 L 42.965 21.309 Z  M 47.957 18.958 L 47.957 18.958 Q 47.984 18.145 48.3 17.591 L 48.3 17.591 L 48.3 17.591 Q 48.616 17.037 49.073 16.854 L 49.073 16.854 L 49.073 16.854 Q 49.529 16.67 49.974 16.918 L 49.974 16.918 L 49.974 16.918 Q 50.419 17.166 50.699 17.864 L 50.699 17.864 L 50.699 17.864 Q 51.144 18.97 50.876 19.987 L 50.876 19.987 L 50.876 19.987 Q 50.608 21.005 49.792 21.333 L 49.792 21.333 L 49.792 21.333 Q 49.502 21.449 49.15 21.453 L 49.15 21.453 L 49.15 21.453 Q 49.662 21.118 49.898 20.493 L 49.898 20.493 L 49.898 20.493 Q 50.134 19.868 50.113 19.268 L 50.113 19.268 L 50.113 19.268 Q 50.092 18.669 49.923 18.249 L 49.923 18.249 L 49.923 18.249 Q 49.754 17.83 49.516 17.667 L 49.516 17.667 L 49.516 17.667 Q 49.278 17.504 49.004 17.615 L 49.004 17.615 L 49.004 17.615 Q 48.492 17.82 48.319 18.549 L 48.319 18.549 L 48.319 18.549 Q 48.147 19.278 48.322 20.337 L 48.322 20.337 L 48.322 20.337 Q 48.498 21.396 48.914 22.432 L 48.914 22.432 L 48.914 22.432 Q 49.331 23.467 49.787 24.172 L 49.787 24.172 L 49.787 24.172 Q 49.325 24.332 48.993 24.258 L 48.993 24.258 L 48.993 24.258 Q 48.662 24.184 48.468 23.702 L 48.468 23.702 L 48.468 23.702 Q 48.396 23.524 47.938 21.729 L 47.938 21.729 L 47.938 21.729 Q 47.479 19.935 47.109 19.014 L 47.109 19.014 L 47.109 19.014 Q 46.739 18.094 46.374 17.508 L 46.374 17.508 L 46.374 17.508 Q 46.921 17.452 47.281 17.812 L 47.281 17.812 L 47.281 17.812 Q 47.641 18.171 47.957 18.958 L 47.957 18.958 L 47.957 18.958 Z  M 53.6 15.645 L 53.6 15.645 L 53.6 15.645 Q 53.141 15.787 52.987 16.412 L 52.987 16.412 L 52.987 16.412 Q 52.832 17.037 52.944 17.781 L 52.944 17.781 L 53.158 17.715 L 53.158 17.715 Q 53.564 17.59 53.826 17.384 L 53.826 17.384 L 53.826 17.384 Q 54.089 17.177 54.193 16.944 L 54.193 16.944 L 54.193 16.944 Q 54.39 16.498 54.254 16.055 L 54.254 16.055 L 54.254 16.055 Q 54.176 15.803 54.01 15.686 L 54.01 15.686 L 54.01 15.686 Q 53.844 15.57 53.6 15.645 Z  M 55.633 18.409 L 55.633 18.409 Q 55.458 19.091 55.108 19.45 L 55.108 19.45 L 55.108 19.45 Q 54.759 19.809 54.204 19.98 L 54.204 19.98 L 54.204 19.98 Q 53.65 20.151 53.086 19.789 L 53.086 19.789 L 53.086 19.789 Q 52.523 19.427 52.249 18.54 L 52.249 18.54 L 52.249 18.54 Q 51.938 17.531 52.235 16.569 L 52.235 16.569 L 52.235 16.569 Q 52.385 16.104 52.744 15.734 L 52.744 15.734 L 52.744 15.734 Q 53.103 15.363 53.622 15.203 L 53.622 15.203 L 53.622 15.203 Q 54.769 14.849 55.111 15.958 L 55.111 15.958 L 55.111 15.958 Q 55.316 16.623 54.917 17.16 L 54.917 17.16 L 54.917 17.16 Q 54.518 17.698 53.837 17.908 L 53.837 17.908 L 53.837 17.908 Q 53.386 18.047 53.001 18.074 L 53.001 18.074 L 53.001 18.074 Q 53.017 18.153 53.066 18.313 L 53.066 18.313 L 53.066 18.313 Q 53.484 19.666 54.287 19.419 L 54.287 19.419 L 54.287 19.419 Q 55.043 19.185 55.286 18.29 L 55.286 18.29 L 55.286 18.29 Q 55.581 18.241 55.633 18.409 L 55.633 18.409 L 55.633 18.409 Z  M 57.543 16.289 L 57.543 16.289 Q 57.619 15.213 57.918 14.651 L 57.918 14.651 L 57.918 14.651 Q 58.216 14.088 58.557 14.019 L 58.557 14.019 L 58.557 14.019 Q 58.899 13.95 59.123 14.17 L 59.123 14.17 L 59.123 14.17 Q 59.347 14.39 59.426 14.782 L 59.426 14.782 L 59.426 14.782 Q 59.505 15.174 59.359 15.502 L 59.359 15.502 L 59.359 15.502 Q 59.213 15.829 58.821 15.909 L 58.821 15.909 L 58.821 15.909 Q 58.696 15.934 58.622 15.933 L 58.622 15.933 L 58.622 15.933 Q 58.811 15.494 58.73 15.094 L 58.73 15.094 L 58.73 15.094 Q 58.673 14.812 58.446 14.858 L 58.446 14.858 L 58.446 14.858 Q 58.265 14.895 58.104 15.148 L 58.104 15.148 L 58.104 15.148 Q 57.943 15.401 57.831 15.815 L 57.831 15.815 L 57.831 15.815 Q 57.719 16.229 57.716 16.859 L 57.716 16.859 L 57.716 16.859 Q 57.712 17.488 57.853 18.186 L 57.853 18.186 L 57.853 18.186 Q 57.869 18.264 58.027 18.844 L 58.027 18.844 L 58.027 18.844 Q 57.827 18.901 57.795 18.907 L 57.795 18.907 L 57.795 18.907 Q 57.105 19.047 56.969 18.373 L 56.969 18.373 L 56.969 18.373 Q 56.937 18.216 56.889 17.132 L 56.889 17.132 L 56.889 17.132 Q 56.841 16.048 56.715 15.424 L 56.715 15.424 L 56.715 15.424 Q 56.589 14.801 56.35 14.303 L 56.35 14.303 L 56.35 14.303 Q 56.849 14.389 57.101 14.685 L 57.101 14.685 L 57.101 14.685 Q 57.352 14.981 57.442 15.424 L 57.442 15.424 L 57.442 15.424 Q 57.531 15.867 57.543 16.289 L 57.543 16.289 L 57.543 16.289 Z " fill="rgb(70,70,70)">
			        <animateTransform attributeName="transform"
                          attributeType="XML"
                          type="rotate"
                          from="0 70 70"
                          to="360 70 70"
                          dur="1s"
                          repeatCount="indefinite"/>
			
			</path>
			<circle vector-effect="non-scaling-stroke" cx="70" cy="73.93937393164973" r="55.94507786427337" fill="none"/>
			<circle vector-effect="non-scaling-stroke" cx="70" cy="73.93937393164973" r="41.958808398205036" fill="none"/>
			<g>
				<path d=" M 42.465 81.687 C 42.404 82.151 42.717 82.575 43.171 82.656 C 43.656 82.736 44.261 82.656 44.614 81.919 C 46.805 77.458 48.944 72.977 51.054 68.475 C 51.074 68.435 51.084 68.395 51.104 68.354 C 51.276 67.739 50.64 67.194 50.044 67.405 C 49.903 67.456 49.772 67.506 49.651 67.577 C 49.368 67.739 49.197 68.142 49.045 68.465 C 47.35 71.978 45.704 75.51 43.938 78.982 C 43.545 79.83 43.171 80.365 42.828 80.708 C 42.697 80.839 42.606 81 42.555 81.182 C 42.515 81.344 42.485 81.525 42.465 81.687 Z " fill="rgb(70,70,70)"/>
				<path d=" M 101.447 82.918 C 100.872 81.253 100.064 79.658 99.499 77.993 C 98.742 75.752 98.207 73.441 97.4 71.221 C 96.663 69.212 95.634 67.315 94.816 65.326 C 94.19 63.802 93.746 62.208 93.131 60.694 C 92.091 58.16 89.972 57.232 87.438 58.191 C 86.288 58.625 85.208 59.23 84.087 59.735 C 82.301 60.532 80.545 61.41 78.708 62.026 C 78.244 62.177 77.618 61.844 77.012 61.602 C 76.79 61.511 76.679 61.269 76.75 61.047 C 76.911 60.563 77.002 60.038 77.335 59.684 C 78.758 58.171 79.152 57.626 78.738 56.283 C 78.234 54.648 76.609 52.327 75.327 51.893 C 71.855 50.692 67.132 53.185 67.606 57.262 C 67.747 58.483 67.777 59.735 67.727 60.956 C 67.666 62.561 66.768 63.146 65.456 62.319 C 62.459 60.431 59.511 58.443 56.615 56.404 C 55.232 55.425 52.608 55.122 51.377 56.202 C 50.529 56.949 49.701 57.827 49.176 58.806 C 47.208 62.49 45.291 66.204 43.484 69.969 C 42.182 72.674 41.253 75.56 39.83 78.195 C 38.549 80.567 37.58 82.969 37.257 85.643 C 36.833 89.166 36.994 92.617 39.124 95.625 C 39.507 96.17 40.295 97.068 41.173 96.584 C 41.819 96.231 41.607 95.484 41.496 95.231 C 41.001 94.061 40.254 93.334 39.982 92.133 C 39.578 90.306 39.336 88.368 39.487 86.521 C 39.588 85.229 41.465 78.437 41.607 78.094 C 42.192 76.701 42.767 75.318 43.434 73.966 C 45.533 69.666 47.612 65.347 49.822 61.097 C 50.448 59.886 51.427 58.968 52.537 58.261 C 54.526 56.99 56.14 57.948 57.735 59.109 C 59.935 60.704 61.853 62.702 64.588 63.5 C 65.809 63.853 65.9 64.761 64.81 65.458 C 63.115 66.537 62.166 68.112 61.702 69.969 C 61.167 72.129 60.793 74.329 60.379 76.509 C 59.643 80.365 59.966 83.857 63.559 86.35 C 64.336 86.885 64.951 87.763 64.517 88.853 C 63.205 92.163 61.399 95.141 58.351 97.139 C 56.978 98.037 56.201 99.198 55.939 100.772 C 55.747 101.943 56.393 102.801 57.574 102.771 C 58.179 102.761 59.431 101.681 60.046 101.63 C 60.642 101.58 61.035 102.417 61.449 102.73 C 63.064 103.972 63.367 103.296 64.861 101.862 C 65.688 101.065 66.132 101.348 66.869 102.256 C 67.909 103.548 68.918 104.042 70.361 103.255 C 71.441 102.67 72.42 102.72 73.48 103.265 C 75.902 104.517 76.084 103.841 78.123 102.145 C 78.627 101.721 79.576 102.074 80.242 102.175 C 81.332 102.337 82.039 102.145 82.412 101.085 C 82.715 100.237 83.23 99.844 84.198 100.076 C 85.248 100.338 85.712 99.703 85.823 98.744 C 85.985 97.381 85.167 96.059 83.976 95.363 C 82.543 94.525 80.918 93.788 79.869 92.577 C 78.97 91.548 78.708 89.923 78.314 88.53 C 78.203 88.126 78.496 87.359 78.849 87.127 C 81.201 85.522 81.766 83.12 82.129 80.506 C 82.402 78.548 82.513 73.966 81.625 71.544 C 82.806 73.855 84.774 80.667 85.753 83.009 C 85.995 83.574 86.358 84.119 86.782 84.563 C 86.974 84.765 87.569 84.876 87.741 84.735 C 87.983 84.533 88.165 84.028 88.094 83.705 C 87.953 82.999 87.64 82.323 87.398 81.636 C 85.793 77.185 84.168 72.745 82.614 68.284 C 82.331 67.476 81.867 67.012 81.13 67.315 C 80.192 67.698 81.13 70.242 81.13 70.242 C 81.13 70.242 79.314 66.608 78.385 66.356 C 77.85 65.629 76.982 65.407 76.235 66.315 C 76.922 67.022 77.759 67.557 78.153 68.324 C 80.303 71.029 81.453 74.935 80.807 79.214 C 80.474 81.424 80.03 83.705 78.082 85.32 C 77.507 85.795 76.962 86.683 76.962 87.379 C 76.911 91.719 77.386 94.333 81.796 95.807 C 82.099 95.908 82.432 96.039 82.634 96.261 C 82.836 96.493 83.199 96.846 83.542 97.189 C 83.946 97.603 83.643 98.713 83.169 98.401 C 82.584 98.017 81.867 98.199 81.645 98.986 C 81.393 99.894 80.373 100.379 79.364 99.793 C 78.133 99.087 77.022 99.884 76.074 100.883 C 75.357 101.63 74.408 102.357 73.379 101.247 C 72.228 100.015 71.027 100.015 69.735 100.964 C 69.079 101.438 68.726 101.216 68.353 100.54 C 67.313 98.623 66.112 98.441 64.215 99.703 C 63.972 99.864 62.923 101.136 62.741 100.954 C 61.591 99.803 59.834 98.643 58.129 100.692 C 58.109 100.732 58.119 99.632 59.491 98.522 C 61.944 96.543 63.861 94 65.173 91.124 C 65.416 90.599 65.698 90.094 66.031 89.62 C 67.273 87.874 67.051 86.309 65.224 85.239 C 62.872 83.867 61.681 81.879 61.752 79.184 C 61.792 77.599 61.914 76.005 62.125 74.42 C 62.58 70.958 63.851 67.92 66.839 65.811 C 67.293 65.488 67.899 64.933 68.262 64.458 C 69.645 62.642 69.382 60.472 69.19 58.443 C 68.867 55.022 70.099 53.013 73.995 53.185 C 75.014 53.225 75.569 53.659 76.205 54.487 C 76.831 55.304 77.103 56.818 76.286 57.686 C 75.044 59.018 75.145 60.31 75.357 61.834 C 75.569 63.348 76.326 63.974 77.82 63.691 C 79.243 63.419 80.636 62.934 81.978 62.399 C 83.926 61.622 85.228 60.835 87.186 60.098 C 89.406 59.271 91.677 60.199 92.323 62.5 C 92.898 64.549 93.635 66.558 94.402 68.546 C 95.28 70.797 96.391 72.957 97.178 75.237 C 98.258 78.376 99.186 81.586 100.054 84.785 C 100.922 88.005 101.185 91.184 98.641 93.909 C 98.026 94.575 97.339 95.191 96.825 95.928 C 96.754 96.039 96.693 96.16 96.643 96.291 C 96.37 96.998 97.037 97.755 97.763 97.512 C 97.844 97.482 97.915 97.452 97.985 97.401 C 101.144 95.1 102.971 91.941 102.931 88.035 C 102.86 86.37 102.033 84.624 101.447 82.918 Z " fill="rgb(70,70,70)"/>
				<path d=" M 101.447 82.918 C 100.872 81.253 100.064 79.658 99.499 77.993 C 98.742 75.752 98.207 73.441 97.4 71.221 C 96.663 69.212 95.634 67.315 94.816 65.326 C 94.19 63.802 93.746 62.208 93.131 60.694 C 92.091 58.16 89.972 57.232 87.438 58.191 C 86.288 58.625 85.208 59.23 84.087 59.735 C 82.301 60.532 80.545 61.41 78.708 62.026 C 78.244 62.177 77.618 61.844 77.012 61.602 C 76.79 61.511 76.679 61.269 76.75 61.047 C 76.911 60.563 77.002 60.038 77.335 59.684 C 78.758 58.171 79.152 57.626 78.738 56.283 C 78.234 54.648 76.609 52.327 75.327 51.893 C 71.855 50.692 67.132 53.185 67.606 57.262 C 67.747 58.483 67.777 59.735 67.727 60.956 C 67.666 62.561 66.768 63.146 65.456 62.319 C 62.459 60.431 59.511 58.443 56.615 56.404 C 55.232 55.425 52.608 55.122 51.377 56.202 C 50.529 56.949 49.701 57.827 49.176 58.806 C 47.208 62.49 45.291 66.204 43.484 69.969 C 42.182 72.674 41.253 75.56 39.83 78.195 C 38.549 80.567 37.58 82.969 37.257 85.643 C 36.833 89.166 36.994 92.617 39.124 95.625 C 39.507 96.17 40.295 97.068 41.173 96.584 C 41.819 96.231 41.607 95.484 41.496 95.231 C 41.001 94.061 40.254 93.334 39.982 92.133 C 39.578 90.306 39.336 88.368 39.487 86.521 C 39.588 85.229 41.465 78.437 41.607 78.094 C 42.192 76.701 42.767 75.318 43.434 73.966 C 45.533 69.666 47.612 65.347 49.822 61.097 C 50.448 59.886 51.427 58.968 52.537 58.261 C 54.526 56.99 56.14 57.948 57.735 59.109 C 59.935 60.704 61.853 62.702 64.588 63.5 C 65.809 63.853 65.9 64.761 64.81 65.458 C 63.115 66.537 62.166 68.112 61.702 69.969 C 61.167 72.129 60.793 74.329 60.379 76.509 C 59.643 80.365 59.966 83.857 63.559 86.35 C 64.336 86.885 64.951 87.763 64.517 88.853 C 63.205 92.163 61.399 95.141 58.351 97.139 C 56.978 98.037 56.201 99.198 55.939 100.772 C 55.747 101.943 56.393 102.801 57.574 102.771 C 58.179 102.761 59.431 101.681 60.046 101.63 C 60.642 101.58 61.035 102.417 61.449 102.73 C 63.064 103.972 63.367 103.296 64.861 101.862 C 65.688 101.065 66.132 101.348 66.869 102.256 C 67.909 103.548 68.918 104.042 70.361 103.255 C 71.441 102.67 72.42 102.72 73.48 103.265 C 75.902 104.517 76.084 103.841 78.123 102.145 C 78.627 101.721 79.576 102.074 80.242 102.175 C 81.332 102.337 82.039 102.145 82.412 101.085 C 82.715 100.237 83.23 99.844 84.198 100.076 C 85.248 100.338 85.712 99.703 85.823 98.744 C 85.985 97.381 85.167 96.059 83.976 95.363 C 82.543 94.525 80.918 93.788 79.869 92.577 C 78.97 91.548 78.708 89.923 78.314 88.53 C 78.203 88.126 78.496 87.359 78.849 87.127 C 81.201 85.522 81.766 83.12 82.129 80.506 C 82.402 78.548 82.513 73.966 81.625 71.544 C 82.806 73.855 84.774 80.667 85.753 83.009 C 85.995 83.574 86.358 84.119 86.782 84.563 C 86.974 84.765 87.569 84.876 87.741 84.735 C 87.983 84.533 88.165 84.028 88.094 83.705 C 87.953 82.999 87.64 82.323 87.398 81.636 C 85.793 77.185 84.168 72.745 82.614 68.284 C 82.331 67.476 81.867 67.012 81.13 67.315 C 80.192 67.698 81.13 70.242 81.13 70.242 C 81.13 70.242 79.314 66.608 78.385 66.356 C 77.85 65.629 76.982 65.407 76.235 66.315 C 76.922 67.022 77.759 67.557 78.153 68.324 C 80.303 71.029 81.453 74.935 80.807 79.214 C 80.474 81.424 80.03 83.705 78.082 85.32 C 77.507 85.795 76.962 86.683 76.962 87.379 C 76.911 91.719 77.386 94.333 81.796 95.807 C 82.099 95.908 82.432 96.039 82.634 96.261 C 82.836 96.493 83.199 96.846 83.542 97.189 C 83.946 97.603 83.643 98.713 83.169 98.401 C 82.584 98.017 81.867 98.199 81.645 98.986 C 81.393 99.894 80.373 100.379 79.364 99.793 C 78.133 99.087 77.022 99.884 76.074 100.883 C 75.357 101.63 74.408 102.357 73.379 101.247 C 72.228 100.015 71.027 100.015 69.735 100.964 C 69.079 101.438 68.726 101.216 68.353 100.54 C 67.313 98.623 66.112 98.441 64.215 99.703 C 63.972 99.864 62.923 101.136 62.741 100.954 C 61.591 99.803 59.834 98.643 58.129 100.692 C 58.109 100.732 58.119 99.632 59.491 98.522 C 61.944 96.543 63.861 94 65.173 91.124 C 65.416 90.599 65.698 90.094 66.031 89.62 C 67.273 87.874 67.051 86.309 65.224 85.239 C 62.872 83.867 61.681 81.879 61.752 79.184 C 61.792 77.599 61.914 76.005 62.125 74.42 C 62.58 70.958 63.851 67.92 66.839 65.811 C 67.293 65.488 67.899 64.933 68.262 64.458 C 69.645 62.642 69.382 60.472 69.19 58.443 C 68.867 55.022 70.099 53.013 73.995 53.185 C 75.014 53.225 75.569 53.659 76.205 54.487 C 76.831 55.304 77.103 56.818 76.286 57.686 C 75.044 59.018 75.145 60.31 75.357 61.834 C 75.569 63.348 76.326 63.974 77.82 63.691 C 79.243 63.419 80.636 62.934 81.978 62.399 C 83.926 61.622 85.228 60.835 87.186 60.098 C 89.406 59.271 91.677 60.199 92.323 62.5 C 92.898 64.549 93.635 66.558 94.402 68.546 C 95.28 70.797 96.391 72.957 97.178 75.237 C 98.258 78.376 99.186 81.586 100.054 84.785 C 100.922 88.005 101.185 91.184 98.641 93.909 C 98.026 94.575 97.339 95.191 96.825 95.928 C 96.754 96.039 96.693 96.16 96.643 96.291 C 96.37 96.998 97.037 97.755 97.763 97.512 C 97.844 97.482 97.915 97.452 97.985 97.401 C 101.144 95.1 102.971 91.941 102.931 88.035 C 102.86 86.37 102.033 84.624 101.447 82.918 Z " fill="rgb(70,70,70)"/>
				<path d=" M 82.281 48.512 C 81.362 49.864 79.001 49.228 78.758 48.007 C 78.668 47.543 78.193 47.179 77.911 47.492 C 76.891 48.613 74.661 49.057 73.934 47.856 C 72.319 45.191 72.228 45.272 71.431 47.684 C 71.35 47.926 71.007 48.562 70.412 48.582 C 68.948 48.623 68.383 47.341 67.848 47.512 C 67.212 47.714 67.444 48.774 66.021 49.117 C 64.083 49.582 63.236 47.735 63.236 47.735 C 63.236 47.735 64.094 50.439 64.184 50.904 C 64.396 51.974 64.467 53.084 64.437 54.174 C 64.417 54.789 64.164 55.839 63.831 55.92 C 63.024 56.112 61.914 56.132 61.288 55.698 C 59.955 54.769 58.805 53.548 57.664 52.367 C 56.494 51.156 55.383 49.884 54.344 48.562 C 54.031 48.158 53.769 47.179 53.96 47.018 C 54.637 46.433 55.161 46.937 55.777 47.644 C 57.301 49.39 58.633 51.025 60.208 52.741 C 60.329 52.872 62.317 54.396 62.741 54.184 C 63.135 53.992 63.024 52.438 62.973 52.044 C 62.781 50.611 62.226 49.309 61.954 47.886 C 61.863 47.401 61.611 46.907 61.651 46.443 C 61.681 46.11 62.025 45.635 62.327 45.534 C 62.59 45.454 63.094 45.736 63.306 46.009 C 64.8 48.33 66.001 48.552 66.93 46.675 C 67.717 45.11 68.201 45.06 68.756 46.221 C 69.453 47.684 70.28 47.23 70.846 45.716 C 71.068 45.12 71.219 44 72.148 43.97 C 73.339 43.93 73.278 44.999 73.874 45.575 C 74.186 45.877 74.459 46.422 74.792 46.695 C 75.62 47.371 76.467 47.26 77.224 46.503 C 78.365 45.373 79.132 45.211 79.586 46.705 C 80.04 48.199 80.949 48.562 82.513 47.048 C 82.947 46.624 83.462 45.827 84.128 46.17 C 84.855 46.544 84.259 47.583 84.017 48.138 C 83.553 49.188 83.078 51.237 82.826 52.751 C 82.745 53.215 82.695 54.466 83.209 54.618 C 83.694 54.759 84.784 53.821 84.966 53.417 C 85.823 51.55 86.671 49.571 87.469 47.684 C 87.701 47.139 87.448 46.523 87.812 46.089 C 87.983 45.888 88.236 45.766 88.518 45.655 C 88.851 45.524 89.225 45.686 89.366 46.019 C 89.477 46.281 89.558 46.533 89.487 46.735 C 88.811 48.613 88.044 50.47 87.226 52.296 C 86.843 53.164 86.247 53.942 85.773 54.779 C 85.026 56.081 83.603 56.737 82.331 56.344 C 81.342 56.041 80.787 54.709 81.039 53.195 C 81.14 52.569 81.272 51.943 81.383 51.307 C 81.473 50.742 82.21 48.986 82.281 48.512 Z " fill="rgb(70,70,70)"/>
				<path d=" M 55.333 68.687 C 55.616 68.96 55.706 69.374 55.595 69.757 C 55.555 69.908 55.505 70.03 55.454 70.151 C 53.718 73.713 51.962 77.266 50.226 80.829 C 49.772 81.768 49.499 82.807 48.975 83.695 C 48.5 84.493 47.834 85.189 47.158 85.835 C 46.956 86.027 46.31 86.027 46.078 85.845 C 45.836 85.653 45.684 85.098 45.765 84.785 C 45.987 83.958 46.31 83.14 46.694 82.363 C 48.389 78.982 50.105 75.611 51.841 72.25 C 52.406 71.16 52.971 70.05 53.688 69.061 C 53.93 68.718 54.616 68.607 55.111 68.576 C 55.182 68.566 55.262 68.617 55.333 68.687 Z " fill="rgb(70,70,70)"/>
				<path d=" M 92.222 82.06 C 92.333 82.454 92.263 82.878 92.02 83.211 C 91.869 83.423 91.718 83.604 91.627 83.574 C 91.173 83.453 90.607 83.08 90.446 82.676 C 89.679 80.678 89.073 78.619 88.347 76.6 C 87.428 74.026 86.459 71.473 85.511 68.899 C 85.4 68.596 85.188 68.284 85.228 68.001 C 85.289 67.557 85.228 66.84 85.672 66.689 C 86.096 66.548 86.621 67.103 86.752 67.446 C 88.437 71.735 90.073 76.035 91.697 80.344 C 91.879 80.869 92.031 81.414 92.222 82.06 Z " fill="rgb(70,70,70)"/>
				<path d=" M 97.158 79.174 C 97.41 79.668 97.38 80.274 97.016 80.698 C 96.926 80.799 96.835 80.879 96.734 80.9 C 96.391 80.97 95.755 80.728 95.593 80.425 C 94.776 78.962 94.059 77.448 93.343 75.934 C 92.041 73.179 90.759 70.413 89.467 67.648 C 89.366 67.446 89.215 67.234 89.134 67.062 C 88.861 66.527 88.993 65.932 89.396 65.7 C 89.76 65.488 90.355 65.841 90.547 66.114 C 91.465 67.416 91.899 68.677 92.606 70.1 C 93.272 71.432 94.089 72.987 94.675 74.359 C 95.19 75.56 95.876 76.701 96.481 77.872 C 96.693 78.296 96.915 78.72 97.158 79.174 Z " fill="rgb(70,70,70)"/>
				<path d=" M 51.558 86.814 C 51.447 86.622 51.427 86.38 51.498 86.168 C 51.689 85.623 51.851 85.118 52.093 84.654 C 53.536 81.808 55.04 78.982 56.463 76.126 C 56.948 75.147 57.21 74.077 57.624 73.068 C 57.816 72.613 58.048 72.129 58.391 71.786 C 58.401 71.776 58.381 71.796 58.391 71.786 C 59.037 70.978 60.208 71.352 60.016 72.351 C 60.006 72.422 59.996 72.482 59.966 72.543 C 58.886 75.005 57.705 77.428 56.605 79.88 C 55.999 81.253 55.525 82.686 54.949 84.079 C 54.556 85.048 54.162 86.037 53.617 86.925 C 53.415 87.248 52.769 87.44 52.335 87.42 C 52.174 87.42 51.74 87.117 51.558 86.814 Z " fill="rgb(70,70,70)"/>
				<path d=" M 73.974 98.451 C 73.712 98.33 73.551 98.037 73.641 97.775 C 74.651 94.696 73.773 92.133 72.824 89.579 C 72.723 89.196 72.783 88.499 73.157 88.318 C 73.561 88.116 74.096 88.752 74.237 89.105 C 75.004 90.992 74.59 91.558 75.287 93.475 C 75.347 93.647 75.892 95.231 76.033 95.423 C 76.508 96.059 76.962 97.149 76.679 97.633 C 76.498 97.946 75.731 97.452 75.266 97.593 C 74.893 97.704 74.853 98.471 74.509 98.552 C 74.338 98.592 74.156 98.532 73.974 98.451 Z " fill="rgb(70,70,70)"/>
				<path d=" M 69.715 88.328 C 69.907 88.368 70.048 88.55 70.028 88.752 C 69.998 89.166 69.988 89.6 69.816 89.943 C 69.251 92.042 68.605 94.192 68.524 96.453 C 68.514 96.877 68.504 97.745 68.07 97.775 C 67.505 97.805 67.293 96.402 66.889 96.291 C 66.344 96.14 65.799 97.169 65.123 96.998 C 64.881 96.937 64.75 96.654 64.851 96.432 C 65.012 96.099 65.153 95.766 65.416 95.575 C 67.253 94.222 67.858 92.264 68.333 90.185 C 68.464 89.63 68.726 89.105 68.968 88.57 C 69.049 88.388 69.241 88.298 69.433 88.338 L 69.715 88.328 Z " fill="rgb(70,70,70)"/>
				<path d=" M 72.289 54.81 C 72.763 54.265 73.934 54.184 74.449 54.688 C 74.863 55.102 74.822 55.476 74.782 55.758 C 74.711 56.374 73.752 57.434 73.379 57.353 C 72.975 57.272 72.612 56.99 72.269 56.667 C 71.774 56.213 71.734 55.445 72.168 54.941 C 72.208 54.9 72.249 54.86 72.289 54.81 Z " fill="rgb(70,70,70)"/>
			</g>
			<path d=" M 64.819 116.643 L 64.819 116.643 L 64.446 116.598 L 64.446 116.598 Q 64.371 117.033 64.077 118.33 L 64.077 118.33 L 64.077 118.33 Q 63.783 119.628 63.651 120.306 L 63.651 120.306 L 63.651 120.306 Q 64.562 119.874 64.765 119.894 L 64.765 119.894 L 64.765 119.894 Q 64.968 119.914 65.077 120.235 L 65.077 120.235 L 65.077 120.235 Q 65.186 120.555 65.165 120.77 L 65.165 120.77 L 65.165 120.77 Q 64.767 120.811 64.019 120.973 L 64.019 120.973 L 64.019 120.973 Q 63.271 121.136 62.646 121.364 L 62.646 121.364 L 62.646 121.364 Q 62.688 120.934 63.066 119.235 L 63.066 119.235 L 63.066 119.235 Q 63.444 117.536 63.596 116.49 L 63.596 116.49 L 63.596 116.49 Q 62.855 116.432 62.358 116.576 L 62.358 116.576 L 62.358 116.576 Q 62.445 116.022 62.636 115.803 L 62.636 115.803 L 62.636 115.803 Q 62.826 115.585 63.256 115.628 L 63.256 115.628 L 63.256 115.628 Q 63.407 115.643 63.91 115.765 L 63.91 115.765 L 63.91 115.765 Q 64.412 115.887 64.949 115.941 L 64.949 115.941 L 64.949 115.941 Q 65.487 115.994 65.972 115.882 L 65.972 115.882 L 65.972 115.882 Q 65.961 115.993 65.873 116.157 L 65.873 116.157 L 65.873 116.157 Q 65.784 116.321 65.669 116.426 L 65.669 116.426 L 65.669 116.426 Q 65.554 116.532 65.33 116.602 L 65.33 116.602 L 65.33 116.602 Q 65.106 116.672 64.819 116.643 Z  M 60.62 116.199 L 60.62 116.199 L 60.62 116.199 Q 60.67 115.948 60.552 115.72 L 60.552 115.72 L 60.552 115.72 Q 60.435 115.493 60.129 115.431 L 60.129 115.431 L 60.129 115.431 Q 59.493 115.304 59.011 115.901 L 59.011 115.901 L 59.011 115.901 Q 58.528 116.498 58.224 117.571 L 58.224 117.571 L 58.224 117.571 Q 58.817 117.217 59.46 117.345 L 59.46 117.345 L 59.46 117.345 Q 60.103 117.474 60.474 117.989 L 60.474 117.989 L 60.474 117.989 Q 60.844 118.503 60.699 119.229 L 60.699 119.229 L 60.699 119.229 Q 60.554 119.955 59.945 120.408 L 59.945 120.408 L 59.945 120.408 Q 59.336 120.861 58.403 120.675 L 58.403 120.675 L 58.403 120.675 Q 57.806 120.555 57.398 119.943 L 57.398 119.943 L 57.398 119.943 Q 57.198 119.642 57.133 119.172 L 57.133 119.172 L 57.133 119.172 Q 57.067 118.702 57.191 118.087 L 57.191 118.087 L 57.191 118.087 Q 57.314 117.471 57.577 116.867 L 57.577 116.867 L 57.577 116.867 Q 57.841 116.263 58.226 115.769 L 58.226 115.769 L 58.226 115.769 Q 58.61 115.274 59.159 115.037 L 59.159 115.037 L 59.159 115.037 Q 59.708 114.801 60.328 114.925 L 60.328 114.925 L 60.328 114.925 Q 60.948 115.049 61.23 115.452 L 61.23 115.452 L 61.23 115.452 Q 61.512 115.855 61.432 116.259 L 61.432 116.259 L 61.432 116.259 Q 61.351 116.663 61.057 116.886 L 61.057 116.886 L 61.057 116.886 Q 60.764 117.109 60.34 117.024 L 60.34 117.024 L 60.34 117.024 Q 60.207 116.997 60.053 116.909 L 60.053 116.909 L 60.053 116.909 Q 60.519 116.701 60.62 116.199 Z  M 58.097 118.084 L 58.097 118.084 L 58.04 118.326 L 58.04 118.326 Q 57.894 119.055 58.016 119.549 L 58.016 119.549 L 58.016 119.549 Q 58.137 120.042 58.6 120.135 L 58.6 120.135 L 58.6 120.135 Q 59.063 120.228 59.404 119.892 L 59.404 119.892 L 59.404 119.892 Q 59.744 119.556 59.835 119.101 L 59.835 119.101 L 59.835 119.101 Q 59.926 118.646 59.784 118.316 L 59.784 118.316 L 59.784 118.316 Q 59.642 117.986 59.25 117.907 L 59.25 117.907 L 59.25 117.907 Q 58.669 117.791 58.097 118.084 Z  M 51.966 119.17 L 51.966 119.17 L 51.966 119.17 Q 51.924 118.936 51.996 118.699 L 51.996 118.699 L 51.996 118.699 Q 52.068 118.462 52.655 117.825 L 52.655 117.825 L 52.655 117.825 Q 53.242 117.188 53.931 116.503 L 53.931 116.503 L 53.931 116.503 Q 54.62 115.818 55.333 114.973 L 55.333 114.973 L 55.333 114.973 Q 56.046 114.127 56.318 113.533 L 56.318 113.533 L 56.318 113.533 Q 56.38 113.552 56.518 113.661 L 56.518 113.661 L 56.518 113.661 Q 56.656 113.77 56.731 113.868 L 56.731 113.868 L 56.731 113.868 Q 56.806 113.966 56.838 114.134 L 56.838 114.134 L 56.838 114.134 Q 56.87 114.303 56.8 114.533 L 56.8 114.533 L 56.8 114.533 Q 56.731 114.762 56.138 115.364 L 56.138 115.364 L 56.138 115.364 Q 55.545 115.965 54.592 116.859 L 54.592 116.859 L 54.592 116.859 Q 53.639 117.752 53.129 118.299 L 53.129 118.299 L 53.129 118.299 Q 55.03 118.568 55.424 118.688 L 55.424 118.688 L 55.424 118.688 Q 55.818 118.808 55.653 119.351 L 55.653 119.351 L 55.653 119.351 Q 55.567 119.634 55.456 119.751 L 55.456 119.751 L 55.456 119.751 Q 54.557 119.352 53.761 119.11 L 53.761 119.11 L 53.761 119.11 Q 52.965 118.868 52.682 118.807 L 52.682 118.807 L 52.682 118.807 Q 52.31 119.263 52.131 119.601 L 52.131 119.601 L 52.131 119.601 Q 52.103 119.559 52.055 119.482 L 52.055 119.482 L 52.055 119.482 Q 52.007 119.405 51.966 119.17 Z  M 47.978 116.423 L 47.978 116.423 L 47.978 116.423 Q 48.177 115.942 48.562 116.102 L 48.562 116.102 L 48.562 116.102 Q 49.057 116.307 50.244 117.058 L 50.244 117.058 L 51.082 115.682 L 51.082 115.682 Q 50.852 115.63 50.579 115.517 L 50.579 115.517 L 50.579 115.517 Q 49.729 115.165 49.413 114.506 L 49.413 114.506 L 49.413 114.506 Q 49.097 113.847 49.39 113.141 L 49.39 113.141 L 49.39 113.141 Q 49.682 112.435 50.421 112.114 L 50.421 112.114 L 50.421 112.114 Q 51.161 111.792 52.018 112.147 L 52.018 112.147 L 52.018 112.147 Q 52.646 112.408 52.951 112.885 L 52.951 112.885 L 52.951 112.885 Q 53.256 113.362 53.038 113.886 L 53.038 113.886 L 53.038 113.886 Q 52.885 114.256 52.565 114.413 L 52.565 114.413 L 52.565 114.413 Q 52.244 114.57 51.897 114.426 L 51.897 114.426 L 51.897 114.426 Q 51.719 114.353 51.618 114.285 L 51.618 114.285 L 51.618 114.285 Q 52.038 114.087 52.186 113.728 L 52.186 113.728 L 52.186 113.728 Q 52.335 113.37 52.227 113.087 L 52.227 113.087 L 52.227 113.087 Q 52.119 112.804 51.723 112.64 L 51.723 112.64 L 51.723 112.64 Q 51.328 112.476 50.909 112.662 L 50.909 112.662 L 50.909 112.662 Q 50.49 112.848 50.271 113.376 L 50.271 113.376 L 50.271 113.376 Q 50.052 113.905 50.247 114.427 L 50.247 114.427 L 50.247 114.427 Q 50.442 114.949 51.144 115.24 L 51.144 115.24 L 51.144 115.24 Q 51.499 115.387 51.96 115.466 L 51.96 115.466 L 50.725 117.422 L 50.725 117.422 Q 50.877 117.641 50.772 117.978 L 50.772 117.978 L 50.772 117.978 Q 50.401 117.764 49.877 117.547 L 49.877 117.547 L 49.877 117.547 Q 48.857 117.124 48.143 116.924 L 48.143 116.924 L 47.88 116.85 L 47.88 116.85 Q 47.868 116.689 47.978 116.423 Z  M 88.977 115.933 L 88.977 115.933 L 88.977 115.933 Q 88.673 115.826 88.322 115.742 L 88.322 115.742 L 88.322 115.742 Q 87.971 115.657 87.618 115.57 L 87.618 115.57 L 87.618 115.57 Q 87.266 115.482 86.958 115.367 L 86.958 115.367 L 86.958 115.367 Q 86.263 115.109 86.03 114.548 L 86.03 114.548 L 86.03 114.548 Q 85.742 113.853 86.078 113.168 L 86.078 113.168 L 86.078 113.168 Q 86.414 112.484 87.278 112.126 L 87.278 112.126 L 87.278 112.126 Q 88.143 111.767 88.771 111.966 L 88.771 111.966 L 88.771 111.966 Q 89.399 112.165 89.622 112.705 L 89.622 112.705 L 89.622 112.705 Q 89.788 113.104 89.654 113.449 L 89.654 113.449 L 89.654 113.449 Q 89.52 113.795 89.143 113.951 L 89.143 113.951 L 89.143 113.951 Q 89.039 113.994 88.931 114.004 L 88.931 114.004 L 88.931 114.004 Q 89.016 113.562 88.853 113.166 L 88.853 113.166 L 88.853 113.166 Q 88.689 112.771 88.299 112.603 L 88.299 112.603 L 88.299 112.603 Q 87.909 112.436 87.362 112.662 L 87.362 112.662 L 87.362 112.662 Q 86.97 112.825 86.763 113.192 L 86.763 113.192 L 86.763 113.192 Q 86.556 113.559 86.734 113.988 L 86.734 113.988 L 86.734 113.988 Q 86.85 114.269 87.146 114.462 L 87.146 114.462 L 87.146 114.462 Q 87.443 114.655 87.802 114.749 L 87.802 114.749 L 87.802 114.749 Q 88.161 114.842 88.592 114.963 L 88.592 114.963 L 88.592 114.963 Q 89.023 115.083 89.394 115.206 L 89.394 115.206 L 89.394 115.206 Q 89.766 115.329 90.092 115.593 L 90.092 115.593 L 90.092 115.593 Q 90.417 115.856 90.57 116.226 L 90.57 116.226 L 90.57 116.226 Q 90.861 116.928 90.554 117.536 L 90.554 117.536 L 90.554 117.536 Q 90.248 118.143 89.346 118.517 L 89.346 118.517 L 89.346 118.517 Q 88.614 118.82 88.036 118.605 L 88.036 118.605 L 88.036 118.605 Q 87.457 118.39 87.284 117.972 L 87.284 117.972 L 87.284 117.972 Q 87.111 117.555 87.227 117.195 L 87.227 117.195 L 87.227 117.195 Q 87.342 116.836 87.734 116.674 L 87.734 116.674 L 87.734 116.674 Q 87.867 116.618 88.005 116.596 L 88.005 116.596 L 88.005 116.596 Q 87.802 117.13 87.979 117.559 L 87.979 117.559 L 87.979 117.559 Q 88.157 117.988 88.513 118.096 L 88.513 118.096 L 88.513 118.096 Q 88.87 118.203 89.28 118.033 L 89.28 118.033 L 89.28 118.033 Q 89.69 117.863 89.88 117.508 L 89.88 117.508 L 89.88 117.508 Q 90.07 117.152 89.871 116.671 L 89.871 116.671 L 89.871 116.671 Q 89.672 116.191 88.977 115.933 Z  M 83.266 113.874 L 83.266 113.874 Q 83.749 113.848 84.042 114.085 L 84.042 114.085 L 84.042 114.085 Q 84.335 114.323 84.516 114.759 L 84.516 114.759 L 84.516 114.759 Q 84.697 115.195 84.915 116.057 L 84.915 116.057 L 84.915 116.057 Q 85.134 116.919 85.32 117.37 L 85.32 117.37 L 85.32 117.37 Q 85.507 117.821 85.653 118.047 L 85.653 118.047 L 85.653 118.047 Q 85.526 118.116 85.444 118.15 L 85.444 118.15 L 85.444 118.15 Q 85.112 118.288 84.903 118.201 L 84.903 118.201 L 84.903 118.201 Q 84.694 118.115 84.553 117.775 L 84.553 117.775 L 84.553 117.775 Q 84.507 117.664 84.252 116.536 L 84.252 116.536 L 84.252 116.536 Q 83.997 115.407 83.717 114.722 L 83.717 114.722 L 83.717 114.722 Q 83.437 114.037 83.266 113.874 L 83.266 113.874 L 83.266 113.874 Z  M 85.289 119.072 L 85.289 119.072 L 85.289 119.072 Q 85.91 118.814 86.085 119.236 L 86.085 119.236 L 86.085 119.236 Q 86.146 119.384 86.145 119.696 L 86.145 119.696 L 86.145 119.696 Q 85.995 119.792 85.877 119.841 L 85.877 119.841 L 85.877 119.841 Q 85.256 120.099 85.081 119.677 L 85.081 119.677 L 85.081 119.677 Q 85.02 119.53 85.021 119.218 L 85.021 119.218 L 85.021 119.218 Q 85.171 119.121 85.289 119.072 Z  M 79.254 118.797 L 79.254 118.797 L 79.254 118.797 Q 79.147 118.445 79.025 117.507 L 79.025 117.507 L 79.025 117.507 Q 78.903 116.57 78.779 116.165 L 78.779 116.165 L 78.779 116.165 Q 78.656 115.759 78.502 115.609 L 78.502 115.609 L 78.502 115.609 Q 78.348 115.46 78.071 115.402 L 78.071 115.402 L 78.071 115.402 Q 78.168 115.364 78.352 115.308 L 78.352 115.308 L 78.352 115.308 Q 78.872 115.15 79.15 115.279 L 79.15 115.279 L 79.15 115.279 Q 79.427 115.407 79.581 115.913 L 79.581 115.913 L 79.581 115.913 Q 79.667 116.196 79.776 117.103 L 79.776 117.103 L 79.776 117.103 Q 79.884 118.011 80.008 118.417 L 80.008 118.417 L 80.008 118.417 Q 80.161 118.922 80.468 118.829 L 80.468 118.829 L 80.468 118.829 Q 80.957 118.68 81.219 117.655 L 81.219 117.655 L 81.219 117.655 Q 81.48 116.631 81.11 115.414 L 81.11 115.414 L 81.11 115.414 Q 80.963 114.932 80.836 114.678 L 80.836 114.678 L 80.836 114.678 Q 81.03 114.602 81.068 114.591 L 81.068 114.591 L 81.068 114.591 Q 81.742 114.386 81.942 115.044 L 81.942 115.044 L 81.942 115.044 Q 81.989 115.197 82.14 116.271 L 82.14 116.271 L 82.14 116.271 Q 82.291 117.346 82.476 117.954 L 82.476 117.954 L 82.476 117.954 Q 82.661 118.563 82.947 119.036 L 82.947 119.036 L 82.947 119.036 Q 82.442 118.997 82.163 118.727 L 82.163 118.727 L 82.163 118.727 Q 81.885 118.456 81.758 118.039 L 81.758 118.039 L 81.758 118.039 Q 81.631 117.622 81.555 117.043 L 81.555 117.043 L 81.555 117.043 Q 81.565 117.985 81.206 118.742 L 81.206 118.742 L 81.206 118.742 Q 80.847 119.499 80.38 119.641 L 80.38 119.641 L 80.38 119.641 Q 79.584 119.883 79.254 118.797 Z  M 76.331 119.581 L 76.331 119.581 L 76.331 119.581 Q 76.564 119.155 76.611 118.595 L 76.611 118.595 L 76.611 118.595 Q 76.658 118.035 76.537 117.431 L 76.537 117.431 L 76.537 117.431 Q 76.416 116.827 76.138 116.499 L 76.138 116.499 L 76.138 116.499 Q 75.861 116.171 75.519 116.24 L 75.519 116.24 L 75.519 116.24 Q 75.178 116.308 74.89 116.578 L 74.89 116.578 L 74.89 116.578 Q 74.601 116.848 74.446 117.254 L 74.446 117.254 L 74.446 117.254 Q 74.147 117.273 74.113 117.1 L 74.113 117.1 L 74.113 117.1 Q 74.246 116.666 74.514 116.351 L 74.514 116.351 L 74.514 116.351 Q 74.781 116.036 75.039 115.899 L 75.039 115.899 L 75.039 115.899 Q 75.297 115.762 75.58 115.705 L 75.58 115.705 L 75.58 115.705 Q 76.184 115.585 76.695 115.976 L 76.695 115.976 L 76.695 115.976 Q 77.205 116.367 77.386 117.269 L 77.386 117.269 L 77.386 117.269 Q 77.615 118.415 77.16 119.362 L 77.16 119.362 L 77.16 119.362 Q 76.705 120.31 75.677 120.516 L 75.677 120.516 L 75.677 120.516 Q 75.113 120.629 74.763 120.393 L 74.763 120.393 L 74.763 120.393 Q 74.414 120.156 74.337 119.768 L 74.337 119.768 L 74.337 119.768 Q 74.259 119.38 74.42 119.062 L 74.42 119.062 L 74.42 119.062 Q 74.581 118.744 74.918 118.677 L 74.918 118.677 L 74.918 118.677 Q 75.13 118.635 75.293 118.675 L 75.293 118.675 L 75.293 118.675 Q 75.196 118.842 75.156 119.115 L 75.156 119.115 L 75.156 119.115 Q 75.117 119.388 75.166 119.631 L 75.166 119.631 L 75.166 119.631 Q 75.274 120.172 75.721 120.083 L 75.721 120.083 L 75.721 120.083 Q 76.098 120.007 76.331 119.581 Z  M 70.65 120.413 L 70.65 120.413 L 70.65 120.413 Q 71.13 120.405 71.452 119.847 L 71.452 119.847 L 71.452 119.847 Q 71.775 119.29 71.875 118.544 L 71.875 118.544 L 71.651 118.548 L 71.651 118.548 Q 71.227 118.555 70.917 118.68 L 70.917 118.68 L 70.917 118.68 Q 70.607 118.805 70.442 119 L 70.442 119 L 70.442 119 Q 70.128 119.373 70.136 119.837 L 70.136 119.837 L 70.136 119.837 Q 70.14 120.101 70.267 120.259 L 70.267 120.259 L 70.267 120.259 Q 70.394 120.417 70.65 120.413 Z  M 69.468 117.192 L 69.468 117.192 Q 69.826 116.586 70.262 116.339 L 70.262 116.339 L 70.262 116.339 Q 70.698 116.091 71.278 116.082 L 71.278 116.082 L 71.278 116.082 Q 71.858 116.072 72.298 116.577 L 72.298 116.577 L 72.298 116.577 Q 72.739 117.082 72.754 118.009 L 72.754 118.009 L 72.754 118.009 Q 72.772 119.065 72.217 119.907 L 72.217 119.907 L 72.217 119.907 Q 71.944 120.311 71.496 120.567 L 71.496 120.567 L 71.496 120.567 Q 71.049 120.822 70.505 120.831 L 70.505 120.831 L 70.505 120.831 Q 69.305 120.851 69.286 119.691 L 69.286 119.691 L 69.286 119.691 Q 69.274 118.995 69.807 118.59 L 69.807 118.59 L 69.807 118.59 Q 70.341 118.185 71.053 118.174 L 71.053 118.174 L 71.053 118.174 Q 71.524 118.166 71.902 118.248 L 71.902 118.248 L 71.902 118.248 Q 71.909 118.167 71.906 117.999 L 71.906 117.999 L 71.906 117.999 Q 71.882 116.584 71.042 116.598 L 71.042 116.598 L 71.042 116.598 Q 70.25 116.611 69.768 117.403 L 69.768 117.403 L 69.768 117.403 Q 69.471 117.368 69.468 117.192 L 69.468 117.192 L 69.468 117.192 Z " fill="rgb(70,70,70)">
						        <animateTransform attributeName="transform"
                          attributeType="XML"
                          type="rotate"
                          from="360 70 70"
                          to="0 70 70"
                          dur="1s"
                          repeatCount="indefinite"/>
			</path>
			
		</g>
	</g>
</svg>