<svg width="74" height="54" viewBox="0 0 74 54" fill="none" xmlns="http://www.w3.org/2000/svg">
<circle cx="36" cy="24" r="24" fill="#FFB74D"/>
<path d="M5.272 12.52C5.272 14.568 6.488 16.4773 8.92 18.248C10.0507 15.3467 10.616 13.0427 10.616 11.336C10.616 10.5893 10.3707 9.896 9.88 9.256C9.38933 8.616 8.83467 8.296 8.216 8.296C7.61867 8.296 7.07467 8.616 6.584 9.256C6.11467 9.896 5.77333 10.536 5.56 11.176C5.368 11.7947 5.272 12.2427 5.272 12.52ZM1.112 33.384C0.962667 33.5333 0.834667 33.608 0.728 33.608C0.557333 33.608 0.472 33.5227 0.472 33.352C0.472 33.1813 0.514667 33.0427 0.6 32.936C1.56 31.8693 2.69067 30.2587 3.992 28.104C5.29333 25.9493 6.488 23.7093 7.576 21.384C4.84533 19.4853 3.48 17.544 3.48 15.56C3.48 14.2373 3.78933 12.8933 4.408 11.528C5.048 10.1627 5.89067 9.032 6.936 8.136C8.00267 7.24 9.016 6.792 9.976 6.792C10.9573 6.792 11.6187 7.02666 11.96 7.496C12.3227 7.944 12.504 8.60533 12.504 9.48C12.504 11.1227 11.512 14.1947 9.528 18.696C10.232 19.1653 11.1707 19.7413 12.344 20.424C13.5387 21.0853 14.552 21.6613 15.384 22.152C16.2373 22.6427 17.0907 23.208 17.944 23.848C19.6933 25.192 20.568 26.6533 20.568 28.232C20.568 29.7893 19.7573 31.2507 18.136 32.616C16.5147 33.96 14.872 34.632 13.208 34.632C10.584 34.632 8.248 33.2667 6.2 30.536C5.96533 30.216 5.848 29.9493 5.848 29.736C5.848 29.5013 6.11467 29.1707 6.648 28.744C7.18133 28.296 7.59733 28.072 7.896 28.072C7.96 28.072 8.01333 28.104 8.056 28.168C8.632 29.1707 9.66667 30.2373 11.16 31.368C12.6533 32.4987 14.1147 33.064 15.544 33.064C17.3147 32.936 18.2 32.0613 18.2 30.44C18.2 29.0747 17.4213 27.7947 15.864 26.6C14.712 25.7253 13.2933 24.808 11.608 23.848C9.92267 22.8667 8.76 22.1627 8.12 21.736C5.53867 27.1547 3.20267 31.0373 1.112 33.384ZM17.3005 10.088C17.3005 9.832 17.7592 9.608 18.6765 9.416C19.5725 9.20267 20.2765 9.096 20.7885 9.096C21.2792 9.096 21.7165 9.50133 22.1005 10.312C22.5058 11.1867 22.9218 12.2213 23.3485 13.416C23.7965 14.6107 24.0098 15.208 23.9885 15.208C24.6925 13.736 25.5245 12.5733 26.4845 11.72C27.4445 10.8667 28.4792 10.44 29.5885 10.44C30.3565 10.44 31.0392 10.8027 31.6365 11.528C32.2552 12.2533 32.7565 13.16 33.1405 14.248C33.8658 16.3387 34.4418 19.3893 34.8685 23.4L35.3165 28.776C35.3592 28.776 35.6792 27.5067 36.2765 24.968C36.8952 22.4293 37.4072 20.3707 37.8125 18.792C38.8152 14.8667 39.4125 12.776 39.6045 12.52C39.6898 12.328 40.1165 12.104 40.8845 11.848C41.6525 11.592 42.2072 11.464 42.5485 11.464C42.6338 11.464 42.6765 11.5813 42.6765 11.816L42.6445 12.264C42.6232 12.5627 42.6125 13.0533 42.6125 13.736C42.6125 14.3973 42.6338 15.1333 42.6765 15.944C42.7192 16.7333 42.8152 17.7787 42.9645 19.08C43.1352 20.3813 43.3485 21.6187 43.6045 22.792C43.8818 23.9653 44.2658 25.1813 44.7565 26.44C45.2685 27.6773 45.8552 28.7547 46.5165 29.672C47.1992 30.568 48.0525 31.3147 49.0765 31.912C50.1005 32.488 51.2418 32.776 52.5005 32.776C53.1192 32.776 53.5565 32.7227 53.8125 32.616C54.0685 32.5093 54.2712 32.4133 54.4205 32.328C54.5912 32.2427 54.6978 32.1893 54.7405 32.168C54.9112 32.168 54.9965 32.2747 54.9965 32.488C54.9965 32.8507 54.3565 33.2667 53.0765 33.736C51.7965 34.2267 50.7192 34.472 49.8445 34.472C47.7112 34.472 45.8552 33.4907 44.2765 31.528C42.7192 29.544 41.5778 27.0693 40.8525 24.104C40.1272 21.1173 39.7645 17.8747 39.7645 14.376H39.6045L35.4765 30.92C35.3698 32.264 35.2418 33 35.0925 33.128C34.1538 33.768 33.5458 34.088 33.2685 34.088C33.0125 34.088 32.8738 33.832 32.8525 33.32C32.7885 31.08 32.5645 28.5627 32.1805 25.768C31.8178 22.9733 31.4445 20.712 31.0605 18.984C30.6765 17.256 30.1645 15.784 29.5245 14.568C28.8845 13.3307 28.2125 12.712 27.5085 12.712C26.8258 12.712 26.1965 13.0107 25.6205 13.608C25.0658 14.2053 24.6285 15.0373 24.3085 16.104C24.6498 17.768 25.0552 20.3707 25.5245 23.912C25.9938 27.432 26.2285 30.2907 26.2285 32.488C26.2285 33.1067 26.0365 33.5867 25.6525 33.928C25.2685 34.2907 24.8952 34.472 24.5325 34.472C24.1698 34.472 23.8072 34.0667 23.4445 33.256C23.0818 32.4667 22.7725 31.304 22.5165 29.768C22.2818 28.232 22.1645 26.8773 22.1645 25.704C22.1645 24.5307 22.2072 23.2187 22.2925 21.768C21.8658 18.7387 21.2152 16.0613 20.3405 13.736C20.0418 12.8827 19.6578 12.136 19.1885 11.496C18.6978 10.8347 18.2072 10.4827 17.7165 10.44C17.4392 10.3973 17.3005 10.28 17.3005 10.088ZM61.1958 15.912L61.0998 16.552C61.0998 16.9787 61.3771 17.192 61.9318 17.192C62.9984 17.192 63.9904 16.5733 64.9078 15.336C65.8464 14.0987 66.3158 12.8187 66.3158 11.496C66.3158 9.448 65.6011 8.424 64.1718 8.424C62.5718 8.424 61.1211 9.11733 59.8198 10.504C58.5398 11.8693 57.5691 13.5867 56.9078 15.656C56.2464 17.7253 55.9158 19.848 55.9158 22.024C55.9158 24.2 56.2038 26.1413 56.7798 27.848C57.3558 29.5333 58.3158 30.9413 59.6598 32.072C61.0251 33.2027 62.5931 33.768 64.3638 33.768C67.8198 33.768 70.7531 32.3387 73.1638 29.48L73.3878 29.864C72.3851 31.464 70.9558 32.7227 69.0998 33.64C67.2651 34.5573 65.3344 35.016 63.3078 35.016C59.6811 35.016 56.9718 34.0347 55.1798 32.072C53.4091 30.088 52.5237 27.5707 52.5237 24.52C52.5237 22.536 52.8758 20.5093 53.5798 18.44C54.3051 16.3707 55.2651 14.504 56.4598 12.84C57.6544 11.1547 59.1051 9.77866 60.8118 8.712C62.5398 7.624 64.3211 7.08 66.1558 7.08C67.0304 7.08 67.7238 7.31466 68.2358 7.784C68.7478 8.232 69.0037 8.97867 69.0037 10.024C69.0037 11.048 68.5131 12.264 67.5318 13.672C66.5718 15.08 65.3664 16.2853 63.9158 17.288C62.4651 18.2693 61.1211 18.76 59.8838 18.76C59.2651 18.76 58.8918 18.6 58.7638 18.28C58.6571 18.0027 58.6038 17.7147 58.6038 17.416C58.6038 17.096 58.8918 16.712 59.4678 16.264C60.0438 15.816 60.4704 15.592 60.7478 15.592C61.0464 15.592 61.1958 15.6987 61.1958 15.912Z" fill="black"/>
</svg>
