<svg width="137" height="109" viewBox="0 0 137 109" fill="none" xmlns="http://www.w3.org/2000/svg">
<path d="M11.1659 62.2781C11.0406 63.2388 11.688 64.116 12.6278 64.2831C13.6303 64.4502 14.8834 64.2831 15.6144 62.7585C20.1463 53.5274 24.5739 44.2546 28.9388 34.94C28.9806 34.8564 29.0015 34.7729 29.0433 34.6894C29.3983 33.4154 28.0826 32.2876 26.8504 32.7262C26.558 32.8306 26.2865 32.935 26.0359 33.0812C25.4511 33.4154 25.096 34.2508 24.7828 34.9191C21.2741 42.187 17.8699 49.4967 14.2151 56.681C13.4006 58.4354 12.6278 59.5422 11.9178 60.2523C11.6463 60.5238 11.4583 60.858 11.3539 61.2339C11.2703 61.5681 11.2077 61.944 11.1659 62.2781Z" fill="black"/>
<path d="M133.217 64.8261C132.026 61.3801 130.355 58.0803 129.186 54.6343C127.619 49.9979 126.513 45.2153 124.842 40.6206C123.317 36.4645 121.187 32.5382 119.495 28.4239C118.2 25.2703 117.281 21.9705 116.007 18.8378C113.856 13.5957 109.471 11.6743 104.228 13.6583C101.848 14.5564 99.6129 15.8095 97.2947 16.8537C93.5981 18.5036 89.9642 20.3206 86.1631 21.5946C85.2024 21.9078 83.9076 21.2186 82.6545 20.7174C82.195 20.5294 81.9653 20.0282 82.1115 19.5687C82.4456 18.5663 82.6336 17.4803 83.3228 16.7493C86.2675 13.6166 87.0821 12.4888 86.2258 9.71112C85.1815 6.32779 81.8191 1.52428 79.1667 0.626239C71.9824 -1.85905 62.2083 3.29949 63.1899 11.7369C63.4823 14.264 63.5449 16.8537 63.4405 19.3808C63.3152 22.7015 61.4564 23.9128 58.7414 22.2002C52.5386 18.2948 46.4403 14.1805 40.4463 9.96174C37.5851 7.93591 32.1551 7.30937 29.6071 9.54404C27.8528 11.0895 26.1403 12.9065 25.0543 14.9323C20.9817 22.5553 17.0136 30.2409 13.2753 38.0309C10.5811 43.628 8.65972 49.6011 5.71496 55.052C3.0626 59.9599 1.05766 64.9305 0.389347 70.465C-0.487814 77.7537 -0.153657 84.8963 4.25303 91.12C5.04665 92.2478 6.67566 94.1065 8.49264 93.1041C9.82926 92.3731 9.39069 90.8276 9.16095 90.3055C8.1376 87.8829 6.59213 86.3792 6.02824 83.8939C5.19285 80.1137 4.69161 76.1038 5.00488 72.2819C5.21373 69.6087 9.09829 55.5532 9.39068 54.8431C10.602 51.961 11.7924 49.0998 13.1708 46.3013C17.5149 37.4043 21.8171 28.4657 26.3909 19.6732C27.6857 17.167 29.7116 15.2665 32.0089 13.8045C36.1232 11.1731 39.4648 13.1571 42.7645 15.5589C47.3174 18.8587 51.2855 22.9938 56.9453 24.6437C59.4724 25.3747 59.6603 27.2543 57.4048 28.6954C53.8961 30.9301 51.933 34.1881 50.9723 38.0309C49.8654 42.5002 49.0926 47.0531 48.2364 51.5642C46.7118 59.5422 47.3801 66.7683 54.8151 71.9269C56.4232 73.0338 57.6972 74.8508 56.7991 77.1063C54.0841 83.9565 50.3457 90.1175 44.0385 94.2527C41.1982 96.1115 39.5901 98.5132 39.0471 101.771C38.6502 104.194 39.9869 105.969 42.4304 105.906C43.6835 105.886 46.2732 103.651 47.5472 103.546C48.7794 103.442 49.5939 105.175 50.4502 105.823C53.7917 108.392 54.4183 106.992 57.5092 104.027C59.2218 102.377 60.1407 102.962 61.6653 104.841C63.8164 107.515 65.9049 108.538 68.8914 106.909C71.1261 105.698 73.1519 105.802 75.3448 106.93C80.3571 109.52 80.7331 108.12 84.9518 104.612C85.996 103.734 87.9592 104.465 89.3376 104.674C91.5932 105.008 93.0551 104.612 93.8278 102.419C94.4544 100.664 95.5195 99.8498 97.5244 100.33C99.6965 100.873 100.657 99.5575 100.887 97.5734C101.221 94.754 99.5294 92.0181 97.065 90.577C94.0993 88.8436 90.7369 87.319 88.5649 84.8128C86.7061 82.6826 86.1631 79.3201 85.3486 76.438C85.1189 75.6026 85.7245 74.0154 86.4555 73.535C91.3217 70.2143 92.4912 65.2438 93.2431 59.8346C93.807 55.783 94.0367 46.3013 92.1988 41.2889C94.6423 46.0715 98.7149 60.1688 100.741 65.014C101.242 66.1836 101.994 67.3114 102.871 68.2303C103.268 68.648 104.5 68.8777 104.855 68.5853C105.356 68.1676 105.732 67.1234 105.586 66.4551C105.294 64.9931 104.646 63.5939 104.145 62.1737C100.824 52.9635 97.4618 43.7742 94.2455 34.5431C93.6608 32.8723 92.7001 31.9116 91.1755 32.5382C89.2332 33.3318 91.1755 38.5948 91.1755 38.5948C91.1755 38.5948 87.4162 31.0763 85.4948 30.5541C84.3879 29.0504 82.5918 28.591 81.0464 30.4706C82.4665 31.9325 84.2 33.0394 85.0145 34.6267C89.4629 40.2238 91.8438 48.3062 90.5071 57.1614C89.8179 61.7351 88.899 66.4551 84.8683 69.7966C83.6778 70.7782 82.55 72.6161 82.55 74.0571C82.4456 83.0376 83.4272 88.4468 92.5539 91.4959C93.1804 91.7048 93.8696 91.9763 94.2873 92.4357C94.705 92.9161 95.4569 93.6471 96.1669 94.3571C97.0023 95.2134 96.3758 97.5107 95.3942 96.8633C94.1829 96.0697 92.7001 96.4456 92.2406 98.0746C91.7185 99.9543 89.6091 100.957 87.5206 99.7454C84.9727 98.2835 82.6754 99.9334 80.7122 102.001C79.2294 103.546 77.2662 105.05 75.136 102.753C72.7551 100.205 70.2698 100.205 67.5965 102.168C66.239 103.15 65.5081 102.69 64.7353 101.291C62.5842 97.3228 60.0989 96.9469 56.1726 99.5575C55.6713 99.8916 53.4993 102.523 53.1234 102.147C50.7425 99.7663 47.1086 97.3646 43.5791 101.604C43.5373 101.688 43.5582 99.4113 46.3985 97.1139C51.4735 93.0205 55.4416 87.7576 58.1566 81.8054C58.6579 80.7194 59.2426 79.6751 59.9318 78.6936C62.5007 75.0805 62.0412 71.8434 58.2611 69.6296C53.3949 66.7892 50.9305 62.6749 51.0767 57.0987C51.1602 53.8198 51.4108 50.52 51.8494 47.2411C52.7892 40.0776 55.4207 33.7913 61.6026 29.4264C62.5424 28.758 63.7955 27.6094 64.5474 26.6278C67.4086 22.8685 66.8656 18.3783 66.4688 14.1805C65.8005 7.10052 68.3484 2.94445 76.4099 3.29949C78.5193 3.38303 79.6679 4.28108 80.9837 5.99363C82.2785 7.6853 82.8424 10.818 81.1508 12.6141C78.5819 15.3709 78.7908 18.0441 79.2294 21.1978C79.668 24.3305 81.2343 25.6253 84.3253 25.0406C87.27 24.4767 90.1521 23.4742 92.9298 22.3673C96.9606 20.7592 99.6547 19.1302 103.706 17.6056C108.301 15.893 113 17.8144 114.337 22.5761C115.527 26.8158 117.052 30.9718 118.639 35.0861C120.456 39.7434 122.753 44.2128 124.382 48.9327C126.617 55.4279 128.538 62.0693 130.334 68.6898C132.131 75.352 132.674 81.9307 127.411 87.5696C126.137 88.948 124.716 90.222 123.651 91.7466C123.505 91.9763 123.38 92.2269 123.275 92.4984C122.711 93.9603 124.09 95.5267 125.594 95.0255C125.761 94.9628 125.907 94.9002 126.053 94.7957C132.59 90.034 136.37 83.4971 136.287 75.4146C136.14 71.9687 134.428 68.3556 133.217 64.8261Z" fill="black"/>
<path d="M37.794 35.3785C38.3788 35.9424 38.5667 36.7987 38.337 37.5923C38.2535 37.9056 38.149 38.1562 38.0446 38.4068C34.4524 45.7791 30.8185 53.1306 27.2263 60.5029C26.2865 62.4452 25.7226 64.5963 24.6366 66.4341C23.655 68.084 22.2766 69.5251 20.8773 70.8617C20.4596 71.2585 19.123 71.2585 18.6426 70.8826C18.1414 70.4858 17.8281 69.3371 17.9952 68.6897C18.4547 66.9772 19.123 65.2855 19.9166 63.6774C23.4253 56.681 26.9757 49.7055 30.5679 42.7508C31.7374 40.4953 32.9069 38.198 34.3898 36.1512C34.891 35.4412 36.3112 35.2114 37.3345 35.1488C37.4807 35.1279 37.6478 35.2323 37.794 35.3785Z" fill="black"/>
<path d="M114.128 63.0509C114.358 63.8654 114.211 64.7425 113.71 65.4317C113.397 65.8703 113.084 66.2462 112.896 66.1836C111.956 65.933 110.786 65.1602 110.452 64.3248C108.865 60.1896 107.612 55.9291 106.108 51.7522C104.208 46.4266 102.203 41.1427 100.24 35.8171C100.01 35.1906 99.5712 34.5431 99.6547 33.9584C99.78 33.0394 99.6547 31.5566 100.574 31.2433C101.451 30.9509 102.537 32.0996 102.808 32.8097C106.296 41.6857 109.679 50.5826 113.042 59.5004C113.418 60.5865 113.731 61.7142 114.128 63.0509Z" fill="black"/>
<path d="M124.34 57.0778C124.863 58.1011 124.8 59.3542 124.048 60.2314C123.86 60.4402 123.672 60.6073 123.463 60.6491C122.753 60.7953 121.438 60.294 121.103 59.6675C119.412 56.6392 117.929 53.5065 116.446 50.3738C113.752 44.6722 111.1 38.9498 108.426 33.2274C108.217 32.8097 107.904 32.3711 107.737 32.0161C107.173 30.9092 107.445 29.677 108.28 29.1966C109.032 28.758 110.264 29.489 110.661 30.0529C112.561 32.747 113.46 35.3576 114.921 38.3024C116.3 41.0592 117.992 44.2754 119.203 47.1157C120.268 49.601 121.688 51.961 122.941 54.3837C123.38 55.2608 123.839 56.138 124.34 57.0778Z" fill="black"/>
<path d="M29.9831 72.8875C29.7534 72.4907 29.7116 71.9895 29.8578 71.5509C30.2546 70.4231 30.5887 69.3789 31.09 68.4182C34.0765 62.5287 37.1883 56.6809 40.1331 50.7705C41.1356 48.7447 41.6786 46.5309 42.5348 44.4424C42.9317 43.5026 43.412 42.5002 44.1221 41.7901C44.143 41.7692 44.1012 41.811 44.1221 41.7901C45.4587 40.1193 47.8814 40.892 47.4845 42.9596C47.4637 43.1058 47.4428 43.2311 47.3801 43.3564C45.1454 48.4523 42.7019 53.4647 40.4255 58.5397C39.1724 61.38 38.1908 64.3456 37.0004 67.2277C36.1859 69.2327 35.3714 71.2794 34.2436 73.1172C33.8259 73.7855 32.4893 74.1824 31.5912 74.1406C31.257 74.1406 30.359 73.514 29.9831 72.8875Z" fill="black"/>
<path d="M76.3682 96.9678C75.8252 96.7172 75.491 96.1115 75.679 95.5685C77.7675 89.1986 75.9505 83.8939 73.9873 78.61C73.7785 77.8164 73.9038 76.3754 74.6765 75.9994C75.5119 75.5817 76.6188 76.8975 76.9112 77.6285C78.4984 81.5339 77.6422 82.7035 79.0832 86.6716C79.2085 87.0266 80.3363 90.3055 80.6287 90.7024C81.6103 92.0181 82.5501 94.2737 81.9653 95.2761C81.5894 95.9236 80.0021 94.9002 79.0414 95.1926C78.2687 95.4223 78.1852 97.0096 77.4751 97.1767C77.12 97.2602 76.7441 97.1349 76.3682 96.9678Z" fill="black"/>
<path d="M67.5548 76.0203C67.9516 76.1038 68.244 76.4797 68.2022 76.8974C68.1396 77.7537 68.1187 78.6518 67.7636 79.3618C66.5941 83.7059 65.2575 88.1543 65.0904 92.8325C65.0695 93.7097 65.0486 95.5058 64.1506 95.5685C62.981 95.6311 62.5424 92.7281 61.707 92.4984C60.5793 92.1851 59.4515 94.3154 58.0522 93.9603C57.551 93.835 57.2795 93.2502 57.4883 92.7908C57.8225 92.1016 58.1149 91.4124 58.6579 91.0156C62.4589 88.217 63.712 84.1653 64.6936 79.8631C64.9651 78.7144 65.5081 77.6284 66.0093 76.5215C66.1764 76.1456 66.5732 75.9576 66.97 76.0411L67.5548 76.0203Z" fill="black"/>
<path d="M72.8804 6.66192C73.862 5.53414 76.2846 5.36706 77.3497 6.4113C78.206 7.26758 78.1225 8.04032 78.0389 8.62509C77.8927 9.89907 75.9087 12.092 75.136 11.9249C74.3006 11.7578 73.5487 11.173 72.8386 10.5047C71.8153 9.56491 71.7317 7.97767 72.6298 6.93342C72.7133 6.84988 72.7969 6.76634 72.8804 6.66192Z" fill="black"/>
</svg>
