<svg width="1097" height="555" viewBox="0 0 1097 555" fill="none" xmlns="http://www.w3.org/2000/svg">
<g clip-path="url(#clip0)">
<path d="M683 205.8C679.1 202.1 677.1 197.6 677.1 192.3H681C681 196.6 682.6 200.2 685.8 203.3C689 206.3 692.8 207.9 697.2 207.9C702 207.9 706.2 206.6 709.7 204C713.1 201.4 714.8 198.3 714.8 194.6C714.8 191.4 713.3 188.8 710.2 186.6C707.2 184.5 703.2 183.2 698.2 182.7C692.1 182.2 687.1 180.4 683.5 177.5C679.8 174.5 678 170.9 678 166.5C678 162.2 679.9 158.6 683.6 155.5C687.3 152.5 691.9 150.9 697.2 150.9C702.9 150.9 707.8 152.5 711.8 155.7C715.8 158.9 717.8 162.7 717.8 167.1H714C714 163.7 712.4 160.7 709.1 158.3C705.9 155.8 701.9 154.6 697.3 154.6C693.1 154.6 689.5 155.8 686.4 158.1C683.4 160.4 681.9 163.1 681.9 166.4C681.9 169.6 683.5 172.3 686.6 174.5C689.8 176.7 693.9 178 699.1 178.5C705 179 709.8 180.7 713.4 183.6C717 186.5 718.7 190.1 718.7 194.4C718.7 199.1 716.6 203 712.4 206.3C708.2 209.6 703.1 211.2 697.2 211.2C691.6 211.4 686.9 209.5 683 205.8Z" fill="black"/>
<path d="M734.5 202.6C729.8 197.2 727.5 190.1 727.5 181.3C727.5 172.1 729.8 164.8 734.5 159.3C739.2 153.8 745.4 151.1 753.1 151.1C760.9 151.1 767.1 153.8 771.7 159.3C776.4 164.8 778.7 172.1 778.7 181.3C778.7 190.2 776.4 197.3 771.7 202.6C767 208 760.8 210.6 753.1 210.6C745.4 210.6 739.2 208 734.5 202.6ZM768.9 200C772.8 195.3 774.8 189.1 774.8 181.3C774.8 173.3 772.8 166.9 768.9 162C765 157.2 759.7 154.7 753.1 154.7C746.5 154.7 741.2 157.1 737.3 162C733.4 166.8 731.4 173.3 731.4 181.3C731.4 189.1 733.4 195.4 737.3 200C741.2 204.7 746.5 207.1 753.1 207.1C759.7 207.1 765 204.7 768.9 200Z" fill="black"/>
<path d="M795.8 202.6C790.6 196.7 788 189.6 788 181.3C788 173 790.6 165.8 795.8 159.9C800.9 154 807.1 151.1 814.4 151.1C820.4 151.1 825.5 152.7 829.6 155.9C833.7 159.1 836.3 163.3 837.3 168.7H833.4C832.7 164.7 830.5 161.4 826.9 158.7C823.3 156.1 819.2 154.7 814.4 154.7C808.2 154.7 802.9 157.3 798.5 162.5C794.1 167.7 791.9 174 791.9 181.3C791.9 188.6 794.1 194.9 798.5 200.1C802.9 205.3 808.2 207.9 814.4 207.9C819.7 207.9 824.1 206.3 827.5 203.2C831 200.1 833 196 833.4 190.8H837.3C836.8 197.1 834.4 202.1 830.2 205.8C826.1 209.5 820.8 211.4 814.4 211.4C807.1 211.4 800.9 208.5 795.8 202.6Z" fill="black"/>
<path d="M848.6 210V152.5H852.5V210H848.6Z" fill="black"/>
<path d="M868.1 210V152.5H905.6V156.3H872V178.4H902.7V182H872V206.3H905.6V210H868.1V210Z" fill="black"/>
<path d="M930.1 210V156.3H910.4V152.5H953.8V156.3H934V210H930.1Z" fill="black"/>
<path d="M963.7 210V152.5H1001.2V156.3H967.6V178.4H998.3V182H967.6V206.3H1001.2V210H963.7V210Z" fill="black"/>
<path d="M680.9 303.6V246.1H687L708 298.7L728.9 246.1H735V303.6H731.1V250.6L709.7 303.6H706.1L684.7 250.6V303.6H680.9Z" fill="black"/>
<path d="M754.7 296.3C750 290.9 747.7 283.8 747.7 275C747.7 265.8 750 258.5 754.7 253C759.4 247.5 765.6 244.8 773.3 244.8C781.1 244.8 787.3 247.5 791.9 253C796.6 258.5 798.9 265.8 798.9 275C798.9 283.9 796.6 291 791.9 296.3C787.2 301.7 781 304.3 773.3 304.3C765.5 304.3 759.3 301.6 754.7 296.3ZM789.1 293.6C793 288.9 795 282.7 795 274.9C795 266.9 793 260.5 789.1 255.6C785.2 250.8 779.9 248.3 773.3 248.3C766.7 248.3 761.4 250.7 757.5 255.6C753.6 260.4 751.6 266.9 751.6 274.9C751.6 282.7 753.6 289 757.5 293.6C761.4 298.3 766.7 300.7 773.3 300.7C779.9 300.7 785.1 298.4 789.1 293.6Z" fill="black"/>
<path d="M811.5 246.1H834.3C840.4 246.1 845.6 248.8 849.9 254.3C854.2 259.7 856.3 266.3 856.3 274.1C856.3 282.2 854.2 289.2 849.9 294.9C845.6 300.7 840.4 303.5 834.3 303.5H811.5V246.1ZM834.3 299.9C839.3 299.9 843.5 297.4 847.1 292.3C850.7 287.3 852.4 281.2 852.4 274.1C852.4 267.4 850.6 261.7 847.1 256.9C843.5 252.2 839.3 249.8 834.3 249.8H815.4V299.8H834.3V299.9Z" fill="black"/>
<path d="M868.7 303.6V246.1H906.2V249.9H872.6V272H903.3V275.6H872.6V299.9H906.2V303.6H868.7Z" fill="black"/>
<path d="M916.7 303.6V246.1H944.1C948 246.1 951.4 247.6 954.2 250.6C957 253.5 958.4 257.1 958.4 261.3C958.4 265 957.6 268.2 955.9 270.9C954.2 273.6 952 275.2 949.4 275.7C951.8 276.3 953.7 278.4 955.2 281.8C956.7 285.2 957.4 289.4 957.4 294.2C957.4 296.9 957.5 299 957.6 300.3C957.7 301.9 958 303 958.4 303.7H954.5C953.9 302.9 953.4 301.5 953.2 299.4L952.9 291.2C952.9 287.3 952 284 950.1 281.2C948.3 278.5 946.1 277.1 943.4 277.1H920.5V303.7H916.7V303.6ZM943.5 273.5C946.5 273.5 949.2 272.3 951.4 270C953.5 267.7 954.6 265 954.6 261.7C954.6 258.5 953.5 255.7 951.4 253.4C949.2 251.1 946.6 250 943.5 250H920.6V273.6H943.5V273.5Z" fill="black"/>
<path d="M971.9 303.6V246.1H977.2L1011.9 298.8V246.1H1015.8V303.6H1010.5L975.8 251.6V303.6H971.9Z" fill="black"/>
<path d="M1031.5 303.6V246.1H1069V249.9H1035.4V272H1066.1V275.6H1035.4V299.9H1069V303.6H1031.5Z" fill="black"/>
<path d="M680.9 339.8H703.7C709.8 339.8 715 342.5 719.3 348C723.6 353.4 725.7 360 725.7 367.8C725.7 375.9 723.6 382.9 719.3 388.6C715 394.4 709.8 397.2 703.7 397.2H680.9V339.8ZM703.7 393.6C708.7 393.6 712.9 391.1 716.5 386C720.1 381 721.8 374.9 721.8 367.8C721.8 361.1 720 355.4 716.5 350.6C712.9 345.9 708.7 343.5 703.7 343.5H684.8V393.5H703.7V393.6Z" fill="black"/>
<path d="M738.1 397.3V339.8H775.6V343.6H742V365.7H772.7V369.3H742V393.6H775.6V397.3H738.1V397.3Z" fill="black"/>
<path d="M824.9 389.9C819.7 384 817.1 376.9 817.1 368.6C817.1 360.3 819.7 353.1 824.9 347.2C830 341.3 836.2 338.4 843.5 338.4C849.5 338.4 854.6 340 858.7 343.2C862.8 346.4 865.4 350.6 866.4 356H862.5C861.8 352 859.6 348.7 856 346C852.4 343.4 848.3 342 843.5 342C837.3 342 832 344.6 827.6 349.8C823.2 355 821 361.3 821 368.6C821 375.9 823.2 382.2 827.6 387.4C832 392.6 837.3 395.2 843.5 395.2C848.8 395.2 853.2 393.6 856.6 390.5C860.1 387.4 862.1 383.3 862.5 378.1H866.4C865.9 384.4 863.5 389.4 859.3 393.1C855.2 396.8 849.9 398.7 843.5 398.7C836.2 398.7 830 395.8 824.9 389.9Z" fill="black"/>
<path d="M883.1 392.9C878.9 389 876.8 384.3 876.8 378.8V339.7H880.7V378.8C880.7 383.3 882.4 387.2 885.9 390.3C889.3 393.5 893.5 395.1 898.4 395.1C903.1 395.1 907.1 393.5 910.4 390.3C913.7 387.1 915.3 383.3 915.3 378.8V339.7H919.2V378.8C919.2 384.3 917.2 389 913.1 392.9C909 396.8 904.1 398.7 898.4 398.7C892.4 398.7 887.3 396.8 883.1 392.9Z" fill="black"/>
<path d="M934 397.3V339.8H937.9V397.3H934Z" fill="black"/>
<path d="M968.8 397.3L948.2 339.8H952.6L971 392.2L989.4 339.8H993.9L973.2 397.3H968.8Z" fill="black"/>
<path d="M1004.3 397.3V339.8H1031.7C1035.6 339.8 1039 341.3 1041.8 344.3C1044.6 347.2 1046 350.8 1046 355C1046 358.7 1045.2 361.9 1043.5 364.6C1041.8 367.3 1039.6 368.9 1037 369.4C1039.4 370 1041.3 372.1 1042.8 375.5C1044.3 378.9 1045 383.1 1045 387.9C1045 390.6 1045.1 392.7 1045.2 394C1045.3 395.6 1045.6 396.7 1046 397.4H1042.1C1041.5 396.6 1041 395.2 1040.8 393.1L1040.5 384.9C1040.5 381 1039.6 377.7 1037.7 374.9C1035.9 372.2 1033.7 370.8 1031 370.8H1008.1V397.4H1004.3V397.3ZM1031.1 367.1C1034.1 367.1 1036.8 365.9 1039 363.6C1041.1 361.3 1042.2 358.6 1042.2 355.3C1042.2 352.1 1041.1 349.3 1039 347C1036.8 344.7 1034.2 343.6 1031.1 343.6H1008.2V367.2H1031.1V367.1Z" fill="black"/>
<path d="M1059.5 397.3V339.8H1097V343.6H1063.4V365.7H1094.1V369.3H1063.4V393.6H1097V397.3H1059.5V397.3Z" fill="black"/>
<path d="M604.8 147H603.4V423.5H604.8V147Z" fill="black"/>
<path d="M502.9 357.3C501.4 357.3 499.4 357.3 496.9 357.3H488.9C482.9 356.5 477.7 355.3 473.3 353.8C468.9 352.3 464.9 350.4 461.4 348.1C456.5 345 452.4 340.7 449.1 335C445.8 329.4 443.4 322.9 441.9 315.7C440.4 308.5 439.7 300.7 439.9 292.3C440.1 283.9 441.3 275.2 443.6 266.4C445.9 257.4 448.9 248.4 452.7 239.4C456.5 230.5 461 222.2 466.1 214.6C477 198 489.1 187.3 502.5 182.5C510.9 179.6 519.4 179.6 527.8 182.5C532.8 184.2 537.1 186.5 540.7 189.2C503.7 79.2 399.8 0 277.4 0C124 0 -0.400024 124.4 -0.400024 277.7C-0.400024 321.4 9.69997 362.7 27.7 399.5C28.5 399.3 29.4 399.1 30.2 398.9C32.3 398.3 34.1 397.8 35.7 397.4C42.1 394.9 47.4 389.9 51.6 382.3C55.8 374.7 58.6 365.1 60.1 353.6C60.3 352.4 60.5 350.8 60.6 348.8C60.7 346.8 60.8 344.8 60.8 342.6C60.8 340.4 60.7 338.3 60.6 336.3C60.5 334.2 60.4 332.6 60.4 331.4C59.8 327.1 59.1 323 58.2 319.2C57.4 315.4 56.3 311.4 55 307.3C53.7 303.2 51.9 298.7 49.8 293.7C47.7 288.7 45 283.1 41.9 276.7C37.8 268.1 34.6 261 32.3 255.6C30 250.2 28.1 245.1 26.4 240.3C23.7 230.6 22.4 221.9 22.5 214.1C22.6 206.3 24.3 198.8 27.6 191.6C29.7 186.9 32.4 182.4 35.8 178.2C39.2 174 42.9 170.2 46.9 166.8C50.9 163.4 55.2 160.6 59.7 158.3C64.2 156 68.6 154.5 73 153.7C74.8 153.3 77.1 153.1 79.8 153.1C82.5 153.1 84.7 153.3 86.6 153.7C89.5 154.1 92.5 154.9 95.7 156.2C98.9 157.4 101.6 158.9 103.9 160.5C105.1 161.3 106.6 162.7 108.4 164.5C110.1 166.3 111.3 167.9 111.9 169.1C112.9 170.3 113.7 171.7 114.2 173.3C114.7 174.8 115.2 176.5 115.6 178.4C116 180 116.2 181.4 116.2 182.6C116.2 183.7 116.2 186 116.2 189.5C116.2 192.6 116.2 195 116.2 196.9C116.2 198.8 116 200.5 115.6 202.1C114.6 210.7 113.2 217.8 111.4 223.4C109.7 228.9 107.4 233.5 104.8 237C103.2 238.9 101.6 240.1 100 240.9C98.5 241.6 96.3 241.8 93.7 241.4C91 241 88.7 240.2 86.8 238.9C84.8 237.7 83.9 236.4 83.9 235.2C83.9 235 84.1 234.3 84.4 233.2C84.7 232.1 85.2 230.9 85.8 229.7C87.6 223.1 89.1 217 90.1 211.2C91.1 205.4 91.6 199.3 91.6 192.7C91.8 188 91.8 183.9 91.4 180.5C91.1 177.1 90.4 174.2 89.4 171.7C89.2 170.7 89 170.1 88.9 169.8C88.8 169.6 88.5 169.5 88.1 169.5C87.5 169.7 86.3 170.3 84.4 171.2C82.5 172.1 80.9 173.1 79.5 174.1C74.2 177.8 69.1 182.7 64.2 188.9C59.4 195.1 55.8 201.3 53.6 207.7C52 213 51.1 218.3 51.1 223.6C51.1 228.8 51.9 235.1 53.6 242.3C54.2 244.8 54.9 247.3 55.8 249.9C56.6 252.5 57.7 255.3 59 258.5C60.3 261.7 61.9 265.3 63.8 269.4C65.7 273.5 67.9 278.4 70.6 284.2C73.1 289.5 75.2 294.4 77.1 298.7C79 303 80.5 307 81.7 310.7C82.9 314.4 83.9 317.9 84.6 321.3C85.3 324.7 86 328.2 86.6 331.9C86.8 333.1 86.9 334.8 86.9 337C86.9 339.2 86.9 341.4 86.9 343.8C86.9 346.2 86.9 348.4 86.9 350.6C86.9 352.8 86.8 354.5 86.6 355.7C85.2 364.9 82.6 373.1 79 380.2C75.4 387.3 70.7 393 65 397.3C56.8 403.3 45.8 407 32.1 408.3C78.8 495.9 171.1 555.4 277.3 555.4C411.5 555.4 523.5 460.2 549.4 333.6C536.7 345.9 522.6 353.6 507 356.6C505.9 357.1 504.5 357.3 502.9 357.3ZM428.2 205.9C427.8 209.6 427 214.6 425.9 220.9C424.8 227.2 423.2 235 421.1 244.5C419 254 416.4 265.9 413.1 280.3C411 289.3 409.2 297.6 407.6 305.1C406 312.6 404.5 319.5 403.3 325.9C402.1 332.3 401 338.3 400.1 344.1C399.2 349.9 398.3 355.5 397.5 361.1C394.8 379.2 394.5 393 396.6 402.4C397 404.5 397.2 405.6 397.2 405.8C397.4 406 398.2 405.4 399.7 404C400.9 402.4 402 401.4 402.8 401.2C404.2 400.6 406.4 400.5 409.3 400.9C411.6 401.3 413.5 402 415 402.9C416.5 403.8 417.3 404.8 417.3 405.8C417.3 406.2 416.6 407.3 415.3 409C414 410.7 412.5 412.4 410.8 414.1C410 414.7 409.2 415.3 408.5 415.8C407.8 416.3 407 416.8 406.2 417.2C405.2 417.6 404.4 417.9 403.7 418.1C403.1 418.3 402 418.4 400.3 418.4H395.7C386.7 416.8 381 411.1 378.7 401.4C376.6 393.8 375.9 384.3 376.5 372.9C377.1 361.5 379 346.3 382 327.4C383.8 316.7 385.6 307.2 387.4 298.7C389.1 290.3 391.1 281.3 393.4 271.9C394 269.2 394.7 266.7 395.4 264.3C396.1 261.9 396.8 259.3 397.6 256.3C398.3 253.3 399.2 249.9 400.2 246C401.2 242.1 402.6 237.4 404.2 231.8C405.6 226.3 406.9 221.4 407.9 217.2C408.9 213 409.6 209.3 410.1 206.3C410.7 203 411 201.2 411 200.8C411 200.4 410.6 200.7 409.8 201.7C408.4 203.3 406.5 205.8 404.3 208.9C402 212.1 399.6 215.5 396.9 219.2C394.2 222.9 391.6 226.8 389 230.8C386.4 234.8 384.1 238.5 382.1 241.7C377.4 249.3 372.7 257.1 368.2 265C363.7 272.9 359.1 281.4 354.5 290.6C349.9 299.7 345 309.8 339.9 320.8C334.8 331.8 329.1 344.2 322.9 357.9C314.3 377.4 308.6 389.1 305.9 393C304.9 394.6 303.9 395.9 303 396.9C302.1 397.8 301.2 398.6 300.4 399.2C298.1 400.2 295 400.7 290.8 400.6C286.7 400.5 283.2 399.8 280.3 398.6C277.4 397.4 275.3 396 274 394.4C272.7 392.9 271.6 390.6 270.8 387.8C269.6 382.9 269.2 375.1 269.6 364.5C270 353.9 271.1 341.8 273 328.3C275.3 314.3 278.3 299 282.2 282.4C286.1 265.8 290.7 248.5 296.1 230.6C298.8 222 302.3 211.4 306.6 199C310.9 186.6 315.5 173.5 320.5 159.7C321.1 157.8 321.7 156.1 322.4 154.5C323 152.9 323.5 151.4 323.9 150.2C324.5 148.8 325 147.4 325.4 146.2C323.8 148.9 322.3 151.3 321.1 153.4C319.9 155.5 318.5 158 317.1 160.6C315.7 163.3 314.3 165.9 313.1 168.6C311.5 171.5 309.6 175 307.4 179.1C305.2 183.2 303 187.6 300.6 192.4C298.2 197.1 295.9 201.9 293.5 206.6C291.1 211.3 289 215.5 287.2 219.2C282.9 228.2 278.8 236.7 275 244.6C271.2 252.5 267.4 260.6 263.6 269C259.8 277.3 255.8 286.2 251.7 295.5C247.6 304.9 243.1 315.5 238.1 327.4C235 334.6 232.4 340.6 230.4 345.3C228.3 350 226.5 354.1 225 357.6C223.5 361.1 222.1 364.1 220.8 366.7C219.6 369.3 218.3 371.9 217.1 374.6C212 384.9 207.6 392.5 204 397.6C200.4 402.6 196.9 406 193.4 407.6C191.5 408.4 189.4 408.9 186.9 409.1C184.4 409.3 181.9 409.2 179.3 408.8C176.7 408.4 174.3 407.7 172.1 406.6C169.8 405.6 168 404.3 166.6 402.9C164.8 401.1 163.2 398.1 162 394C161.2 391.1 160.7 388.6 160.5 386.3C160.3 384 160.3 379.9 160.5 374C160.5 369.3 160.5 365.8 160.7 363.7C160.8 361.5 161.1 359.1 161.5 356.5C162.5 347.5 164 338 166 328C168 318 170.9 305.8 174.8 291.2C175.6 288.1 176.5 284.8 177.4 281.2C178.3 277.6 179.2 274.2 180.2 270.9C181.1 267.6 181.9 264.8 182.5 262.6C183.1 260.3 183.4 259.1 183.4 258.9C183.6 258.3 183.3 258.4 182.6 259.4C181.9 260.3 180.4 262.3 178.1 265.4C174.4 270.7 170.6 276.2 166.8 281.9C163 287.6 159.6 293 156.5 298.4C153.4 303.7 150.7 308.6 148.3 312.9C145.9 317.2 144.3 320.6 143.5 323.1C143.1 324.1 142.9 324.8 142.9 325.3C142.9 325.7 142.9 326.1 142.9 326.5C143.3 327.3 143.3 327.9 142.9 328.3C142.7 328.7 142 329.3 140.7 330.2C140.1 330.6 139.6 330.8 139.2 330.8C138.8 330.8 137.9 330.7 136.4 330.5C134.8 330.5 133.5 330.4 132.5 330.2C131.6 330 130.5 329.5 129.3 328.7C127.2 327.7 126.2 325.8 126.2 323.2C126.2 320.7 126.9 317.2 128.4 312.6C129.8 308 131.8 302.8 134.3 297.2C136.8 291.5 139.6 285.5 142.8 279.2C146 272.8 149.3 266.6 152.8 260.4C157.1 253.4 161.3 247 165.4 241.3C169.5 235.5 174.2 229.5 179.6 223.1C181.9 220.4 183.8 218.2 185.3 216.5C186.8 214.8 188.2 213.4 189.3 212.5C190.4 211.6 191.5 210.9 192.5 210.5C193.5 210.1 194.7 209.8 195.9 209.6C199.4 209.2 203.3 209.9 207.8 211.6C212.2 213.3 215.6 215.7 217.8 218.5C218.8 219.5 219.4 220.6 219.6 221.7C219.8 222.8 219.9 224.6 219.9 227.1C219.9 228.7 219.8 230.5 219.6 232.5C219.4 234.5 219 236.8 218.4 239.6C217.8 242.4 217 245.8 216.1 249.8C215.2 253.8 214 258.7 212.6 264.4C211.8 267.7 210.6 272.4 209.1 278.6C207.6 284.8 206.1 290.6 204.6 296.2C201.1 310.6 198.3 322.6 196.1 332.1C193.9 341.7 192.1 350.6 190.7 359.1C190.3 362 189.9 364.7 189.5 367.3C189.1 369.9 188.7 372.2 188.4 374.2C188.1 376.3 187.9 377.9 187.9 379.1C187.9 380.3 188 380.8 188.2 380.6C188.6 380.2 189.7 378.3 191.4 375.1C193.1 371.8 194.6 368.7 195.9 365.9C197.1 363.4 198.4 360.8 199.6 358C200.8 355.2 202.3 352 203.9 348.3C205.5 344.6 207.5 340.2 209.8 335.2C212.1 330.2 214.7 323.9 217.8 316.6C221.9 307.1 225.5 298.9 228.6 291.8C231.7 284.7 234.5 278.3 236.9 272.5C239.4 266.7 241.8 261.4 244.1 256.3C246.5 251.3 248.9 246 251.3 240.4C261.6 218.8 272.7 196.5 284.7 173.5C296.7 150.5 308.6 129 320.3 109.1C322.2 106 324.6 102 327.5 96.9C330.5 91.9 333.5 86.8 336.6 81.6C339.7 76.5 342.5 71.8 344.9 67.7C347.4 63.6 349 61 349.8 60C352.7 55.5 354.9 53.1 356.6 52.9H360C363.1 53.1 366.6 54.5 370.5 57.2C374.4 59.9 377.1 62.7 378.5 65.8L379.4 68V73.2C379.4 76.3 379.1 79.4 378.6 82.6C378.1 85.8 377 90.7 375.4 97.2C374.4 101.1 373.3 105.1 372.3 109.2C371.3 113.3 369.9 118.1 368.3 123.5C366.7 128.9 364.7 135.3 362.4 142.6C360.1 149.9 357.4 158.6 354.1 168.6C348.1 186.9 343.1 203 338.8 217C334.6 231 330.8 243.9 327.4 255.7C324 267.5 321 278.8 318.3 289.6C315.6 300.4 313 311.7 310.3 323.7C309.7 326.4 309.2 328.7 308.8 330.6C308.4 332.6 308.1 333.6 307.9 333.8L311.3 327.9C316 318 320.4 309.1 324.6 301.1C328.7 293.1 332.8 285.5 336.9 278.3C341 271.1 345.1 264.2 349.2 257.5C353.3 250.8 357.7 243.9 362.5 236.7C365.2 232.8 368 228.6 371.1 224.2C374.2 219.8 377.2 215.5 380 211.4C382.9 207.3 385.5 203.5 388 200.1C390.5 196.7 392.5 194.1 394.2 192.2C396.3 189.9 398.5 187.7 400.8 185.4C403.2 183.1 405 181.7 406.2 181.1C407.2 180.5 407.9 180.1 408.4 180C408.8 179.9 409.8 179.8 411.5 179.8C413.1 179.8 414.3 179.9 414.9 180C415.5 180.1 416.5 180.5 418 181.1C421.7 182.7 424.3 184.6 425.9 186.8C427.4 189 428.4 192.1 428.8 196.2C428.8 199 428.6 202.2 428.2 205.9Z" fill="black"/>
<path d="M546.1 240.2C545 241.8 543.9 243 542.9 243.6C542.3 244 541.3 244.2 539.8 244.2C537.7 244 535.7 243.3 533.6 242.2C531.5 241.1 530.2 239.7 529.6 238C529.2 237.6 529 237.1 529.1 236.5C529.2 235.9 529.7 234.4 530.5 232.2C531.7 228.3 532.6 225.3 533.1 223.1C533.6 220.9 533.9 218.1 533.9 214.6C533.9 211.9 533.8 210.1 533.7 209.2C533.6 208.3 533.3 207.1 532.9 205.7C532.3 203.8 531.7 202.3 531.2 200.9C530.7 199.6 530.2 198.9 529.8 198.9C529.4 198.9 528.6 199.1 527.3 199.5C526.1 199.9 524.9 200.3 523.9 200.7C516.7 204.2 509.4 210.8 502 220.4C494.6 230.1 488.1 241.4 482.6 254.3C470.7 282.5 466.8 306.3 470.9 325.8C471.9 330.9 473.3 335.3 475.1 338.7C476.8 342.2 478.7 344.1 480.8 344.6C481.2 344.8 481.9 344.9 483 344.9C484 344.9 485.1 345 486.1 345.2C491.2 345.6 496.6 344.9 502.3 343C508 341.1 513.7 338.5 519.4 335C522.7 332.9 525.6 330.8 528.2 328.7C530.8 326.5 533.9 323.7 537.6 320.2C540.9 316.7 542.9 314.6 543.6 313.9C544.3 313.2 545.1 312.8 545.9 312.8C548.2 312.5 550.5 312.8 552.8 313.5C554.3 301.8 555.1 289.8 555.1 277.6C555.1 261.4 553.7 245.5 551 230.1C550.5 231.6 549.9 233 549.3 234.3C548.3 236.6 547.2 238.5 546.1 240.2Z" fill="black"/>
</g>
<defs>
<clipPath id="clip0">
<rect width="1097" height="555" fill="white"/>
</clipPath>
</defs>
</svg>
