<svg width="1260" height="1260" viewBox="0 0 1260 1260" fill="none" xmlns="http://www.w3.org/2000/svg">
<circle cx="630" cy="630" r="630" fill="black"/>
<g clip-path="url(#clip0)">
<path d="M765 558.8C761.1 555.1 759.1 550.6 759.1 545.3H763C763 549.6 764.6 553.2 767.8 556.3C771 559.3 774.8 560.9 779.2 560.9C784 560.9 788.2 559.6 791.7 557C795.1 554.4 796.8 551.3 796.8 547.6C796.8 544.4 795.3 541.8 792.2 539.6C789.2 537.5 785.2 536.2 780.2 535.7C774.1 535.2 769.1 533.4 765.5 530.5C761.8 527.5 760 523.9 760 519.5C760 515.2 761.9 511.6 765.6 508.5C769.3 505.5 773.9 503.9 779.2 503.9C784.9 503.9 789.8 505.5 793.8 508.7C797.8 511.9 799.8 515.7 799.8 520.1H796C796 516.7 794.4 513.7 791.1 511.3C787.9 508.8 783.9 507.6 779.3 507.6C775.1 507.6 771.5 508.8 768.4 511.1C765.4 513.4 763.9 516.1 763.9 519.4C763.9 522.6 765.5 525.3 768.6 527.5C771.8 529.7 775.9 531 781.1 531.5C787 532 791.8 533.7 795.4 536.6C799 539.5 800.7 543.1 800.7 547.4C800.7 552.1 798.6 556 794.4 559.3C790.2 562.6 785.1 564.2 779.2 564.2C773.6 564.4 768.9 562.5 765 558.8Z" fill="url(#paint0_linear)"/>
<path d="M816.5 555.6C811.8 550.2 809.5 543.1 809.5 534.3C809.5 525.1 811.8 517.8 816.5 512.3C821.2 506.8 827.4 504.1 835.1 504.1C842.9 504.1 849.1 506.8 853.7 512.3C858.4 517.8 860.7 525.1 860.7 534.3C860.7 543.2 858.4 550.3 853.7 555.6C849 561 842.8 563.6 835.1 563.6C827.4 563.6 821.2 561 816.5 555.6ZM850.9 553C854.8 548.3 856.8 542.1 856.8 534.3C856.8 526.3 854.8 519.9 850.9 515C847 510.2 841.7 507.7 835.1 507.7C828.5 507.7 823.2 510.1 819.3 515C815.4 519.8 813.4 526.3 813.4 534.3C813.4 542.1 815.4 548.4 819.3 553C823.2 557.7 828.5 560.1 835.1 560.1C841.7 560.1 847 557.7 850.9 553Z" fill="url(#paint1_linear)"/>
<path d="M877.8 555.6C872.6 549.7 870 542.6 870 534.3C870 526 872.6 518.8 877.8 512.9C882.9 507 889.1 504.1 896.4 504.1C902.4 504.1 907.5 505.7 911.6 508.9C915.7 512.1 918.3 516.3 919.3 521.7H915.4C914.7 517.7 912.5 514.4 908.9 511.7C905.3 509.1 901.2 507.7 896.4 507.7C890.2 507.7 884.9 510.3 880.5 515.5C876.1 520.7 873.9 527 873.9 534.3C873.9 541.6 876.1 547.9 880.5 553.1C884.9 558.3 890.2 560.9 896.4 560.9C901.7 560.9 906.1 559.3 909.5 556.2C913 553.1 915 549 915.4 543.8H919.3C918.8 550.1 916.4 555.1 912.2 558.8C908.1 562.5 902.8 564.4 896.4 564.4C889.1 564.4 882.9 561.5 877.8 555.6Z" fill="url(#paint2_linear)"/>
<path d="M930.6 563V505.5H934.5V563H930.6Z" fill="url(#paint3_linear)"/>
<path d="M950.1 563V505.5H987.6V509.3H954V531.4H984.7V535H954V559.3H987.6V563H950.1V563Z" fill="url(#paint4_linear)"/>
<path d="M1012.1 563V509.3H992.4V505.5H1035.8V509.3H1016V563H1012.1Z" fill="url(#paint5_linear)"/>
<path d="M1045.7 563V505.5H1083.2V509.3H1049.6V531.4H1080.3V535H1049.6V559.3H1083.2V563H1045.7V563Z" fill="url(#paint6_linear)"/>
<path d="M762.9 656.6V599.1H769L790 651.7L810.9 599.1H817V656.6H813.1V603.6L791.7 656.6H788.1L766.7 603.6V656.6H762.9Z" fill="url(#paint7_linear)"/>
<path d="M836.7 649.3C832 643.9 829.7 636.8 829.7 628C829.7 618.8 832 611.5 836.7 606C841.4 600.5 847.6 597.8 855.3 597.8C863.1 597.8 869.3 600.5 873.9 606C878.6 611.5 880.9 618.8 880.9 628C880.9 636.9 878.6 644 873.9 649.3C869.2 654.7 863 657.3 855.3 657.3C847.5 657.3 841.3 654.6 836.7 649.3ZM871.1 646.6C875 641.9 877 635.7 877 627.9C877 619.9 875 613.5 871.1 608.6C867.2 603.8 861.9 601.3 855.3 601.3C848.7 601.3 843.4 603.7 839.5 608.6C835.6 613.4 833.6 619.9 833.6 627.9C833.6 635.7 835.6 642 839.5 646.6C843.4 651.3 848.7 653.7 855.3 653.7C861.9 653.7 867.1 651.4 871.1 646.6Z" fill="url(#paint8_linear)"/>
<path d="M893.5 599.1H916.3C922.4 599.1 927.6 601.8 931.9 607.3C936.2 612.7 938.3 619.3 938.3 627.1C938.3 635.2 936.2 642.2 931.9 647.9C927.6 653.7 922.4 656.5 916.3 656.5H893.5V599.1ZM916.3 652.9C921.3 652.9 925.5 650.4 929.1 645.3C932.7 640.3 934.4 634.2 934.4 627.1C934.4 620.4 932.6 614.7 929.1 609.9C925.5 605.2 921.3 602.8 916.3 602.8H897.4V652.8H916.3V652.9Z" fill="url(#paint9_linear)"/>
<path d="M950.7 656.6V599.1H988.2V602.9H954.6V625H985.3V628.6H954.6V652.9H988.2V656.6H950.7Z" fill="url(#paint10_linear)"/>
<path d="M998.7 656.6V599.1H1026.1C1030 599.1 1033.4 600.6 1036.2 603.6C1039 606.5 1040.4 610.1 1040.4 614.3C1040.4 618 1039.6 621.2 1037.9 623.9C1036.2 626.6 1034 628.2 1031.4 628.7C1033.8 629.3 1035.7 631.4 1037.2 634.8C1038.7 638.2 1039.4 642.4 1039.4 647.2C1039.4 649.9 1039.5 652 1039.6 653.3C1039.7 654.9 1040 656 1040.4 656.7H1036.5C1035.9 655.9 1035.4 654.5 1035.2 652.4L1034.9 644.2C1034.9 640.3 1034 637 1032.1 634.2C1030.3 631.5 1028.1 630.1 1025.4 630.1H1002.5V656.7H998.7V656.6ZM1025.5 626.5C1028.5 626.5 1031.2 625.3 1033.4 623C1035.5 620.7 1036.6 618 1036.6 614.7C1036.6 611.5 1035.5 608.7 1033.4 606.4C1031.2 604.1 1028.6 603 1025.5 603H1002.6V626.6H1025.5V626.5Z" fill="url(#paint11_linear)"/>
<path d="M1053.9 656.6V599.1H1059.2L1093.9 651.8V599.1H1097.8V656.6H1092.5L1057.8 604.6V656.6H1053.9Z" fill="url(#paint12_linear)"/>
<path d="M1113.5 656.6V599.1H1151V602.9H1117.4V625H1148.1V628.6H1117.4V652.9H1151V656.6H1113.5Z" fill="url(#paint13_linear)"/>
<path d="M762.9 692.8H785.7C791.8 692.8 797 695.5 801.3 701C805.6 706.4 807.7 713 807.7 720.8C807.7 728.9 805.6 735.9 801.3 741.6C797 747.4 791.8 750.2 785.7 750.2H762.9V692.8ZM785.7 746.6C790.7 746.6 794.9 744.1 798.5 739C802.1 734 803.8 727.9 803.8 720.8C803.8 714.1 802 708.4 798.5 703.6C794.9 698.9 790.7 696.5 785.7 696.5H766.8V746.5H785.7V746.6Z" fill="url(#paint14_linear)"/>
<path d="M820.1 750.3V692.8H857.6V696.6H824V718.7H854.7V722.3H824V746.6H857.6V750.3H820.1V750.3Z" fill="url(#paint15_linear)"/>
<path d="M906.9 742.9C901.7 737 899.1 729.9 899.1 721.6C899.1 713.3 901.7 706.1 906.9 700.2C912 694.3 918.2 691.4 925.5 691.4C931.5 691.4 936.6 693 940.7 696.2C944.8 699.4 947.4 703.6 948.4 709H944.5C943.8 705 941.6 701.7 938 699C934.4 696.4 930.3 695 925.5 695C919.3 695 914 697.6 909.6 702.8C905.2 708 903 714.3 903 721.6C903 728.9 905.2 735.2 909.6 740.4C914 745.6 919.3 748.2 925.5 748.2C930.8 748.2 935.2 746.6 938.6 743.5C942.1 740.4 944.1 736.3 944.5 731.1H948.4C947.9 737.4 945.5 742.4 941.3 746.1C937.2 749.8 931.9 751.7 925.5 751.7C918.2 751.7 912 748.8 906.9 742.9Z" fill="url(#paint16_linear)"/>
<path d="M965.1 745.9C960.9 742 958.8 737.3 958.8 731.8V692.7H962.7V731.8C962.7 736.3 964.4 740.2 967.9 743.3C971.3 746.5 975.5 748.1 980.4 748.1C985.1 748.1 989.1 746.5 992.4 743.3C995.7 740.1 997.3 736.3 997.3 731.8V692.7H1001.2V731.8C1001.2 737.3 999.2 742 995.1 745.9C991 749.8 986.1 751.7 980.4 751.7C974.4 751.7 969.3 749.8 965.1 745.9Z" fill="url(#paint17_linear)"/>
<path d="M1016 750.3V692.8H1019.9V750.3H1016Z" fill="url(#paint18_linear)"/>
<path d="M1050.8 750.3L1030.2 692.8H1034.6L1053 745.2L1071.4 692.8H1075.9L1055.2 750.3H1050.8Z" fill="url(#paint19_linear)"/>
<path d="M1086.3 750.3V692.8H1113.7C1117.6 692.8 1121 694.3 1123.8 697.3C1126.6 700.2 1128 703.8 1128 708C1128 711.7 1127.2 714.9 1125.5 717.6C1123.8 720.3 1121.6 721.9 1119 722.4C1121.4 723 1123.3 725.1 1124.8 728.5C1126.3 731.9 1127 736.1 1127 740.9C1127 743.6 1127.1 745.7 1127.2 747C1127.3 748.6 1127.6 749.7 1128 750.4H1124.1C1123.5 749.6 1123 748.2 1122.8 746.1L1122.5 737.9C1122.5 734 1121.6 730.7 1119.7 727.9C1117.9 725.2 1115.7 723.8 1113 723.8H1090.1V750.4H1086.3V750.3ZM1113.1 720.1C1116.1 720.1 1118.8 718.9 1121 716.6C1123.1 714.3 1124.2 711.6 1124.2 708.3C1124.2 705.1 1123.1 702.3 1121 700C1118.8 697.7 1116.2 696.6 1113.1 696.6H1090.2V720.2H1113.1V720.1Z" fill="url(#paint20_linear)"/>
<path d="M1141.5 750.3V692.8H1179V696.6H1145.4V718.7H1176.1V722.3H1145.4V746.6H1179V750.3H1141.5V750.3Z" fill="url(#paint21_linear)"/>
<path d="M686.8 500H685.4V776.5H686.8V500Z" fill="url(#paint22_linear)"/>
<path d="M584.9 710.3C583.4 710.3 581.4 710.3 578.9 710.3H570.9C564.9 709.5 559.7 708.3 555.3 706.8C550.9 705.3 546.9 703.4 543.4 701.1C538.5 698 534.4 693.7 531.1 688C527.8 682.4 525.4 675.9 523.9 668.7C522.4 661.5 521.7 653.7 521.9 645.3C522.1 636.9 523.3 628.2 525.6 619.4C527.9 610.4 530.9 601.4 534.7 592.4C538.5 583.5 543 575.2 548.1 567.6C559 551 571.1 540.3 584.5 535.5C592.9 532.6 601.4 532.6 609.8 535.5C614.8 537.2 619.1 539.5 622.7 542.2C585.7 432.2 481.8 353 359.4 353C206 353 81.6 477.4 81.6 630.7C81.6 674.4 91.7 715.7 109.7 752.5C110.5 752.3 111.4 752.1 112.2 751.9C114.3 751.3 116.1 750.8 117.7 750.4C124.1 747.9 129.4 742.9 133.6 735.3C137.8 727.7 140.6 718.1 142.1 706.6C142.3 705.4 142.5 703.8 142.6 701.8C142.7 699.8 142.8 697.8 142.8 695.6C142.8 693.4 142.7 691.3 142.6 689.3C142.5 687.2 142.4 685.6 142.4 684.4C141.8 680.1 141.1 676 140.2 672.2C139.4 668.4 138.3 664.4 137 660.3C135.7 656.2 133.9 651.7 131.8 646.7C129.7 641.7 127 636.1 123.9 629.7C119.8 621.1 116.6 614 114.3 608.6C112 603.2 110.1 598.1 108.4 593.3C105.7 583.6 104.4 574.9 104.5 567.1C104.6 559.3 106.3 551.8 109.6 544.6C111.7 539.9 114.4 535.4 117.8 531.2C121.2 527 124.9 523.2 128.9 519.8C132.9 516.4 137.2 513.6 141.7 511.3C146.2 509 150.6 507.5 155 506.7C156.8 506.3 159.1 506.1 161.8 506.1C164.5 506.1 166.7 506.3 168.6 506.7C171.5 507.1 174.5 507.9 177.7 509.2C180.9 510.4 183.6 511.9 185.9 513.5C187.1 514.3 188.6 515.7 190.4 517.5C192.1 519.3 193.3 520.9 193.9 522.1C194.9 523.3 195.7 524.7 196.2 526.3C196.7 527.8 197.2 529.5 197.6 531.4C198 533 198.2 534.4 198.2 535.6C198.2 536.7 198.2 539 198.2 542.5C198.2 545.6 198.2 548 198.2 549.9C198.2 551.8 198 553.5 197.6 555.1C196.6 563.7 195.2 570.8 193.4 576.4C191.7 581.9 189.4 586.5 186.8 590C185.2 591.9 183.6 593.1 182 593.9C180.5 594.6 178.3 594.8 175.7 594.4C173 594 170.7 593.2 168.8 591.9C166.8 590.7 165.9 589.4 165.9 588.2C165.9 588 166.1 587.3 166.4 586.2C166.7 585.1 167.2 583.9 167.8 582.7C169.6 576.1 171.1 570 172.1 564.2C173.1 558.4 173.6 552.3 173.6 545.7C173.8 541 173.8 536.9 173.4 533.5C173.1 530.1 172.4 527.2 171.4 524.7C171.2 523.7 171 523.1 170.9 522.8C170.8 522.6 170.5 522.5 170.1 522.5C169.5 522.7 168.3 523.3 166.4 524.2C164.5 525.1 162.9 526.1 161.5 527.1C156.2 530.8 151.1 535.7 146.2 541.9C141.4 548.1 137.8 554.3 135.6 560.7C134 566 133.1 571.3 133.1 576.6C133.1 581.8 133.9 588.1 135.6 595.3C136.2 597.8 136.9 600.3 137.8 602.9C138.6 605.5 139.7 608.3 141 611.5C142.3 614.7 143.9 618.3 145.8 622.4C147.7 626.5 149.9 631.4 152.6 637.2C155.1 642.5 157.2 647.4 159.1 651.7C161 656 162.5 660 163.7 663.7C164.9 667.4 165.9 670.9 166.6 674.3C167.3 677.7 168 681.2 168.6 684.9C168.8 686.1 168.9 687.8 168.9 690C168.9 692.2 168.9 694.4 168.9 696.8C168.9 699.2 168.9 701.4 168.9 703.6C168.9 705.8 168.8 707.5 168.6 708.7C167.2 717.9 164.6 726.1 161 733.2C157.4 740.3 152.7 746 147 750.3C138.8 756.3 127.8 760 114.1 761.3C160.8 848.9 253.1 908.4 359.3 908.4C493.5 908.4 605.5 813.2 631.4 686.6C618.7 698.9 604.6 706.6 589 709.6C587.9 710.1 586.5 710.3 584.9 710.3ZM510.2 558.9C509.8 562.6 509 567.6 507.9 573.9C506.8 580.2 505.2 588 503.1 597.5C501 607 498.4 618.9 495.1 633.3C493 642.3 491.2 650.6 489.6 658.1C488 665.6 486.5 672.5 485.3 678.9C484.1 685.3 483 691.3 482.1 697.1C481.2 702.9 480.3 708.5 479.5 714.1C476.8 732.2 476.5 746 478.6 755.4C479 757.5 479.2 758.6 479.2 758.8C479.4 759 480.2 758.4 481.7 757C482.9 755.4 484 754.4 484.8 754.2C486.2 753.6 488.4 753.5 491.3 753.9C493.6 754.3 495.5 755 497 755.9C498.5 756.8 499.3 757.8 499.3 758.8C499.3 759.2 498.6 760.3 497.3 762C496 763.7 494.5 765.4 492.8 767.1C492 767.7 491.2 768.3 490.5 768.8C489.8 769.3 489 769.8 488.2 770.2C487.2 770.6 486.4 770.9 485.7 771.1C485.1 771.3 484 771.4 482.3 771.4H477.7C468.7 769.8 463 764.1 460.7 754.4C458.6 746.8 457.9 737.3 458.5 725.9C459.1 714.5 461 699.3 464 680.4C465.8 669.7 467.6 660.2 469.4 651.7C471.1 643.3 473.1 634.3 475.4 624.9C476 622.2 476.7 619.7 477.4 617.3C478.1 614.9 478.8 612.3 479.6 609.3C480.3 606.3 481.2 602.9 482.2 599C483.2 595.1 484.6 590.4 486.2 584.8C487.6 579.3 488.9 574.4 489.9 570.2C490.9 566 491.6 562.3 492.1 559.3C492.7 556 493 554.2 493 553.8C493 553.4 492.6 553.7 491.8 554.7C490.4 556.3 488.5 558.8 486.3 561.9C484 565.1 481.6 568.5 478.9 572.2C476.2 575.9 473.6 579.8 471 583.8C468.4 587.8 466.1 591.5 464.1 594.7C459.4 602.3 454.7 610.1 450.2 618C445.7 625.9 441.1 634.4 436.5 643.6C431.9 652.7 427 662.8 421.9 673.8C416.8 684.8 411.1 697.2 404.9 710.9C396.3 730.4 390.6 742.1 387.9 746C386.9 747.6 385.9 748.9 385 749.9C384.1 750.8 383.2 751.6 382.4 752.2C380.1 753.2 377 753.7 372.8 753.6C368.7 753.5 365.2 752.8 362.3 751.6C359.4 750.4 357.3 749 356 747.4C354.7 745.9 353.6 743.6 352.8 740.8C351.6 735.9 351.2 728.1 351.6 717.5C352 706.9 353.1 694.8 355 681.3C357.3 667.3 360.3 652 364.2 635.4C368.1 618.8 372.7 601.5 378.1 583.6C380.8 575 384.3 564.4 388.6 552C392.9 539.6 397.5 526.5 402.5 512.7C403.1 510.8 403.7 509.1 404.4 507.5C405 505.9 405.5 504.4 405.9 503.2C406.5 501.8 407 500.4 407.4 499.2C405.8 501.9 404.3 504.3 403.1 506.4C401.9 508.5 400.5 511 399.1 513.6C397.7 516.3 396.3 518.9 395.1 521.6C393.5 524.5 391.6 528 389.4 532.1C387.2 536.2 385 540.6 382.6 545.4C380.2 550.1 377.9 554.9 375.5 559.6C373.1 564.3 371 568.5 369.2 572.2C364.9 581.2 360.8 589.7 357 597.6C353.2 605.5 349.4 613.6 345.6 622C341.8 630.3 337.8 639.2 333.7 648.5C329.6 657.9 325.1 668.5 320.1 680.4C317 687.6 314.4 693.6 312.4 698.3C310.3 703 308.5 707.1 307 710.6C305.5 714.1 304.1 717.1 302.8 719.7C301.6 722.3 300.3 724.9 299.1 727.6C294 737.9 289.6 745.5 286 750.6C282.4 755.6 278.9 759 275.4 760.6C273.5 761.4 271.4 761.9 268.9 762.1C266.4 762.3 263.9 762.2 261.3 761.8C258.7 761.4 256.3 760.7 254.1 759.6C251.8 758.6 250 757.3 248.6 755.9C246.8 754.1 245.2 751.1 244 747C243.2 744.1 242.7 741.6 242.5 739.3C242.3 737 242.3 732.9 242.5 727C242.5 722.3 242.5 718.8 242.7 716.7C242.8 714.5 243.1 712.1 243.5 709.5C244.5 700.5 246 691 248 681C250 671 252.9 658.8 256.8 644.2C257.6 641.1 258.5 637.8 259.4 634.2C260.3 630.6 261.2 627.2 262.2 623.9C263.1 620.6 263.9 617.8 264.5 615.6C265.1 613.3 265.4 612.1 265.4 611.9C265.6 611.3 265.3 611.4 264.6 612.4C263.9 613.3 262.4 615.3 260.1 618.4C256.4 623.7 252.6 629.2 248.8 634.9C245 640.6 241.6 646 238.5 651.4C235.4 656.7 232.7 661.6 230.3 665.9C227.9 670.2 226.3 673.6 225.5 676.1C225.1 677.1 224.9 677.8 224.9 678.3C224.9 678.7 224.9 679.1 224.9 679.5C225.3 680.3 225.3 680.9 224.9 681.3C224.7 681.7 224 682.3 222.7 683.2C222.1 683.6 221.6 683.8 221.2 683.8C220.8 683.8 219.9 683.7 218.4 683.5C216.8 683.5 215.5 683.4 214.5 683.2C213.6 683 212.5 682.5 211.3 681.7C209.2 680.7 208.2 678.8 208.2 676.2C208.2 673.7 208.9 670.2 210.4 665.6C211.8 661 213.8 655.8 216.3 650.2C218.8 644.5 221.6 638.5 224.8 632.2C228 625.8 231.3 619.6 234.8 613.4C239.1 606.4 243.3 600 247.4 594.3C251.5 588.5 256.2 582.5 261.6 576.1C263.9 573.4 265.8 571.2 267.3 569.5C268.8 567.8 270.2 566.4 271.3 565.5C272.4 564.6 273.5 563.9 274.5 563.5C275.5 563.1 276.7 562.8 277.9 562.6C281.4 562.2 285.3 562.9 289.8 564.6C294.2 566.3 297.6 568.7 299.8 571.5C300.8 572.5 301.4 573.6 301.6 574.7C301.8 575.8 301.9 577.6 301.9 580.1C301.9 581.7 301.8 583.5 301.6 585.5C301.4 587.5 301 589.8 300.4 592.6C299.8 595.4 299 598.8 298.1 602.8C297.2 606.8 296 611.7 294.6 617.4C293.8 620.7 292.6 625.4 291.1 631.6C289.6 637.8 288.1 643.6 286.6 649.2C283.1 663.6 280.3 675.6 278.1 685.1C275.9 694.7 274.1 703.6 272.7 712.1C272.3 715 271.9 717.7 271.5 720.3C271.1 722.9 270.7 725.2 270.4 727.2C270.1 729.3 269.9 730.9 269.9 732.1C269.9 733.3 270 733.8 270.2 733.6C270.6 733.2 271.7 731.3 273.4 728.1C275.1 724.8 276.6 721.7 277.9 718.9C279.1 716.4 280.4 713.8 281.6 711C282.8 708.2 284.3 705 285.9 701.3C287.5 697.6 289.5 693.2 291.8 688.2C294.1 683.2 296.7 676.9 299.8 669.6C303.9 660.1 307.5 651.9 310.6 644.8C313.7 637.7 316.5 631.3 318.9 625.5C321.4 619.7 323.8 614.4 326.1 609.3C328.5 604.3 330.9 599 333.3 593.4C343.6 571.8 354.7 549.5 366.7 526.5C378.7 503.5 390.6 482 402.3 462.1C404.2 459 406.6 455 409.5 449.9C412.5 444.9 415.5 439.8 418.6 434.6C421.7 429.5 424.5 424.8 426.9 420.7C429.4 416.6 431 414 431.8 413C434.7 408.5 436.9 406.1 438.6 405.9H442C445.1 406.1 448.6 407.5 452.5 410.2C456.4 412.9 459.1 415.7 460.5 418.8L461.4 421V426.2C461.4 429.3 461.1 432.4 460.6 435.6C460.1 438.8 459 443.7 457.4 450.2C456.4 454.1 455.3 458.1 454.3 462.2C453.3 466.3 451.9 471.1 450.3 476.5C448.7 481.9 446.7 488.3 444.4 495.6C442.1 502.9 439.4 511.6 436.1 521.6C430.1 539.9 425.1 556 420.8 570C416.6 584 412.8 596.9 409.4 608.7C406 620.5 403 631.8 400.3 642.6C397.6 653.4 395 664.7 392.3 676.7C391.7 679.4 391.2 681.7 390.8 683.6C390.4 685.6 390.1 686.6 389.9 686.8L393.3 680.9C398 671 402.4 662.1 406.6 654.1C410.7 646.1 414.8 638.5 418.9 631.3C423 624.1 427.1 617.2 431.2 610.5C435.3 603.8 439.7 596.9 444.5 589.7C447.2 585.8 450 581.6 453.1 577.2C456.2 572.8 459.2 568.5 462 564.4C464.9 560.3 467.5 556.5 470 553.1C472.5 549.7 474.5 547.1 476.2 545.2C478.3 542.9 480.5 540.7 482.8 538.4C485.2 536.1 487 534.7 488.2 534.1C489.2 533.5 489.9 533.1 490.4 533C490.8 532.9 491.8 532.8 493.5 532.8C495.1 532.8 496.3 532.9 496.9 533C497.5 533.1 498.5 533.5 500 534.1C503.7 535.7 506.3 537.6 507.9 539.8C509.4 542 510.4 545.1 510.8 549.2C510.8 552 510.6 555.2 510.2 558.9Z" fill="url(#paint23_linear)"/>
<path d="M628.1 593.2C627 594.8 625.9 596 624.9 596.6C624.3 597 623.3 597.2 621.8 597.2C619.7 597 617.7 596.3 615.6 595.2C613.5 594.1 612.2 592.7 611.6 591C611.2 590.6 611 590.1 611.1 589.5C611.2 588.9 611.7 587.4 612.5 585.2C613.7 581.3 614.6 578.3 615.1 576.1C615.6 573.9 615.9 571.1 615.9 567.6C615.9 564.9 615.8 563.1 615.7 562.2C615.6 561.3 615.3 560.1 614.9 558.7C614.3 556.8 613.7 555.3 613.2 553.9C612.7 552.6 612.2 551.9 611.8 551.9C611.4 551.9 610.6 552.1 609.3 552.5C608.1 552.9 606.9 553.3 605.9 553.7C598.7 557.2 591.4 563.8 584 573.4C576.6 583.1 570.1 594.4 564.6 607.3C552.7 635.5 548.8 659.3 552.9 678.8C553.9 683.9 555.3 688.3 557.1 691.7C558.8 695.2 560.7 697.1 562.8 697.6C563.2 697.8 563.9 697.9 565 697.9C566 697.9 567.1 698 568.1 698.2C573.2 698.6 578.6 697.9 584.3 696C590 694.1 595.7 691.5 601.4 688C604.7 685.9 607.6 683.8 610.2 681.7C612.8 679.5 615.9 676.7 619.6 673.2C622.9 669.7 624.9 667.6 625.6 666.9C626.3 666.2 627.1 665.8 627.9 665.8C630.2 665.5 632.5 665.8 634.8 666.5C636.3 654.8 637.1 642.8 637.1 630.6C637.1 614.4 635.7 598.5 633 583.1C632.5 584.6 631.9 586 631.3 587.3C630.3 589.6 629.2 591.5 628.1 593.2Z" fill="url(#paint24_linear)"/>
</g>
<defs>
<linearGradient id="paint0_linear" x1="681.052" y1="600.328" x2="1081.38" y2="332.068" gradientUnits="userSpaceOnUse">
<stop stop-color="#8C5E50"/>
<stop offset="0.098297" stop-color="#9D6E52"/>
<stop offset="0.1854" stop-color="#B07F54"/>
<stop offset="0.3916" stop-color="#8C5E50"/>
<stop offset="0.6151" stop-color="#D3BAA3"/>
<stop offset="0.6682" stop-color="#E5D0B8"/>
<stop offset="0.9494" stop-color="#B07F54"/>
</linearGradient>
<linearGradient id="paint1_linear" x1="698.064" y1="625.715" x2="1098.39" y2="357.455" gradientUnits="userSpaceOnUse">
<stop stop-color="#8C5E50"/>
<stop offset="0.098297" stop-color="#9D6E52"/>
<stop offset="0.1854" stop-color="#B07F54"/>
<stop offset="0.3916" stop-color="#8C5E50"/>
<stop offset="0.6151" stop-color="#D3BAA3"/>
<stop offset="0.6682" stop-color="#E5D0B8"/>
<stop offset="0.9494" stop-color="#B07F54"/>
</linearGradient>
<linearGradient id="paint2_linear" x1="717.286" y1="654.4" x2="1117.61" y2="386.141" gradientUnits="userSpaceOnUse">
<stop stop-color="#8C5E50"/>
<stop offset="0.098297" stop-color="#9D6E52"/>
<stop offset="0.1854" stop-color="#B07F54"/>
<stop offset="0.3916" stop-color="#8C5E50"/>
<stop offset="0.6151" stop-color="#D3BAA3"/>
<stop offset="0.6682" stop-color="#E5D0B8"/>
<stop offset="0.9494" stop-color="#B07F54"/>
</linearGradient>
<linearGradient id="paint3_linear" x1="728.404" y1="670.994" x2="1128.73" y2="402.733" gradientUnits="userSpaceOnUse">
<stop stop-color="#8C5E50"/>
<stop offset="0.098297" stop-color="#9D6E52"/>
<stop offset="0.1854" stop-color="#B07F54"/>
<stop offset="0.3916" stop-color="#8C5E50"/>
<stop offset="0.6151" stop-color="#D3BAA3"/>
<stop offset="0.6682" stop-color="#E5D0B8"/>
<stop offset="0.9494" stop-color="#B07F54"/>
</linearGradient>
<linearGradient id="paint4_linear" x1="739.682" y1="687.822" x2="1140.01" y2="419.562" gradientUnits="userSpaceOnUse">
<stop stop-color="#8C5E50"/>
<stop offset="0.098297" stop-color="#9D6E52"/>
<stop offset="0.1854" stop-color="#B07F54"/>
<stop offset="0.3916" stop-color="#8C5E50"/>
<stop offset="0.6151" stop-color="#D3BAA3"/>
<stop offset="0.6682" stop-color="#E5D0B8"/>
<stop offset="0.9494" stop-color="#B07F54"/>
</linearGradient>
<linearGradient id="paint5_linear" x1="750.612" y1="704.133" x2="1150.94" y2="435.874" gradientUnits="userSpaceOnUse">
<stop stop-color="#8C5E50"/>
<stop offset="0.098297" stop-color="#9D6E52"/>
<stop offset="0.1854" stop-color="#B07F54"/>
<stop offset="0.3916" stop-color="#8C5E50"/>
<stop offset="0.6151" stop-color="#D3BAA3"/>
<stop offset="0.6682" stop-color="#E5D0B8"/>
<stop offset="0.9494" stop-color="#B07F54"/>
</linearGradient>
<linearGradient id="paint6_linear" x1="769.294" y1="732.012" x2="1169.62" y2="463.753" gradientUnits="userSpaceOnUse">
<stop stop-color="#8C5E50"/>
<stop offset="0.098297" stop-color="#9D6E52"/>
<stop offset="0.1854" stop-color="#B07F54"/>
<stop offset="0.3916" stop-color="#8C5E50"/>
<stop offset="0.6151" stop-color="#D3BAA3"/>
<stop offset="0.6682" stop-color="#E5D0B8"/>
<stop offset="0.9494" stop-color="#B07F54"/>
</linearGradient>
<linearGradient id="paint7_linear" x1="727.554" y1="669.723" x2="1127.88" y2="401.464" gradientUnits="userSpaceOnUse">
<stop stop-color="#8C5E50"/>
<stop offset="0.098297" stop-color="#9D6E52"/>
<stop offset="0.1854" stop-color="#B07F54"/>
<stop offset="0.3916" stop-color="#8C5E50"/>
<stop offset="0.6151" stop-color="#D3BAA3"/>
<stop offset="0.6682" stop-color="#E5D0B8"/>
<stop offset="0.9494" stop-color="#B07F54"/>
</linearGradient>
<linearGradient id="paint8_linear" x1="747.626" y1="699.677" x2="1147.95" y2="431.418" gradientUnits="userSpaceOnUse">
<stop stop-color="#8C5E50"/>
<stop offset="0.098297" stop-color="#9D6E52"/>
<stop offset="0.1854" stop-color="#B07F54"/>
<stop offset="0.3916" stop-color="#8C5E50"/>
<stop offset="0.6151" stop-color="#D3BAA3"/>
<stop offset="0.6682" stop-color="#E5D0B8"/>
<stop offset="0.9494" stop-color="#B07F54"/>
</linearGradient>
<linearGradient id="paint9_linear" x1="763.977" y1="724.078" x2="1164.3" y2="455.818" gradientUnits="userSpaceOnUse">
<stop stop-color="#8C5E50"/>
<stop offset="0.098297" stop-color="#9D6E52"/>
<stop offset="0.1854" stop-color="#B07F54"/>
<stop offset="0.3916" stop-color="#8C5E50"/>
<stop offset="0.6151" stop-color="#D3BAA3"/>
<stop offset="0.6682" stop-color="#E5D0B8"/>
<stop offset="0.9494" stop-color="#B07F54"/>
</linearGradient>
<linearGradient id="paint10_linear" x1="783.15" y1="752.689" x2="1183.48" y2="484.431" gradientUnits="userSpaceOnUse">
<stop stop-color="#8C5E50"/>
<stop offset="0.098297" stop-color="#9D6E52"/>
<stop offset="0.1854" stop-color="#B07F54"/>
<stop offset="0.3916" stop-color="#8C5E50"/>
<stop offset="0.6151" stop-color="#D3BAA3"/>
<stop offset="0.6682" stop-color="#E5D0B8"/>
<stop offset="0.9494" stop-color="#B07F54"/>
</linearGradient>
<linearGradient id="paint11_linear" x1="798.692" y1="775.884" x2="1199.02" y2="507.624" gradientUnits="userSpaceOnUse">
<stop stop-color="#8C5E50"/>
<stop offset="0.098297" stop-color="#9D6E52"/>
<stop offset="0.1854" stop-color="#B07F54"/>
<stop offset="0.3916" stop-color="#8C5E50"/>
<stop offset="0.6151" stop-color="#D3BAA3"/>
<stop offset="0.6682" stop-color="#E5D0B8"/>
<stop offset="0.9494" stop-color="#B07F54"/>
</linearGradient>
<linearGradient id="paint12_linear" x1="816.128" y1="801.903" x2="1216.45" y2="533.643" gradientUnits="userSpaceOnUse">
<stop stop-color="#8C5E50"/>
<stop offset="0.098297" stop-color="#9D6E52"/>
<stop offset="0.1854" stop-color="#B07F54"/>
<stop offset="0.3916" stop-color="#8C5E50"/>
<stop offset="0.6151" stop-color="#D3BAA3"/>
<stop offset="0.6682" stop-color="#E5D0B8"/>
<stop offset="0.9494" stop-color="#B07F54"/>
</linearGradient>
<linearGradient id="paint13_linear" x1="833.608" y1="827.989" x2="1233.93" y2="559.729" gradientUnits="userSpaceOnUse">
<stop stop-color="#8C5E50"/>
<stop offset="0.098297" stop-color="#9D6E52"/>
<stop offset="0.1854" stop-color="#B07F54"/>
<stop offset="0.3916" stop-color="#8C5E50"/>
<stop offset="0.6151" stop-color="#D3BAA3"/>
<stop offset="0.6682" stop-color="#E5D0B8"/>
<stop offset="0.9494" stop-color="#B07F54"/>
</linearGradient>
<linearGradient id="paint14_linear" x1="766.83" y1="728.335" x2="1167.16" y2="460.075" gradientUnits="userSpaceOnUse">
<stop stop-color="#8C5E50"/>
<stop offset="0.098297" stop-color="#9D6E52"/>
<stop offset="0.1854" stop-color="#B07F54"/>
<stop offset="0.3916" stop-color="#8C5E50"/>
<stop offset="0.6151" stop-color="#D3BAA3"/>
<stop offset="0.6682" stop-color="#E5D0B8"/>
<stop offset="0.9494" stop-color="#B07F54"/>
</linearGradient>
<linearGradient id="paint15_linear" x1="786.003" y1="756.948" x2="1186.33" y2="488.688" gradientUnits="userSpaceOnUse">
<stop stop-color="#8C5E50"/>
<stop offset="0.098297" stop-color="#9D6E52"/>
<stop offset="0.1854" stop-color="#B07F54"/>
<stop offset="0.3916" stop-color="#8C5E50"/>
<stop offset="0.6151" stop-color="#D3BAA3"/>
<stop offset="0.6682" stop-color="#E5D0B8"/>
<stop offset="0.9494" stop-color="#B07F54"/>
</linearGradient>
<linearGradient id="paint16_linear" x1="812.949" y1="797.158" x2="1213.27" y2="528.899" gradientUnits="userSpaceOnUse">
<stop stop-color="#8C5E50"/>
<stop offset="0.098297" stop-color="#9D6E52"/>
<stop offset="0.1854" stop-color="#B07F54"/>
<stop offset="0.3916" stop-color="#8C5E50"/>
<stop offset="0.6151" stop-color="#D3BAA3"/>
<stop offset="0.6682" stop-color="#E5D0B8"/>
<stop offset="0.9494" stop-color="#B07F54"/>
</linearGradient>
<linearGradient id="paint17_linear" x1="827.883" y1="819.445" x2="1228.21" y2="551.186" gradientUnits="userSpaceOnUse">
<stop stop-color="#8C5E50"/>
<stop offset="0.098297" stop-color="#9D6E52"/>
<stop offset="0.1854" stop-color="#B07F54"/>
<stop offset="0.3916" stop-color="#8C5E50"/>
<stop offset="0.6151" stop-color="#D3BAA3"/>
<stop offset="0.6682" stop-color="#E5D0B8"/>
<stop offset="0.9494" stop-color="#B07F54"/>
</linearGradient>
<linearGradient id="paint18_linear" x1="841.488" y1="839.749" x2="1241.81" y2="571.487" gradientUnits="userSpaceOnUse">
<stop stop-color="#8C5E50"/>
<stop offset="0.098297" stop-color="#9D6E52"/>
<stop offset="0.1854" stop-color="#B07F54"/>
<stop offset="0.3916" stop-color="#8C5E50"/>
<stop offset="0.6151" stop-color="#D3BAA3"/>
<stop offset="0.6682" stop-color="#E5D0B8"/>
<stop offset="0.9494" stop-color="#B07F54"/>
</linearGradient>
<linearGradient id="paint19_linear" x1="849.204" y1="851.263" x2="1249.53" y2="583.003" gradientUnits="userSpaceOnUse">
<stop stop-color="#8C5E50"/>
<stop offset="0.098297" stop-color="#9D6E52"/>
<stop offset="0.1854" stop-color="#B07F54"/>
<stop offset="0.3916" stop-color="#8C5E50"/>
<stop offset="0.6151" stop-color="#D3BAA3"/>
<stop offset="0.6682" stop-color="#E5D0B8"/>
<stop offset="0.9494" stop-color="#B07F54"/>
</linearGradient>
<linearGradient id="paint20_linear" x1="869.149" y1="881.026" x2="1269.47" y2="612.767" gradientUnits="userSpaceOnUse">
<stop stop-color="#8C5E50"/>
<stop offset="0.098297" stop-color="#9D6E52"/>
<stop offset="0.1854" stop-color="#B07F54"/>
<stop offset="0.3916" stop-color="#8C5E50"/>
<stop offset="0.6151" stop-color="#D3BAA3"/>
<stop offset="0.6682" stop-color="#E5D0B8"/>
<stop offset="0.9494" stop-color="#B07F54"/>
</linearGradient>
<linearGradient id="paint21_linear" x1="885.592" y1="905.565" x2="1285.92" y2="637.305" gradientUnits="userSpaceOnUse">
<stop stop-color="#8C5E50"/>
<stop offset="0.098297" stop-color="#9D6E52"/>
<stop offset="0.1854" stop-color="#B07F54"/>
<stop offset="0.3916" stop-color="#8C5E50"/>
<stop offset="0.6151" stop-color="#D3BAA3"/>
<stop offset="0.6682" stop-color="#E5D0B8"/>
<stop offset="0.9494" stop-color="#B07F54"/>
</linearGradient>
<linearGradient id="paint22_linear" x1="685.436" y1="638.262" x2="686.812" y2="638.262" gradientUnits="userSpaceOnUse">
<stop stop-color="#8C5E50"/>
<stop offset="0.098297" stop-color="#9D6E52"/>
<stop offset="0.1854" stop-color="#B07F54"/>
<stop offset="0.3916" stop-color="#8C5E50"/>
<stop offset="0.6151" stop-color="#D3BAA3"/>
<stop offset="0.6682" stop-color="#E5D0B8"/>
<stop offset="0.9494" stop-color="#B07F54"/>
</linearGradient>
<linearGradient id="paint23_linear" x1="81.606" y1="630.745" x2="637.096" y2="630.745" gradientUnits="userSpaceOnUse">
<stop stop-color="#8C5E50"/>
<stop offset="0.098297" stop-color="#9D6E52"/>
<stop offset="0.1854" stop-color="#B07F54"/>
<stop offset="0.3916" stop-color="#8C5E50"/>
<stop offset="0.6151" stop-color="#D3BAA3"/>
<stop offset="0.6682" stop-color="#E5D0B8"/>
<stop offset="0.9494" stop-color="#B07F54"/>
</linearGradient>
<linearGradient id="paint24_linear" x1="81.6062" y1="625.116" x2="637.096" y2="625.116" gradientUnits="userSpaceOnUse">
<stop stop-color="#8C5E50"/>
<stop offset="0.098297" stop-color="#9D6E52"/>
<stop offset="0.1854" stop-color="#B07F54"/>
<stop offset="0.3916" stop-color="#8C5E50"/>
<stop offset="0.6151" stop-color="#D3BAA3"/>
<stop offset="0.6682" stop-color="#E5D0B8"/>
<stop offset="0.9494" stop-color="#B07F54"/>
</linearGradient>
<clipPath id="clip0">
<rect width="1097" height="555" fill="white" transform="translate(82 353)"/>
</clipPath>
</defs>
</svg>
