<svg width="89" height="89" viewBox="0 0 89 89" fill="none" xmlns="http://www.w3.org/2000/svg">
<circle cx="44.5" cy="44.5" r="44.5" fill="black"/>
<path d="M57.2119 18.5689C57.0861 18.6887 56.9616 18.8516 56.8382 19.0576C56.7145 19.2636 56.622 19.4657 56.561 19.6641C56.4999 19.8626 56.452 20.05 56.4172 20.2264C56.3362 20.2081 56.2881 20.1965 56.2729 20.1917C56.0075 20.1099 55.9147 19.9392 55.9945 19.6797C56.0236 19.5851 56.1288 19.3604 56.3101 19.0055C56.4917 18.6502 56.6115 18.3787 56.6693 18.1911C56.7272 18.0035 56.6859 17.8879 56.5454 17.8444C56.3713 17.7909 56.1426 17.9043 55.8592 18.1845C55.5753 18.4647 55.3596 18.8444 55.2119 19.3234C55.1652 19.4759 55.1244 19.6404 55.0897 19.8168C55.0087 19.7985 54.9606 19.7871 54.9454 19.7827C54.6799 19.7005 54.5871 19.5298 54.6669 19.2707C54.6773 19.2372 54.7787 19.0194 54.9711 18.6174C55.1636 18.2154 55.2977 17.8917 55.3735 17.6462C55.449 17.4003 55.4923 17.1671 55.5035 16.9468C55.6652 17.0733 55.7616 17.2133 55.7927 17.3665C55.8238 17.5202 55.8099 17.6931 55.7508 17.8851C55.7204 17.9829 55.6715 18.1033 55.6041 18.2462C55.8021 17.9731 56.0236 17.764 56.2687 17.6186C56.5143 17.4737 56.7133 17.4248 56.8658 17.4719C57.2075 17.5773 57.2969 17.8941 57.134 18.4222C57.3224 18.2127 57.5125 18.0598 57.7041 17.9636C57.8961 17.8673 58.0562 17.839 58.1843 17.8785C58.3703 17.936 58.4843 18.0322 58.5262 18.1671C58.5681 18.3021 58.5598 18.4649 58.5011 18.6558C58.442 18.8462 58.3296 19.1047 58.164 19.4312C57.9983 19.7578 57.8911 19.9997 57.8424 20.157C57.7941 20.3142 57.7787 20.4348 57.7963 20.5186C57.8139 20.6025 57.862 20.6849 57.9406 20.7659C57.8999 20.7568 57.843 20.741 57.7699 20.7186C57.5743 20.6584 57.4426 20.5733 57.3747 20.4635C57.3065 20.3542 57.3025 20.2019 57.3628 20.0067C57.3975 19.8937 57.4983 19.6749 57.6652 19.3504C57.832 19.0258 57.9404 18.7827 57.9903 18.621C58.0526 18.4194 58.0135 18.2971 57.8729 18.254C57.7935 18.2292 57.6949 18.2456 57.5771 18.3031C57.459 18.3602 57.3372 18.4488 57.2119 18.5689ZM59.9514 19.6061C59.8013 19.7162 59.6695 19.8378 59.5562 19.9707C59.4432 20.1041 59.3556 20.2408 59.2933 20.3809C59.2314 20.521 59.2101 20.654 59.2292 20.7797C59.2488 20.9055 59.317 20.9941 59.434 21.0456C59.5973 21.1182 59.7903 21.0965 60.0131 20.9803C60.2358 20.8641 60.4424 20.6955 60.6328 20.4743C60.8232 20.2528 60.9667 20.0334 61.0633 19.8162C61.1596 19.5987 61.23 19.4158 61.2747 19.2677C61.3474 19.2929 61.3925 19.3095 61.4101 19.3174C61.658 19.4272 61.7258 19.6091 61.6136 19.863C61.5889 19.9184 61.4538 20.1286 61.2083 20.4935C60.9632 20.858 60.7879 21.1592 60.6825 21.3971C60.5771 21.635 60.5288 21.8661 60.5376 22.0905C60.3707 21.9707 60.2731 21.8304 60.2448 21.6695C60.2164 21.5087 60.254 21.3115 60.3574 21.0779C60.3757 21.0368 60.4166 20.9606 60.4801 20.8492C60.2781 21.0915 60.0404 21.2534 59.7669 21.3348C59.4935 21.4162 59.2612 21.4146 59.0699 21.33C58.8783 21.2454 58.7562 21.1049 58.7035 20.9085C58.6508 20.7121 58.6811 20.4861 58.7945 20.2306C58.9075 19.9751 59.0653 19.7466 59.2681 19.545C59.4713 19.343 59.7079 19.1953 59.9777 19.1019C60.248 19.0085 60.5015 19.0143 60.7382 19.1192C60.8404 19.1643 60.9436 19.2346 61.0478 19.33C60.8562 19.2973 60.663 19.3077 60.4681 19.3612C60.2733 19.4146 60.1011 19.4963 59.9514 19.6061ZM62.0969 21.7162C62.0103 21.8759 61.9703 22.023 61.9771 22.1576C61.9839 22.2921 62.0526 22.3949 62.1831 22.4659C62.3136 22.5366 62.4645 22.543 62.6358 22.4851C62.8071 22.4276 62.9793 22.3176 63.1526 22.1552C63.3262 21.9931 63.4981 21.8138 63.6681 21.6174C63.8382 21.421 64.0031 21.2027 64.1627 20.9624C64.4594 20.5164 64.6823 20.156 64.8316 19.8809C64.9809 19.6055 65.0809 19.3943 65.1316 19.2474C65.3703 19.4969 65.3572 19.8659 65.0921 20.3546C64.9839 20.5538 64.719 20.9296 64.2975 21.4821C63.8759 22.0346 63.5899 22.4498 63.4394 22.7276C63.2885 23.0055 63.1731 23.2482 63.0933 23.4558C62.9623 23.3156 62.9047 23.1608 62.9202 22.9911C62.9358 22.8214 63.0015 22.63 63.1172 22.4168C62.8993 22.6109 62.6665 22.7316 62.419 22.7791C62.1719 22.8266 61.9564 22.8005 61.7723 22.7007C61.5883 22.6009 61.4779 22.4494 61.4412 22.2462C61.4045 22.0426 61.4608 21.8033 61.6101 21.5282C61.8584 21.0707 62.1825 20.7598 62.5825 20.5953C62.9825 20.4308 63.3607 20.4452 63.7172 20.6384C63.8182 20.6935 63.9178 20.7675 64.016 20.8606C63.8085 20.7879 63.5997 20.7645 63.3897 20.7905C63.1793 20.8164 62.9925 20.8795 62.8292 20.9797C62.4963 21.1841 62.2522 21.4296 62.0969 21.7162ZM66.249 22.4821C66.0901 22.3751 65.8941 22.3759 65.6609 22.4845C65.4278 22.5931 65.2096 22.758 65.0065 22.9791L65.1178 23.054C65.2584 23.1486 65.3935 23.2109 65.5232 23.2408C65.6534 23.2707 65.7677 23.2727 65.8663 23.2468C66.0544 23.1965 66.2001 23.0945 66.3035 22.9408C66.3625 22.8534 66.3893 22.7693 66.3837 22.6887C66.3785 22.6081 66.3336 22.5392 66.249 22.4821ZM65.7244 24.4683C65.4685 24.5849 65.241 24.6338 65.0418 24.615C64.8426 24.5963 64.647 24.5222 64.455 24.3929C64.2629 24.2631 64.1526 24.0653 64.1238 23.7995C64.0951 23.5336 64.1843 23.2472 64.3915 22.9402C64.6274 22.5905 64.9322 22.3414 65.3059 22.1929C65.4879 22.123 65.6813 22.0975 65.8861 22.1162C66.0909 22.135 66.2833 22.2051 66.4633 22.3264C66.8605 22.5943 66.9298 22.9202 66.6711 23.3043C66.5158 23.5346 66.3047 23.655 66.0376 23.6653C65.7701 23.6761 65.5186 23.6021 65.2831 23.4432C65.127 23.3378 64.9965 23.2286 64.8915 23.1156C64.8711 23.1404 64.8422 23.1805 64.8047 23.236C64.4885 23.7047 64.4695 24.0326 64.7478 24.2198C65.0096 24.3967 65.3103 24.4108 65.6496 24.2623C65.7386 24.3414 65.7635 24.4101 65.7244 24.4683ZM41.5292 17.1139C41.5983 16.7442 41.7292 16.4252 41.9221 16.157C42.1149 15.8891 42.3067 15.7456 42.4975 15.7264C42.6883 15.7073 42.8292 15.7518 42.9203 15.86C43.0113 15.9677 43.0668 16.121 43.0867 16.3198C43.1067 16.5182 43.1037 16.8001 43.0777 17.1654C43.0514 17.5306 43.0466 17.7951 43.0634 17.9588C43.0797 18.1224 43.1123 18.2396 43.161 18.3103C43.2097 18.3809 43.2859 18.4382 43.3897 18.4821C43.349 18.4897 43.2905 18.4973 43.2143 18.5049C43.0107 18.5252 42.8562 18.4981 42.7508 18.4234C42.6454 18.3492 42.5825 18.2103 42.5622 18.0067C42.5506 17.8893 42.5586 17.6486 42.5861 17.2845C42.6141 16.9208 42.6195 16.6548 42.6023 16.4863C42.5815 16.2763 42.4981 16.1787 42.352 16.1935C42.2662 16.2023 42.1754 16.2572 42.0795 16.3582C41.9837 16.4592 41.8951 16.5915 41.8137 16.7552C41.7322 16.9192 41.6708 17.1228 41.6292 17.3659C41.5877 17.6095 41.5785 17.8464 41.6017 18.0767C41.6249 18.3071 41.6514 18.4769 41.6813 18.5863C41.6059 18.6003 41.5634 18.6077 41.5538 18.6085C41.4045 18.6236 41.2909 18.6029 41.2131 18.5462C41.1352 18.4899 41.0895 18.3943 41.076 18.2594C41.0624 18.124 41.065 17.8614 41.0837 17.4713C41.1336 16.2721 41.1278 15.366 41.0664 14.7528C41.0388 14.4765 41.0011 14.2925 40.9532 14.2007C41.1444 14.249 41.2837 14.3346 41.3712 14.4576C41.459 14.5801 41.5145 14.756 41.5376 14.9851C41.5536 15.144 41.556 15.4807 41.5448 15.9953C41.5336 16.5099 41.5284 16.8827 41.5292 17.1139ZM44.7203 16.4941C44.6304 16.657 44.5622 16.8226 44.5155 16.9911C44.4688 17.1596 44.4468 17.3204 44.4496 17.4737C44.452 17.627 44.4883 17.7566 44.5586 17.8624C44.6292 17.9681 44.7284 18.02 44.8562 18.018C45.035 18.0148 45.2011 17.9139 45.3544 17.715C45.5073 17.5158 45.6239 17.2759 45.7041 16.9953C45.7839 16.7143 45.8219 16.4548 45.8179 16.2168C45.8139 15.9789 45.8011 15.7835 45.7795 15.6306C45.8558 15.623 45.9035 15.619 45.9227 15.6186C46.1941 15.6143 46.3322 15.751 46.337 16.0288C46.3378 16.0895 46.3035 16.3368 46.234 16.7707C46.165 17.2047 46.1324 17.5518 46.1364 17.8121C46.1408 18.0723 46.1943 18.3023 46.2969 18.5019C46.0949 18.4636 45.9472 18.3773 45.8538 18.2432C45.7608 18.1091 45.7121 17.9143 45.7077 17.6588C45.7069 17.6141 45.7119 17.5276 45.7227 17.3995C45.6416 17.7045 45.4939 17.9514 45.2795 18.1402C45.0656 18.329 44.854 18.4252 44.6448 18.4288C44.4356 18.432 44.266 18.3558 44.1358 18.2001C44.0053 18.044 43.9378 17.8262 43.9334 17.5468C43.9286 17.2673 43.9759 16.9935 44.0754 16.7252C44.1744 16.457 44.3268 16.2236 44.5328 16.0252C44.7388 15.8268 44.9712 15.7256 45.2298 15.7216C45.3416 15.7196 45.465 15.7398 45.5999 15.7821C45.4123 15.8332 45.2412 15.924 45.0867 16.0546C44.9326 16.1847 44.8105 16.3312 44.7203 16.4941ZM49.5322 16.542C49.5175 16.6881 49.4606 16.9432 49.3616 17.3073C49.2626 17.6713 49.2047 17.9376 49.1879 18.1061C49.1707 18.2745 49.1791 18.3981 49.2131 18.4767C49.247 18.5554 49.3105 18.6266 49.4035 18.6905C49.362 18.6897 49.3031 18.6855 49.2268 18.6779C49.0109 18.6564 48.8616 18.6005 48.7789 18.5103C48.6963 18.42 48.6656 18.2701 48.6867 18.0606C48.6987 17.9428 48.7544 17.7085 48.8538 17.3576C48.9532 17.0063 49.0113 16.7464 49.028 16.5779C49.0492 16.3683 48.9961 16.2572 48.8688 16.2444C48.6656 16.224 48.437 16.3825 48.1831 16.7198C47.9296 17.0572 47.7775 17.4783 47.7268 17.9833C47.7069 18.1837 47.7009 18.3404 47.7089 18.4534C47.6254 18.4514 47.5757 18.4496 47.5598 18.448C47.2803 18.42 47.1542 18.2695 47.1813 17.9965C47.1877 17.9326 47.2456 17.6913 47.355 17.2725C47.4644 16.8534 47.5318 16.5174 47.5574 16.2648C47.5825 16.0121 47.5787 15.7765 47.546 15.5582C47.7264 15.65 47.8472 15.7671 47.9083 15.9097C47.9694 16.0522 47.9913 16.2101 47.9741 16.3833C47.9566 16.5566 47.9173 16.7558 47.8562 16.9809C47.9971 16.632 48.1919 16.3458 48.4406 16.1222C48.6893 15.8983 48.9107 15.7961 49.1047 15.8157C49.4348 15.8488 49.5773 16.0909 49.5322 16.542ZM50.6688 17.7893C50.6324 17.9677 50.6374 18.1204 50.6837 18.2474C50.7296 18.3739 50.8254 18.4518 50.9711 18.4809C51.1169 18.5105 51.263 18.4725 51.4095 18.3671C51.5564 18.2614 51.6889 18.1057 51.8071 17.9001C51.9252 17.6941 52.0368 17.4723 52.1418 17.2348C52.2472 16.9969 52.3408 16.7396 52.4226 16.463C52.5751 15.9496 52.6825 15.5396 52.7448 15.233C52.8067 14.926 52.8402 14.6949 52.8454 14.5396C53.1472 14.7081 53.243 15.0648 53.1328 15.6097C53.0877 15.8316 52.9448 16.2685 52.7041 16.9204C52.463 17.5723 52.3111 18.0532 52.2484 18.363C52.1857 18.6731 52.1468 18.939 52.1316 19.1606C51.9652 19.0651 51.8646 18.934 51.8298 18.7671C51.7951 18.6007 51.8017 18.3985 51.8496 18.1606C51.6983 18.4101 51.5113 18.5937 51.2885 18.7115C51.0662 18.8296 50.8524 18.8679 50.6472 18.8264C50.442 18.7849 50.2921 18.6723 50.1975 18.4887C50.1025 18.3047 50.0861 18.0594 50.1484 17.7528C50.2514 17.2426 50.47 16.8502 50.8041 16.5755C51.1382 16.3009 51.5041 16.2039 51.9017 16.2845C52.0143 16.3073 52.1312 16.3488 52.2526 16.4091C52.033 16.4003 51.8264 16.4392 51.6328 16.5258C51.4396 16.6121 51.2795 16.727 51.1526 16.8707C50.8947 17.1642 50.7334 17.4703 50.6688 17.7893ZM25.0394 25.2366C24.766 25.4621 24.444 25.5412 24.0736 25.4737C23.7035 25.4063 23.3438 25.1605 22.9945 24.7366C22.7367 24.4236 22.552 24.0967 22.4407 23.7558C22.3297 23.4148 22.3145 23.0737 22.3951 22.7324C22.4754 22.3907 22.651 22.1081 22.9221 21.8845C23.1931 21.6614 23.4446 21.5647 23.6766 21.5947C23.9085 21.625 24.0945 21.7252 24.2347 21.8953C24.3748 22.0653 24.444 22.2372 24.4424 22.4109C24.4404 22.5841 24.3704 22.7276 24.2323 22.8414C24.188 22.8777 24.1257 22.9124 24.0454 22.9456C24.053 22.8398 24.0343 22.7154 23.9892 22.5725C23.944 22.43 23.8768 22.3045 23.7874 22.1959C23.6979 22.0877 23.5923 22.0186 23.4706 21.9887C23.3484 21.9588 23.2247 21.9955 23.0993 22.0989C22.9093 22.2554 22.8043 22.4733 22.7844 22.7528C22.764 23.0322 22.8103 23.3168 22.9233 23.6067C23.0359 23.8965 23.1917 24.1621 23.3909 24.4037C23.6712 24.7438 23.9462 24.9444 24.2161 25.0055C24.4856 25.0669 24.7239 25.0122 24.9311 24.8414C25.0692 24.7276 25.1764 24.5689 25.2526 24.3653C25.3289 24.1617 25.3488 23.9426 25.3125 23.7079C25.3496 23.6771 25.3933 23.6598 25.4436 23.6558C25.4939 23.6514 25.5283 23.6604 25.5466 23.6827C25.6237 24.0576 25.5991 24.3819 25.473 24.6558C25.3636 24.8945 25.2191 25.0881 25.0394 25.2366ZM27.2718 21.7234C27.0977 21.4655 26.9402 21.3021 26.7993 21.233C26.6588 21.1643 26.5283 21.1707 26.4077 21.2522C26.2872 21.3332 26.2057 21.4737 26.1634 21.6737C26.1211 21.8737 26.1233 22.0841 26.17 22.3049C26.2167 22.5256 26.3031 22.7292 26.4293 22.9156C26.555 23.1025 26.6995 23.24 26.8628 23.3282C27.0265 23.4164 27.1812 23.4114 27.3269 23.3132C27.5333 23.1739 27.6193 22.9386 27.585 22.6073C27.5502 22.2763 27.4458 21.9817 27.2718 21.7234ZM26.0167 22.3474C25.9245 21.9937 25.9197 21.6937 26.0023 21.4474C26.0846 21.2011 26.2137 21.0186 26.3897 20.9001C26.5658 20.7811 26.7644 20.7598 26.9856 20.836C27.2063 20.9126 27.4061 21.0833 27.585 21.348C27.7814 21.6394 27.9077 21.947 27.964 22.2707C28.0255 22.63 27.975 22.9434 27.8125 23.2109C27.7263 23.3574 27.6065 23.4825 27.4532 23.5863C27.2384 23.7308 26.9901 23.7681 26.7083 23.6983C26.4261 23.6284 26.173 23.4274 25.949 23.0953C25.7251 22.7627 25.6025 22.4266 25.5814 22.0869C25.5598 21.7468 25.64 21.446 25.8221 21.1845C25.8752 21.149 25.9195 21.1576 25.955 21.2103C25.8089 21.5592 25.8295 21.9382 26.0167 22.3474ZM28.937 20.6749C28.9107 20.3516 28.9474 20.0727 29.0472 19.8384C29.1474 19.6045 29.284 19.4406 29.4568 19.3468C29.6293 19.2534 29.8093 19.2456 29.9969 19.3234C30.1846 19.4017 30.35 19.5727 30.4933 19.8366C30.7201 20.255 30.8035 20.6719 30.7436 21.0875C30.6842 21.5031 30.4999 21.7947 30.1909 21.9623C30.0816 22.0218 29.9572 22.0602 29.8179 22.0773C30.0055 21.9212 30.1319 21.7138 30.1969 21.4552C30.2616 21.1965 30.2762 20.9488 30.2406 20.7121C30.2047 20.4753 30.1438 20.2777 30.058 20.1192C29.9718 19.9604 29.8778 19.8542 29.776 19.8007C29.6742 19.7468 29.5714 19.748 29.4676 19.8043C29.274 19.9093 29.1596 20.1103 29.1245 20.4073C29.0893 20.7043 29.1309 21.0588 29.249 21.4707C29.3668 21.8827 29.5319 22.2845 29.7442 22.6761C29.9566 23.0677 30.1694 23.3929 30.3826 23.6516C30.2069 23.7358 30.0516 23.7709 29.9167 23.757C29.7818 23.743 29.6648 23.6448 29.5658 23.4623C29.5295 23.3949 29.3794 23.0158 29.1155 22.3252C28.8516 21.6342 28.6253 21.1146 28.4365 20.7665C28.2476 20.4184 28.0674 20.1366 27.8957 19.921C28.1101 19.8739 28.2969 19.9134 28.4562 20.0396C28.6155 20.1657 28.7758 20.3775 28.937 20.6749ZM31.9263 19.2671C31.937 18.9426 32.0055 18.6697 32.1317 18.4486C32.2578 18.2274 32.4121 18.0803 32.5945 18.0073C32.7766 17.9338 32.9564 17.9466 33.134 18.0456C33.3117 18.1446 33.4564 18.3334 33.5682 18.6121C33.7458 19.0536 33.7812 19.4773 33.6742 19.8833C33.5672 20.2897 33.3508 20.5584 33.0251 20.6893C32.9093 20.7356 32.7812 20.7596 32.6406 20.7612C32.845 20.6274 32.9943 20.4358 33.0885 20.1863C33.1827 19.9368 33.2257 19.6923 33.2173 19.4528C33.2089 19.2137 33.171 19.0103 33.1035 18.8426C33.036 18.6753 32.9548 18.5592 32.8598 18.4941C32.7648 18.429 32.6626 18.4186 32.5532 18.463C32.3488 18.5448 32.2121 18.7312 32.143 19.0222C32.0744 19.3133 32.075 19.6701 32.1448 20.0929C32.2151 20.5156 32.3333 20.9338 32.4993 21.3474C32.6658 21.7606 32.84 22.1079 33.0221 22.3893C32.8376 22.4532 32.6792 22.4703 32.5466 22.4408C32.4145 22.4113 32.3097 22.3003 32.2323 22.1079C32.2035 22.0368 32.0977 21.643 31.9149 20.9264C31.7317 20.2103 31.5662 19.6683 31.4185 19.3007C31.2708 18.9334 31.1241 18.6328 30.9784 18.3989C31.1967 18.3765 31.3778 18.4372 31.5215 18.5809C31.6652 18.7242 31.8001 18.953 31.9263 19.2671ZM35.3053 17.2833C35.1221 17.34 34.9997 17.4931 34.9382 17.7426C34.8764 17.9921 34.8678 18.2653 34.9125 18.5624L35.0406 18.5228C35.2027 18.4729 35.336 18.4069 35.4406 18.3246C35.5456 18.242 35.6189 18.1542 35.6604 18.0612C35.739 17.8831 35.7512 17.7057 35.6969 17.5288C35.6658 17.4282 35.6171 17.3546 35.5508 17.3079C35.4845 17.2616 35.4027 17.2534 35.3053 17.2833ZM36.5227 18.9384C36.4528 19.2107 36.348 19.4184 36.2083 19.5618C36.069 19.7051 35.8885 19.8109 35.667 19.8791C35.4458 19.9474 35.2227 19.9093 34.9975 19.7647C34.7728 19.6202 34.6057 19.3709 34.4963 19.0168C34.3722 18.6141 34.3694 18.2206 34.4879 17.8366C34.5478 17.651 34.6494 17.4843 34.7927 17.3366C34.936 17.1885 35.1113 17.0825 35.3185 17.0186C35.7764 16.8773 36.0736 17.028 36.2101 17.4707C36.2919 17.7362 36.2532 17.9761 36.0939 18.1905C35.9346 18.4053 35.7191 18.5546 35.4472 18.6384C35.2672 18.6939 35.1003 18.727 34.9466 18.7378C34.953 18.7693 34.966 18.817 34.9855 18.8809C35.1524 19.421 35.3961 19.6418 35.7167 19.5432C36.0185 19.4498 36.2179 19.2244 36.3149 18.8671C36.4326 18.8476 36.5019 18.8713 36.5227 18.9384ZM37.6664 17.6689C37.6967 17.2394 37.7716 16.9125 37.8909 16.6881C38.0099 16.4634 38.1374 16.3372 38.2736 16.3097C38.4101 16.2821 38.5231 16.3123 38.6125 16.4001C38.7019 16.4879 38.7624 16.6101 38.7939 16.7665C38.8255 16.923 38.8121 17.0667 38.7538 17.1977C38.6955 17.3282 38.5881 17.4095 38.4316 17.4414C38.3817 17.4514 38.342 17.4562 38.3125 17.4558C38.3879 17.2805 38.4095 17.1131 38.3772 16.9534C38.3544 16.8408 38.2977 16.7937 38.2071 16.8121C38.1348 16.8268 38.0666 16.8847 38.0023 16.9857C37.938 17.0867 37.8835 17.2198 37.8388 17.3851C37.7941 17.5504 37.7712 17.7588 37.77 18.0103C37.7684 18.2614 37.7957 18.5262 37.852 18.8049C37.8584 18.836 37.8931 18.9673 37.9562 19.1989C37.8764 19.2216 37.83 19.2342 37.8173 19.2366C37.5418 19.2925 37.377 19.1859 37.3227 18.9168C37.3099 18.8542 37.2939 18.6065 37.2748 18.1737C37.2556 17.741 37.2209 17.4001 37.1706 17.151C37.1203 16.9023 37.0474 16.6785 36.952 16.4797C37.1512 16.5141 37.3011 16.5903 37.4017 16.7085C37.5019 16.8266 37.57 16.9741 37.6059 17.151C37.6414 17.3278 37.6616 17.5005 37.6664 17.6689Z" fill="white"/>
<path d="M28.0121 51.1393C27.9756 51.4172 28.163 51.6711 28.4349 51.7196C28.7253 51.7675 29.0876 51.7196 29.2989 51.2783C30.6109 48.607 31.8918 45.9238 33.1552 43.228C33.1672 43.204 33.1732 43.1801 33.1852 43.1555C33.2882 42.7873 32.9073 42.4609 32.5504 42.5873C32.466 42.6178 32.3876 42.6477 32.3151 42.6903C32.1456 42.7873 32.0432 43.0286 31.9522 43.222C30.9373 45.3256 29.9516 47.4405 28.8941 49.5196C28.6588 50.0274 28.4349 50.3477 28.2295 50.5531C28.151 50.6316 28.0965 50.728 28.066 50.8369C28.0421 50.934 28.0241 51.0423 28.0121 51.1393Z" fill="white"/>
<path d="M63.3306 51.8762C62.9863 50.8792 62.5024 49.9241 62.1641 48.9271C61.7108 47.5852 61.3905 46.2014 60.9072 44.872C60.4659 43.669 59.8498 42.5331 59.3599 41.3421C58.9851 40.4295 58.7192 39.475 58.351 38.5684C57.7282 37.0511 56.4593 36.4954 54.942 37.0696C54.2534 37.3295 53.6066 37.6918 52.9354 37.9942C51.8659 38.4714 50.8144 38.9972 49.7144 39.366C49.4366 39.4565 49.0617 39.2571 48.6989 39.1122C48.5659 39.0577 48.4995 38.9128 48.542 38.7798C48.6384 38.49 48.6929 38.1756 48.8923 37.9637C49.7444 37.0577 49.9803 36.7313 49.7324 35.9271C49.4306 34.9481 48.4576 33.5583 47.6899 33.2984C45.6109 32.5792 42.7827 34.072 43.0665 36.5134C43.151 37.2445 43.1689 37.9942 43.139 38.7253C43.1025 39.6864 42.5647 40.0367 41.7791 39.5415C39.9845 38.411 38.2192 37.2205 36.4851 35.9996C35.657 35.4134 34.0857 35.2319 33.3486 35.8786C32.8408 36.3259 32.345 36.8517 32.0306 37.4379C30.8522 39.6439 29.7043 41.8678 28.6223 44.1223C27.8426 45.7421 27.2863 47.4702 26.4342 49.0481C25.6672 50.4684 25.0869 51.9067 24.8935 53.5079C24.6396 55.6175 24.736 57.684 26.0115 59.4852C26.2408 59.8115 26.7127 60.3493 27.2384 60.0594C27.6252 59.8481 27.4983 59.4008 27.4318 59.2493C27.1354 58.5487 26.6881 58.1133 26.5252 57.3942C26.2833 56.3002 26.1384 55.1397 26.2288 54.0337C26.2893 53.26 27.4133 49.193 27.4983 48.9876C27.8486 48.1535 28.1929 47.3253 28.5923 46.5157C29.8492 43.9409 31.0941 41.3547 32.4175 38.8098C32.7923 38.0846 33.3785 37.5349 34.0432 37.1116C35.2342 36.3505 36.2007 36.9241 37.1558 37.6193C38.4731 38.5744 39.6216 39.7708 41.2594 40.2487C41.9905 40.4601 42.045 41.0038 41.3923 41.4211C40.3773 42.0672 39.8091 43.0104 39.5312 44.1223C39.2109 45.4157 38.9869 46.7331 38.739 48.0385C38.2983 50.3475 38.4917 52.4385 40.6432 53.9313C41.1085 54.2517 41.4767 54.7774 41.2168 55.4301C40.4312 57.4121 39.3498 59.1954 37.5246 60.3918C36.7025 60.9295 36.2372 61.6247 36.0803 62.5672C35.9654 63.2684 36.3522 63.7822 37.0594 63.7642C37.4216 63.7582 38.1713 63.1115 38.5396 63.081C38.8965 63.051 39.1318 63.5522 39.3797 63.7397C40.3468 64.4834 40.5282 64.0786 41.4228 63.2199C41.918 62.7427 42.1839 62.9121 42.6252 63.4558C43.248 64.2295 43.8522 64.5253 44.7162 64.054C45.3629 63.7037 45.9492 63.7337 46.5839 64.06C48.0342 64.8097 48.1432 64.4049 49.3641 63.3894C49.6659 63.1355 50.2342 63.3469 50.633 63.4073C51.2857 63.5043 51.709 63.3894 51.9324 62.7546C52.1138 62.2469 52.4222 62.0115 53.0019 62.1504C53.6306 62.3073 53.9084 61.9271 53.9749 61.3528C54.0719 60.5367 53.5821 59.7451 52.8689 59.3283C52.0108 58.8265 51.0378 58.3852 50.4097 57.66C49.8713 57.0439 49.7144 56.0708 49.4785 55.2367C49.412 54.9948 49.5875 54.5355 49.7989 54.3966C51.2073 53.4355 51.5456 51.9972 51.7629 50.4319C51.9264 49.2594 51.9929 46.5157 51.4611 45.0654C52.1683 46.4493 53.3468 50.5283 53.933 51.9307C54.0779 52.269 54.2953 52.5954 54.5492 52.8612C54.6641 52.9822 55.0204 53.0487 55.1234 52.9642C55.2683 52.8433 55.3773 52.5409 55.3348 52.3475C55.2504 51.9247 55.0629 51.5199 54.918 51.1085C53.957 48.4433 52.9839 45.7846 52.0534 43.1133C51.8839 42.6295 51.6061 42.3517 51.1647 42.5331C50.6031 42.7625 51.1647 44.2858 51.1647 44.2858C51.1647 44.2858 50.0773 42.1098 49.521 41.9589C49.2007 41.5235 48.6809 41.3906 48.2336 41.9343C48.645 42.3577 49.1462 42.678 49.3821 43.1373C50.6695 44.7571 51.3581 47.096 50.9713 49.6582C50.7719 50.9816 50.5061 52.3475 49.3396 53.3145C48.9953 53.599 48.6689 54.1307 48.6689 54.5475C48.6384 57.1463 48.9228 58.7115 51.5635 59.5942C51.745 59.6546 51.9444 59.7331 52.0653 59.866C52.1863 60.0049 52.4037 60.2163 52.609 60.4217C52.851 60.6696 52.6695 61.3343 52.3857 61.1475C52.0354 60.9175 51.6061 61.0265 51.4731 61.4978C51.3222 62.0415 50.7114 62.3319 50.1073 61.981C49.3701 61.5582 48.7049 62.0355 48.1372 62.6337C47.7079 63.081 47.1396 63.5163 46.5234 62.8516C45.8342 62.1139 45.115 62.1139 44.3414 62.6822C43.9486 62.966 43.7372 62.8331 43.5138 62.4283C42.8911 61.2804 42.1719 61.1714 41.036 61.9271C40.8905 62.0235 40.2624 62.7852 40.1534 62.6762C39.4648 61.987 38.4127 61.2924 37.3917 62.5193C37.3797 62.5433 37.3857 61.8846 38.2073 61.2199C39.6761 60.0349 40.824 58.5121 41.6097 56.79C41.7552 56.4756 41.924 56.1732 42.1234 55.8894C42.8671 54.8439 42.7342 53.9067 41.6402 53.266C40.2318 52.4445 39.5186 51.2541 39.5612 49.6403C39.5851 48.6912 39.6582 47.7367 39.7845 46.7876C40.057 44.7145 40.818 42.8954 42.6073 41.6325C42.8791 41.4391 43.242 41.1068 43.4594 40.8223C44.2875 39.7349 44.13 38.4355 44.015 37.2205C43.8216 35.172 44.5594 33.9691 46.8923 34.072C47.5025 34.096 47.8348 34.3559 48.2156 34.8517C48.5905 35.3409 48.7534 36.2475 48.2641 36.7673C47.5204 37.5649 47.5809 38.3385 47.7079 39.2511C47.8348 40.1577 48.2881 40.5325 49.1827 40.3631C50.0348 40.2002 50.8689 39.9098 51.6725 39.5894C52.839 39.1241 53.6186 38.6529 54.7911 38.2116C56.1204 37.7164 57.4803 38.272 57.8671 39.6499C58.2114 40.8768 58.6528 42.0798 59.112 43.2702C59.6378 44.6181 60.303 45.9115 60.7743 47.2768C61.421 49.1565 61.9767 51.0786 62.4965 52.9942C63.0162 54.9223 63.1737 56.8259 61.6504 58.4576C61.2821 58.8564 60.8707 59.2253 60.5629 59.6666C60.5204 59.7331 60.4839 59.8055 60.4539 59.884C60.2905 60.3073 60.6899 60.7606 61.1246 60.6151C61.1731 60.5972 61.2156 60.5792 61.2575 60.5487C63.1492 59.1708 64.2432 57.2792 64.2192 54.9403C64.1767 53.9433 63.6815 52.8978 63.3306 51.8762Z" fill="white"/>
<path d="M63.3306 51.8762C62.9863 50.8792 62.5024 49.9241 62.1641 48.9271C61.7108 47.5852 61.3905 46.2014 60.9072 44.872C60.4659 43.669 59.8498 42.5331 59.3599 41.3421C58.9851 40.4295 58.7192 39.475 58.351 38.5684C57.7282 37.0511 56.4593 36.4954 54.942 37.0696C54.2534 37.3295 53.6066 37.6918 52.9354 37.9942C51.8659 38.4714 50.8144 38.9972 49.7144 39.366C49.4366 39.4565 49.0617 39.2571 48.6989 39.1122C48.5659 39.0577 48.4995 38.9128 48.542 38.7798C48.6384 38.49 48.6929 38.1756 48.8923 37.9637C49.7444 37.0577 49.9803 36.7313 49.7324 35.9271C49.4306 34.9481 48.4576 33.5583 47.6899 33.2984C45.6109 32.5792 42.7827 34.072 43.0665 36.5134C43.151 37.2445 43.1689 37.9942 43.139 38.7253C43.1025 39.6864 42.5647 40.0367 41.7791 39.5415C39.9845 38.411 38.2192 37.2205 36.4851 35.9996C35.657 35.4134 34.0857 35.2319 33.3486 35.8786C32.8408 36.3259 32.345 36.8517 32.0306 37.4379C30.8522 39.6439 29.7043 41.8678 28.6223 44.1223C27.8426 45.7421 27.2863 47.4702 26.4342 49.0481C25.6672 50.4684 25.0869 51.9067 24.8935 53.5079C24.6396 55.6175 24.736 57.684 26.0115 59.4852C26.2408 59.8115 26.7127 60.3493 27.2384 60.0594C27.6252 59.8481 27.4983 59.4008 27.4318 59.2493C27.1354 58.5487 26.6881 58.1133 26.5252 57.3942C26.2833 56.3002 26.1384 55.1397 26.2288 54.0337C26.2893 53.26 27.4133 49.193 27.4983 48.9876C27.8486 48.1535 28.1929 47.3253 28.5923 46.5157C29.8492 43.9409 31.0941 41.3547 32.4175 38.8098C32.7923 38.0846 33.3785 37.5349 34.0432 37.1116C35.2342 36.3505 36.2007 36.9241 37.1558 37.6193C38.4731 38.5744 39.6216 39.7708 41.2594 40.2487C41.9905 40.4601 42.045 41.0038 41.3923 41.4211C40.3773 42.0672 39.8091 43.0104 39.5312 44.1223C39.2109 45.4157 38.9869 46.7331 38.739 48.0385C38.2983 50.3475 38.4917 52.4385 40.6432 53.9313C41.1085 54.2517 41.4767 54.7774 41.2168 55.4301C40.4312 57.4121 39.3498 59.1954 37.5246 60.3918C36.7025 60.9295 36.2372 61.6247 36.0803 62.5672C35.9654 63.2684 36.3522 63.7822 37.0594 63.7642C37.4216 63.7582 38.1713 63.1115 38.5396 63.081C38.8965 63.051 39.1318 63.5522 39.3797 63.7397C40.3468 64.4834 40.5282 64.0786 41.4228 63.2199C41.918 62.7427 42.1839 62.9121 42.6252 63.4558C43.248 64.2295 43.8522 64.5253 44.7162 64.054C45.3629 63.7037 45.9492 63.7337 46.5839 64.06C48.0342 64.8097 48.1432 64.4049 49.3641 63.3894C49.6659 63.1355 50.2342 63.3469 50.633 63.4073C51.2857 63.5043 51.709 63.3894 51.9324 62.7546C52.1138 62.2469 52.4222 62.0115 53.0019 62.1504C53.6306 62.3073 53.9084 61.9271 53.9749 61.3528C54.0719 60.5367 53.5821 59.7451 52.8689 59.3283C52.0108 58.8265 51.0378 58.3852 50.4097 57.66C49.8713 57.0439 49.7144 56.0708 49.4785 55.2367C49.412 54.9948 49.5875 54.5355 49.7989 54.3966C51.2073 53.4355 51.5456 51.9972 51.7629 50.4319C51.9264 49.2594 51.9929 46.5157 51.4611 45.0654C52.1683 46.4493 53.3468 50.5283 53.933 51.9307C54.0779 52.269 54.2953 52.5954 54.5492 52.8612C54.6641 52.9822 55.0204 53.0487 55.1234 52.9642C55.2683 52.8433 55.3773 52.5409 55.3348 52.3475C55.2504 51.9247 55.0629 51.5199 54.918 51.1085C53.957 48.4433 52.9839 45.7846 52.0534 43.1133C51.8839 42.6295 51.6061 42.3517 51.1647 42.5331C50.6031 42.7625 51.1647 44.2858 51.1647 44.2858C51.1647 44.2858 50.0773 42.1098 49.521 41.9589C49.2007 41.5235 48.6809 41.3906 48.2336 41.9343C48.645 42.3577 49.1462 42.678 49.3821 43.1373C50.6695 44.7571 51.3581 47.096 50.9713 49.6582C50.7719 50.9816 50.5061 52.3475 49.3396 53.3145C48.9953 53.599 48.6689 54.1307 48.6689 54.5475C48.6384 57.1463 48.9228 58.7115 51.5635 59.5942C51.745 59.6546 51.9444 59.7331 52.0653 59.866C52.1863 60.0049 52.4037 60.2163 52.609 60.4217C52.851 60.6696 52.6695 61.3343 52.3857 61.1475C52.0354 60.9175 51.6061 61.0265 51.4731 61.4978C51.3222 62.0415 50.7114 62.3319 50.1073 61.981C49.3701 61.5582 48.7049 62.0355 48.1372 62.6337C47.7079 63.081 47.1396 63.5163 46.5234 62.8516C45.8342 62.1139 45.115 62.1139 44.3414 62.6822C43.9486 62.966 43.7372 62.8331 43.5138 62.4283C42.8911 61.2804 42.1719 61.1714 41.036 61.9271C40.8905 62.0235 40.2624 62.7852 40.1534 62.6762C39.4648 61.987 38.4127 61.2924 37.3917 62.5193C37.3797 62.5433 37.3857 61.8846 38.2073 61.2199C39.6761 60.0349 40.824 58.5121 41.6097 56.79C41.7552 56.4756 41.924 56.1732 42.1234 55.8894C42.8671 54.8439 42.7342 53.9067 41.6402 53.266C40.2318 52.4445 39.5186 51.2541 39.5612 49.6403C39.5851 48.6912 39.6582 47.7367 39.7845 46.7876C40.057 44.7145 40.818 42.8954 42.6073 41.6325C42.8791 41.4391 43.242 41.1068 43.4594 40.8223C44.2875 39.7349 44.13 38.4355 44.015 37.2205C43.8216 35.172 44.5594 33.9691 46.8923 34.072C47.5025 34.096 47.8348 34.3559 48.2156 34.8517C48.5905 35.3409 48.7534 36.2475 48.2641 36.7673C47.5204 37.5649 47.5809 38.3385 47.7079 39.2511C47.8348 40.1577 48.2881 40.5325 49.1827 40.3631C50.0348 40.2002 50.8689 39.9098 51.6725 39.5894C52.839 39.1241 53.6186 38.6529 54.7911 38.2116C56.1204 37.7164 57.4803 38.272 57.8671 39.6499C58.2114 40.8768 58.6528 42.0798 59.112 43.2702C59.6378 44.6181 60.303 45.9115 60.7743 47.2768C61.421 49.1565 61.9767 51.0786 62.4965 52.9942C63.0162 54.9223 63.1737 56.8259 61.6504 58.4576C61.2821 58.8564 60.8707 59.2253 60.5629 59.6666C60.5204 59.7331 60.4839 59.8055 60.4539 59.884C60.2905 60.3073 60.6899 60.7606 61.1246 60.6151C61.1731 60.5972 61.2156 60.5792 61.2575 60.5487C63.1492 59.1708 64.2432 57.2792 64.2192 54.9403C64.1767 53.9433 63.6815 52.8978 63.3306 51.8762Z" fill="white"/>
<path d="M51.8539 31.2736C51.3036 32.0832 49.8899 31.7024 49.7443 30.9712C49.6905 30.6934 49.406 30.4754 49.2372 30.6629C48.6264 31.3341 47.2911 31.6 46.8557 30.8808C45.8887 29.285 45.8342 29.3335 45.3569 30.7778C45.3084 30.9227 45.103 31.3036 44.7467 31.3155C43.8701 31.3401 43.5318 30.5724 43.2114 30.6748C42.8306 30.7958 42.9695 31.4305 42.1174 31.6359C40.9569 31.9144 40.4497 30.8084 40.4497 30.8084C40.4497 30.8084 40.9635 32.4275 41.0174 32.706C41.1444 33.3467 41.1869 34.0114 41.1689 34.664C41.1569 35.0323 41.0054 35.6611 40.806 35.7096C40.3228 35.8245 39.6581 35.8365 39.2833 35.5766C38.4851 35.0203 37.7965 34.2892 37.1132 33.582C36.4126 32.8569 35.7474 32.0952 35.1252 31.3036C34.9378 31.0617 34.7809 30.4754 34.8953 30.379C35.3006 30.0287 35.6144 30.3305 35.9833 30.7539C36.8959 31.7994 37.6935 32.7784 38.6366 33.806C38.709 33.8844 39.8994 34.797 40.1533 34.67C40.3893 34.5551 40.3228 33.6245 40.2923 33.3886C40.1773 32.5305 39.845 31.7509 39.6821 30.8988C39.6276 30.6084 39.4767 30.3126 39.5006 30.0347C39.5186 29.8353 39.7246 29.5509 39.9054 29.4904C40.0629 29.4425 40.3647 29.6114 40.4917 29.7748C41.3863 31.1646 42.1054 31.2976 42.6617 30.1736C43.133 29.2365 43.4228 29.2066 43.7551 29.9018C44.1725 30.7778 44.6677 30.506 45.0066 29.5994C45.1396 29.2425 45.23 28.5718 45.7863 28.5539C46.4994 28.5299 46.4629 29.17 46.8198 29.515C47.0066 29.6958 47.1701 30.0221 47.3695 30.1856C47.8653 30.5904 48.3725 30.5239 48.8258 30.0706C49.509 29.394 49.9683 29.297 50.2401 30.1916C50.512 31.0862 51.0563 31.3036 51.9928 30.397C52.2527 30.1431 52.5611 29.6658 52.9599 29.8712C53.3952 30.0952 53.0383 30.7173 52.8934 31.0497C52.6156 31.6784 52.3312 32.9054 52.1803 33.812C52.1318 34.0898 52.1018 34.8389 52.4096 34.9299C52.7 35.0143 53.3527 34.4527 53.4617 34.2108C53.9749 33.0928 54.4827 31.9078 54.9605 30.7778C55.0994 30.4515 54.9479 30.0826 55.1659 29.8227C55.2683 29.7024 55.4198 29.6293 55.5886 29.5629C55.788 29.4844 56.012 29.5814 56.0964 29.7808C56.1629 29.9377 56.2114 30.0886 56.1689 30.2096C55.7641 31.3341 55.3048 32.4461 54.815 33.5395C54.5857 34.0593 54.2288 34.5251 53.9449 35.0263C53.4976 35.806 52.6455 36.1988 51.8839 35.9634C51.2916 35.782 50.9593 34.9844 51.1102 34.0778C51.1707 33.703 51.2497 33.3281 51.3162 32.9473C51.3701 32.609 51.8114 31.5575 51.8539 31.2736Z" fill="white"/>
<path d="M35.7173 43.3543C35.8868 43.5178 35.9407 43.7657 35.8742 43.995C35.8503 44.0855 35.8203 44.1585 35.7898 44.231C34.7503 46.3639 33.6988 48.4914 32.6592 50.625C32.3874 51.1873 32.2239 51.8094 31.9101 52.3411C31.6257 52.819 31.2269 53.2358 30.8221 53.6226C30.7012 53.7375 30.3143 53.7375 30.1754 53.6286C30.0305 53.5136 29.9395 53.1813 29.988 52.9938C30.1209 52.4986 30.3143 52.0088 30.5443 51.5435C31.5592 49.519 32.5868 47.5004 33.6263 45.4879C33.9646 44.8352 34.303 44.1705 34.7323 43.5783C34.8772 43.3729 35.288 43.3064 35.5844 43.2879C35.6269 43.2819 35.6748 43.3124 35.7173 43.3543Z" fill="white"/>
<path d="M57.8065 51.3627C57.8729 51.5986 57.831 51.8525 57.6855 52.0519C57.5951 52.1788 57.5047 52.2872 57.4502 52.2692C57.1783 52.1968 56.8394 51.9734 56.743 51.7315C56.2837 50.5351 55.9208 49.3022 55.4861 48.0932C54.9358 46.5519 54.3556 45.0231 53.7879 43.4818C53.7214 43.3004 53.5945 43.1136 53.6184 42.9441C53.655 42.6782 53.6184 42.2489 53.8843 42.1585C54.1382 42.074 54.4526 42.4064 54.531 42.6118C55.54 45.18 56.5196 47.7549 57.4921 50.3351C57.6011 50.6495 57.6921 50.9758 57.8065 51.3627Z" fill="white"/>
<path d="M60.7621 49.6339C60.913 49.9297 60.8951 50.2926 60.6771 50.5465C60.6232 50.607 60.5687 50.6549 60.5082 50.6674C60.3028 50.7094 59.922 50.5645 59.825 50.383C59.3358 49.507 58.9064 48.6004 58.4777 47.6938C57.6981 46.0441 56.9304 44.3878 56.1567 42.7321C56.0963 42.6112 56.0058 42.4842 55.9573 42.3812C55.7939 42.0609 55.8729 41.7046 56.1142 41.5657C56.3322 41.4387 56.6885 41.6501 56.8034 41.8136C57.3531 42.5932 57.613 43.3483 58.0364 44.2004C58.4352 44.998 58.9244 45.9291 59.2753 46.7507C59.5837 47.4698 59.9945 48.1531 60.3567 48.8543C60.4837 49.1082 60.6166 49.3621 60.7621 49.6339Z" fill="white"/>
<path d="M33.4568 54.2089C33.3903 54.0939 33.3784 53.949 33.4209 53.822C33.5352 53.4957 33.6323 53.1933 33.7772 52.9155C34.6412 51.2113 35.5418 49.5191 36.3939 47.8089C36.6843 47.2227 36.8412 46.5819 37.0891 45.9777C37.2041 45.7053 37.343 45.4155 37.5484 45.2101C37.5544 45.2041 37.5424 45.2161 37.5484 45.2101C37.9352 44.7262 38.6364 44.9502 38.5215 45.5484C38.5155 45.5909 38.5095 45.6268 38.4915 45.6634C37.8448 47.1376 37.1376 48.5885 36.479 50.0568C36.1161 50.8789 35.8322 51.737 35.4873 52.5711C35.252 53.1514 35.0161 53.7436 34.6897 54.2753C34.5688 54.4688 34.182 54.5837 33.9221 54.5717C33.8257 54.5717 33.5658 54.3903 33.4568 54.2089Z" fill="white"/>
<path d="M46.88 61.1773C46.7231 61.1048 46.6267 60.9294 46.6806 60.7725C47.2854 58.9288 46.7597 57.3941 46.1914 55.8647C46.1309 55.6354 46.1669 55.218 46.3908 55.1096C46.6327 54.9887 46.9531 55.3695 47.0375 55.5809C47.4968 56.7108 47.2489 57.0498 47.6663 58.1977C47.7022 58.3007 48.0285 59.2492 48.113 59.3641C48.3974 59.745 48.6692 60.3977 48.4998 60.6875C48.3914 60.8749 47.9321 60.5791 47.6537 60.6635C47.4303 60.73 47.4064 61.1893 47.2004 61.2378C47.098 61.2617 46.989 61.2258 46.88 61.1773Z" fill="white"/>
<path d="M44.3294 55.1157C44.4443 55.1397 44.5288 55.2487 44.5168 55.3696C44.4988 55.6175 44.4929 55.8774 44.3899 56.0828C44.0515 57.3397 43.6647 58.6271 43.6162 59.981C43.6102 60.2349 43.6042 60.7546 43.3443 60.7726C43.006 60.7906 42.8791 59.9504 42.6372 59.884C42.3108 59.7936 41.9845 60.4097 41.5797 60.3073C41.4348 60.2708 41.3563 60.1013 41.4168 59.9684C41.5132 59.769 41.5976 59.5696 41.7551 59.4552C42.8551 58.6451 43.2174 57.4726 43.5018 56.2277C43.5803 55.8954 43.7372 55.581 43.8821 55.2606C43.9306 55.1516 44.0455 55.0978 44.1605 55.1217L44.3294 55.1157Z" fill="white"/>
<path d="M45.8704 35.0453C46.1543 34.7189 46.8555 34.6704 47.1638 34.9722C47.4117 35.2201 47.3872 35.4441 47.3632 35.6129C47.3207 35.9818 46.7465 36.6165 46.5231 36.568C46.2812 36.5195 46.0638 36.3507 45.8585 36.1572C45.562 35.8854 45.5381 35.4255 45.798 35.1237C45.8219 35.0992 45.8465 35.0752 45.8704 35.0453Z" fill="white"/>
<path d="M41.3977 72.0711L41.1744 72.0442C41.1444 72.2178 41.0708 72.5635 40.9534 73.0813C40.836 73.5995 40.751 73.9939 40.6983 74.2645C41.062 74.0921 41.2843 74.0098 41.3654 74.0178C41.4464 74.0258 41.5087 74.0939 41.5522 74.222C41.5957 74.3498 41.6133 74.4565 41.6049 74.5424C41.446 74.5587 41.2173 74.5993 40.9187 74.6639C40.6201 74.729 40.346 74.807 40.0965 74.8981C40.1133 74.7264 40.1971 74.3015 40.348 73.6232C40.4989 72.945 40.6047 72.3971 40.6654 71.9795C40.3696 71.9563 40.1225 71.9735 39.9241 72.031C39.9588 71.8098 40.0143 71.6556 40.0905 71.5681C40.1664 71.4811 40.2901 71.4462 40.4618 71.4633C40.5221 71.4693 40.6526 71.4967 40.8534 71.5454C41.0538 71.5941 41.2612 71.6292 41.4756 71.6508C41.6903 71.6719 41.8945 71.6601 42.0881 71.6154C42.0837 71.6597 42.064 71.7146 42.0288 71.7801C41.9933 71.8456 41.9526 71.8993 41.9067 71.9412C41.8608 71.9835 41.7931 72.0186 41.7037 72.0466C41.6143 72.0745 41.5123 72.0827 41.3977 72.0711ZM38.8833 71.8052C38.9033 71.705 38.8897 71.6094 38.8426 71.5184C38.7959 71.4278 38.7115 71.3701 38.5893 71.3454C38.3354 71.2947 38.1123 71.3885 37.9199 71.6268C37.7271 71.8651 37.57 72.1985 37.4486 72.6268C37.6853 72.4855 37.932 72.4404 38.1887 72.4915C38.4454 72.543 38.6478 72.6715 38.7959 72.8771C38.9436 73.0823 38.9885 73.3298 38.9307 73.6196C38.8728 73.9094 38.7223 74.1448 38.4792 74.3256C38.236 74.5064 37.9283 74.5597 37.5558 74.4855C37.3175 74.4376 37.1169 74.2915 36.954 74.0472C36.8742 73.927 36.8213 73.7731 36.7953 73.5855C36.769 73.3979 36.7806 73.1813 36.8301 72.9358C36.8792 72.6899 36.9562 72.4464 37.0612 72.2052C37.1666 71.9641 37.2961 71.745 37.4498 71.5478C37.6031 71.3502 37.7893 71.2041 38.0085 71.1094C38.2277 71.0152 38.461 70.9929 38.7085 71.0424C38.956 71.0919 39.136 71.1971 39.2486 71.3579C39.3612 71.5188 39.4015 71.6799 39.3696 71.8412C39.3372 72.0025 39.2624 72.1276 39.145 72.2166C39.0281 72.3056 38.8849 72.3332 38.7157 72.2993C38.6626 72.2885 38.6053 72.2655 38.5438 72.2304C38.7299 72.1474 38.843 72.0056 38.8833 71.8052ZM37.3726 72.934L37.3384 73.0789C37.2802 73.3699 37.2754 73.614 37.3241 73.8112C37.3724 74.008 37.4889 74.125 37.6738 74.1621C37.8586 74.1993 38.0191 74.1508 38.1552 74.0166C38.2909 73.8825 38.377 73.7246 38.4133 73.543C38.4496 73.3613 38.4394 73.2046 38.3827 73.0729C38.3261 72.9412 38.2195 72.8595 38.063 72.828C37.8311 72.7817 37.6009 72.817 37.3726 72.934ZM33.7013 73.5843C33.6845 73.4909 33.6905 73.3969 33.7193 73.3023C33.748 73.2076 33.8796 73.0332 34.1139 72.7789C34.3482 72.5246 34.6029 72.2607 34.878 71.9873C35.153 71.7138 35.4329 71.4084 35.7175 71.0711C36.0021 70.7334 36.1987 70.446 36.3073 70.2088C36.3321 70.2164 36.372 70.242 36.4271 70.2855C36.4822 70.329 36.5247 70.3703 36.5546 70.4094C36.5845 70.4486 36.6059 70.5017 36.6187 70.5687C36.6315 70.6362 36.6239 70.7158 36.5959 70.8076C36.5684 70.8991 36.4362 71.0649 36.1995 71.3052C35.9628 71.5452 35.6542 71.8436 35.2738 72.2005C34.8933 72.5569 34.6013 72.8444 34.3977 73.0627C35.1566 73.1701 35.6147 73.2478 35.772 73.2957C35.9293 73.3436 35.975 73.4759 35.9091 73.6927C35.8748 73.8056 35.8354 73.8855 35.7911 73.9322C35.4323 73.7729 35.0939 73.645 34.7762 73.5484C34.4584 73.4518 34.243 73.3913 34.1301 73.3669C33.9816 73.549 33.8716 73.7074 33.8001 73.8424C33.7889 73.8256 33.7738 73.8019 33.7546 73.7711C33.7354 73.7404 33.7177 73.6781 33.7013 73.5843ZM31.3133 71.9394C31.3927 71.7474 31.5093 71.6833 31.663 71.7472C31.8606 71.829 32.1963 72.0198 32.6702 72.3196L33.172 71.4957C33.0802 71.4749 32.9798 71.442 32.8708 71.3969C32.5315 71.2563 32.2987 71.0546 32.1726 70.7915C32.0464 70.5284 32.0418 70.2559 32.1588 69.9741C32.2754 69.6923 32.4812 69.4873 32.7762 69.3591C33.0716 69.2306 33.3903 69.2372 33.7325 69.3789C33.9832 69.4831 34.1694 69.6304 34.2911 69.8208C34.4129 70.0112 34.4303 70.211 34.3432 70.4202C34.2822 70.5679 34.1877 70.6731 34.06 70.7358C33.9319 70.7985 33.7985 70.8011 33.66 70.7436C33.5889 70.7144 33.5333 70.6863 33.4929 70.6591C33.6606 70.5801 33.774 70.4689 33.8331 70.3256C33.8925 70.1827 33.9007 70.0548 33.8576 69.9418C33.8145 69.8288 33.7139 69.7396 33.5558 69.6741C33.3981 69.6086 33.2356 69.613 33.0684 69.6873C32.9011 69.7615 32.7738 69.9041 32.6863 70.1148C32.5989 70.326 32.5941 70.5358 32.672 70.7442C32.7498 70.9526 32.9289 71.1148 33.2091 71.231C33.3508 71.2897 33.5137 71.3348 33.6977 71.3663L32.9582 72.5376C33.0189 72.625 33.0283 72.736 32.9863 72.8705C32.8382 72.7851 32.6596 72.6991 32.4504 72.6124C32.0432 72.4436 31.6971 72.3192 31.4121 72.2394L31.2546 72.1951C31.2498 72.1308 31.2694 72.0456 31.3133 71.9394ZM55.8636 71.646C55.7422 71.6033 55.6115 71.5651 55.4713 71.5316C55.3312 71.4977 55.1907 71.4633 55.0498 71.4286C54.9093 71.3935 54.7775 71.353 54.6546 71.307C54.3771 71.2041 54.1919 71.0406 54.0989 70.8166C53.9839 70.5392 53.9935 70.2637 54.1276 69.9903C54.2618 69.7172 54.5013 69.5092 54.8462 69.3663C55.1915 69.223 55.4895 69.1911 55.7402 69.2705C55.9909 69.35 56.1608 69.4975 56.2498 69.713C56.3161 69.8723 56.3224 70.0208 56.2689 70.1585C56.2155 70.2967 56.1135 70.3969 55.963 70.4591C55.9214 70.4763 55.8791 70.4869 55.836 70.4909C55.8699 70.3144 55.8544 70.1472 55.7893 69.9891C55.7238 69.8314 55.6133 69.719 55.4576 69.652C55.3019 69.5853 55.1149 69.5971 54.8965 69.6873C54.74 69.7524 54.6204 69.8581 54.5378 70.0047C54.4552 70.1512 54.4494 70.31 54.5204 70.4813C54.5668 70.5935 54.649 70.6881 54.7672 70.7651C54.8857 70.8422 55.0167 70.8995 55.16 70.937C55.3033 70.9741 55.461 71.0168 55.633 71.0651C55.8051 71.113 55.9652 71.1615 56.1133 71.2106C56.2618 71.2597 56.4011 71.337 56.5312 71.4424C56.661 71.5474 56.7564 71.6737 56.8174 71.8214C56.9336 72.1017 56.9304 72.3631 56.8079 72.6058C56.6857 72.8482 56.4446 73.044 56.0845 73.1933C55.7923 73.3142 55.5308 73.3318 55.3001 73.246C55.069 73.1601 54.9188 73.0338 54.8498 72.8669C54.7807 72.7005 54.7693 72.5454 54.8157 72.4017C54.8616 72.2583 54.9628 72.1544 55.1192 72.0897C55.1723 72.0673 55.2264 72.0518 55.2815 72.043C55.2005 72.2561 55.1953 72.4484 55.266 72.6196C55.337 72.7909 55.4436 72.8981 55.5857 72.9412C55.7282 72.9839 55.8813 72.9713 56.045 72.9034C56.2087 72.8356 56.3284 72.7308 56.4043 72.5891C56.4801 72.447 56.4783 72.2799 56.3989 72.0879C56.3194 71.8963 56.141 71.749 55.8636 71.646ZM52.4438 70.413C52.6366 70.4027 52.7915 70.4448 52.9085 70.5394C53.0254 70.6344 53.12 70.7689 53.1923 70.943C53.2646 71.117 53.3442 71.3761 53.4312 71.7202C53.5187 72.0643 53.5995 72.3264 53.6737 72.5064C53.7484 72.6865 53.8149 72.8216 53.8731 72.9118C53.8224 72.9394 53.7807 72.9599 53.748 72.9735C53.6155 73.0286 53.5075 73.0388 53.424 73.004C53.3406 72.9697 53.2707 72.8847 53.2145 72.749C53.1961 72.7047 53.136 72.4573 53.0342 72.007C52.9324 71.5563 52.8256 71.1943 52.7139 70.9208C52.6021 70.6474 52.5121 70.4781 52.4438 70.413ZM53.6552 73.5256C53.9031 73.4226 54.062 73.4553 54.1318 73.6238C54.1562 73.6829 54.1682 73.7747 54.1678 73.8993C54.1079 73.9376 54.0544 73.9665 54.0073 73.9861C53.7594 74.0891 53.6005 74.0563 53.5306 73.8879C53.5063 73.8292 53.4943 73.7376 53.4947 73.613C53.5546 73.5743 53.6081 73.5452 53.6552 73.5256ZM50.0414 73.3609C49.9987 73.2204 49.953 72.9629 49.9043 72.5885C49.8556 72.2144 49.8065 71.9466 49.757 71.7849C49.7079 71.6228 49.6526 71.5118 49.5911 71.452C49.5296 71.3925 49.4436 71.3512 49.333 71.328C49.3718 71.3128 49.4278 71.2941 49.5013 71.2717C49.7089 71.2086 49.8682 71.2029 49.9791 71.2544C50.0897 71.3054 50.1757 71.432 50.2372 71.634C50.2716 71.747 50.3105 71.9845 50.354 72.3466C50.3971 72.709 50.4434 72.9713 50.4929 73.1334C50.554 73.335 50.6458 73.4172 50.7684 73.3801C50.9636 73.3206 51.1135 73.0863 51.2181 72.6771C51.3222 72.2683 51.3005 71.821 51.1528 71.3352C51.0941 71.1428 51.0394 70.9959 50.9887 70.8945C51.0662 70.8641 51.1125 70.8468 51.1276 70.8424C51.3967 70.7605 51.5712 70.851 51.651 71.1136C51.6698 71.1747 51.7093 71.4196 51.7696 71.8484C51.8298 72.2775 51.8969 72.6134 51.9707 72.8561C52.0446 73.0993 52.1386 73.3152 52.2528 73.5041C52.0512 73.4885 51.8947 73.4268 51.7833 73.319C51.6723 73.2108 51.5915 73.0735 51.5408 72.907C51.4901 72.7406 51.4496 72.5418 51.4193 72.3106C51.4232 72.6867 51.3536 73.0258 51.2103 73.328C51.067 73.6302 50.9021 73.8096 50.7157 73.8663C50.3979 73.9629 50.1731 73.7945 50.0414 73.3609ZM48.2911 73.8304C48.3841 73.6603 48.44 73.4635 48.4588 73.24C48.4775 73.0164 48.4628 72.7841 48.4145 72.543C48.3662 72.3019 48.2865 72.1158 48.1755 71.9849C48.065 71.854 47.9414 71.8023 47.8049 71.8298C47.6688 71.8569 47.5432 71.9244 47.4282 72.0322C47.3129 72.14 47.2243 72.2749 47.1624 72.437C47.043 72.4446 46.9765 72.4138 46.963 72.3448C47.0161 72.1715 47.0961 72.022 47.2031 71.8963C47.3097 71.7705 47.4145 71.6803 47.5175 71.6256C47.6205 71.5709 47.7284 71.5322 47.8414 71.5094C48.0825 71.4615 48.3051 71.5156 48.5091 71.6717C48.7127 71.8278 48.8506 72.0859 48.9229 72.446C49.0143 72.9034 48.9692 73.3212 48.7875 73.6993C48.6059 74.0777 48.3099 74.308 47.8995 74.3903C47.6744 74.4354 47.4919 74.4108 47.3522 74.3166C47.2129 74.222 47.1278 74.0973 47.0971 73.9424C47.066 73.7875 47.0825 73.6466 47.1468 73.5196C47.2111 73.3927 47.3105 73.3158 47.445 73.2891C47.5296 73.2723 47.6045 73.2719 47.6696 73.2879C47.6308 73.3546 47.6035 73.4424 47.5875 73.5514C47.572 73.6603 47.574 73.7633 47.5935 73.8603C47.6366 74.0763 47.7474 74.1665 47.9258 74.131C48.0763 74.1007 48.1981 74.0005 48.2911 73.8304ZM44.8893 74.3286C45.0809 74.3254 45.241 74.2124 45.3696 73.9897C45.4985 73.7673 45.5829 73.5072 45.6229 73.2094L45.4887 73.2118C45.3195 73.2146 45.173 73.241 45.0492 73.2909C44.9255 73.3408 44.8306 73.4046 44.7648 73.4825C44.6394 73.6314 44.5783 73.7985 44.5815 73.9837C44.5831 74.0891 44.6093 74.1733 44.66 74.2364C44.7107 74.2995 44.7871 74.3302 44.8893 74.3286ZM44.1815 72.3999C44.3245 72.1579 44.4829 71.9877 44.657 71.8891C44.831 71.7901 45.0338 71.7388 45.2654 71.7352C45.4969 71.7312 45.7005 71.83 45.8761 72.0316C46.0522 72.2332 46.1432 72.519 46.1492 72.8891C46.1564 73.3106 46.0492 73.6895 45.8276 74.0256C45.7187 74.1869 45.5748 74.3186 45.3959 74.4208C45.2175 74.5226 45.0197 74.5753 44.8025 74.5789C44.3235 74.5869 44.0801 74.3593 44.0726 73.8963C44.0678 73.6184 44.1718 73.3987 44.3845 73.237C44.5977 73.0753 44.8464 72.9923 45.1306 72.9879C45.3187 72.9847 45.4881 72.9995 45.639 73.0322C45.6418 72.9999 45.6426 72.9502 45.6414 72.8831C45.6318 72.3182 45.4594 72.0386 45.1241 72.0442C44.8079 72.0494 44.5536 72.21 44.3612 72.5262C44.2426 72.5122 44.1827 72.4701 44.1815 72.3999Z" fill="white"/>
</svg>
