<svg width="165" height="150" viewBox="0 0 165 150" fill="none" xmlns="http://www.w3.org/2000/svg">
<path d="M13.503 94.3877C13.352 95.5497 14.134 96.6097 15.271 96.8117C16.483 97.0137 17.999 96.8117 18.883 94.9687C24.363 83.8047 29.718 72.5907 34.997 61.3267C35.047 61.2257 35.072 61.1237 35.123 61.0227C35.552 59.4827 33.961 58.1187 32.471 58.6487C32.117 58.7757 31.789 58.9017 31.486 59.0787C30.779 59.4827 30.349 60.4927 29.971 61.3007C25.727 70.0907 21.61 78.9307 17.191 87.6187C16.206 89.7397 15.271 91.0787 14.412 91.9377C14.084 92.2657 13.857 92.6697 13.73 93.1247C13.629 93.5287 13.554 93.9837 13.503 94.3877Z" fill="#464646"/>
<path d="M161.104 97.4688C159.664 93.3018 157.644 89.3108 156.229 85.1438C154.335 79.5368 152.997 73.7528 150.976 68.1958C149.132 63.1698 146.556 58.4218 144.51 53.4458C142.944 49.6328 141.833 45.6418 140.292 41.8538C137.691 35.5138 132.387 33.1898 126.048 35.5898C123.168 36.6758 120.466 38.1908 117.662 39.4538C113.192 41.4488 108.797 43.6468 104.2 45.1868C103.039 45.5658 101.473 44.7328 99.957 44.1268C99.402 43.8988 99.124 43.2928 99.301 42.7368C99.705 41.5248 99.932 40.2118 100.765 39.3278C104.327 35.5388 105.312 34.1748 104.276 30.8158C103.013 26.7248 98.947 20.9158 95.739 19.8298C87.051 16.8238 75.231 23.0618 76.418 33.2658C76.771 36.3218 76.847 39.4538 76.721 42.5098C76.569 46.5258 74.322 47.9908 71.038 45.9198C63.537 41.1968 56.162 36.2208 48.913 31.1188C45.453 28.6688 38.886 27.9118 35.805 30.6138C33.683 32.4828 31.612 34.6808 30.299 37.1298C25.374 46.3488 20.575 55.6438 16.054 65.0648C12.796 71.8328 10.472 79.0568 6.91101 85.6488C3.70301 91.5838 1.27901 97.5948 0.471009 104.288C-0.589991 113.103 -0.185994 121.741 5.14301 129.267C6.10301 130.631 8.07302 132.879 10.27 131.667C11.887 130.783 11.356 128.914 11.078 128.282C9.841 125.353 7.97201 123.534 7.29001 120.529C6.28001 115.957 5.673 111.108 6.052 106.486C6.305 103.253 11.003 86.2548 11.356 85.3958C12.821 81.9108 14.261 78.4508 15.928 75.0658C21.181 64.3068 26.384 53.4968 31.915 42.8638C33.481 39.8328 35.931 37.5348 38.709 35.7668C43.685 32.5838 47.726 34.9838 51.717 37.8878C57.223 41.8788 62.021 46.8798 68.866 48.8748C71.922 49.7588 72.149 52.0318 69.422 53.7748C65.179 56.4768 62.804 60.4168 61.643 65.0648C60.304 70.4698 59.369 75.9758 58.334 81.4308C56.49 91.0788 57.298 99.8178 66.29 106.056C68.235 107.395 69.775 109.592 68.689 112.32C65.406 120.604 60.885 128.055 53.257 133.056C49.822 135.304 47.878 138.208 47.221 142.148C46.741 145.078 48.357 147.225 51.313 147.149C52.828 147.124 55.96 144.422 57.5 144.295C58.991 144.169 59.976 146.265 61.011 147.048C65.052 150.155 65.81 148.463 69.548 144.876C71.619 142.881 72.73 143.588 74.574 145.861C77.176 149.094 79.701 150.332 83.313 148.362C86.015 146.897 88.465 147.023 91.117 148.387C97.179 151.519 97.634 149.827 102.735 145.583C103.998 144.523 106.372 145.407 108.039 145.659C110.767 146.063 112.535 145.583 113.47 142.931C114.227 140.81 115.515 139.825 117.94 140.406C120.567 141.062 121.729 139.471 122.006 137.072C122.411 133.662 120.365 130.353 117.384 128.611C113.798 126.514 109.732 124.671 107.105 121.64C104.857 119.064 104.2 114.997 103.215 111.512C102.938 110.502 103.67 108.582 104.554 108.001C110.439 103.985 111.853 97.9738 112.762 91.4328C113.444 86.5328 113.722 75.0658 111.5 69.0048C114.455 74.7878 119.38 91.8368 121.83 97.6958C122.436 99.1108 123.345 100.475 124.406 101.586C124.886 102.091 126.376 102.369 126.805 102.015C127.411 101.51 127.866 100.247 127.689 99.4388C127.336 97.6708 126.553 95.9788 125.947 94.2608C121.931 83.1228 117.864 72.0098 113.975 60.8468C113.268 58.8258 112.106 57.6638 110.262 58.4218C107.913 59.3818 110.262 65.7458 110.262 65.7458C110.262 65.7458 105.716 56.6538 103.392 56.0228C102.054 54.2038 99.881 53.6478 98.012 55.9218C99.73 57.6898 101.826 59.0278 102.811 60.9478C108.191 67.7168 111.07 77.4908 109.454 88.1998C108.62 93.7308 107.509 99.4388 102.634 103.48C101.195 104.667 99.831 106.89 99.831 108.633C99.705 119.493 100.892 126.035 111.929 129.722C112.687 129.975 113.52 130.303 114.025 130.859C114.53 131.44 115.44 132.324 116.298 133.182C117.309 134.218 116.551 136.996 115.364 136.213C113.899 135.253 112.106 135.708 111.55 137.678C110.919 139.951 108.368 141.163 105.842 139.699C102.761 137.931 99.982 139.926 97.608 142.426C95.815 144.295 93.441 146.114 90.865 143.335C87.985 140.254 84.98 140.254 81.747 142.628C80.105 143.815 79.221 143.26 78.287 141.568C75.685 136.769 72.68 136.314 67.932 139.471C67.325 139.875 64.699 143.058 64.244 142.603C61.365 139.724 56.97 136.819 52.702 141.946C52.651 142.047 52.676 139.294 56.111 136.516C62.249 131.566 67.048 125.201 70.331 118.003C70.937 116.69 71.644 115.427 72.478 114.24C75.584 109.87 75.029 105.955 70.457 103.278C64.572 99.8428 61.592 94.8678 61.769 88.1238C61.87 84.1588 62.173 80.1678 62.703 76.2028C63.84 67.5398 67.022 59.9368 74.498 54.6588C75.635 53.8508 77.15 52.4608 78.06 51.2738C81.52 46.7278 80.863 41.2978 80.383 36.2208C79.575 27.6588 82.656 22.6328 92.405 23.0618C94.956 23.1628 96.345 24.2488 97.937 26.3208C99.503 28.3658 100.185 32.1548 98.139 34.3268C95.032 37.6608 95.285 40.8938 95.815 44.7078C96.345 48.4958 98.24 50.0618 101.978 49.3548C105.539 48.6728 109.024 47.4608 112.384 46.1218C117.258 44.1768 120.516 42.2068 125.416 40.3628C130.973 38.2918 136.655 40.6158 138.272 46.3738C139.711 51.5018 141.555 56.5278 143.475 61.5028C145.672 67.1358 148.45 72.5408 150.42 78.2488C153.123 86.1028 155.446 94.1348 157.619 102.142C159.791 110.199 160.447 118.154 154.083 124.974C152.542 126.641 150.824 128.181 149.536 130.025C149.36 130.303 149.208 130.606 149.082 130.934C148.4 132.702 150.067 134.597 151.885 133.99C152.087 133.915 152.264 133.839 152.441 133.713C160.346 127.954 164.918 120.049 164.817 110.274C164.64 106.107 162.569 101.737 161.104 97.4688Z" fill="#464646"/>
<path d="M161.104 97.4688C159.664 93.3018 157.644 89.3108 156.229 85.1438C154.335 79.5368 152.997 73.7528 150.976 68.1958C149.132 63.1698 146.556 58.4218 144.51 53.4458C142.944 49.6328 141.833 45.6418 140.292 41.8538C137.691 35.5138 132.387 33.1898 126.048 35.5898C123.168 36.6758 120.466 38.1908 117.662 39.4538C113.192 41.4488 108.797 43.6468 104.2 45.1868C103.039 45.5658 101.473 44.7328 99.957 44.1268C99.402 43.8988 99.124 43.2928 99.301 42.7368C99.705 41.5248 99.932 40.2118 100.765 39.3278C104.327 35.5388 105.312 34.1748 104.276 30.8158C103.013 26.7248 98.947 20.9158 95.739 19.8298C87.051 16.8238 75.231 23.0618 76.418 33.2658C76.771 36.3218 76.847 39.4538 76.721 42.5098C76.569 46.5258 74.322 47.9908 71.038 45.9198C63.537 41.1968 56.162 36.2208 48.913 31.1188C45.453 28.6688 38.886 27.9118 35.805 30.6138C33.683 32.4828 31.612 34.6808 30.299 37.1298C25.374 46.3488 20.575 55.6438 16.054 65.0648C12.796 71.8328 10.472 79.0568 6.91101 85.6488C3.70301 91.5838 1.27901 97.5948 0.471009 104.288C-0.589991 113.103 -0.185994 121.741 5.14301 129.267C6.10301 130.631 8.07302 132.879 10.27 131.667C11.887 130.783 11.356 128.914 11.078 128.282C9.841 125.353 7.97201 123.534 7.29001 120.529C6.28001 115.957 5.673 111.108 6.052 106.486C6.305 103.253 11.003 86.2548 11.356 85.3958C12.821 81.9108 14.261 78.4508 15.928 75.0658C21.181 64.3068 26.384 53.4968 31.915 42.8638C33.481 39.8328 35.931 37.5348 38.709 35.7668C43.685 32.5838 47.726 34.9838 51.717 37.8878C57.223 41.8788 62.021 46.8798 68.866 48.8748C71.922 49.7588 72.149 52.0318 69.422 53.7748C65.179 56.4768 62.804 60.4168 61.643 65.0648C60.304 70.4698 59.369 75.9758 58.334 81.4308C56.49 91.0788 57.298 99.8178 66.29 106.056C68.235 107.395 69.775 109.592 68.689 112.32C65.406 120.604 60.885 128.055 53.257 133.056C49.822 135.304 47.878 138.208 47.221 142.148C46.741 145.078 48.357 147.225 51.313 147.149C52.828 147.124 55.96 144.422 57.5 144.295C58.991 144.169 59.976 146.265 61.011 147.048C65.052 150.155 65.81 148.463 69.548 144.876C71.619 142.881 72.73 143.588 74.574 145.861C77.176 149.094 79.701 150.332 83.313 148.362C86.015 146.897 88.465 147.023 91.117 148.387C97.179 151.519 97.634 149.827 102.735 145.583C103.998 144.523 106.372 145.407 108.039 145.659C110.767 146.063 112.535 145.583 113.47 142.931C114.227 140.81 115.515 139.825 117.94 140.406C120.567 141.062 121.729 139.471 122.006 137.072C122.411 133.662 120.365 130.353 117.384 128.611C113.798 126.514 109.732 124.671 107.105 121.64C104.857 119.064 104.2 114.997 103.215 111.512C102.938 110.502 103.67 108.582 104.554 108.001C110.439 103.985 111.853 97.9738 112.762 91.4328C113.444 86.5328 113.722 75.0658 111.5 69.0048C114.455 74.7878 119.38 91.8368 121.83 97.6958C122.436 99.1108 123.345 100.475 124.406 101.586C124.886 102.091 126.376 102.369 126.805 102.015C127.411 101.51 127.866 100.247 127.689 99.4388C127.336 97.6708 126.553 95.9788 125.947 94.2608C121.931 83.1228 117.864 72.0098 113.975 60.8468C113.268 58.8258 112.106 57.6638 110.262 58.4218C107.913 59.3818 110.262 65.7458 110.262 65.7458C110.262 65.7458 105.716 56.6538 103.392 56.0228C102.054 54.2038 99.881 53.6478 98.012 55.9218C99.73 57.6898 101.826 59.0278 102.811 60.9478C108.191 67.7168 111.07 77.4908 109.454 88.1998C108.62 93.7308 107.509 99.4388 102.634 103.48C101.195 104.667 99.831 106.89 99.831 108.633C99.705 119.493 100.892 126.035 111.929 129.722C112.687 129.975 113.52 130.303 114.025 130.859C114.53 131.44 115.44 132.324 116.298 133.182C117.309 134.218 116.551 136.996 115.364 136.213C113.899 135.253 112.106 135.708 111.55 137.678C110.919 139.951 108.368 141.163 105.842 139.699C102.761 137.931 99.982 139.926 97.608 142.426C95.815 144.295 93.441 146.114 90.865 143.335C87.985 140.254 84.98 140.254 81.747 142.628C80.105 143.815 79.221 143.26 78.287 141.568C75.685 136.769 72.68 136.314 67.932 139.471C67.325 139.875 64.699 143.058 64.244 142.603C61.365 139.724 56.97 136.819 52.702 141.946C52.651 142.047 52.676 139.294 56.111 136.516C62.249 131.566 67.048 125.201 70.331 118.003C70.937 116.69 71.644 115.427 72.478 114.24C75.584 109.87 75.029 105.955 70.457 103.278C64.572 99.8428 61.592 94.8678 61.769 88.1238C61.87 84.1588 62.173 80.1678 62.703 76.2028C63.84 67.5398 67.022 59.9368 74.498 54.6588C75.635 53.8508 77.15 52.4608 78.06 51.2738C81.52 46.7278 80.863 41.2978 80.383 36.2208C79.575 27.6588 82.656 22.6328 92.405 23.0618C94.956 23.1628 96.345 24.2488 97.937 26.3208C99.503 28.3658 100.185 32.1548 98.139 34.3268C95.032 37.6608 95.285 40.8938 95.815 44.7078C96.345 48.4958 98.24 50.0618 101.978 49.3548C105.539 48.6728 109.024 47.4608 112.384 46.1218C117.258 44.1768 120.516 42.2068 125.416 40.3628C130.973 38.2918 136.655 40.6158 138.272 46.3738C139.711 51.5018 141.555 56.5278 143.475 61.5028C145.672 67.1358 148.45 72.5408 150.42 78.2488C153.123 86.1028 155.446 94.1348 157.619 102.142C159.791 110.199 160.447 118.154 154.083 124.974C152.542 126.641 150.824 128.181 149.536 130.025C149.36 130.303 149.208 130.606 149.082 130.934C148.4 132.702 150.067 134.597 151.885 133.99C152.087 133.915 152.264 133.839 152.441 133.713C160.346 127.954 164.918 120.049 164.817 110.274C164.64 106.107 162.569 101.737 161.104 97.4688Z" fill="#464646"/>
<path d="M113.141 11.3688C110.843 14.7528 104.933 13.1618 104.327 10.1058C104.099 8.94378 102.912 8.03477 102.205 8.81777C99.6539 11.6208 94.072 12.7318 92.254 9.72679C88.213 3.05879 87.985 3.26078 85.99 9.29678C85.788 9.90378 84.929 11.4948 83.439 11.5448C79.777 11.6458 78.3629 8.43878 77.0239 8.86778C75.4329 9.37278 76.0139 12.0248 72.4529 12.8838C67.6029 14.0458 65.482 9.42378 65.482 9.42378C65.482 9.42378 67.6279 16.1928 67.8559 17.3538C68.3859 20.0318 68.563 22.8098 68.487 25.5378C68.437 27.0778 67.8049 29.7048 66.9719 29.9068C64.9509 30.3868 62.173 30.4368 60.607 29.3508C57.273 27.0278 54.3939 23.9718 51.5399 21.0168C48.6099 17.9858 45.8319 14.8028 43.2299 11.4948C42.4469 10.4848 41.791 8.03479 42.271 7.62979C43.963 6.16579 45.2759 7.42778 46.8169 9.19578C50.6309 13.5658 53.965 17.6568 57.905 21.9508C58.208 22.2788 63.1829 26.0928 64.2439 25.5628C65.2289 25.0828 64.9509 21.1928 64.8249 20.2078C64.3449 16.6218 62.9559 13.3638 62.2739 9.80277C62.0469 8.58977 61.415 7.35277 61.516 6.19077C61.592 5.35677 62.4509 4.16978 63.2089 3.91778C63.8649 3.71578 65.128 4.42278 65.658 5.10478C69.396 10.9138 72.4019 11.4698 74.7259 6.77178C76.6959 2.85678 77.908 2.73077 79.297 5.63477C81.04 9.29677 83.111 8.16077 84.525 4.37177C85.081 2.88177 85.46 0.0787787 87.783 0.00277866C90.764 -0.0982213 90.6119 2.57878 92.1019 4.01878C92.8849 4.77578 93.5669 6.13977 94.4009 6.82177C96.4719 8.51377 98.593 8.23678 100.488 6.34178C103.342 3.51378 105.261 3.10977 106.398 6.84777C107.534 10.5858 109.807 11.4948 113.722 7.70577C114.808 6.64477 116.096 4.64978 117.763 5.50878C119.582 6.44278 118.092 9.04477 117.485 10.4338C116.324 13.0608 115.137 18.1878 114.505 21.9758C114.303 23.1378 114.177 26.2698 115.465 26.6488C116.677 27.0018 119.405 24.6538 119.86 23.6428C122.006 18.9708 124.128 14.0198 126.123 9.29678C126.704 7.93378 126.073 6.39277 126.982 5.30677C127.411 4.80177 128.043 4.49877 128.75 4.22077C129.583 3.89177 130.518 4.29679 130.872 5.12979C131.149 5.78679 131.351 6.41778 131.175 6.92278C129.482 11.6208 127.563 16.2678 125.517 20.8398C124.557 23.0118 123.067 24.9568 121.88 27.0528C120.011 30.3108 116.45 31.9528 113.268 30.9678C110.792 30.2098 109.403 26.8758 110.035 23.0878C110.287 21.5218 110.616 19.9558 110.893 18.3648C111.121 16.9498 112.964 12.5558 113.141 11.3688Z" fill="#464646"/>
<path d="M45.706 61.8568C46.413 62.5388 46.64 63.5738 46.362 64.5338C46.261 64.9128 46.135 65.2158 46.009 65.5188C41.664 74.4348 37.27 83.3249 32.926 92.2409C31.789 94.5899 31.107 97.1909 29.794 99.4139C28.607 101.409 26.94 103.152 25.247 104.768C24.742 105.248 23.126 105.248 22.545 104.794C21.939 104.314 21.56 102.925 21.762 102.142C22.318 100.071 23.126 98.0249 24.086 96.0799C28.329 87.6189 32.622 79.1828 36.967 70.7728C38.381 68.0448 39.795 65.2669 41.589 62.7909C42.195 61.9329 43.912 61.6548 45.15 61.5788C45.327 61.5538 45.529 61.6798 45.706 61.8568Z" fill="#464646"/>
<path d="M138.019 95.3218C138.297 96.3068 138.12 97.3679 137.514 98.2019C137.135 98.7319 136.756 99.1869 136.529 99.1109C135.393 98.8079 133.978 97.8729 133.574 96.8629C131.655 91.8619 130.139 86.7099 128.321 81.6579C126.022 75.2179 123.598 68.8279 121.223 62.3869C120.946 61.6299 120.415 60.8469 120.516 60.1389C120.668 59.0279 120.516 57.2349 121.628 56.8559C122.688 56.5019 124.002 57.8919 124.33 58.7499C128.548 69.4839 132.64 80.2439 136.706 91.0289C137.161 92.3419 137.539 93.7058 138.019 95.3218Z" fill="#464646"/>
<path d="M150.37 88.0987C151.001 89.3357 150.926 90.8517 150.016 91.9127C149.789 92.1647 149.562 92.3667 149.309 92.4177C148.45 92.5947 146.859 91.9877 146.455 91.2307C144.409 87.5677 142.616 83.7797 140.823 79.9907C137.565 73.0957 134.357 66.1757 131.124 59.2547C130.872 58.7497 130.493 58.2197 130.291 57.7907C129.609 56.4517 129.937 54.9617 130.947 54.3807C131.857 53.8507 133.347 54.7337 133.827 55.4157C136.125 58.6747 137.211 61.8317 138.979 65.3927C140.646 68.7267 142.692 72.6157 144.157 76.0507C145.445 79.0567 147.162 81.9107 148.678 84.8407C149.208 85.9007 149.764 86.9617 150.37 88.0987Z" fill="#464646"/>
<path d="M36.2591 107.218C35.9821 106.738 35.9311 106.132 36.1081 105.602C36.5881 104.238 36.9921 102.975 37.5981 101.813C41.2101 94.6907 44.9731 87.6187 48.5341 80.4707C49.7471 78.0207 50.4031 75.3437 51.4391 72.8177C51.9191 71.6817 52.5001 70.4697 53.3581 69.6107C53.3841 69.5857 53.3331 69.6357 53.3581 69.6107C54.9751 67.5897 57.9051 68.5247 57.4251 71.0247C57.3991 71.2017 57.3741 71.3527 57.2981 71.5047C54.5961 77.6677 51.6411 83.7287 48.8881 89.8667C47.3721 93.3017 46.1851 96.8877 44.7461 100.374C43.7611 102.798 42.7761 105.273 41.4121 107.496C40.9071 108.304 39.2901 108.784 38.2041 108.734C37.8001 108.734 36.7141 107.976 36.2591 107.218Z" fill="#464646"/>
<path d="M92.355 136.339C91.698 136.036 91.2939 135.304 91.5209 134.647C94.0469 126.944 91.8499 120.529 89.4759 114.139C89.2229 113.179 89.375 111.436 90.309 110.981C91.319 110.476 92.658 112.068 93.012 112.952C94.931 117.675 93.8959 119.089 95.6379 123.888C95.7899 124.317 97.154 128.282 97.507 128.762C98.694 130.353 99.831 133.081 99.124 134.294C98.669 135.077 96.7499 133.839 95.5879 134.193C94.6529 134.47 94.552 136.39 93.694 136.592C93.264 136.693 92.81 136.541 92.355 136.339Z" fill="#464646"/>
<path d="M81.6971 111.007C82.1761 111.108 82.53 111.562 82.479 112.068C82.404 113.103 82.378 114.189 81.949 115.048C80.535 120.301 78.918 125.681 78.716 131.338C78.691 132.399 78.6661 134.571 77.5801 134.647C76.1651 134.723 75.6351 131.212 74.6251 130.934C73.2611 130.556 71.8971 133.132 70.2051 132.702C69.5981 132.551 69.2701 131.844 69.5231 131.288C69.9271 130.455 70.2801 129.621 70.9371 129.141C75.5341 125.757 77.0491 120.857 78.2361 115.654C78.5651 114.265 79.221 112.952 79.828 111.613C80.03 111.158 80.5091 110.931 80.9891 111.032L81.6971 111.007Z" fill="#464646"/>
<path d="M88.1371 27.1288C89.3241 25.7648 92.2541 25.5628 93.5421 26.8258C94.5781 27.8608 94.4761 28.7958 94.3751 29.5028C94.1991 31.0438 91.7991 33.6958 90.8651 33.4928C89.8541 33.2908 88.9451 32.5838 88.0861 31.7758C86.8491 30.6388 86.7481 28.7198 87.8341 27.4568C87.9351 27.3558 88.0361 27.2548 88.1371 27.1288Z" fill="#464646"/>
</svg>
