<svg width="121" height="120" viewBox="0 0 121 120" fill="none" xmlns="http://www.w3.org/2000/svg">
<g clip-path="url(#clip0)">
<path d="M109.107 77.254C108.781 77.254 108.347 77.254 107.805 77.254H106.069C104.768 77.0811 103.64 76.8216 102.685 76.4973C101.73 76.173 100.863 75.7622 100.103 75.2649C99.0401 74.5946 98.1506 73.6649 97.4346 72.4324C96.7187 71.2216 96.198 69.8162 95.8726 68.2595C95.5471 66.7027 95.3953 65.0162 95.4386 63.2C95.482 61.3838 95.7424 59.5027 96.2414 57.6C96.7404 55.6541 97.3912 53.7081 98.2157 51.7622C99.0401 49.8378 100.016 48.0432 101.123 46.4C103.488 42.8108 106.113 40.4973 109.02 39.4595C110.842 38.8324 112.687 38.8324 114.509 39.4595C115.594 39.827 116.527 40.3243 117.308 40.9081C109.28 17.1243 86.7387 0 60.1834 0C26.9025 0 -0.086792 26.8973 -0.086792 60.0432C-0.086792 69.4919 2.10446 78.4216 6.00966 86.3784C6.18322 86.3351 6.37848 86.2919 6.55205 86.2486C7.00765 86.1189 7.39817 86.0108 7.7453 85.9243C9.13382 85.3838 10.2837 84.3027 11.1949 82.6595C12.1061 81.0162 12.7136 78.9405 13.039 76.4541C13.0824 76.1946 13.1258 75.8486 13.1475 75.4162C13.1692 74.9838 13.1909 74.5513 13.1909 74.0757C13.1909 73.6 13.1692 73.1459 13.1475 72.7135C13.1258 72.2595 13.1041 71.9135 13.1041 71.654C12.9739 70.7243 12.8221 69.8378 12.6268 69.0162C12.4532 68.1946 12.2146 67.3297 11.9325 66.4432C11.6505 65.5568 11.26 64.5838 10.8044 63.5027C10.3488 62.4216 9.76299 61.2108 9.09042 59.827C8.20091 57.9676 7.50665 56.4324 7.00765 55.2649C6.50866 54.0973 6.09644 52.9946 5.72762 51.9568C5.14184 49.8595 4.85979 47.9784 4.88149 46.2919C4.90319 44.6054 5.27201 42.9838 5.98796 41.427C6.44357 40.4108 7.02935 39.4378 7.767 38.5297C8.50464 37.6216 9.30738 36.8 10.1752 36.0649C11.043 35.3297 11.9759 34.7243 12.9522 34.227C13.9285 33.7297 14.8831 33.4054 15.8377 33.2324C16.2283 33.1459 16.7273 33.1027 17.313 33.1027C17.8988 33.1027 18.3761 33.1459 18.7883 33.2324C19.4175 33.3189 20.0684 33.4919 20.7626 33.773C21.4569 34.0324 22.0427 34.3568 22.5417 34.7027C22.802 34.8757 23.1274 35.1784 23.518 35.5676C23.8868 35.9568 24.1471 36.3027 24.2773 36.5622C24.4943 36.8216 24.6678 37.1243 24.7763 37.4703C24.8848 37.7946 24.9932 38.1622 25.08 38.573C25.1668 38.9189 25.2102 39.2216 25.2102 39.4811C25.2102 39.7189 25.2102 40.2162 25.2102 40.973C25.2102 41.6432 25.2102 42.1622 25.2102 42.573C25.2102 42.9838 25.1668 43.3514 25.08 43.6973C24.8631 45.5568 24.5593 47.0919 24.1688 48.3027C23.8 49.4919 23.301 50.4865 22.7369 51.2432C22.3898 51.6541 22.0427 51.9135 21.6955 52.0865C21.3701 52.2378 20.8928 52.2811 20.3287 52.1946C19.7429 52.1081 19.2439 51.9351 18.8317 51.6541C18.3978 51.3946 18.2025 51.1135 18.2025 50.8541C18.2025 50.8108 18.2459 50.6595 18.311 50.4216C18.3761 50.1838 18.4846 49.9243 18.6148 49.6649C19.0053 48.2378 19.3307 46.9189 19.5477 45.6649C19.7646 44.4108 19.8731 43.0919 19.8731 41.6649C19.9165 40.6486 19.9165 39.7622 19.8297 39.027C19.7646 38.2919 19.6128 37.6649 19.3958 37.1243C19.3524 36.9081 19.309 36.7784 19.2873 36.7135C19.2656 36.6703 19.2005 36.6486 19.1138 36.6486C18.9836 36.6919 18.7232 36.8216 18.311 37.0162C17.8988 37.2108 17.5517 37.427 17.2479 37.6432C16.0981 38.4432 14.9916 39.5027 13.9285 40.8432C12.8871 42.1838 12.1061 43.5243 11.6288 44.9081C11.2817 46.0541 11.0864 47.2 11.0864 48.3459C11.0864 49.4703 11.26 50.8324 11.6288 52.3892C11.759 52.9297 11.9108 53.4703 12.1061 54.0324C12.2797 54.5946 12.5183 55.2 12.8004 55.8919C13.0824 56.5838 13.4295 57.3622 13.8417 58.2486C14.254 59.1351 14.7313 60.1946 15.317 61.4486C15.8594 62.5946 16.315 63.6541 16.7273 64.5838C17.1395 65.5135 17.4649 66.3784 17.7252 67.1784C17.9856 67.9784 18.2025 68.7351 18.3544 69.4703C18.5063 70.2054 18.6582 70.9622 18.7883 71.7622C18.8317 72.0216 18.8534 72.3892 18.8534 72.8649C18.8534 73.3405 18.8534 73.8162 18.8534 74.3351C18.8534 74.854 18.8534 75.3297 18.8534 75.8054C18.8534 76.2811 18.8317 76.6486 18.7883 76.9081C18.4846 78.8973 17.9205 80.6703 17.1395 82.2054C16.3584 83.7405 15.3387 84.973 14.1021 85.9027C12.3231 87.2 9.93655 88 6.96426 88.2811C17.0961 107.222 37.1211 120.086 60.1617 120.086C89.2771 120.086 113.576 99.5027 119.195 72.1297C116.44 74.7892 113.381 76.4541 109.996 77.1027C109.758 77.2108 109.454 77.254 109.107 77.254ZM92.9003 44.5189C92.8135 45.3189 92.6399 46.4 92.4013 47.7622C92.1626 49.1243 91.8155 50.8108 91.3599 52.8649C90.9043 54.9189 90.3402 57.4919 89.6242 60.6054C89.1686 62.5513 88.7781 64.3459 88.431 65.9676C88.0839 67.5892 87.7584 69.0811 87.4981 70.4649C87.2377 71.8486 86.9991 73.1459 86.8038 74.4C86.6086 75.6541 86.4133 76.8649 86.2397 78.0757C85.654 81.9892 85.5889 84.973 86.0445 87.0054C86.1313 87.4595 86.1747 87.6973 86.1747 87.7405C86.218 87.7838 86.3916 87.6541 86.717 87.3513C86.9774 87.0054 87.216 86.7892 87.3896 86.7459C87.6933 86.6162 88.1706 86.5946 88.7998 86.6811C89.2988 86.7676 89.711 86.9189 90.0365 87.1135C90.3619 87.3081 90.5355 87.5243 90.5355 87.7405C90.5355 87.827 90.3836 88.0649 90.1015 88.4324C89.8195 88.8 89.4941 89.1676 89.1252 89.5351C88.9517 89.6649 88.7781 89.7946 88.6262 89.9027C88.4744 90.0108 88.3008 90.1189 88.1273 90.2054C87.9103 90.2919 87.7367 90.3568 87.5849 90.4C87.4547 90.4432 87.216 90.4649 86.8472 90.4649H85.8492C83.8966 90.1189 82.66 88.8865 82.161 86.7892C81.7054 85.1459 81.5535 83.0919 81.6837 80.627C81.8139 78.1622 82.2261 74.8757 82.8769 70.7892C83.2675 68.4757 83.658 66.4216 84.0485 64.5838C84.4173 62.7676 84.8512 60.8216 85.3502 58.7892C85.4804 58.2054 85.6323 57.6649 85.7841 57.1459C85.936 56.627 86.0879 56.0649 86.2614 55.4162C86.4133 54.7676 86.6086 54.0324 86.8255 53.1892C87.0425 52.3459 87.3462 51.3297 87.6933 50.1189C87.9971 48.9297 88.2791 47.8703 88.4961 46.9622C88.713 46.0541 88.8649 45.2541 88.9734 44.6054C89.1036 43.8919 89.1686 43.5027 89.1686 43.4162C89.1686 43.3297 89.0819 43.3946 88.9083 43.6108C88.6046 43.9568 88.1923 44.4973 87.715 45.1676C87.216 45.8595 86.6953 46.5946 86.1096 47.3946C85.5238 48.1946 84.9597 49.0378 84.3956 49.9027C83.8315 50.7676 83.3325 51.5676 82.8986 52.2595C81.8789 53.9027 80.8593 55.5892 79.883 57.2973C78.9067 59.0054 77.9087 60.8432 76.9107 62.8324C75.9127 64.8 74.8496 66.9838 73.7431 69.3622C72.6366 71.7405 71.4 74.4216 70.0549 77.3838C68.1891 81.6 66.9524 84.1297 66.3666 84.973C66.1497 85.3189 65.9327 85.6 65.7375 85.8162C65.5422 86.0108 65.3469 86.1838 65.1734 86.3135C64.6744 86.5297 64.0018 86.6378 63.0906 86.6162C62.2011 86.5946 61.4417 86.4432 60.8126 86.1838C60.1834 85.9243 59.7278 85.6216 59.4458 85.2757C59.1637 84.9513 58.9251 84.454 58.7515 83.8486C58.4912 82.7892 58.4044 81.1027 58.4912 78.8108C58.5779 76.5189 58.8166 73.9027 59.2288 70.9838C59.7278 67.9568 60.3787 64.6486 61.2248 61.0595C62.0709 57.4703 63.0689 53.7297 64.2405 49.8595C64.8263 48 65.5856 45.7081 66.5185 43.027C67.4514 40.3459 68.4494 37.5135 69.5342 34.5297C69.6644 34.1189 69.7945 33.7513 69.9464 33.4054C70.0766 33.0595 70.185 32.7351 70.2718 32.4757C70.402 32.173 70.5105 31.8703 70.5973 31.6108C70.2501 32.1946 69.9247 32.7135 69.6644 33.1676C69.404 33.6216 69.1003 34.1622 68.7965 34.7243C68.4928 35.3081 68.1891 35.8703 67.9287 36.4541C67.5816 37.0811 67.1694 37.8378 66.6921 38.7243C66.2148 39.6108 65.7375 40.5622 65.2168 41.6C64.6961 42.6162 64.1971 43.6541 63.6764 44.6703C63.1557 45.6865 62.7001 46.5946 62.3096 47.3946C61.3767 49.3405 60.4871 51.1784 59.6627 52.8865C58.8383 54.5946 58.0139 56.3459 57.1894 58.1622C56.365 59.9568 55.4972 61.8811 54.6077 63.8919C53.7181 65.9243 52.7418 68.2162 51.6571 70.7892C50.9845 72.3459 50.4204 73.6432 49.9865 74.6595C49.5309 75.6757 49.1404 76.5622 48.8149 77.3189C48.4895 78.0757 48.1858 78.7243 47.9037 79.2865C47.6434 79.8486 47.3613 80.4108 47.101 80.9946C45.9945 83.2216 45.0399 84.8649 44.2589 85.9676C43.4778 87.0486 42.7185 87.7838 41.9592 88.1297C41.5469 88.3027 41.0913 88.4108 40.5489 88.4541C40.0066 88.4973 39.4642 88.4757 38.9001 88.3892C38.336 88.3027 37.8153 88.1513 37.338 87.9135C36.839 87.6973 36.4485 87.4162 36.1448 87.1135C35.7542 86.7243 35.4071 86.0757 35.1468 85.1892C34.9732 84.5622 34.8647 84.0216 34.8213 83.5243C34.7779 83.027 34.7779 82.1405 34.8213 80.8649C34.8213 79.8486 34.8213 79.0919 34.8647 78.6378C34.8864 78.1622 34.9515 77.6432 35.0383 77.0811C35.2552 75.1351 35.5807 73.0811 36.0146 70.9189C36.4485 68.7568 37.0777 66.1189 37.9238 62.9622C38.0974 62.2919 38.2926 61.5784 38.4879 60.8C38.6831 60.0216 38.8784 59.2865 39.0953 58.573C39.2906 57.8595 39.4642 57.2541 39.5943 56.7784C39.7245 56.2811 39.7896 56.0216 39.7896 55.9784C39.833 55.8486 39.7679 55.8703 39.616 56.0865C39.4642 56.2811 39.1387 56.7135 38.6397 57.3838C37.837 58.5297 37.0126 59.7189 36.1881 60.9513C35.3637 62.1838 34.6261 63.3513 33.9535 64.5189C33.2809 65.6649 32.6952 66.7243 32.1745 67.654C31.6538 68.5838 31.3067 69.3189 31.1331 69.8595C31.0463 70.0757 31.0029 70.227 31.0029 70.3351C31.0029 70.4216 31.0029 70.5081 31.0029 70.5946C31.0897 70.7676 31.0897 70.8973 31.0029 70.9838C30.9595 71.0703 30.8077 71.2 30.5256 71.3946C30.3954 71.4811 30.287 71.5243 30.2002 71.5243C30.1134 71.5243 29.9181 71.5027 29.5927 71.4595C29.2456 71.4595 28.9635 71.4378 28.7466 71.3946C28.5513 71.3514 28.3127 71.2432 28.0523 71.0703C27.5967 70.8541 27.3798 70.4432 27.3798 69.8811C27.3798 69.3405 27.5316 68.5838 27.8571 67.5892C28.1608 66.5946 28.5947 65.4703 29.1371 64.2595C29.6795 63.027 30.287 61.7297 30.9812 60.3676C31.6755 58.9838 32.3914 57.6432 33.1508 56.3027C34.0837 54.7892 34.9949 53.4054 35.8844 52.173C36.7739 50.9189 37.7936 49.6216 38.9652 48.2378C39.4642 47.6541 39.8764 47.1784 40.2018 46.8108C40.5273 46.4432 40.831 46.1405 41.0696 45.9459C41.3083 45.7513 41.5469 45.6 41.7639 45.5135C41.9809 45.427 42.2412 45.3622 42.5015 45.3189C43.2609 45.2324 44.107 45.3838 45.0833 45.7514C46.0379 46.1189 46.7756 46.6378 47.2529 47.2432C47.4698 47.4595 47.6 47.6973 47.6434 47.9351C47.6868 48.173 47.7085 48.5622 47.7085 49.1027C47.7085 49.4486 47.6868 49.8378 47.6434 50.2703C47.6 50.7027 47.5132 51.2 47.383 51.8054C47.2529 52.4108 47.0793 53.1459 46.884 54.0108C46.6888 54.8757 46.4284 55.9351 46.1247 57.1676C45.9511 57.8811 45.6908 58.8973 45.3654 60.2378C45.0399 61.5784 44.7145 62.8324 44.3891 64.0432C43.6297 67.1568 43.0222 69.7513 42.5449 71.8054C42.0676 73.8811 41.6771 75.8054 41.3734 77.6432C41.2866 78.2703 41.1998 78.854 41.113 79.4162C41.0262 79.9784 40.9395 80.4757 40.8744 80.9081C40.8093 81.3622 40.7659 81.7081 40.7659 81.9676C40.7659 82.227 40.7876 82.3351 40.831 82.2919C40.9178 82.2054 41.1564 81.7946 41.5252 81.1027C41.8941 80.3892 42.2195 79.7189 42.5015 79.1135C42.7619 78.573 43.0439 78.0108 43.3043 77.4054C43.5646 76.8 43.8901 76.1081 44.2372 75.3081C44.5843 74.5081 45.0182 73.5568 45.5172 72.4757C46.0162 71.3946 46.5803 70.0324 47.2529 68.4541C48.1424 66.4 48.9234 64.627 49.596 63.0919C50.2685 61.5568 50.876 60.173 51.3967 58.9189C51.9391 57.6649 52.4598 56.5189 52.9588 55.4162C53.4795 54.3351 54.0002 53.1892 54.5209 51.9784C56.7555 47.3081 59.1637 42.4865 61.7672 37.5135C64.3706 32.5405 66.9524 27.8919 69.4908 23.5892C69.903 22.9189 70.4237 22.0541 71.0529 20.9514C71.7037 19.8703 72.3546 18.7676 73.0272 17.6432C73.6997 16.5405 74.3072 15.5243 74.8279 14.6378C75.3703 13.7514 75.7174 13.1892 75.891 12.973C76.5201 12 76.9974 11.4811 77.3663 11.4378H78.1039C78.7765 11.4811 79.5358 11.7838 80.3819 12.3676C81.2281 12.9514 81.8139 13.5568 82.1176 14.227L82.3128 14.7027V15.827C82.3128 16.4973 82.2478 17.1676 82.1393 17.8595C82.0308 18.5514 81.7922 19.6108 81.445 21.0162C81.2281 21.8595 80.9894 22.7243 80.7725 23.6108C80.5555 24.4973 80.2518 25.5351 79.9046 26.7027C79.5575 27.8703 79.1236 29.2541 78.6246 30.8324C78.1256 32.4108 77.5398 34.2919 76.8239 36.4541C75.5221 40.4108 74.4374 43.8919 73.5045 46.9189C72.5932 49.9459 71.7688 52.7351 71.0312 55.2865C70.2935 57.8378 69.6427 60.2811 69.0569 62.6162C68.4711 64.9513 67.907 67.3946 67.3212 69.9892C67.1911 70.573 67.0826 71.0703 66.9958 71.4811C66.909 71.9135 66.8439 72.1297 66.8005 72.173L67.5382 70.8973C68.5579 68.7568 69.5125 66.8324 70.4237 65.1027C71.3132 63.373 72.2027 61.7297 73.0922 60.173C73.9818 58.6162 74.8713 57.1243 75.7608 55.6757C76.6503 54.227 77.6049 52.7351 78.6463 51.1784C79.2321 50.3351 79.8396 49.427 80.5121 48.4757C81.1847 47.5243 81.8355 46.5946 82.443 45.7081C83.0722 44.8216 83.6363 44 84.1787 43.2649C84.7211 42.5297 85.155 41.9676 85.5238 41.5568C85.9794 41.0595 86.4567 40.5838 86.9557 40.0865C87.4764 39.5892 87.8669 39.2865 88.1273 39.1568C88.3442 39.027 88.4961 38.9405 88.6046 38.9189C88.6913 38.8973 88.9083 38.8757 89.2771 38.8757C89.6242 38.8757 89.8846 38.8973 90.0148 38.9189C90.1449 38.9405 90.3619 39.027 90.6873 39.1568C91.4901 39.5027 92.0541 39.9135 92.4013 40.3892C92.7267 40.8649 92.9437 41.5351 93.0304 42.4216C93.0304 43.027 92.9871 43.7189 92.9003 44.5189Z" fill="black"/>
<path d="M118.479 51.9351C118.241 52.281 118.002 52.5405 117.785 52.6702C117.655 52.7567 117.438 52.8 117.112 52.8C116.657 52.7567 116.223 52.6054 115.767 52.3675C115.312 52.1297 115.03 51.827 114.899 51.4594C114.813 51.3729 114.769 51.2648 114.791 51.1351C114.813 51.0054 114.921 50.681 115.095 50.2054C115.355 49.3621 115.55 48.7135 115.659 48.2378C115.767 47.7621 115.832 47.1567 115.832 46.4C115.832 45.8162 115.811 45.427 115.789 45.2324C115.767 45.0378 115.702 44.7783 115.615 44.4756C115.485 44.0648 115.355 43.7405 115.247 43.4378C115.138 43.1567 115.03 43.0054 114.943 43.0054C114.856 43.0054 114.682 43.0486 114.4 43.1351C114.14 43.2216 113.88 43.3081 113.663 43.3946C112.101 44.1513 110.517 45.5783 108.911 47.654C107.306 49.7513 105.896 52.1946 104.703 54.9838C102.121 61.0811 101.275 66.227 102.164 70.4432C102.381 71.5459 102.685 72.4973 103.075 73.2324C103.444 73.9892 103.856 74.4 104.312 74.5081C104.399 74.5513 104.551 74.5729 104.789 74.5729C105.006 74.5729 105.245 74.5946 105.462 74.6378C106.568 74.7243 107.74 74.5729 108.977 74.1621C110.213 73.7513 111.45 73.1892 112.687 72.4324C113.402 71.9784 114.032 71.5243 114.596 71.0702C115.16 70.5946 115.832 69.9892 116.635 69.2324C117.351 68.4756 117.785 68.0216 117.937 67.8702C118.089 67.7189 118.262 67.6324 118.436 67.6324C118.935 67.5675 119.434 67.6324 119.933 67.7838C120.258 65.254 120.432 62.6594 120.432 60.0216C120.432 56.5189 120.128 53.0811 119.542 49.7513C119.434 50.0756 119.304 50.3783 119.173 50.6594C118.956 51.1567 118.718 51.5675 118.479 51.9351Z" fill="black"/>
</g>
<defs>
<clipPath id="clip0">
<rect width="121" height="120" fill="white"/>
</clipPath>
</defs>
</svg>
