<svg width="257" height="130" viewBox="0 0 257 130" fill="none" xmlns="http://www.w3.org/2000/svg">
<g clip-path="url(#clip0)">
<path d="M160.01 48.2054C159.096 47.3387 158.628 46.2847 158.628 45.0432H159.541C159.541 46.0504 159.916 46.8937 160.666 47.6198C161.416 48.3225 162.306 48.6973 163.337 48.6973C164.461 48.6973 165.445 48.3928 166.265 47.7838C167.062 47.1748 167.46 46.4486 167.46 45.582C167.46 44.8324 167.109 44.2234 166.382 43.7081C165.679 43.2162 164.742 42.9117 163.571 42.7946C162.142 42.6775 160.971 42.2559 160.127 41.5766C159.26 40.8739 158.839 40.0306 158.839 39C158.839 37.9928 159.284 37.1496 160.151 36.4234C161.017 35.7207 162.095 35.3459 163.337 35.3459C164.672 35.3459 165.82 35.7207 166.757 36.4703C167.694 37.2198 168.163 38.1099 168.163 39.1405H167.273C167.273 38.3441 166.898 37.6414 166.125 37.0793C165.375 36.4937 164.438 36.2126 163.36 36.2126C162.376 36.2126 161.533 36.4937 160.807 37.0324C160.104 37.5712 159.752 38.2036 159.752 38.9766C159.752 39.7261 160.127 40.3586 160.853 40.8739C161.603 41.3892 162.564 41.6937 163.782 41.8108C165.164 41.9279 166.289 42.3261 167.132 43.0054C167.975 43.6847 168.374 44.5279 168.374 45.5351C168.374 46.636 167.882 47.5495 166.898 48.3225C165.914 49.0955 164.719 49.4703 163.337 49.4703C162.025 49.5171 160.924 49.0721 160.01 48.2054Z" fill="white"/>
<path d="M172.075 47.4559C170.974 46.191 170.435 44.528 170.435 42.4667C170.435 40.3117 170.974 38.6018 172.075 37.3135C173.176 36.0253 174.629 35.3928 176.433 35.3928C178.26 35.3928 179.713 36.0253 180.79 37.3135C181.891 38.6018 182.43 40.3117 182.43 42.4667C182.43 44.5514 181.891 46.2144 180.79 47.4559C179.689 48.7207 178.237 49.3298 176.433 49.3298C174.629 49.3298 173.176 48.7207 172.075 47.4559ZM180.134 46.8469C181.048 45.746 181.516 44.2937 181.516 42.4667C181.516 40.5928 181.048 39.0937 180.134 37.946C179.221 36.8216 177.979 36.2361 176.433 36.2361C174.886 36.2361 173.645 36.7982 172.731 37.946C171.817 39.0703 171.349 40.5928 171.349 42.4667C171.349 44.2937 171.817 45.7694 172.731 46.8469C173.645 47.9478 174.886 48.5099 176.433 48.5099C177.979 48.5099 179.221 47.9478 180.134 46.8469Z" fill="white"/>
<path d="M186.436 47.4559C185.218 46.0739 184.609 44.4108 184.609 42.4667C184.609 40.5226 185.218 38.8361 186.436 37.4541C187.631 36.0721 189.084 35.3928 190.794 35.3928C192.199 35.3928 193.394 35.7676 194.355 36.5171C195.315 37.2667 195.924 38.2505 196.159 39.5153H195.245C195.081 38.5784 194.566 37.8054 193.722 37.173C192.879 36.564 191.918 36.2361 190.794 36.2361C189.341 36.2361 188.1 36.8451 187.069 38.0631C186.038 39.2811 185.523 40.7568 185.523 42.4667C185.523 44.1766 186.038 45.6523 187.069 46.8703C188.1 48.0883 189.341 48.6973 190.794 48.6973C192.035 48.6973 193.066 48.3225 193.863 47.5964C194.683 46.8703 195.151 45.9099 195.245 44.6919H196.159C196.041 46.1676 195.479 47.3388 194.495 48.2054C193.535 49.0721 192.293 49.5171 190.794 49.5171C189.084 49.5171 187.631 48.8379 186.436 47.4559Z" fill="white"/>
<path d="M198.806 49.1892V35.7207H199.72V49.1892H198.806Z" fill="white"/>
<path d="M203.374 49.1892V35.7207H212.16V36.6108H204.288V41.7874H211.48V42.6306H204.288V48.3225H212.16V49.1892H203.374Z" fill="white"/>
<path d="M217.899 49.1892V36.6108H213.284V35.7207H223.452V36.6108H218.813V49.1892H217.899Z" fill="white"/>
<path d="M225.771 49.1892V35.7207H234.556V36.6108H226.685V41.7874H233.877V42.6306H226.685V48.3225H234.556V49.1892H225.771Z" fill="white"/>
<path d="M159.518 71.1135V57.6451H160.947L165.867 69.9658L170.763 57.6451H172.192V71.1135H171.279V58.6991L166.265 71.1135H165.422L160.408 58.6991V71.1135H159.518Z" fill="white"/>
<path d="M176.808 69.4036C175.706 68.1388 175.168 66.4757 175.168 64.4145C175.168 62.2595 175.706 60.5496 176.808 59.2613C177.909 57.973 179.361 57.3406 181.165 57.3406C182.992 57.3406 184.445 57.973 185.523 59.2613C186.624 60.5496 187.163 62.2595 187.163 64.4145C187.163 66.4991 186.624 68.1622 185.523 69.4036C184.421 70.6685 182.969 71.2775 181.165 71.2775C179.338 71.2775 177.885 70.6451 176.808 69.4036ZM184.867 68.7712C185.78 67.6703 186.249 66.2181 186.249 64.391C186.249 62.5172 185.78 61.0181 184.867 59.8703C183.953 58.746 182.711 58.1604 181.165 58.1604C179.619 58.1604 178.377 58.7226 177.463 59.8703C176.55 60.9946 176.081 62.5172 176.081 64.391C176.081 66.2181 176.55 67.6937 177.463 68.7712C178.377 69.8721 179.619 70.4343 181.165 70.4343C182.711 70.4343 183.929 69.8955 184.867 68.7712Z" fill="white"/>
<path d="M190.114 57.6451H195.456C196.885 57.6451 198.103 58.2775 199.111 59.5658C200.118 60.8307 200.61 62.3766 200.61 64.2036C200.61 66.1009 200.118 67.7406 199.111 69.0757C198.103 70.4343 196.885 71.0901 195.456 71.0901H190.114V57.6451ZM195.456 70.2469C196.627 70.2469 197.611 69.6613 198.455 68.4667C199.298 67.2955 199.696 65.8667 199.696 64.2036C199.696 62.6343 199.275 61.2991 198.455 60.1748C197.611 59.0739 196.627 58.5117 195.456 58.5117H191.028V70.2235H195.456V70.2469Z" fill="white"/>
<path d="M203.515 71.1135V57.6451H212.3V58.5352H204.429V63.7117H211.621V64.555H204.429V70.2469H212.3V71.1135H203.515Z" fill="white"/>
<path d="M214.76 71.1135V57.6451H221.179C222.093 57.6451 222.889 57.9964 223.545 58.6991C224.201 59.3784 224.529 60.2217 224.529 61.2054C224.529 62.0721 224.342 62.8217 223.944 63.4541C223.545 64.0865 223.03 64.4613 222.421 64.5784C222.983 64.719 223.428 65.2108 223.78 66.0072C224.131 66.8036 224.295 67.7874 224.295 68.9117C224.295 69.5442 224.319 70.0361 224.342 70.3406C224.365 70.7153 224.436 70.973 224.529 71.137H223.616C223.475 70.9496 223.358 70.6217 223.311 70.1298L223.241 68.209C223.241 67.2955 223.03 66.5226 222.585 65.8667C222.163 65.2343 221.648 64.9063 221.015 64.9063H215.65V71.137H214.76V71.1135ZM221.039 64.0631C221.742 64.0631 222.374 63.782 222.889 63.2433C223.381 62.7045 223.639 62.0721 223.639 61.2991C223.639 60.5496 223.381 59.8937 222.889 59.355C222.374 58.8162 221.765 58.5586 221.039 58.5586H215.674V64.0865H221.039V64.0631Z" fill="white"/>
<path d="M227.692 71.1135V57.6451H228.934L237.063 69.9892V57.6451H237.977V71.1135H236.735L228.606 58.9334V71.1135H227.692Z" fill="white"/>
<path d="M241.655 71.1135V57.6451H250.44V58.5352H242.569V63.7117H249.761V64.555H242.569V70.2469H250.44V71.1135H241.655Z" fill="white"/>
<path d="M159.518 79.5928H164.859C166.289 79.5928 167.507 80.2252 168.514 81.5135C169.522 82.7784 170.014 84.3243 170.014 86.1513C170.014 88.0486 169.522 89.6883 168.514 91.0234C167.507 92.382 166.289 93.0378 164.859 93.0378H159.518V79.5928ZM164.859 92.1946C166.031 92.1946 167.015 91.609 167.858 90.4144C168.702 89.2432 169.1 87.8144 169.1 86.1513C169.1 84.582 168.678 83.2468 167.858 82.1225C167.015 81.0216 166.031 80.4594 164.859 80.4594H160.432V92.1712H164.859V92.1946Z" fill="white"/>
<path d="M172.919 93.0612V79.5928H181.704V80.4829H173.832V85.6594H181.024V86.5027H173.832V92.1946H181.704V93.0612H172.919Z" fill="white"/>
<path d="M193.254 91.3279C192.035 89.9459 191.426 88.2828 191.426 86.3387C191.426 84.3946 192.035 82.7081 193.254 81.3261C194.448 79.9441 195.901 79.2648 197.611 79.2648C199.017 79.2648 200.212 79.6396 201.172 80.3892C202.133 81.1387 202.742 82.1225 202.976 83.3873H202.062C201.898 82.4504 201.383 81.6774 200.54 81.045C199.696 80.436 198.736 80.1081 197.611 80.1081C196.159 80.1081 194.917 80.7171 193.886 81.9351C192.855 83.1531 192.34 84.6288 192.34 86.3387C192.34 88.0486 192.855 89.5243 193.886 90.7423C194.917 91.9603 196.159 92.5693 197.611 92.5693C198.853 92.5693 199.884 92.1945 200.68 91.4684C201.5 90.7423 201.969 89.7819 202.062 88.5639H202.976C202.859 90.0396 202.297 91.2108 201.313 92.0774C200.352 92.9441 199.111 93.3891 197.611 93.3891C195.901 93.3891 194.448 92.7099 193.254 91.3279Z" fill="white"/>
<path d="M206.888 92.0307C205.905 91.1171 205.413 90.0162 205.413 88.728V79.5694H206.326V88.728C206.326 89.782 206.724 90.6955 207.544 91.4216C208.341 92.1712 209.325 92.546 210.473 92.546C211.574 92.546 212.511 92.1712 213.284 91.4216C214.057 90.6721 214.432 89.782 214.432 88.728V79.5694H215.346V88.728C215.346 90.0162 214.877 91.1171 213.917 92.0307C212.956 92.9442 211.808 93.3892 210.473 93.3892C209.067 93.3892 207.872 92.9442 206.888 92.0307Z" fill="white"/>
<path d="M218.813 93.0612V79.5928H219.727V93.0612H218.813Z" fill="white"/>
<path d="M226.966 93.0612L222.14 79.5928H223.171L227.481 91.8667L231.792 79.5928H232.846L227.997 93.0612H226.966Z" fill="white"/>
<path d="M235.283 93.0612V79.5928H241.702C242.615 79.5928 243.412 79.9441 244.068 80.6468C244.724 81.3261 245.052 82.1694 245.052 83.1531C245.052 84.0198 244.865 84.7694 244.466 85.4018C244.068 86.0342 243.553 86.409 242.943 86.5261C243.506 86.6667 243.951 87.1585 244.302 87.9549C244.654 88.7513 244.818 89.7351 244.818 90.8594C244.818 91.4919 244.841 91.9838 244.864 92.2883C244.888 92.6631 244.958 92.9207 245.052 93.0847H244.138C243.998 92.8973 243.881 92.5694 243.834 92.0775L243.763 90.1567C243.763 89.2432 243.553 88.4703 243.107 87.8144C242.686 87.182 242.17 86.854 241.538 86.854H236.173V93.0847H235.283V93.0612ZM241.561 85.9874C242.264 85.9874 242.897 85.7063 243.412 85.1676C243.904 84.6288 244.162 83.9964 244.162 83.2234C244.162 82.4739 243.904 81.818 243.412 81.2793C242.897 80.7405 242.287 80.4829 241.561 80.4829H236.196V86.0108H241.561V85.9874Z" fill="white"/>
<path d="M248.215 93.0612V79.5928H257V80.4829H249.128V85.6594H256.321V86.5027H249.128V92.1946H257V93.0612H248.215Z" fill="white"/>
<path d="M141.69 34.4324H141.362V99.1982H141.69V34.4324Z" fill="white"/>
<path d="M117.817 83.6919C117.466 83.6919 116.997 83.6919 116.411 83.6919H114.537C113.132 83.5045 111.913 83.2234 110.882 82.8721C109.852 82.5207 108.915 82.0757 108.095 81.5369C106.947 80.8108 105.986 79.8036 105.213 78.4685C104.44 77.1568 103.878 75.6342 103.526 73.9477C103.175 72.2613 103.011 70.4342 103.058 68.4667C103.105 66.4991 103.386 64.4613 103.924 62.4C104.463 60.2919 105.166 58.1838 106.056 56.0757C106.947 53.991 108.001 52.0468 109.196 50.2667C111.749 46.3784 114.584 43.8721 117.723 42.7477C119.691 42.0685 121.683 42.0685 123.65 42.7477C124.822 43.1459 125.829 43.6847 126.673 44.3171C118.004 18.5513 93.6632 0 64.9879 0C29.0501 0 -0.09375 29.1387 -0.09375 65.0468C-0.09375 75.2829 2.27243 84.9567 6.48939 93.5766C6.67681 93.5297 6.88766 93.4829 7.07508 93.436C7.56706 93.2955 7.98875 93.1784 8.36359 93.0847C9.86296 92.4991 11.1046 91.3279 12.0886 89.5477C13.0725 87.7676 13.7285 85.5189 14.0799 82.8252C14.1268 82.5441 14.1736 82.1694 14.197 81.7009C14.2205 81.2324 14.2439 80.764 14.2439 80.2486C14.2439 79.7333 14.2205 79.2414 14.197 78.773C14.1736 78.2811 14.1502 77.9063 14.1502 77.6252C14.0096 76.618 13.8456 75.6577 13.6348 74.7676C13.4474 73.8775 13.1897 72.9405 12.8851 71.9802C12.5806 71.0198 12.1589 69.9658 11.6669 68.7946C11.1749 67.6234 10.5424 66.3117 9.8161 64.8126C8.85557 62.7982 8.10589 61.1351 7.56706 59.8703C7.02823 58.6054 6.5831 57.4108 6.18483 56.2865C5.55229 54.0144 5.24773 51.9766 5.27116 50.1495C5.29459 48.3225 5.69286 46.5658 6.46596 44.8793C6.95794 43.7784 7.59049 42.7243 8.38702 41.7405C9.18356 40.7568 10.0504 39.8667 10.9875 39.0703C11.9246 38.2739 12.932 37.618 13.9862 37.0793C15.0404 36.5405 16.0713 36.1892 17.1021 36.0018C17.5238 35.9081 18.0626 35.8613 18.6951 35.8613C19.3277 35.8613 19.8431 35.9081 20.2882 36.0018C20.9676 36.0955 21.6704 36.2829 22.4201 36.5874C23.1698 36.8685 23.8023 37.2198 24.3412 37.5946C24.6223 37.782 24.9737 38.1099 25.3954 38.5315C25.7937 38.9531 26.0748 39.3279 26.2154 39.609C26.4496 39.8901 26.6371 40.218 26.7542 40.5928C26.8713 40.9441 26.9885 41.3423 27.0822 41.7874C27.1759 42.1622 27.2228 42.4901 27.2228 42.7712C27.2228 43.0288 27.2228 43.5676 27.2228 44.3874C27.2228 45.1135 27.2228 45.6757 27.2228 46.1207C27.2228 46.5658 27.1759 46.964 27.0822 47.3387C26.8479 49.3532 26.5199 51.0162 26.0982 52.3279C25.7 53.6162 25.1611 54.6937 24.552 55.5135C24.1772 55.9586 23.8023 56.2396 23.4275 56.427C23.0761 56.591 22.5607 56.6378 21.9516 56.5441C21.319 56.4504 20.7802 56.2631 20.3351 55.9586C19.8665 55.6775 19.6557 55.373 19.6557 55.0919C19.6557 55.045 19.7025 54.8811 19.7728 54.6234C19.8431 54.3658 19.9602 54.0847 20.1008 53.8036C20.5225 52.2577 20.8739 50.8288 21.1082 49.4703C21.3424 48.1117 21.4596 46.6829 21.4596 45.1369C21.5064 44.036 21.5064 43.0757 21.4127 42.2793C21.3424 41.4829 21.1785 40.8036 20.9442 40.218C20.8973 39.9838 20.8505 39.8432 20.827 39.773C20.8036 39.7261 20.7333 39.7027 20.6396 39.7027C20.4991 39.7495 20.2179 39.8901 19.7728 40.1009C19.3277 40.3117 18.9528 40.5459 18.6249 40.7802C17.3832 41.6468 16.1884 42.7946 15.0404 44.2468C13.9159 45.6991 13.0725 47.1513 12.5571 48.6504C12.1823 49.8919 11.9714 51.1333 11.9714 52.3748C11.9714 53.5928 12.1589 55.0685 12.5571 56.755C12.6977 57.3405 12.8617 57.9261 13.0725 58.5351C13.2599 59.1441 13.5177 59.8 13.8222 60.5495C14.1268 61.2991 14.5016 62.1423 14.9467 63.1027C15.3919 64.0631 15.9073 65.2108 16.5398 66.5694C17.1255 67.8108 17.6175 68.9586 18.0626 69.9658C18.5077 70.973 18.8591 71.9099 19.1403 72.7766C19.4214 73.6432 19.6557 74.4631 19.8197 75.2595C19.9836 76.0558 20.1476 76.8757 20.2882 77.7423C20.3351 78.0234 20.3585 78.4216 20.3585 78.9369C20.3585 79.4522 20.3585 79.9676 20.3585 80.5297C20.3585 81.0919 20.3585 81.6072 20.3585 82.1225C20.3585 82.6378 20.3351 83.036 20.2882 83.3171C19.9602 85.4721 19.3511 87.3928 18.5077 89.0559C17.6643 90.7189 16.5632 92.054 15.2279 93.0613C13.3068 94.4667 10.7298 95.3333 7.5202 95.6378C18.4609 116.157 40.0845 130.094 64.9645 130.094C96.4043 130.094 122.643 107.795 128.711 78.1405C125.736 81.0216 122.432 82.8252 118.778 83.5279C118.52 83.645 118.192 83.6919 117.817 83.6919ZM100.317 48.2288C100.223 49.0955 100.036 50.2667 99.7778 51.7423C99.5201 53.218 99.1453 55.045 98.6533 57.2703C98.1613 59.4955 97.5522 62.2829 96.7791 65.6558C96.2871 67.764 95.8654 69.7081 95.4906 71.4649C95.1157 73.2216 94.7643 74.8378 94.4832 76.3369C94.2021 77.836 93.9444 79.2414 93.7335 80.6C93.5227 81.9586 93.3118 83.2703 93.1244 84.582C92.4919 88.8216 92.4216 92.054 92.9136 94.2558C93.0073 94.7477 93.0541 95.0054 93.0541 95.0522C93.101 95.0991 93.2884 94.9586 93.6398 94.6306C93.9209 94.2558 94.1786 94.0216 94.3661 93.9748C94.694 93.8342 95.2094 93.8108 95.8888 93.9045C96.4277 93.9982 96.8728 94.1622 97.2242 94.373C97.5756 94.5838 97.7631 94.818 97.7631 95.0522C97.7631 95.1459 97.5991 95.4036 97.2945 95.8018C96.9899 96.2 96.6385 96.5982 96.2403 96.9964C96.0528 97.1369 95.8654 97.2775 95.7014 97.3946C95.5374 97.5117 95.35 97.6288 95.1626 97.7225C94.9283 97.8162 94.7409 97.8865 94.5769 97.9333C94.4363 97.9802 94.1786 98.0036 93.7804 98.0036H92.7027C90.5942 97.6288 89.2589 96.2937 88.72 94.0216C88.2281 92.2414 88.0641 90.0162 88.2046 87.3459C88.3452 84.6757 88.7903 81.1153 89.4931 76.6883C89.9148 74.182 90.3365 71.9568 90.7582 69.9658C91.1565 67.9982 91.625 65.8901 92.1639 63.6883C92.3044 63.0558 92.4684 62.4703 92.6324 61.9081C92.7964 61.3459 92.9604 60.7369 93.1478 60.0342C93.3118 59.3315 93.5227 58.5351 93.7569 57.6216C93.9912 56.7081 94.3192 55.6072 94.694 54.2955C95.022 53.0072 95.3266 51.8595 95.5609 50.8757C95.7951 49.8919 95.9591 49.0252 96.0763 48.3225C96.2168 47.5495 96.2871 47.1279 96.2871 47.0342C96.2871 46.9405 96.1934 47.0108 96.006 47.245C95.678 47.6198 95.2329 48.2054 94.7175 48.9315C94.1786 49.6811 93.6164 50.4775 92.9838 51.3441C92.3513 52.2108 91.7422 53.1243 91.1331 54.0613C90.5239 54.9982 89.9851 55.8649 89.5166 56.6144C88.4155 58.3946 87.3144 60.2216 86.2601 62.0721C85.2059 63.9225 84.1282 65.9135 83.0506 68.0685C81.9729 70.2 80.8249 72.5658 79.6301 75.1423C78.4353 77.7189 77.1 80.6234 75.6475 83.8324C73.6327 88.4 72.2973 91.1405 71.6648 92.054C71.4305 92.4288 71.1962 92.7333 70.9854 92.9676C70.7745 93.1784 70.5637 93.3658 70.3763 93.5063C69.8374 93.7405 69.1112 93.8577 68.1272 93.8342C67.1667 93.8108 66.3467 93.6468 65.6673 93.3658C64.9879 93.0847 64.496 92.7567 64.1914 92.382C63.8868 92.0306 63.6291 91.4919 63.4417 90.836C63.1606 89.6883 63.0669 87.8613 63.1606 85.3784C63.2543 82.8955 63.512 80.0613 63.9571 76.8991C64.496 73.6198 65.1988 70.036 66.1125 66.1477C67.0261 62.2595 68.1038 58.2072 69.3689 54.0144C70.0014 52 70.8214 49.5171 71.8288 46.6126C72.8362 43.7081 73.9138 40.6396 75.0852 37.4072C75.2258 36.9622 75.3663 36.564 75.5303 36.1892C75.6709 35.8144 75.788 35.4631 75.8817 35.182C76.0223 34.8541 76.1394 34.5261 76.2332 34.245C75.8583 34.8775 75.5069 35.4396 75.2258 35.9315C74.9446 36.4234 74.6167 37.009 74.2887 37.618C73.9607 38.2504 73.6327 38.8595 73.3516 39.4919C72.9767 40.1712 72.5316 40.991 72.0162 41.9513C71.5008 42.9117 70.9854 43.9423 70.4231 45.0667C69.8609 46.1676 69.322 47.2919 68.7598 48.3928C68.1975 49.4937 67.7055 50.4775 67.2838 51.3441C66.2765 53.4522 65.3159 55.4432 64.4257 57.2937C63.5354 59.1441 62.6452 61.0414 61.7549 63.009C60.8647 64.9531 59.9276 67.0378 58.9671 69.2162C58.0065 71.418 56.9523 73.9009 55.7809 76.6883C55.0547 78.3748 54.4455 79.7802 53.977 80.8811C53.485 81.982 53.0633 82.9423 52.7119 83.7622C52.3605 84.582 52.0325 85.2847 51.728 85.8937C51.4468 86.5027 51.1423 87.1117 50.8611 87.7441C49.6663 90.1568 48.6355 91.9369 47.7921 93.1315C46.9487 94.3027 46.1288 95.0991 45.3088 95.4739C44.8637 95.6613 44.3717 95.7784 43.786 95.8252C43.2003 95.8721 42.6146 95.8486 42.0055 95.7549C41.3964 95.6613 40.8342 95.4973 40.3187 95.2396C39.7799 95.0054 39.3582 94.7009 39.0302 94.373C38.6085 93.9513 38.2337 93.2486 37.9526 92.2883C37.7651 91.609 37.648 91.0234 37.6012 90.4847C37.5543 89.9459 37.5543 88.9856 37.6012 87.6036C37.6012 86.5027 37.6012 85.6829 37.648 85.191C37.6714 84.6757 37.7417 84.1135 37.8354 83.5045C38.0697 81.3964 38.4211 79.1712 38.8897 76.8288C39.3582 74.4865 40.0376 71.6288 40.9513 68.209C41.1387 67.4829 41.3496 66.7099 41.5604 65.8667C41.7713 65.0234 41.9821 64.227 42.2164 63.454C42.4272 62.6811 42.6146 62.0252 42.7552 61.5099C42.8958 60.9712 42.9661 60.6901 42.9661 60.6432C43.0129 60.5027 42.9426 60.5261 42.7786 60.7604C42.6146 60.9712 42.2632 61.4396 41.7244 62.1658C40.8576 63.4072 39.9673 64.6955 39.0771 66.0306C38.1868 67.3658 37.3903 68.6306 36.6641 69.8955C35.9378 71.1369 35.3053 72.2847 34.743 73.2919C34.1807 74.2991 33.8059 75.0955 33.6185 75.6811C33.5248 75.9153 33.4779 76.0793 33.4779 76.1964C33.4779 76.2901 33.4779 76.3838 33.4779 76.4775C33.5716 76.6649 33.5716 76.8054 33.4779 76.8991C33.4311 76.9928 33.2671 77.1333 32.9625 77.3441C32.8219 77.4378 32.7048 77.4847 32.6111 77.4847C32.5174 77.4847 32.3065 77.4613 31.9551 77.4144C31.5803 77.4144 31.2757 77.391 31.0414 77.3441C30.8306 77.2973 30.5729 77.1802 30.2918 76.9928C29.7998 76.7586 29.5655 76.3135 29.5655 75.7045C29.5655 75.1189 29.7295 74.2991 30.0809 73.2216C30.4089 72.1441 30.8775 70.9261 31.4631 69.6144C32.0488 68.2793 32.7048 66.8739 33.4545 65.3982C34.2042 63.8991 34.9773 62.4468 35.7972 60.9946C36.8046 59.3549 37.7886 57.8559 38.7491 56.5207C39.7096 55.1622 40.8107 53.7568 42.0758 52.2577C42.6146 51.6252 43.0598 51.1099 43.4112 50.7117C43.7626 50.3135 44.0906 49.9856 44.3483 49.7748C44.606 49.564 44.8637 49.4 45.098 49.3063C45.3322 49.2126 45.6134 49.1423 45.8945 49.0955C46.7145 49.0018 47.6281 49.1658 48.6824 49.564C49.7132 49.9622 50.5097 50.5243 51.0251 51.1802C51.2594 51.4144 51.4 51.6721 51.4468 51.9297C51.4937 52.1874 51.5171 52.609 51.5171 53.1946C51.5171 53.5694 51.4937 53.991 51.4468 54.4595C51.4 54.9279 51.3063 55.4667 51.1657 56.1225C51.0251 56.7784 50.8377 57.5748 50.6269 58.5117C50.416 59.4486 50.1349 60.5964 49.8069 61.9315C49.6195 62.7045 49.3383 63.8054 48.9869 65.2577C48.6355 66.7099 48.2841 68.0685 47.9327 69.3802C47.1127 72.7531 46.4568 75.564 45.9414 77.7892C45.426 80.0378 45.0043 82.1225 44.6763 84.1135C44.5826 84.7928 44.4888 85.4252 44.3951 86.0342C44.3014 86.6432 44.2077 87.182 44.1374 87.6504C44.0672 88.1423 44.0203 88.5171 44.0203 88.7982C44.0203 89.0793 44.0437 89.1964 44.0906 89.1495C44.1843 89.0558 44.442 88.6108 44.8403 87.8613C45.2385 87.0883 45.5899 86.3622 45.8945 85.7063C46.1756 85.1207 46.4802 84.5117 46.7613 83.8558C47.0424 83.2 47.3939 82.4504 47.7687 81.5838C48.1435 80.7171 48.6121 79.6865 49.1509 78.5153C49.6898 77.3441 50.2989 75.8685 51.0251 74.1586C51.9857 71.9333 52.829 70.0126 53.5553 68.3495C54.2816 66.6865 54.9375 65.1874 55.4998 63.8288C56.0855 62.4703 56.6477 61.2288 57.1866 60.0342C57.7488 58.8631 58.3111 57.6216 58.8734 56.3099C61.2864 51.2504 63.8868 46.027 66.6981 40.6396C69.5095 35.2522 72.2973 30.2162 75.0383 25.555C75.4835 24.8288 76.0457 23.8919 76.7251 22.6973C77.428 21.5261 78.1308 20.3315 78.857 19.1135C79.5833 17.9189 80.2393 16.818 80.8015 15.8577C81.3872 14.8973 81.762 14.2883 81.9495 14.0541C82.6289 13 83.1443 12.4378 83.5425 12.391H84.3391C85.0653 12.4378 85.8853 12.7658 86.799 13.3982C87.7126 14.0306 88.3452 14.6865 88.6732 15.4126L88.884 15.9279V17.1459C88.884 17.8721 88.8137 18.5982 88.6966 19.3477C88.5795 20.0973 88.3218 21.245 87.9469 22.7676C87.7126 23.6811 87.4549 24.618 87.2207 25.5784C86.9864 26.5387 86.6584 27.6631 86.2836 28.9279C85.9087 30.1928 85.4402 31.6919 84.9013 33.4018C84.3625 35.1117 83.73 37.1495 82.9569 39.4919C81.5512 43.7784 80.3798 47.5495 79.3724 50.8288C78.3885 54.1081 77.4982 57.1297 76.7017 59.8937C75.9052 62.6577 75.2023 65.3045 74.5698 67.8342C73.9373 70.364 73.3281 73.0108 72.6956 75.8216C72.555 76.4541 72.4379 76.9928 72.3442 77.4378C72.2505 77.9063 72.1802 78.1405 72.1333 78.1874L72.9299 76.8054C74.031 74.4865 75.0618 72.4018 76.0457 70.5279C77.0063 68.654 77.9668 66.8739 78.9273 65.1874C79.8878 63.5009 80.8484 61.8847 81.8089 60.3153C82.7694 58.7459 83.8002 57.1297 84.9248 55.4432C85.5573 54.5297 86.2133 53.5459 86.9395 52.5153C87.6658 51.4847 88.3686 50.4775 89.0246 49.5171C89.704 48.5568 90.3131 47.6667 90.8988 46.8703C91.4845 46.0739 91.953 45.4649 92.3513 45.0198C92.8433 44.4811 93.3587 43.9658 93.8975 43.427C94.4598 42.8883 94.8815 42.5604 95.1626 42.4198C95.3969 42.2793 95.5609 42.1856 95.678 42.1622C95.7717 42.1387 96.006 42.1153 96.4043 42.1153C96.7791 42.1153 97.0602 42.1387 97.2008 42.1622C97.3414 42.1856 97.5756 42.2793 97.927 42.4198C98.7939 42.7946 99.403 43.2396 99.7778 43.755C100.129 44.2703 100.364 44.9964 100.457 45.9568C100.457 46.6126 100.41 47.3622 100.317 48.2288Z" fill="white"/>
<path d="M127.938 56.263C127.68 56.6378 127.422 56.9189 127.188 57.0594C127.047 57.1531 126.813 57.2 126.462 57.2C125.97 57.1531 125.501 56.9892 125.009 56.7315C124.517 56.4739 124.213 56.1459 124.072 55.7477C123.978 55.654 123.932 55.5369 123.955 55.3964C123.978 55.2558 124.096 54.9045 124.283 54.3892C124.564 53.4757 124.775 52.773 124.892 52.2576C125.009 51.7423 125.079 51.0865 125.079 50.2667C125.079 49.6342 125.056 49.2126 125.033 49.0018C125.009 48.791 124.939 48.5099 124.845 48.182C124.705 47.7369 124.564 47.3856 124.447 47.0576C124.33 46.7531 124.213 46.5892 124.119 46.5892C124.025 46.5892 123.838 46.636 123.533 46.7297C123.252 46.8234 122.971 46.9171 122.737 47.0108C121.05 47.8306 119.34 49.3766 117.606 51.6252C115.872 53.8973 114.35 56.5441 113.061 59.5658C110.273 66.1712 109.36 71.7459 110.32 76.3135C110.554 77.5081 110.882 78.5387 111.304 79.3351C111.702 80.1549 112.147 80.6 112.639 80.7171C112.733 80.7639 112.897 80.7874 113.155 80.7874C113.389 80.7874 113.647 80.8108 113.881 80.8576C115.076 80.9513 116.341 80.7874 117.676 80.3423C119.012 79.8973 120.347 79.2883 121.682 78.4685C122.456 77.9766 123.135 77.4847 123.744 76.9928C124.353 76.4775 125.079 75.8216 125.946 75.0018C126.719 74.182 127.188 73.6901 127.352 73.5261C127.516 73.3621 127.703 73.2684 127.891 73.2684C128.43 73.1982 128.968 73.2685 129.507 73.4324C129.859 70.6919 130.046 67.8811 130.046 65.0234C130.046 61.2288 129.718 57.5045 129.086 53.8973C128.968 54.2486 128.828 54.5766 128.687 54.8811C128.453 55.4198 128.195 55.8648 127.938 56.263Z" fill="white"/>
</g>
<defs>
<clipPath id="clip0">
<rect width="257" height="130" fill="white"/>
</clipPath>
</defs>
</svg>
