<svg width="119" height="78" viewBox="0 0 119 78" fill="none" xmlns="http://www.w3.org/2000/svg">
<path d="M57.892 77.8378C79.2072 77.8378 96.4866 60.4132 96.4866 38.9189C96.4866 17.4246 79.2072 0 57.892 0C36.5768 0 19.2974 17.4246 19.2974 38.9189C19.2974 60.4132 36.5768 77.8378 57.892 77.8378Z" fill="#FFB74D"/>
<path d="M8.47795 20.3028C8.47795 23.6239 10.4334 26.72 14.3443 29.5915C16.1626 24.8866 17.0717 21.1504 17.0717 18.3828C17.0717 17.1719 16.6772 16.0477 15.8881 15.0098C15.0991 13.972 14.2071 13.4531 13.2122 13.4531C12.2517 13.4531 11.3768 13.972 10.5878 15.0098C9.83306 16.0477 9.28415 17.0855 8.94109 18.1233C8.63233 19.1266 8.47795 19.8531 8.47795 20.3028ZM1.78822 54.1363C1.54808 54.3784 1.34224 54.4996 1.17071 54.4996C0.896258 54.4996 0.759033 54.3612 0.759033 54.0844C0.759033 53.8076 0.827646 53.5829 0.964871 53.4098C2.50865 51.6801 4.32689 49.0683 6.41957 45.5742C8.51225 42.0801 10.4334 38.4476 12.183 34.6769C7.79182 31.5979 5.59622 28.4498 5.59622 25.2325C5.59622 23.0876 6.09366 20.9082 7.08855 18.6942C8.11774 16.4802 9.47284 14.6466 11.1538 13.1936C12.8692 11.7406 14.4987 11.0142 16.0425 11.0142C17.6205 11.0142 18.6841 11.3947 19.233 12.1558C19.8162 12.8823 20.1078 13.9547 20.1078 15.3731C20.1078 18.0369 18.5125 23.0185 15.3221 30.3179C16.4542 31.079 17.9637 32.013 19.8505 33.1201C21.7717 34.1925 23.4012 35.1265 24.7391 35.9223C26.1113 36.718 27.4837 37.6347 28.8559 38.6725C31.669 40.852 33.0756 43.2217 33.0756 45.7817C33.0756 48.3071 31.7719 50.6769 29.1647 52.8909C26.5574 55.0704 23.9158 56.1601 21.2399 56.1601C17.0202 56.1601 13.2637 53.9461 9.97028 49.5179C9.5929 48.999 9.40422 48.5665 9.40422 48.2206C9.40422 47.84 9.83306 47.3039 10.6907 46.612C11.5484 45.8855 12.2173 45.5223 12.6976 45.5223C12.8005 45.5223 12.8863 45.5742 12.9549 45.6779C13.8812 47.3039 15.5451 49.0336 17.9465 50.8671C20.3479 52.7007 22.698 53.6174 24.9964 53.6174C27.8439 53.4098 29.2676 51.9914 29.2676 49.3623C29.2676 47.1483 28.0153 45.0726 25.511 43.1352C23.6585 41.7168 21.3771 40.2293 18.6669 38.6725C15.9567 37.0812 14.087 35.9396 13.0578 35.2477C8.90679 44.0348 5.15025 50.3309 1.78822 54.1363ZM27.8211 16.359C27.8211 15.9439 28.5587 15.5806 30.0338 15.2693C31.4747 14.9234 32.6068 14.7504 33.4302 14.7504C34.2193 14.7504 34.9225 15.4077 35.54 16.7223C36.1918 18.1407 36.8607 19.8184 37.5469 21.7558C38.2673 23.6931 38.6104 24.6617 38.5761 24.6617C39.7082 22.2747 41.0462 20.3892 42.5899 19.0055C44.1337 17.6218 45.7976 16.9298 47.5815 16.9298C48.8165 16.9298 49.9144 17.518 50.8749 18.6942C51.8699 19.8703 52.676 21.3406 53.2935 23.105C54.4599 26.4953 55.3861 31.4422 56.0723 37.9461L56.7928 46.6639C56.8614 46.6639 57.376 44.6056 58.3365 40.4888C59.3315 36.3719 60.1548 33.0337 60.8066 30.4736C62.419 24.1083 63.3796 20.7179 63.6883 20.3028C63.8255 19.9915 64.5117 19.6282 65.7467 19.2131C66.9817 18.7979 67.8737 18.5904 68.4226 18.5904C68.5598 18.5904 68.6284 18.7806 68.6284 19.1612L68.577 19.8877C68.5427 20.3721 68.5255 21.1676 68.5255 22.2747C68.5255 23.3471 68.5598 24.5406 68.6284 25.8552C68.6971 27.1352 68.8515 28.8304 69.0916 30.9406C69.3661 33.0509 69.7091 35.0575 70.1208 36.9601C70.5667 38.8628 71.1842 40.8346 71.9733 42.8758C72.7966 44.8822 73.7401 46.6293 74.8036 48.1169C75.9014 49.5698 77.2736 50.7807 78.9203 51.7493C80.567 52.6834 82.4024 53.1504 84.4265 53.1504C85.4214 53.1504 86.1246 53.0639 86.5363 52.8909C86.948 52.7179 87.274 52.5622 87.5141 52.4239C87.7886 52.2856 87.96 52.199 88.0287 52.1644C88.3032 52.1644 88.4403 52.3375 88.4403 52.6833C88.4403 53.2715 87.4111 53.9461 85.3528 54.7071C83.2944 55.5029 81.562 55.9006 80.1554 55.9006C76.7248 55.9006 73.7401 54.3093 71.2014 51.1266C68.6971 47.9093 66.8616 43.8963 65.6952 39.0877C64.5289 34.2444 63.9456 28.9861 63.9456 23.3125H63.6883L57.0501 50.1406C56.8785 52.3201 56.6726 53.5136 56.4325 53.7212C54.923 54.759 53.9453 55.2779 53.4994 55.2779C53.0877 55.2779 52.8646 54.8628 52.8304 54.0325C52.7275 50.4001 52.3672 46.318 51.7497 41.7861C51.1665 37.2541 50.5662 33.5871 49.9486 30.785C49.3311 27.9828 48.5078 25.5958 47.4786 23.6239C46.4494 21.6175 45.3688 20.6142 44.2366 20.6142C43.1388 20.6142 42.1268 21.0985 41.2005 22.0671C40.3085 23.0357 39.6053 24.3849 39.0907 26.1147C39.6395 28.8131 40.2915 33.0337 41.0462 38.7763C41.8008 44.4844 42.1783 49.1202 42.1783 52.6833C42.1783 53.6866 41.8695 54.465 41.252 55.0185C40.6345 55.6066 40.0342 55.9006 39.4509 55.9006C38.8677 55.9006 38.2846 55.2434 37.7013 53.9288C37.118 52.6488 36.6206 50.7633 36.209 48.2725C35.8316 45.7817 35.6429 43.5849 35.6429 41.6823C35.6429 39.7796 35.7116 37.6521 35.8488 35.2996C35.1626 30.3872 34.1163 26.0455 32.7097 22.2747C32.2294 20.891 31.6119 19.6801 30.8572 18.6423C30.0681 17.5699 29.2792 16.9991 28.4901 16.9298C28.0441 16.8606 27.8211 16.6704 27.8211 16.359ZM98.4095 25.8033L98.2551 26.8412C98.2551 27.5331 98.701 27.879 99.593 27.879C101.308 27.879 102.903 26.8757 104.379 24.8693C105.888 22.8629 106.643 20.7872 106.643 18.6423C106.643 15.3212 105.494 13.6606 103.195 13.6606C100.622 13.6606 98.2893 14.785 96.1967 17.0336C94.1383 19.2476 92.5773 22.0326 91.5139 25.3882C90.4503 28.7438 89.9187 32.1861 89.9187 35.7147C89.9187 39.2433 90.3818 42.3914 91.3081 45.159C92.2343 47.8919 93.7781 50.1752 95.9394 52.0088C98.135 53.8423 100.656 54.759 103.504 54.759C109.062 54.759 113.779 52.4412 117.655 47.8055L118.016 48.4282C116.403 51.0228 114.105 53.0639 111.12 54.5515C108.17 56.039 105.065 56.7828 101.806 56.7828C95.9737 56.7828 91.6168 55.1915 88.7351 52.0088C85.8876 48.7915 84.4638 44.7094 84.4638 39.7623C84.4638 36.545 85.03 33.2584 86.1621 29.9028C87.3285 26.5472 88.8723 23.5201 90.7935 20.8217C92.7145 18.0888 95.0474 15.8574 97.792 14.1277C100.571 12.3633 103.435 11.4812 106.386 11.4812C107.792 11.4812 108.907 11.8617 109.731 12.6228C110.554 13.3493 110.965 14.5601 110.965 16.2552C110.965 17.9158 110.176 19.8877 108.598 22.1709C107.055 24.4542 105.116 26.4087 102.784 28.0347C100.451 29.626 98.2894 30.4217 96.2996 30.4217C95.3047 30.4217 94.7044 30.1623 94.4986 29.6434C94.327 29.1937 94.2413 28.7266 94.2413 28.2423C94.2413 27.7234 94.7044 27.1006 95.6307 26.3742C96.5569 25.6477 97.2429 25.2844 97.689 25.2844C98.1692 25.2844 98.4095 25.4575 98.4095 25.8033Z" fill="black"/>
</svg>
