<?xml version="1.0" encoding="UTF-8" standalone="no"?><!-- Generator: Gravit.io --><svg xmlns="http://www.w3.org/2000/svg" xmlns:xlink="http://www.w3.org/1999/xlink" style="isolation:isolate" viewBox="380.591 58.506 245.305 281.033" width="245.305pt" height="281.033pt"><g><circle vector-effect="non-scaling-stroke" cx="503.24304609158116" cy="201.6771407935693" r="122.65243534940817" fill="rgb(255,255,255)"/><g><path d=" M 434.337 221.065 C 434.186 222.227 434.968 223.287 436.105 223.489 C 437.317 223.691 438.833 223.489 439.717 221.646 C 445.197 210.482 450.552 199.268 455.831 188.004 C 455.881 187.903 455.906 187.801 455.957 187.7 C 456.386 186.16 454.795 184.796 453.305 185.326 C 452.951 185.453 452.623 185.579 452.32 185.756 C 451.613 186.16 451.183 187.17 450.805 187.978 C 446.561 196.768 442.444 205.608 438.025 214.296 C 437.04 216.417 436.105 217.756 435.246 218.615 C 434.918 218.943 434.691 219.347 434.564 219.802 C 434.463 220.206 434.388 220.661 434.337 221.065 Z " fill="rgb(70,70,70)"/><path d=" M 581.938 224.146 C 580.498 219.979 578.478 215.988 577.063 211.821 C 575.169 206.214 573.831 200.43 571.81 194.873 C 569.966 189.847 567.39 185.099 565.344 180.123 C 563.778 176.31 562.667 172.319 561.126 168.531 C 558.525 162.191 553.221 159.867 546.882 162.267 C 544.002 163.353 541.3 164.868 538.496 166.131 C 534.026 168.126 529.631 170.324 525.034 171.864 C 523.873 172.243 522.307 171.41 520.791 170.804 C 520.236 170.576 519.958 169.97 520.135 169.414 C 520.539 168.202 520.766 166.889 521.599 166.005 C 525.161 162.216 526.146 160.852 525.11 157.493 C 523.847 153.402 519.781 147.593 516.573 146.507 C 507.885 143.501 496.065 149.739 497.252 159.943 C 497.605 162.999 497.681 166.131 497.555 169.187 C 497.403 173.203 495.156 174.668 491.872 172.597 C 484.371 167.874 476.996 162.898 469.747 157.796 C 466.287 155.346 459.72 154.589 456.639 157.291 C 454.517 159.16 452.446 161.358 451.133 163.807 C 446.208 173.026 441.409 182.321 436.888 191.742 C 433.63 198.51 431.306 205.734 427.745 212.326 C 424.537 218.261 422.113 224.272 421.305 230.965 C 420.244 239.78 420.648 248.418 425.977 255.944 C 426.937 257.308 428.907 259.556 431.104 258.344 C 432.721 257.46 432.19 255.591 431.912 254.959 C 430.675 252.03 428.806 250.211 428.124 247.206 C 427.114 242.634 426.507 237.785 426.886 233.163 C 427.139 229.93 431.837 212.932 432.19 212.073 C 433.655 208.588 435.095 205.128 436.762 201.743 C 442.015 190.984 447.218 180.174 452.749 169.541 C 454.315 166.51 456.765 164.212 459.543 162.444 C 464.519 159.261 468.56 161.661 472.551 164.565 C 478.057 168.556 482.855 173.557 489.7 175.552 C 492.756 176.436 492.983 178.709 490.256 180.452 C 486.013 183.154 483.638 187.094 482.477 191.742 C 481.138 197.147 480.203 202.653 479.168 208.108 C 477.324 217.756 478.132 226.495 487.124 232.733 C 489.069 234.072 490.609 236.269 489.523 238.997 C 486.24 247.281 481.719 254.732 474.091 259.733 C 470.656 261.981 468.712 264.885 468.055 268.825 C 467.575 271.755 469.191 273.902 472.147 273.826 C 473.662 273.801 476.794 271.099 478.334 270.972 C 479.825 270.846 480.81 272.942 481.845 273.725 C 485.886 276.832 486.644 275.14 490.382 271.553 C 492.453 269.558 493.564 270.265 495.408 272.538 C 498.01 275.771 500.535 277.009 504.147 275.039 C 506.849 273.574 509.299 273.7 511.951 275.064 C 518.013 278.196 518.468 276.504 523.569 272.26 C 524.832 271.2 527.206 272.084 528.873 272.336 C 531.601 272.74 533.369 272.26 534.304 269.608 C 535.061 267.487 536.349 266.502 538.774 267.083 C 541.401 267.739 542.563 266.148 542.84 263.749 C 543.245 260.339 541.199 257.03 538.218 255.288 C 534.632 253.191 530.566 251.348 527.939 248.317 C 525.691 245.741 525.034 241.674 524.049 238.189 C 523.772 237.179 524.504 235.259 525.388 234.678 C 531.273 230.662 532.687 224.651 533.596 218.11 C 534.278 213.21 534.556 201.743 532.334 195.682 C 535.289 201.465 540.214 218.514 542.664 224.373 C 543.27 225.788 544.179 227.152 545.24 228.263 C 545.72 228.768 547.21 229.046 547.639 228.692 C 548.245 228.187 548.7 226.924 548.523 226.116 C 548.17 224.348 547.387 222.656 546.781 220.938 C 542.765 209.8 538.698 198.687 534.809 187.524 C 534.102 185.503 532.94 184.341 531.096 185.099 C 528.747 186.059 531.096 192.423 531.096 192.423 C 531.096 192.423 526.55 183.331 524.226 182.7 C 522.888 180.881 520.715 180.325 518.846 182.599 C 520.564 184.367 522.66 185.705 523.645 187.625 C 529.025 194.394 531.904 204.168 530.288 214.877 C 529.454 220.408 528.343 226.116 523.468 230.157 C 522.029 231.344 520.665 233.567 520.665 235.31 C 520.539 246.17 521.726 252.712 532.763 256.399 C 533.521 256.652 534.354 256.98 534.859 257.536 C 535.364 258.117 536.274 259.001 537.132 259.859 C 538.143 260.895 537.385 263.673 536.198 262.89 C 534.733 261.93 532.94 262.385 532.384 264.355 C 531.753 266.628 529.202 267.84 526.676 266.376 C 523.595 264.608 520.816 266.603 518.442 269.103 C 516.649 270.972 514.275 272.791 511.699 270.012 C 508.819 266.931 505.814 266.931 502.581 269.305 C 500.939 270.492 500.055 269.937 499.121 268.245 C 496.519 263.446 493.514 262.991 488.766 266.148 C 488.159 266.552 485.533 269.735 485.078 269.28 C 482.199 266.401 477.804 263.496 473.536 268.623 C 473.485 268.724 473.51 265.971 476.945 263.193 C 483.083 258.243 487.882 251.878 491.165 244.68 C 491.771 243.367 492.478 242.104 493.312 240.917 C 496.418 236.547 495.863 232.632 491.291 229.955 C 485.406 226.52 482.426 221.545 482.603 214.801 C 482.704 210.836 483.007 206.845 483.537 202.88 C 484.674 194.217 487.856 186.614 495.332 181.336 C 496.469 180.528 497.984 179.138 498.894 177.951 C 502.354 173.405 501.697 167.975 501.217 162.898 C 500.409 154.336 503.49 149.31 513.239 149.739 C 515.79 149.84 517.179 150.926 518.771 152.998 C 520.337 155.043 521.019 158.832 518.973 161.004 C 515.866 164.338 516.119 167.571 516.649 171.385 C 517.179 175.173 519.074 176.739 522.812 176.032 C 526.373 175.35 529.858 174.138 533.218 172.799 C 538.092 170.854 541.35 168.884 546.25 167.04 C 551.807 164.969 557.489 167.293 559.106 173.051 C 560.545 178.179 562.389 183.205 564.309 188.18 C 566.506 193.813 569.284 199.218 571.254 204.926 C 573.957 212.78 576.28 220.812 578.453 228.819 C 580.625 236.876 581.281 244.831 574.917 251.651 C 573.376 253.318 571.658 254.858 570.37 256.702 C 570.194 256.98 570.042 257.283 569.916 257.611 C 569.234 259.379 570.901 261.274 572.719 260.667 C 572.921 260.592 573.098 260.516 573.275 260.39 C 581.18 254.631 585.752 246.726 585.651 236.951 C 585.474 232.784 583.403 228.414 581.938 224.146 Z " fill="rgb(70,70,70)"/><path d=" M 581.938 224.146 C 580.498 219.979 578.478 215.988 577.063 211.821 C 575.169 206.214 573.831 200.43 571.81 194.873 C 569.966 189.847 567.39 185.099 565.344 180.123 C 563.778 176.31 562.667 172.319 561.126 168.531 C 558.525 162.191 553.221 159.867 546.882 162.267 C 544.002 163.353 541.3 164.868 538.496 166.131 C 534.026 168.126 529.631 170.324 525.034 171.864 C 523.873 172.243 522.307 171.41 520.791 170.804 C 520.236 170.576 519.958 169.97 520.135 169.414 C 520.539 168.202 520.766 166.889 521.599 166.005 C 525.161 162.216 526.146 160.852 525.11 157.493 C 523.847 153.402 519.781 147.593 516.573 146.507 C 507.885 143.501 496.065 149.739 497.252 159.943 C 497.605 162.999 497.681 166.131 497.555 169.187 C 497.403 173.203 495.156 174.668 491.872 172.597 C 484.371 167.874 476.996 162.898 469.747 157.796 C 466.287 155.346 459.72 154.589 456.639 157.291 C 454.517 159.16 452.446 161.358 451.133 163.807 C 446.208 173.026 441.409 182.321 436.888 191.742 C 433.63 198.51 431.306 205.734 427.745 212.326 C 424.537 218.261 422.113 224.272 421.305 230.965 C 420.244 239.78 420.648 248.418 425.977 255.944 C 426.937 257.308 428.907 259.556 431.104 258.344 C 432.721 257.46 432.19 255.591 431.912 254.959 C 430.675 252.03 428.806 250.211 428.124 247.206 C 427.114 242.634 426.507 237.785 426.886 233.163 C 427.139 229.93 431.837 212.932 432.19 212.073 C 433.655 208.588 435.095 205.128 436.762 201.743 C 442.015 190.984 447.218 180.174 452.749 169.541 C 454.315 166.51 456.765 164.212 459.543 162.444 C 464.519 159.261 468.56 161.661 472.551 164.565 C 478.057 168.556 482.855 173.557 489.7 175.552 C 492.756 176.436 492.983 178.709 490.256 180.452 C 486.013 183.154 483.638 187.094 482.477 191.742 C 481.138 197.147 480.203 202.653 479.168 208.108 C 477.324 217.756 478.132 226.495 487.124 232.733 C 489.069 234.072 490.609 236.269 489.523 238.997 C 486.24 247.281 481.719 254.732 474.091 259.733 C 470.656 261.981 468.712 264.885 468.055 268.825 C 467.575 271.755 469.191 273.902 472.147 273.826 C 473.662 273.801 476.794 271.099 478.334 270.972 C 479.825 270.846 480.81 272.942 481.845 273.725 C 485.886 276.832 486.644 275.14 490.382 271.553 C 492.453 269.558 493.564 270.265 495.408 272.538 C 498.01 275.771 500.535 277.009 504.147 275.039 C 506.849 273.574 509.299 273.7 511.951 275.064 C 518.013 278.196 518.468 276.504 523.569 272.26 C 524.832 271.2 527.206 272.084 528.873 272.336 C 531.601 272.74 533.369 272.26 534.304 269.608 C 535.061 267.487 536.349 266.502 538.774 267.083 C 541.401 267.739 542.563 266.148 542.84 263.749 C 543.245 260.339 541.199 257.03 538.218 255.288 C 534.632 253.191 530.566 251.348 527.939 248.317 C 525.691 245.741 525.034 241.674 524.049 238.189 C 523.772 237.179 524.504 235.259 525.388 234.678 C 531.273 230.662 532.687 224.651 533.596 218.11 C 534.278 213.21 534.556 201.743 532.334 195.682 C 535.289 201.465 540.214 218.514 542.664 224.373 C 543.27 225.788 544.179 227.152 545.24 228.263 C 545.72 228.768 547.21 229.046 547.639 228.692 C 548.245 228.187 548.7 226.924 548.523 226.116 C 548.17 224.348 547.387 222.656 546.781 220.938 C 542.765 209.8 538.698 198.687 534.809 187.524 C 534.102 185.503 532.94 184.341 531.096 185.099 C 528.747 186.059 531.096 192.423 531.096 192.423 C 531.096 192.423 526.55 183.331 524.226 182.7 C 522.888 180.881 520.715 180.325 518.846 182.599 C 520.564 184.367 522.66 185.705 523.645 187.625 C 529.025 194.394 531.904 204.168 530.288 214.877 C 529.454 220.408 528.343 226.116 523.468 230.157 C 522.029 231.344 520.665 233.567 520.665 235.31 C 520.539 246.17 521.726 252.712 532.763 256.399 C 533.521 256.652 534.354 256.98 534.859 257.536 C 535.364 258.117 536.274 259.001 537.132 259.859 C 538.143 260.895 537.385 263.673 536.198 262.89 C 534.733 261.93 532.94 262.385 532.384 264.355 C 531.753 266.628 529.202 267.84 526.676 266.376 C 523.595 264.608 520.816 266.603 518.442 269.103 C 516.649 270.972 514.275 272.791 511.699 270.012 C 508.819 266.931 505.814 266.931 502.581 269.305 C 500.939 270.492 500.055 269.937 499.121 268.245 C 496.519 263.446 493.514 262.991 488.766 266.148 C 488.159 266.552 485.533 269.735 485.078 269.28 C 482.199 266.401 477.804 263.496 473.536 268.623 C 473.485 268.724 473.51 265.971 476.945 263.193 C 483.083 258.243 487.882 251.878 491.165 244.68 C 491.771 243.367 492.478 242.104 493.312 240.917 C 496.418 236.547 495.863 232.632 491.291 229.955 C 485.406 226.52 482.426 221.545 482.603 214.801 C 482.704 210.836 483.007 206.845 483.537 202.88 C 484.674 194.217 487.856 186.614 495.332 181.336 C 496.469 180.528 497.984 179.138 498.894 177.951 C 502.354 173.405 501.697 167.975 501.217 162.898 C 500.409 154.336 503.49 149.31 513.239 149.739 C 515.79 149.84 517.179 150.926 518.771 152.998 C 520.337 155.043 521.019 158.832 518.973 161.004 C 515.866 164.338 516.119 167.571 516.649 171.385 C 517.179 175.173 519.074 176.739 522.812 176.032 C 526.373 175.35 529.858 174.138 533.218 172.799 C 538.092 170.854 541.35 168.884 546.25 167.04 C 551.807 164.969 557.489 167.293 559.106 173.051 C 560.545 178.179 562.389 183.205 564.309 188.18 C 566.506 193.813 569.284 199.218 571.254 204.926 C 573.957 212.78 576.28 220.812 578.453 228.819 C 580.625 236.876 581.281 244.831 574.917 251.651 C 573.376 253.318 571.658 254.858 570.37 256.702 C 570.194 256.98 570.042 257.283 569.916 257.611 C 569.234 259.379 570.901 261.274 572.719 260.667 C 572.921 260.592 573.098 260.516 573.275 260.39 C 581.18 254.631 585.752 246.726 585.651 236.951 C 585.474 232.784 583.403 228.414 581.938 224.146 Z " fill="rgb(70,70,70)"/><path d=" M 533.975 138.046 C 531.677 141.43 525.767 139.839 525.161 136.783 C 524.933 135.621 523.746 134.712 523.039 135.495 C 520.488 138.298 514.906 139.409 513.088 136.404 C 509.047 129.736 508.819 129.938 506.824 135.974 C 506.622 136.581 505.763 138.172 504.273 138.222 C 500.611 138.323 499.197 135.116 497.858 135.545 C 496.267 136.05 496.848 138.702 493.287 139.561 C 488.437 140.723 486.316 136.101 486.316 136.101 C 486.316 136.101 488.462 142.87 488.69 144.031 C 489.22 146.709 489.397 149.487 489.321 152.215 C 489.271 153.755 488.639 156.382 487.806 156.584 C 485.785 157.064 483.007 157.114 481.441 156.028 C 478.107 153.705 475.228 150.649 472.374 147.694 C 469.444 144.663 466.666 141.48 464.064 138.172 C 463.281 137.162 462.625 134.712 463.105 134.307 C 464.797 132.843 466.11 134.105 467.651 135.873 C 471.465 140.243 474.799 144.334 478.739 148.628 C 479.042 148.956 484.017 152.77 485.078 152.24 C 486.063 151.76 485.785 147.87 485.659 146.885 C 485.179 143.299 483.79 140.041 483.108 136.48 C 482.881 135.267 482.249 134.03 482.35 132.868 C 482.426 132.034 483.285 130.847 484.043 130.595 C 484.699 130.393 485.962 131.1 486.492 131.782 C 490.23 137.591 493.236 138.147 495.56 133.449 C 497.53 129.534 498.742 129.408 500.131 132.312 C 501.874 135.974 503.945 134.838 505.359 131.049 C 505.915 129.559 506.294 126.756 508.617 126.68 C 511.598 126.579 511.446 129.256 512.936 130.696 C 513.719 131.453 514.401 132.817 515.235 133.499 C 517.306 135.191 519.427 134.914 521.322 133.019 C 524.176 130.191 526.095 129.787 527.232 133.525 C 528.368 137.263 530.641 138.172 534.556 134.383 C 535.642 133.322 536.93 131.327 538.597 132.186 C 540.416 133.12 538.926 135.722 538.319 137.111 C 537.158 139.738 535.971 144.865 535.339 148.653 C 535.137 149.815 535.011 152.947 536.299 153.326 C 537.511 153.679 540.239 151.331 540.694 150.32 C 542.84 145.648 544.962 140.697 546.957 135.974 C 547.538 134.611 546.907 133.07 547.816 131.984 C 548.245 131.479 548.877 131.176 549.584 130.898 C 550.417 130.569 551.352 130.974 551.706 131.807 C 551.983 132.464 552.185 133.095 552.009 133.6 C 550.316 138.298 548.397 142.945 546.351 147.517 C 545.391 149.689 543.901 151.634 542.714 153.73 C 540.845 156.988 537.284 158.63 534.102 157.645 C 531.626 156.887 530.237 153.553 530.869 149.765 C 531.121 148.199 531.45 146.633 531.727 145.042 C 531.955 143.627 533.798 139.233 533.975 138.046 Z " fill="rgb(70,70,70)"/><path d=" M 466.54 188.534 C 467.247 189.216 467.474 190.251 467.196 191.211 C 467.095 191.59 466.969 191.893 466.843 192.196 C 462.498 201.112 458.104 210.002 453.76 218.918 C 452.623 221.267 451.941 223.868 450.628 226.091 C 449.441 228.086 447.774 229.829 446.081 231.445 C 445.576 231.925 443.96 231.925 443.379 231.471 C 442.773 230.991 442.394 229.602 442.596 228.819 C 443.152 226.748 443.96 224.702 444.92 222.757 C 449.163 214.296 453.456 205.86 457.801 197.45 C 459.215 194.722 460.629 191.944 462.423 189.468 C 463.029 188.61 464.746 188.332 465.984 188.256 C 466.161 188.231 466.363 188.357 466.54 188.534 Z " fill="rgb(70,70,70)"/><path d=" M 558.853 221.999 C 559.131 222.984 558.954 224.045 558.348 224.879 C 557.969 225.409 557.59 225.864 557.363 225.788 C 556.227 225.485 554.812 224.55 554.408 223.54 C 552.489 218.539 550.973 213.387 549.155 208.335 C 546.856 201.895 544.432 195.505 542.057 189.064 C 541.78 188.307 541.249 187.524 541.35 186.816 C 541.502 185.705 541.35 183.912 542.462 183.533 C 543.522 183.179 544.836 184.569 545.164 185.427 C 549.382 196.161 553.474 206.921 557.54 217.706 C 557.995 219.019 558.373 220.383 558.853 221.999 Z " fill="rgb(70,70,70)"/><path d=" M 571.204 214.776 C 571.835 216.013 571.76 217.529 570.85 218.59 C 570.623 218.842 570.396 219.044 570.143 219.095 C 569.284 219.272 567.693 218.665 567.289 217.908 C 565.243 214.245 563.45 210.457 561.657 206.668 C 558.399 199.773 555.191 192.853 551.958 185.932 C 551.706 185.427 551.327 184.897 551.125 184.468 C 550.443 183.129 550.771 181.639 551.781 181.058 C 552.691 180.528 554.181 181.411 554.661 182.093 C 556.959 185.352 558.045 188.509 559.813 192.07 C 561.48 195.404 563.526 199.293 564.991 202.728 C 566.279 205.734 567.996 208.588 569.512 211.518 C 570.042 212.578 570.598 213.639 571.204 214.776 Z " fill="rgb(70,70,70)"/><path d=" M 457.093 233.895 C 456.816 233.415 456.765 232.809 456.942 232.279 C 457.422 230.915 457.826 229.652 458.432 228.49 C 462.044 221.368 465.807 214.296 469.368 207.148 C 470.581 204.698 471.237 202.021 472.273 199.495 C 472.753 198.359 473.334 197.147 474.192 196.288 C 474.218 196.263 474.167 196.313 474.192 196.288 C 475.809 194.267 478.739 195.202 478.259 197.702 C 478.233 197.879 478.208 198.03 478.132 198.182 C 475.43 204.345 472.475 210.406 469.722 216.544 C 468.206 219.979 467.019 223.565 465.58 227.051 C 464.595 229.475 463.61 231.95 462.246 234.173 C 461.741 234.981 460.124 235.461 459.038 235.411 C 458.634 235.411 457.548 234.653 457.093 233.895 Z " fill="rgb(70,70,70)"/><path d=" M 513.189 263.016 C 512.532 262.713 512.128 261.981 512.355 261.324 C 514.881 253.621 512.684 247.206 510.31 240.816 C 510.057 239.856 510.209 238.113 511.143 237.658 C 512.153 237.153 513.492 238.745 513.846 239.629 C 515.765 244.352 514.73 245.766 516.472 250.565 C 516.624 250.994 517.988 254.959 518.341 255.439 C 519.528 257.03 520.665 259.758 519.958 260.971 C 519.503 261.754 517.584 260.516 516.422 260.87 C 515.487 261.147 515.386 263.067 514.528 263.269 C 514.098 263.37 513.644 263.218 513.189 263.016 Z " fill="rgb(70,70,70)"/><path d=" M 502.531 237.684 C 503.01 237.785 503.364 238.239 503.313 238.745 C 503.238 239.78 503.212 240.866 502.783 241.725 C 501.369 246.978 499.752 252.358 499.55 258.015 C 499.525 259.076 499.5 261.248 498.414 261.324 C 496.999 261.4 496.469 257.889 495.459 257.611 C 494.095 257.233 492.731 259.809 491.039 259.379 C 490.432 259.228 490.104 258.521 490.357 257.965 C 490.761 257.132 491.114 256.298 491.771 255.818 C 496.368 252.434 497.883 247.534 499.07 242.331 C 499.399 240.942 500.055 239.629 500.662 238.29 C 500.864 237.835 501.343 237.608 501.823 237.709 L 502.531 237.684 Z " fill="rgb(70,70,70)"/><path d=" M 508.971 153.806 C 510.158 152.442 513.088 152.24 514.376 153.503 C 515.412 154.538 515.31 155.473 515.209 156.18 C 515.033 157.721 512.633 160.373 511.699 160.17 C 510.688 159.968 509.779 159.261 508.92 158.453 C 507.683 157.316 507.582 155.397 508.668 154.134 C 508.769 154.033 508.87 153.932 508.971 153.806 Z " fill="rgb(70,70,70)"/></g><text transform="matrix(0.74,-0.673,0.673,0.74,414.428,116.049)" style="font-family:'Merienda';font-weight:400;font-size:22px;font-style:normal;font-variant-ligatures:none;fill:#464646;stroke:none;">C</text><text transform="matrix(0.801,-0.598,0.598,0.801,425.324,106.213)" style="font-family:'Merienda';font-weight:400;font-size:22px;font-style:normal;font-variant-ligatures:none;fill:#464646;stroke:none;">o</text><text transform="matrix(0.855,-0.519,0.519,0.855,436.324,98.263)" style="font-family:'Merienda';font-weight:400;font-size:22px;font-style:normal;font-variant-ligatures:none;fill:#464646;stroke:none;">p</text><text transform="matrix(0.917,-0.398,0.398,0.917,448.677,91.087)" style="font-family:'Merienda';font-weight:400;font-size:22px;font-style:normal;font-variant-ligatures:none;fill:#464646;stroke:none;">p</text><text transform="matrix(0.956,-0.295,0.295,0.956,461.851,85.575)" style="font-family:'Merienda';font-weight:400;font-size:22px;font-style:normal;font-variant-ligatures:none;fill:#464646;stroke:none;">e</text><text transform="matrix(0.98,-0.198,0.198,0.98,473.265,82.106)" style="font-family:'Merienda';font-weight:400;font-size:22px;font-style:normal;font-variant-ligatures:none;fill:#464646;stroke:none;">r </text><text transform="matrix(0.999,-0.049,0.049,0.999,490.444,79.031)" style="font-family:'Merienda';font-weight:400;font-size:22px;font-style:normal;font-variant-ligatures:none;fill:#464646;stroke:none;">h</text><text transform="matrix(0.999,0.049,-0.049,0.999,504.096,78.44)" style="font-family:'Merienda';font-weight:400;font-size:22px;font-style:normal;font-variant-ligatures:none;fill:#464646;stroke:none;">a</text><text transform="matrix(0.989,0.149,-0.149,0.989,518.032,79.38)" style="font-family:'Merienda';font-weight:400;font-size:22px;font-style:normal;font-variant-ligatures:none;fill:#464646;stroke:none;">n</text><text transform="matrix(0.956,0.295,-0.295,0.956,531.65,81.57)" style="font-family:'Merienda';font-weight:400;font-size:22px;font-style:normal;font-variant-ligatures:none;fill:#464646;stroke:none;">d </text><text transform="matrix(0.901,0.434,-0.434,0.901,551.383,88.181)" style="font-family:'Merienda';font-weight:400;font-size:22px;font-style:normal;font-variant-ligatures:none;fill:#464646;stroke:none;">m</text><text transform="matrix(0.829,0.559,-0.559,0.829,568.783,97.372)" style="font-family:'Merienda';font-weight:400;font-size:22px;font-style:normal;font-variant-ligatures:none;fill:#464646;stroke:none;">a</text><text transform="matrix(0.74,0.673,-0.673,0.74,580.279,105.337)" style="font-family:'Merienda';font-weight:400;font-size:22px;font-style:normal;font-variant-ligatures:none;fill:#464646;stroke:none;">d</text><text transform="matrix(0.673,0.74,-0.74,0.673,590.32,114.449)" style="font-family:'Merienda';font-weight:400;font-size:22px;font-style:normal;font-variant-ligatures:none;fill:#464646;stroke:none;">e</text><text transform="matrix(-0.901,0.434,-0.434,-0.901,560.53,310.761)" style="font-family:'Merienda';font-weight:400;font-size:22px;font-style:normal;font-variant-ligatures:none;fill:#464646;stroke:none;">S</text><text transform="matrix(-0.94,0.342,-0.342,-0.94,547.926,316.46)" style="font-family:'Merienda';font-weight:400;font-size:22px;font-style:normal;font-variant-ligatures:none;fill:#464646;stroke:none;">i</text><text transform="matrix(-0.969,0.247,-0.247,-0.969,541.335,319.047)" style="font-family:'Merienda';font-weight:400;font-size:22px;font-style:normal;font-variant-ligatures:none;fill:#464646;stroke:none;">n</text><text transform="matrix(-0.989,0.149,-0.149,-0.989,527.987,322.477)" style="font-family:'Merienda';font-weight:400;font-size:22px;font-style:normal;font-variant-ligatures:none;fill:#464646;stroke:none;">c</text><text transform="matrix(-0.999,0.05,-0.05,-0.999,516.13,324.325)" style="font-family:'Merienda';font-weight:400;font-size:22px;font-style:normal;font-variant-ligatures:none;fill:#464646;stroke:none;">e </text><text transform="matrix(-0.995,-0.1,0.1,-0.995,496.951,324.801)" style="font-family:'Merienda';font-weight:400;font-size:22px;font-style:normal;font-variant-ligatures:none;fill:#464646;stroke:none;">1</text><text transform="matrix(-0.98,-0.198,0.198,-0.98,485.312,323.687)" style="font-family:'Merienda';font-weight:400;font-size:22px;font-style:normal;font-variant-ligatures:none;fill:#464646;stroke:none;">9</text><text transform="matrix(-0.956,-0.295,0.295,-0.956,472.692,321.126)" style="font-family:'Merienda';font-weight:400;font-size:22px;font-style:normal;font-variant-ligatures:none;fill:#464646;stroke:none;">7</text><text transform="matrix(-0.924,-0.381,0.381,-0.924,462.227,317.994)" style="font-family:'Merienda';font-weight:400;font-size:22px;font-style:normal;font-variant-ligatures:none;fill:#464646;stroke:none;">5 </text></g></svg>