<?xml version="1.0" encoding="utf-8"?>
<!-- Generator: Adobe Illustrator 19.0.0, SVG Export Plug-In . SVG Version: 6.00 Build 0)  -->
<svg version="1.1" id="Layer_1" xmlns="http://www.w3.org/2000/svg" xmlns:xlink="http://www.w3.org/1999/xlink" x="0px" y="0px"
	 viewBox="0 0 48.8 20.7" enable-background="new 0 0 48.8 20.7" xml:space="preserve">
<g id="XMLID_138_">
	<g id="XMLID_1_">
		<path id="XMLID_256_" fill="none" d="M16.1,23.5c-5.4-3.7-6.8-11-3.2-16.3s10.9-6.7,16.3-3s6.8,11,3.2,16.3S21.4,27.2,16.1,23.5z"
			/>
		<path id="XMLID_200_" d="M12,6c0.1,0.1,0.2,0.1,0.3,0.2l0.5,0.3C12.9,6.7,13,6.8,13,6.8c0,0,0.1,0,0.1-0.1l0-0.1l0.1,0
			c-0.1,0.1-0.1,0.2-0.2,0.2C13,7,13,7.1,12.9,7.2l-0.1,0l0-0.1c0,0,0-0.1,0-0.1c0,0,0,0,0-0.1c-0.1-0.1-0.1-0.1-0.2-0.2l-0.5-0.3
			c-0.1-0.1-0.2-0.1-0.3-0.2l-0.1,0.1c-0.1,0.1-0.1,0.2-0.1,0.2c0,0,0,0,0.1,0.1l0.1,0.1l0,0l-0.1-0.1c0,0-0.1-0.1-0.2-0.1
			c0.2-0.3,0.3-0.5,0.4-0.5l0.3-0.4c0.1,0.1,0.2,0.1,0.3,0.2l0,0.1l-0.1-0.1c0,0-0.1,0-0.1,0c0,0,0,0,0,0C12.2,5.8,12.1,5.9,12,6
			L12,6z"/>
		<path id="XMLID_202_" d="M13.1,5.7c0,0,0-0.1,0-0.1c0-0.1,0-0.1,0-0.1c0,0,0-0.1,0-0.1c0,0,0,0,0.1-0.1c0,0,0,0,0,0l0,0
			c0,0,0.1,0.1,0.2,0.2l0,0c0,0-0.1,0-0.1,0c0,0,0,0-0.1,0C13.2,5.5,13.1,5.5,13.1,5.7C13.1,5.6,13.2,5.7,13.1,5.7
			c0.1,0.1,0.2,0.2,0.3,0.3C13.5,6,13.5,6,13.6,6.1c0,0,0,0,0,0c0,0,0.1,0,0.1-0.1l0,0l0,0c-0.1,0.1-0.1,0.1-0.2,0.2
			c-0.1,0.1-0.1,0.1-0.2,0.2l0,0l0.1-0.1c0,0,0,0,0-0.1c0,0,0,0-0.1-0.1c-0.1-0.1-0.2-0.1-0.3-0.2C13,5.8,13,5.8,12.9,5.7
			c0,0,0,0-0.1,0l-0.1,0.1l0,0c0-0.1,0.1-0.1,0.1-0.1c0,0,0-0.1,0.1-0.1c0,0,0,0,0,0c0,0,0,0,0,0s0,0,0,0L13.1,5.7z"/>
		<path id="XMLID_204_" d="M13.5,5.2L13.5,5.2L13.5,5.2L13.5,5c0-0.1,0-0.1,0-0.1c0,0,0-0.1,0.1-0.1c0.1-0.1,0.1-0.1,0.2-0.1
			c0.1,0,0.1,0,0.2,0c0,0,0.1,0.1,0.3,0.2c0.1,0.1,0.2,0.2,0.2,0.2c0,0,0,0,0.1,0l0.1-0.1l0,0c-0.1,0.1-0.1,0.1-0.1,0.1
			c0,0-0.1,0.1-0.1,0.1l-0.1-0.1c0,0,0,0-0.1-0.1l0,0.3c0,0,0,0,0,0.1c0,0,0,0,0,0.1c-0.1,0.1-0.1,0.1-0.2,0.1c-0.1,0-0.1,0-0.2-0.1
			c0,0-0.1-0.1-0.1-0.2c0-0.1,0-0.1,0-0.2c0-0.1,0.1-0.2,0.2-0.4c-0.1-0.1-0.1-0.1-0.2-0.1c-0.1,0-0.1,0-0.2,0.1c0,0,0,0-0.1,0.1
			c0,0,0,0.1,0,0.1C13.5,5.1,13.6,5.2,13.5,5.2L13.5,5.2z M14,5c-0.1,0.2-0.2,0.3-0.2,0.3c0,0.1,0,0.1,0.1,0.2c0,0,0.1,0.1,0.1,0.1
			c0,0,0.1,0,0.1,0c0,0,0.1-0.1,0.1-0.1c0-0.1,0-0.1,0-0.2L14,5L14,5z"/>
		<path id="XMLID_207_" d="M14.7,3.9l-0.2-0.3c0,0,0-0.1-0.1-0.1s0,0-0.1,0l-0.1,0.1l0,0c0.1-0.1,0.2-0.2,0.2-0.3l0,0
			c0,0.1,0.1,0.1,0.2,0.2l0.2,0.2l0.1,0.1l0.4,0.5c0.1,0.1,0.1,0.1,0.1,0.1c0,0,0,0,0.1,0l0.1,0l0,0c-0.1,0-0.1,0.1-0.2,0.1
			c0,0,0,0-0.1,0.1c0,0-0.1-0.1-0.1-0.2c0,0.1,0,0.2,0,0.3c0,0.1-0.1,0.1-0.1,0.1c-0.1,0.1-0.2,0.1-0.3,0.1c-0.1,0-0.2-0.1-0.3-0.2
			c-0.1-0.1-0.1-0.1-0.1-0.2c0-0.1,0-0.1,0-0.2s0-0.1,0.1-0.2c0-0.1,0.1-0.1,0.1-0.2c0,0,0.1,0,0.1-0.1C14.6,3.9,14.6,3.9,14.7,3.9z
			 M14.8,4c-0.1,0-0.1,0-0.2,0c-0.1,0-0.1,0-0.1,0.1c-0.1,0.1-0.1,0.1-0.1,0.2c0,0.1,0,0.2,0.1,0.3c0.1,0.1,0.2,0.2,0.3,0.2
			s0.2,0,0.2-0.1c0,0,0.1-0.1,0.1-0.1c0-0.1,0-0.1,0-0.2S15,4.3,14.9,4.2L14.8,4z"/>
		<path id="XMLID_210_" d="M14.9,3C15,3,15,3,14.9,3c0.1,0,0.1,0,0.2,0s0,0.1,0,0.1c0,0,0,0.1,0,0.1c0,0-0.1,0-0.1,0
			c0,0-0.1,0-0.1,0C14.9,3.2,14.9,3.2,14.9,3C14.9,3.1,14.9,3.1,14.9,3z M15.3,3.4L15.3,3.4c0.1,0,0.1,0.1,0.1,0.1
			c0.1,0.2,0.2,0.3,0.2,0.4C15.7,4,15.7,4,15.8,4.1c0,0,0,0,0,0c0,0,0,0,0.1,0l0.1,0l0,0c-0.1,0.1-0.2,0.1-0.2,0.1
			c-0.1,0-0.1,0.1-0.2,0.1l0,0l0.1-0.1c0,0,0,0,0-0.1c0,0,0,0,0-0.1c0-0.1-0.1-0.2-0.2-0.3c-0.1-0.1-0.1-0.2-0.1-0.2c0,0,0,0,0,0
			s0,0-0.1,0l-0.1,0l0,0c0.1-0.1,0.1-0.1,0.1-0.1C15.2,3.5,15.2,3.4,15.3,3.4z"/>
		<path id="XMLID_213_" d="M15.9,3.2l0.2,0.3c0.1,0.1,0.1,0.1,0.1,0.2c0,0,0,0,0.1,0c0,0,0.1,0,0.1,0c0,0,0,0,0,0c0,0,0,0,0-0.1l0,0
			l0,0.2c0,0,0,0,0,0c0,0,0,0,0,0c0,0-0.1,0-0.1,0c0,0-0.1,0-0.1,0c0,0-0.1,0-0.1-0.1l-0.1-0.2l-0.2-0.3c0,0-0.1,0.1-0.1,0.1l0,0
			c0,0,0.1-0.1,0.1-0.1c-0.1-0.1-0.1-0.2-0.2-0.3c0-0.1,0.1-0.1,0.1-0.2l0,0C15.7,2.8,15.7,2.9,15.9,3.2C15.9,3.1,15.9,3,16,3L16,3
			l0,0.1l0,0L15.9,3.2L15.9,3.2z"/>
		<path id="XMLID_215_" d="M16.1,2.3C16.1,2.3,16.1,2.3,16.1,2.3c0.1,0,0.1,0,0.2,0c0,0,0,0.1,0,0.1c0,0,0,0.1-0.1,0.1
			c0,0-0.1,0-0.1,0s-0.1,0-0.1-0.1C16,2.5,16,2.4,16.1,2.3C16,2.4,16.1,2.3,16.1,2.3z M16.4,2.7L16.4,2.7c0,0,0.1,0.1,0.1,0.2
			c0.1,0.2,0.2,0.3,0.2,0.4c0,0.1,0.1,0.1,0.1,0.2c0,0,0,0,0,0c0,0,0,0,0.1,0l0.1,0l0,0.1c-0.1,0-0.2,0.1-0.2,0.1
			c-0.1,0-0.1,0.1-0.2,0.1l0-0.1l0.1,0c0,0,0,0,0,0c0,0,0,0,0-0.1c0-0.1-0.1-0.2-0.2-0.3c-0.1-0.1-0.1-0.2-0.1-0.2c0,0,0,0,0,0
			c0,0,0,0-0.1,0l-0.1,0l0-0.1c0.1,0,0.1-0.1,0.1-0.1C16.3,2.8,16.3,2.7,16.4,2.7z"/>
		<path id="XMLID_218_" d="M16.9,3c0-0.1-0.1-0.2-0.1-0.3c0-0.1,0-0.2,0.1-0.2c0-0.1,0.1-0.1,0.2-0.2c0.1-0.1,0.2-0.1,0.4,0
			c0.1,0,0.2,0.1,0.3,0.3c0.1,0.2,0.1,0.3,0,0.4c0,0.1-0.1,0.2-0.3,0.3c-0.1,0.1-0.2,0.1-0.3,0C17,3.2,16.9,3.1,16.9,3z M17,2.8
			c0.1,0.1,0.1,0.2,0.2,0.3c0.1,0.1,0.2,0.1,0.3,0c0.1,0,0.1-0.1,0.1-0.2c0-0.1,0-0.2-0.1-0.3c0-0.1-0.1-0.2-0.2-0.2
			s-0.1-0.1-0.2-0.1c-0.1,0-0.1,0-0.2,0c0,0-0.1,0.1-0.1,0.1s0,0.1,0,0.1C17,2.7,17,2.8,17,2.8z"/>
		<path id="XMLID_221_" d="M18.1,2.1l0.1-0.2c0,0,0,0,0-0.1c0,0,0.1-0.1,0.1-0.1c0.1,0,0.1,0,0.2,0c0.1,0,0.1,0,0.1,0.1
			c0,0,0.1,0.1,0.1,0.2l0.1,0.3c0,0.1,0.1,0.2,0.1,0.2c0,0,0,0,0.1,0l0.1,0l0,0.1c-0.1,0-0.1,0-0.2,0.1c0,0-0.1,0-0.1,0.1
			c0-0.1-0.1-0.3-0.2-0.5c0-0.1-0.1-0.1-0.1-0.2c0,0-0.1-0.1-0.1-0.1c0,0-0.1,0-0.1,0C18.2,2,18.2,2,18.1,2.1
			C18.1,2.1,18.1,2.2,18.1,2.1c0,0.1,0.1,0.2,0.1,0.3c0,0.1,0.1,0.2,0.1,0.3c0,0,0,0,0,0.1c0,0,0,0,0.1,0l0.1,0l0,0.1
			c-0.1,0-0.2,0.1-0.3,0.1c-0.1,0-0.1,0.1-0.2,0.1l0-0.1l0.1,0c0,0,0.1,0,0.1-0.1c0,0,0-0.2-0.1-0.4c0-0.1-0.1-0.2-0.1-0.3
			c0,0,0,0,0,0c0,0,0,0-0.1,0l-0.1,0l0-0.1c0,0,0.1-0.1,0.1-0.1c0,0,0.1-0.1,0.1-0.1c0,0,0,0,0,0c0,0,0,0,0,0l0,0L18.1,2.1z"/>
		<path id="XMLID_223_" d="M19,1.9L19,1.9l0-0.1l0.1-0.1c0,0,0.1-0.1,0.1-0.1c0,0,0.1,0,0.1,0c0.1,0,0.2,0,0.2,0
			c0.1,0,0.1,0.1,0.1,0.1c0,0,0.1,0.2,0.1,0.4c0,0.2,0.1,0.3,0.1,0.3c0,0,0,0,0.1,0l0.1,0l0,0.1c-0.1,0-0.1,0-0.2,0c0,0-0.1,0-0.1,0
			l0-0.1c0,0,0-0.1,0-0.1l-0.2,0.2c0,0,0,0,0,0c0,0,0,0-0.1,0c-0.1,0-0.2,0-0.2,0c-0.1,0-0.1-0.1-0.1-0.2c0-0.1,0-0.1,0-0.2
			c0-0.1,0.1-0.1,0.1-0.1c0.1,0,0.2-0.1,0.4-0.2c0-0.1-0.1-0.1-0.1-0.2c-0.1,0-0.1-0.1-0.2,0c0,0-0.1,0-0.1,0c0,0,0,0-0.1,0.1
			C19.1,1.8,19.1,1.8,19,1.9L19,1.9z M19.6,1.9c-0.2,0.1-0.3,0.2-0.3,0.2c0,0,0,0.1,0,0.2c0,0,0,0.1,0.1,0.1c0,0,0.1,0,0.1,0
			c0,0,0.1,0,0.1-0.1c0,0,0.1-0.1,0.1-0.2L19.6,1.9L19.6,1.9z"/>
		<path id="XMLID_226_" d="M20.1,0.8c0,0.2,0.1,0.4,0.1,0.5l0.1,0.5c0,0.2,0.1,0.3,0.1,0.3c0,0,0,0,0.1,0l0.1,0l0,0.1
			c-0.1,0-0.1,0-0.2,0c-0.1,0-0.2,0-0.3,0.1l0-0.1l0.1,0c0,0,0.1,0,0.1,0c0,0,0-0.1-0.1-0.4L20,1.4l0-0.2L20,1C20,1,20,1,20,1
			c0,0,0,0-0.1,0l-0.1,0l0-0.1C19.9,0.9,20,0.8,20.1,0.8L20.1,0.8z"/>
		<path id="XMLID_228_" d="M22.2,1l0-0.2c-0.1,0-0.1-0.1-0.2-0.1c-0.1,0-0.1,0-0.2,0c-0.2,0-0.3,0.1-0.4,0.2
			c-0.1,0.1-0.1,0.3-0.1,0.5c0,0.1,0,0.2,0.1,0.3c0.1,0.1,0.1,0.2,0.2,0.2C21.7,2,21.8,2,21.9,2c0.1,0,0.2,0,0.3,0
			c0.1,0,0.1-0.1,0.2-0.1l0,0c0,0,0,0.1,0,0.1c-0.1,0-0.2,0.1-0.2,0.1c-0.1,0-0.2,0-0.2,0c-0.2,0-0.3,0-0.4-0.1
			c-0.1-0.1-0.2-0.1-0.3-0.3c-0.1-0.1-0.1-0.2-0.1-0.4s0-0.3,0.1-0.4c0.1-0.1,0.1-0.2,0.3-0.3s0.3-0.1,0.4-0.1c0.1,0,0.2,0,0.3,0
			c0.1,0,0.1,0,0.2,0C22.3,0.8,22.3,0.9,22.2,1L22.2,1z"/>
		<path id="XMLID_230_" d="M22.5,1.6c0-0.1,0-0.2,0.1-0.3c0-0.1,0.1-0.1,0.2-0.2c0.1,0,0.2-0.1,0.3-0.1c0.1,0,0.3,0.1,0.3,0.1
			c0.1,0.1,0.1,0.2,0.1,0.4c0,0.2-0.1,0.3-0.2,0.4c-0.1,0.1-0.2,0.1-0.4,0.1c-0.1,0-0.2-0.1-0.3-0.2C22.5,1.9,22.5,1.8,22.5,1.6z
			 M22.7,1.5c0,0.1,0,0.3,0.1,0.4C22.8,2,22.9,2.1,23,2.1c0.1,0,0.1,0,0.2-0.1c0.1-0.1,0.1-0.2,0.1-0.3c0-0.1,0-0.2,0-0.3
			c0-0.1-0.1-0.1-0.1-0.2c0,0-0.1-0.1-0.2-0.1c-0.1,0-0.1,0-0.1,0c0,0-0.1,0.1-0.1,0.1C22.7,1.4,22.7,1.5,22.7,1.5z"/>
		<path id="XMLID_233_" d="M24,1.4l0.2-0.1c0,0,0.1,0,0.1,0c0,0,0.1,0,0.1,0c0.1,0,0.2,0.1,0.3,0.2c0.1,0.1,0.1,0.2,0.1,0.3
			c0,0.1,0,0.1,0,0.2c0,0.1,0,0.1-0.1,0.1c0,0-0.1,0.1-0.1,0.1c0,0-0.1,0-0.1,0.1l0,0c-0.1,0-0.1,0-0.1,0.1c0,0-0.1,0-0.1,0
			c0,0-0.1,0-0.1,0c0,0-0.1,0-0.1-0.1l0,0.1c0,0.1,0,0.3,0,0.3c0,0,0,0,0,0.1c0,0,0,0,0.1,0l0.1,0l0,0.1c-0.1,0-0.2,0-0.3,0
			c-0.1,0-0.1,0-0.2,0l0-0.1l0.1,0c0,0,0.1,0,0.1,0c0,0,0-0.1,0.1-0.4l0.1-0.6c0-0.1,0-0.2,0-0.3c0,0,0,0,0-0.1c0,0,0,0-0.1,0
			l-0.1,0l0-0.1c0.1,0,0.2,0,0.3,0l0.1,0c0,0,0,0,0,0L24,1.4L24,1.4z M23.9,2C23.9,2,24,2.1,24,2.1c0,0,0.1,0,0.1,0
			c0.1,0,0.2,0,0.3-0.1c0.1-0.1,0.1-0.2,0.1-0.3c0-0.1,0-0.1,0-0.2c0-0.1,0-0.1-0.1-0.1c0,0-0.1-0.1-0.1-0.1c0,0-0.1,0-0.1,0
			s-0.1,0-0.1,0.1c0,0-0.1,0-0.1,0.1c0,0,0,0.1,0,0.1L23.9,2z"/>
		<path id="XMLID_236_" d="M25.2,1.6l0.2-0.1c0,0,0.1,0,0.1,0c0,0,0.1,0,0.1,0c0.1,0,0.2,0.1,0.3,0.2c0.1,0.1,0.1,0.2,0,0.3
			c0,0.1,0,0.1-0.1,0.2c0,0.1-0.1,0.1-0.1,0.1c0,0-0.1,0.1-0.1,0.1c0,0-0.1,0-0.1,0.1l0,0c-0.1,0-0.1,0-0.1,0c0,0-0.1,0-0.1,0
			c0,0-0.1,0-0.1,0c0,0-0.1,0-0.1-0.1l0,0.1c0,0.1-0.1,0.2-0.1,0.3c0,0,0,0,0,0.1c0,0,0,0,0.1,0l0.1,0l0,0.1c-0.1,0-0.2-0.1-0.3-0.1
			c-0.1,0-0.1,0-0.2-0.1l0-0.1l0.1,0c0,0,0.1,0,0.1,0c0,0,0-0.1,0.1-0.3L25,1.8c0-0.1,0-0.2,0.1-0.2c0,0,0,0,0-0.1c0,0,0,0-0.1,0
			l-0.1,0l0-0.1c0.1,0,0.2,0,0.3,0l0.1,0c0,0,0,0,0,0L25.2,1.6L25.2,1.6z M25.1,2.2c0,0.1,0.1,0.1,0.1,0.1c0,0,0.1,0.1,0.1,0.1
			c0.1,0,0.2,0,0.3-0.1c0.1-0.1,0.1-0.2,0.1-0.3c0-0.1,0-0.1,0-0.2c0-0.1,0-0.1-0.1-0.1s-0.1-0.1-0.1-0.1c0,0-0.1,0-0.1,0
			c0,0-0.1,0-0.1,0c0,0-0.1,0-0.1,0.1c0,0,0,0.1,0,0.1L25.1,2.2z"/>
		<path id="XMLID_239_" d="M26.2,2.2c0,0.1,0,0.2,0,0.3c0,0.1,0.1,0.1,0.2,0.2c0,0,0.1,0,0.1,0c0,0,0.1,0,0.2,0l0,0l-0.1,0.1
			c-0.1,0-0.1,0-0.2,0c-0.1,0-0.1,0-0.2,0c-0.1,0-0.2-0.1-0.3-0.2c0-0.1,0-0.2,0-0.4C26,2,26.1,2,26.2,1.9c0,0,0.1-0.1,0.2-0.1
			c0.1,0,0.2,0,0.2,0c0.1,0,0.2,0.1,0.2,0.2c0,0.1,0,0.2,0,0.3l0,0.1c0,0-0.1,0-0.1,0c-0.1,0-0.2,0-0.3-0.1L26.2,2.2z M26.2,2.1
			c0.1,0,0.2,0.1,0.3,0.1c0,0,0.1,0,0.1,0l0-0.1c0-0.1,0-0.1,0-0.2c0,0,0-0.1,0-0.1c0,0-0.1-0.1-0.1-0.1c-0.1,0-0.1,0-0.2,0
			C26.3,1.9,26.3,2,26.2,2.1z"/>
		<path id="XMLID_242_" d="M27.3,2.3c0,0,0.1,0,0.1-0.1c0.1,0,0.1,0,0.1-0.1c0,0,0.1,0,0.1,0c0,0,0.1,0,0.1,0c0,0,0,0,0,0l0,0
			c0,0-0.1,0.1-0.1,0.2l0,0c0,0,0-0.1,0-0.1c0,0,0,0-0.1,0C27.5,2.3,27.4,2.3,27.3,2.3c0,0,0,0.1,0,0.1c0,0-0.1,0.1-0.1,0.3
			c0,0.1-0.1,0.2-0.1,0.2c0,0,0,0,0,0c0,0,0,0,0.1,0.1l0.1,0l0,0.1C27.1,3.1,27,3,26.9,3c-0.1,0-0.2-0.1-0.2-0.1l0-0.1l0.1,0
			c0,0,0.1,0,0.1,0c0,0,0,0,0.1-0.1c0-0.1,0.1-0.2,0.1-0.3c0.1-0.2,0.1-0.2,0.1-0.3c0,0,0,0-0.1-0.1l-0.1,0l0-0.1c0.1,0,0.1,0,0.2,0
			c0.1,0,0.1,0,0.1,0c0,0,0,0,0,0c0,0,0,0,0,0c0,0,0,0,0,0L27.3,2.3z"/>
		<path id="XMLID_244_" d="M29.8,3.1l-0.6,0.4c-0.2,0.1-0.4,0.3-0.6,0.4l0,0c0-0.1,0-0.2,0.1-0.5l0.1-0.8l-0.4,0.7
			c-0.1,0.2-0.1,0.3-0.1,0.3c0,0,0,0.1,0.1,0.1l0,0l0,0.1c-0.1-0.1-0.1-0.1-0.2-0.1c0,0-0.1-0.1-0.2-0.1l0-0.1l0.1,0
			c0,0,0.1,0,0.1,0c0,0,0,0,0.1,0c0.1-0.1,0.1-0.2,0.2-0.3l0.3-0.5c0.1-0.1,0.1-0.2,0.1-0.2c0,0,0,0,0-0.1c0,0,0,0-0.1-0.1l0,0
			l0-0.1c0.1,0.1,0.2,0.1,0.2,0.1c0,0,0.1,0,0.1,0.1c0,0.2-0.1,0.4-0.1,0.7l-0.1,0.6l0.5-0.3c0.2-0.1,0.4-0.2,0.6-0.4
			C29.9,2.9,30,3,30,3c0,0,0.1,0.1,0.2,0.1l0,0.1l-0.1,0c0,0-0.1,0-0.1,0s-0.1,0.1-0.1,0.2l-0.4,0.6c-0.1,0.1-0.1,0.2-0.1,0.3
			c0,0,0,0.1,0.1,0.1l0,0l0,0.1c-0.1-0.1-0.1-0.1-0.2-0.1c-0.1,0-0.2-0.1-0.3-0.1L29,4l0.1,0c0,0,0.1,0,0.1,0s0.1-0.1,0.2-0.3
			L29.8,3.1z"/>
		<path id="XMLID_246_" d="M30,3.9L30,3.9L30,3.8l0.1,0c0.1,0,0.1,0,0.1,0c0,0,0.1,0,0.1,0.1c0.1,0.1,0.1,0.1,0.1,0.2
			c0,0.1,0,0.1,0,0.2c0,0-0.1,0.1-0.2,0.3c-0.1,0.1-0.2,0.2-0.2,0.2c0,0,0,0,0,0.1l0.1,0l0,0.1c-0.1-0.1-0.1-0.1-0.1-0.1
			c0,0-0.1-0.1-0.1-0.1L30,4.7c0,0,0,0,0.1-0.1l-0.3,0c0,0,0,0-0.1,0c0,0,0,0-0.1,0c-0.1-0.1-0.1-0.1-0.1-0.2c0-0.1,0-0.1,0.1-0.2
			c0-0.1,0.1-0.1,0.1-0.1c0.1,0,0.1,0,0.2,0c0.1,0,0.2,0.1,0.4,0.2c0.1-0.1,0.1-0.1,0.1-0.2c0-0.1,0-0.1-0.1-0.2c0,0-0.1,0-0.1,0
			c0,0-0.1,0-0.1,0C30.1,3.9,30,3.9,30,3.9L30,3.9z M30.3,4.3c-0.2-0.1-0.3-0.1-0.3-0.1c-0.1,0-0.1,0-0.2,0.1c0,0,0,0.1,0,0.1
			c0,0,0,0.1,0.1,0.1c0,0,0.1,0,0.1,0.1c0.1,0,0.1,0,0.2,0L30.3,4.3L30.3,4.3z"/>
		<path id="XMLID_249_" d="M30.8,4.8L30.8,4.8c-0.2,0.2-0.3,0.3-0.3,0.3c0,0,0,0.1,0,0.1l0,0l0,0l0,0c-0.1-0.1-0.1-0.1-0.1-0.1
			L30.2,5l0,0l0,0c0,0,0.1,0,0.1,0c0,0,0.1-0.1,0.2-0.2L31,4.4c0.2-0.2,0.2-0.3,0.3-0.3c0,0,0,0,0-0.1L31.2,4l0,0
			c0,0,0.1,0.1,0.2,0.1l0.1,0c0,0,0,0,0,0l-0.1,0.1c0,0-0.1,0.1-0.3,0.3L30.8,4.8L30.8,4.8c0.1,0,0.2,0,0.2,0c0,0,0.1,0,0.2,0l0.2,0
			L31.6,5l0,0l0,0c0,0,0,0-0.1,0c-0.1,0-0.2,0-0.4,0c0,0.2,0,0.3,0,0.3c0,0.2,0,0.3,0,0.3c0,0,0,0,0,0c0,0,0,0,0,0l0,0
			c-0.1,0-0.1,0-0.2-0.1c0-0.1,0-0.2,0-0.4C30.8,5.1,30.8,4.9,30.8,4.8L30.8,4.8z"/>
		<path id="XMLID_251_" d="M31.5,5.6c-0.1,0.1-0.2,0.2-0.2,0.3c0,0.1,0,0.2,0.1,0.3c0,0,0.1,0.1,0.1,0.1c0,0,0.1,0,0.1,0.1v0l-0.1,0
			c-0.1,0-0.1,0-0.2-0.1c-0.1,0-0.1-0.1-0.1-0.1c-0.1-0.1-0.1-0.2-0.1-0.3c0-0.1,0.1-0.2,0.2-0.3c0.1-0.1,0.2-0.1,0.3-0.1
			c0.1,0,0.1,0,0.2,0s0.2,0.1,0.2,0.1c0.1,0.1,0.1,0.2,0.1,0.3c0,0.1-0.1,0.2-0.2,0.3l0,0c0,0-0.1-0.1-0.1-0.1
			c-0.1,0-0.1-0.1-0.2-0.2L31.5,5.6z M31.6,5.5c0.1,0.1,0.1,0.2,0.2,0.3c0,0,0.1,0.1,0.1,0.1l0,0c0,0,0.1-0.1,0.1-0.1
			c0,0,0-0.1,0-0.1c0,0,0-0.1-0.1-0.1c0-0.1-0.1-0.1-0.2-0.1C31.7,5.4,31.7,5.4,31.6,5.5z"/>
		<path id="XMLID_254_" d="M32.4,6.2c0,0,0.1,0,0.1,0c0.1,0,0.1,0,0.1,0c0,0,0.1,0,0.1,0.1c0,0,0,0.1,0,0.1c0,0,0,0,0,0l0,0
			c-0.1,0-0.1,0.1-0.2,0.1l0,0c0,0,0-0.1,0-0.1c0,0,0,0,0-0.1C32.6,6.3,32.5,6.3,32.4,6.2C32.4,6.3,32.4,6.3,32.4,6.2
			c-0.1,0.1-0.2,0.2-0.3,0.2C32,6.5,32,6.6,31.9,6.6c0,0,0,0,0,0c0,0,0,0.1,0,0.1l0,0l0,0c-0.1-0.1-0.1-0.2-0.2-0.2
			c-0.1-0.1-0.1-0.1-0.2-0.2l0,0l0.1,0.1c0,0,0,0,0.1,0c0,0,0,0,0.1,0C32,6.4,32,6.3,32.2,6.2c0.1-0.1,0.2-0.2,0.2-0.2
			c0,0,0,0,0-0.1l-0.1-0.1l0,0c0,0,0.1,0.1,0.1,0.1c0,0,0.1,0.1,0.1,0.1c0,0,0,0,0,0c0,0,0,0,0,0c0,0,0,0,0,0L32.4,6.2z"/>
	</g>
	<g id="XMLID_4_">
		<g id="XMLID_5_">
			<path id="XMLID_61_" d="M13.8,14c0,0.1,0.1,0.3,0.2,0.3c0.1,0,0.3,0,0.4-0.2c0.6-1.3,1.3-2.6,1.9-3.9c0,0,0,0,0,0
				c0-0.2-0.1-0.3-0.3-0.3c0,0-0.1,0-0.1,0c-0.1,0-0.1,0.2-0.2,0.3c-0.5,1-1,2-1.5,3c-0.1,0.2-0.2,0.4-0.3,0.5c0,0-0.1,0.1-0.1,0.1
				C13.8,13.9,13.8,14,13.8,14z"/>
			<path id="XMLID_60_" d="M30.9,14.4c-0.2-0.5-0.4-0.9-0.6-1.4c-0.2-0.6-0.4-1.3-0.6-2c-0.2-0.6-0.5-1.1-0.7-1.7
				c-0.2-0.4-0.3-0.9-0.5-1.3c-0.3-0.7-0.9-1-1.6-0.7c-0.3,0.1-0.6,0.3-1,0.4c-0.5,0.2-1,0.5-1.6,0.7c-0.1,0-0.3-0.1-0.5-0.1
				c-0.1,0-0.1-0.1-0.1-0.2c0-0.1,0.1-0.3,0.2-0.4c0.4-0.4,0.5-0.6,0.4-1c-0.1-0.5-0.6-1.1-1-1.3c-1-0.3-2.4,0.4-2.2,1.6
				c0,0.4,0,0.7,0,1.1c0,0.5-0.3,0.6-0.7,0.4c-0.9-0.5-1.7-1.1-2.6-1.7c-0.4-0.3-1.2-0.4-1.5-0.1c-0.2,0.2-0.5,0.5-0.6,0.8
				c-0.6,1.1-1.1,2.1-1.6,3.2c-0.4,0.8-0.6,1.6-1.1,2.4c-0.4,0.7-0.7,1.4-0.7,2.2c-0.1,1-0.1,2,0.5,2.9c0.1,0.2,0.3,0.4,0.6,0.3
				c0.2-0.1,0.1-0.3,0.1-0.4c-0.1-0.3-0.4-0.5-0.4-0.9c-0.1-0.5-0.2-1.1-0.1-1.6c0-0.4,0.6-2.3,0.6-2.4c0.2-0.4,0.3-0.8,0.5-1.2
				c0.6-1.2,1.2-2.5,1.9-3.7c0.2-0.4,0.5-0.6,0.8-0.8c0.6-0.4,1-0.1,1.5,0.2c0.6,0.5,1.2,1,2,1.3c0.4,0.1,0.4,0.4,0.1,0.6
				c-0.5,0.3-0.8,0.8-0.9,1.3c-0.2,0.6-0.3,1.3-0.4,1.9c-0.2,1.1-0.1,2.1,0.9,2.9c0.2,0.2,0.4,0.4,0.3,0.7c-0.4,1-0.9,1.8-1.8,2.4
				c-0.4,0.3-0.6,0.6-0.7,1.1c-0.1,0.3,0.1,0.6,0.5,0.6c0.2,0,0.5-0.3,0.7-0.3c0.2,0,0.3,0.2,0.4,0.3c0.5,0.4,0.6,0.2,1-0.3
				c0.2-0.2,0.4-0.1,0.6,0.1c0.3,0.4,0.6,0.5,1,0.3c0.3-0.2,0.6-0.2,0.9,0c0.7,0.4,0.8,0.2,1.3-0.3c0.1-0.1,0.4,0,0.6,0
				c0.3,0,0.5,0,0.6-0.3c0.1-0.2,0.2-0.4,0.5-0.3c0.3,0.1,0.4-0.1,0.5-0.4c0-0.4-0.2-0.8-0.5-1c-0.4-0.2-0.9-0.5-1.2-0.8
				c-0.3-0.3-0.3-0.8-0.5-1.2c0-0.1,0.1-0.3,0.2-0.4c0.7-0.5,0.8-1.2,1-1.9c0.1-0.6,0.1-1.9-0.1-2.6c0.3,0.7,0.9,2.6,1.2,3.3
				c0.1,0.2,0.2,0.3,0.3,0.5c0.1,0.1,0.2,0.1,0.3,0c0.1-0.1,0.1-0.2,0.1-0.3c0-0.2-0.1-0.4-0.2-0.6c-0.5-1.3-0.9-2.6-1.4-3.9
				c-0.1-0.2-0.2-0.4-0.4-0.3c-0.3,0.1,0,0.8,0,0.8s-0.5-1.1-0.8-1.1c-0.2-0.2-0.4-0.3-0.6,0c0.2,0.2,0.4,0.4,0.6,0.6
				c0.6,0.8,1,1.9,0.8,3.2c-0.1,0.6-0.2,1.3-0.8,1.8c-0.2,0.1-0.3,0.4-0.3,0.6c0,1.3,0.1,2,1.4,2.4c0.1,0,0.2,0.1,0.2,0.1
				c0.1,0.1,0.2,0.2,0.3,0.3c0.1,0.1,0,0.4-0.1,0.4c-0.2-0.1-0.4-0.1-0.4,0.2c-0.1,0.3-0.4,0.4-0.7,0.2c-0.4-0.2-0.7,0-1,0.3
				c-0.2,0.2-0.5,0.4-0.8,0.1c-0.3-0.4-0.7-0.4-1.1-0.1c-0.2,0.1-0.3,0.1-0.4-0.1c-0.3-0.6-0.6-0.6-1.2-0.2c-0.1,0-0.4,0.4-0.4,0.4
				c-0.3-0.3-0.8-0.7-1.3-0.1c0,0,0-0.3,0.4-0.6c0.7-0.6,1.3-1.3,1.6-2.1c0.1-0.2,0.2-0.3,0.2-0.4c0.4-0.5,0.3-1-0.2-1.3
				c-0.7-0.4-1-1-1-1.8c0-0.5,0-0.9,0.1-1.4c0.1-1,0.5-1.9,1.4-2.5C21,9.3,21.1,9.2,21.2,9c0.4-0.5,0.3-1.2,0.3-1.7
				c-0.1-1,0.3-1.6,1.4-1.5c0.3,0,0.5,0.1,0.6,0.4c0.2,0.2,0.3,0.7,0,0.9c-0.4,0.4-0.3,0.8-0.3,1.2c0.1,0.4,0.3,0.6,0.7,0.5
				c0.4-0.1,0.8-0.2,1.2-0.4c0.6-0.2,0.9-0.5,1.5-0.7c0.6-0.2,1.3,0,1.5,0.7c0.2,0.6,0.4,1.2,0.6,1.8c0.3,0.7,0.6,1.3,0.8,1.9
				c0.3,0.9,0.6,1.8,0.8,2.8c0.3,0.9,0.3,1.9-0.4,2.6c-0.2,0.2-0.4,0.4-0.5,0.6c0,0,0,0.1-0.1,0.1c-0.1,0.2,0.1,0.4,0.3,0.4
				c0,0,0,0,0.1,0c0.9-0.7,1.4-1.6,1.4-2.7C31.3,15.4,31,14.9,30.9,14.4z"/>
			<path id="XMLID_59_" d="M25.3,4.4c-0.3,0.4-1,0.2-1-0.1c0-0.1-0.2-0.2-0.2-0.1c-0.3,0.3-0.9,0.5-1.2,0.1c-0.5-0.8-0.5-0.7-0.7,0
				c0,0.1-0.1,0.3-0.3,0.3c-0.4,0-0.6-0.4-0.7-0.3c-0.2,0.1-0.1,0.4-0.5,0.5c-0.6,0.1-0.8-0.4-0.8-0.4S20,5,20.1,5.1
				c0.1,0.3,0.1,0.6,0.1,0.9c0,0.2-0.1,0.5-0.2,0.5c-0.2,0.1-0.6,0.1-0.7-0.1c-0.4-0.3-0.7-0.6-1.1-1c-0.3-0.4-0.7-0.7-1-1.1
				C17.1,4.3,17,4,17.1,4c0.2-0.2,0.3,0,0.5,0.2c0.4,0.5,0.8,1,1.3,1.5c0,0,0.6,0.5,0.7,0.4c0.1-0.1,0.1-0.5,0.1-0.6
				c-0.1-0.4-0.2-0.8-0.3-1.2c0-0.1-0.1-0.3-0.1-0.4c0-0.1,0.1-0.2,0.2-0.3c0.1,0,0.2,0.1,0.3,0.1c0.4,0.7,0.8,0.7,1.1,0.2
				c0.2-0.5,0.4-0.5,0.5-0.1C21.6,4.2,21.8,4,22,3.6c0.1-0.2,0.1-0.5,0.4-0.5c0.3,0,0.3,0.3,0.5,0.5C23,3.6,23,3.8,23.1,3.9
				c0.2,0.2,0.5,0.2,0.7-0.1c0.3-0.3,0.6-0.4,0.7,0.1s0.4,0.5,0.8,0.1c0.1-0.1,0.3-0.4,0.5-0.3c0.2,0.1,0,0.4,0,0.6
				c-0.1,0.3-0.3,0.9-0.3,1.3c0,0.1,0,0.5,0.1,0.5c0.1,0,0.5-0.2,0.5-0.3c0.2-0.5,0.5-1.1,0.7-1.7c0.1-0.2,0-0.3,0.1-0.5
				c0-0.1,0.1-0.1,0.2-0.1c0.1,0,0.2,0,0.2,0.1c0,0.1,0.1,0.1,0,0.2C27.2,4.4,27,5,26.7,5.5c-0.1,0.3-0.3,0.5-0.4,0.7
				c-0.2,0.4-0.6,0.6-1,0.5c-0.3-0.1-0.4-0.5-0.4-0.9C25,5.6,25,5.4,25,5.2C25.1,5,25.3,4.5,25.3,4.4z"/>
			<path id="XMLID_18_" d="M17.5,10.2c0.1,0.1,0.1,0.2,0.1,0.3c0,0,0,0.1,0,0.1c-0.5,1-1,2.1-1.5,3.1c-0.1,0.3-0.2,0.6-0.4,0.8
				c-0.1,0.2-0.3,0.4-0.5,0.6c-0.1,0.1-0.2,0.1-0.3,0c-0.1-0.1-0.1-0.2-0.1-0.3c0.1-0.2,0.2-0.5,0.3-0.7c0.5-1,1-2,1.5-2.9
				c0.2-0.3,0.3-0.6,0.5-0.9C17.1,10.3,17.3,10.2,17.5,10.2C17.4,10.2,17.5,10.2,17.5,10.2z"/>
			<path id="XMLID_15_" d="M28.2,14.1c0,0.1,0,0.2-0.1,0.3c0,0.1-0.1,0.1-0.1,0.1c-0.1,0-0.3-0.1-0.3-0.3c-0.2-0.6-0.4-1.2-0.6-1.8
				c-0.3-0.7-0.5-1.5-0.8-2.2c0-0.1-0.1-0.2-0.1-0.3c0-0.1,0-0.3,0.1-0.4c0.1,0,0.3,0.1,0.3,0.2c0.5,1.2,1,2.5,1.4,3.7
				C28.1,13.8,28.1,13.9,28.2,14.1z"/>
			<path id="XMLID_14_" d="M29.6,13.3c0.1,0.1,0.1,0.3,0,0.4c0,0-0.1,0.1-0.1,0.1c-0.1,0-0.3,0-0.3-0.1c-0.2-0.4-0.4-0.9-0.7-1.3
				c-0.4-0.8-0.7-1.6-1.1-2.4c0-0.1-0.1-0.1-0.1-0.2c-0.1-0.2,0-0.3,0.1-0.4c0.1-0.1,0.3,0,0.3,0.1c0.3,0.4,0.4,0.7,0.6,1.2
				c0.2,0.4,0.4,0.8,0.6,1.2c0.1,0.3,0.3,0.7,0.5,1C29.5,13,29.5,13.1,29.6,13.3z"/>
			<path id="XMLID_13_" d="M16.4,15.5c0-0.1,0-0.1,0-0.2c0.1-0.2,0.1-0.3,0.2-0.4c0.4-0.8,0.9-1.6,1.3-2.5c0.1-0.3,0.2-0.6,0.3-0.9
				c0.1-0.1,0.1-0.3,0.2-0.4c0,0,0,0,0,0c0.2-0.2,0.5-0.1,0.5,0.2c0,0,0,0,0,0.1c-0.3,0.7-0.7,1.4-1,2.1c-0.2,0.4-0.3,0.8-0.5,1.2
				c-0.1,0.3-0.2,0.6-0.4,0.8c-0.1,0.1-0.2,0.1-0.4,0.1C16.6,15.7,16.4,15.6,16.4,15.5z"/>
			<path id="XMLID_10_" d="M22.9,18.9c-0.1,0-0.1-0.1-0.1-0.2c0.3-0.9,0-1.6-0.2-2.4c0-0.1,0-0.3,0.1-0.4c0.1-0.1,0.3,0.1,0.3,0.2
				c0.2,0.5,0.1,0.7,0.3,1.3c0,0,0.2,0.5,0.2,0.6c0.1,0.2,0.3,0.5,0.2,0.6c-0.1,0.1-0.3-0.1-0.4,0c-0.1,0-0.1,0.3-0.2,0.3
				C23,18.9,22.9,18.9,22.9,18.9z"/>
			<path id="XMLID_9_" d="M21.7,15.9c0.1,0,0.1,0.1,0.1,0.1c0,0.1,0,0.2-0.1,0.3c-0.2,0.6-0.4,1.2-0.4,1.9c0,0.1,0,0.4-0.1,0.4
				c-0.2,0-0.2-0.4-0.3-0.4c-0.2,0-0.3,0.3-0.5,0.2c-0.1,0-0.1-0.1-0.1-0.2c0-0.1,0.1-0.2,0.2-0.2c0.5-0.4,0.7-1,0.8-1.6
				c0-0.2,0.1-0.3,0.2-0.5C21.5,16,21.5,15.9,21.7,15.9L21.7,15.9z"/>
			<path id="XMLID_8_" d="M22.4,6.2c0.1-0.2,0.5-0.2,0.6,0c0.1,0.1,0.1,0.2,0.1,0.3c0,0.2-0.3,0.5-0.4,0.5c-0.1,0-0.2-0.1-0.3-0.2
				C22.3,6.6,22.2,6.4,22.4,6.2C22.4,6.2,22.4,6.2,22.4,6.2z"/>
		</g>
	</g>
	<g id="XMLID_73_">
		<path id="XMLID_198_" d="M9.1,9.2H8.7C8.5,8.2,8,7.5,7.4,6.9C6.8,6.4,6.1,6.1,5.3,6.1c-0.4,0-0.8,0.1-1.1,0.2
			C3.8,6.5,3.5,6.8,3.3,7.1C3.1,7.4,3,7.8,3,8.2c0,0.2,0,0.5,0.1,0.7s0.3,0.5,0.6,0.8s0.8,0.7,1.4,1.1c0.7,0.4,1.1,0.7,1.3,0.8
			c0.9,0.5,1.6,1,2.1,1.5c0.5,0.5,1,1,1.2,1.5s0.4,1.1,0.4,1.8c0,0.6-0.1,1.2-0.4,1.7s-0.6,1-1,1.3c-0.4,0.4-1,0.7-1.6,0.9
			c-0.6,0.2-1.3,0.3-2,0.3c-0.7,0-1.6-0.1-2.6-0.4c-0.1,0-0.2-0.1-0.4-0.1c-0.2,0-0.3-0.1-0.4-0.1c-0.3,0-0.6,0.2-0.7,0.5H0.6
			l0.1-4.2h0.4c0.1,0.8,0.4,1.5,0.8,2c0.4,0.5,0.9,0.9,1.4,1.2s1.1,0.4,1.6,0.4c0.8,0,1.4-0.2,1.9-0.6c0.5-0.4,0.7-0.9,0.7-1.5
			c0-0.4-0.1-0.8-0.3-1.1c-0.2-0.3-0.5-0.6-0.9-0.9c-0.4-0.3-1.2-0.8-2.3-1.5c-0.6-0.4-1.1-0.8-1.5-1.1c-0.4-0.4-0.8-0.7-1-1.1
			c-0.2-0.3-0.4-0.7-0.5-1c-0.1-0.3-0.1-0.7-0.1-1.1c0-0.7,0.2-1.5,0.6-2.2S2.3,6.4,3,6c0.7-0.5,1.5-0.7,2.4-0.7
			c0.4,0,0.8,0,1.2,0.1c0.1,0,0.2,0,0.4,0.1c0.2,0,0.3,0.1,0.4,0.1c0.3,0.1,0.5,0.1,0.7,0.1c0.2,0,0.4,0,0.5-0.1
			c0.1-0.1,0.2-0.2,0.3-0.3h0.3V9.2z"/>
	</g>
	<g id="XMLID_3_">
		<path id="XMLID_196_" d="M47.4,10.6H47c-0.1-0.7-0.3-1.4-0.6-1.9c-0.3-0.6-0.7-1-1.1-1.4c-0.4-0.4-0.9-0.7-1.5-0.8
			c-0.5-0.2-1.1-0.3-1.7-0.3c-0.8,0-1.5,0.2-2.2,0.5c-0.6,0.3-1.1,0.8-1.4,1.3c-0.4,0.7-0.7,1.4-0.8,2.2s-0.2,1.6-0.2,2.5
			c0,1.6,0.3,2.9,0.9,3.9c0.6,1,1.3,1.7,2.1,2c0.8,0.4,1.6,0.6,2.4,0.6c1.9,0,3.5-0.9,4.9-2.8v1.4c-0.5,0.5-0.9,1-1.5,1.4
			c-0.5,0.4-1.2,0.7-2,1c-0.8,0.3-1.7,0.4-2.7,0.4c-1.2,0-2.3-0.2-3.3-0.6c-1-0.4-1.8-1-2.4-1.7s-1.1-1.5-1.4-2.4
			c-0.3-0.9-0.5-1.8-0.5-2.8c0-0.8,0.1-1.6,0.3-2.3c0.2-0.7,0.5-1.3,0.9-1.9c0.4-0.6,0.8-1.1,1.3-1.5C37.1,6.5,38,6,38.9,5.7
			c0.9-0.3,1.9-0.4,3-0.4c1,0,2.2,0.2,3.4,0.5C45.7,5.9,46,6,46.2,6c0.4,0,0.7-0.2,0.9-0.7h0.3V10.6z"/>
	</g>
</g>
<g id="XMLID_2_">
</g>
<g id="XMLID_195_">
</g>
<g id="XMLID_257_">
</g>
<g id="XMLID_258_">
</g>
<g id="XMLID_259_">
</g>
<g id="XMLID_260_">
</g>
<g id="XMLID_261_">
</g>
<g id="XMLID_262_">
</g>
<g id="XMLID_263_">
</g>
<g id="XMLID_264_">
</g>
<g id="XMLID_265_">
</g>
<g id="XMLID_266_">
</g>
<g id="XMLID_267_">
</g>
<g id="XMLID_268_">
</g>
<g id="XMLID_269_">
</g>
</svg>
