<svg width="51" height="46" viewBox="0 0 51 46" fill="none" xmlns="http://www.w3.org/2000/svg">
<path d="M4.14097 28.9449C4.09467 29.3013 4.33448 29.6263 4.68316 29.6883C5.05484 29.7502 5.51975 29.6883 5.79084 29.1231C7.47138 25.6995 9.11358 22.2605 10.7325 18.8062C10.7478 18.7752 10.7555 18.7439 10.7711 18.713C10.9027 18.2407 10.4148 17.8224 9.95784 17.9849C9.84928 18.0239 9.74869 18.0625 9.65577 18.1168C9.43896 18.2407 9.30709 18.5504 9.19117 18.7982C7.88967 21.4938 6.62712 24.2048 5.27196 26.8691C4.96989 27.5195 4.68316 27.9302 4.41973 28.1936C4.31915 28.2942 4.24953 28.4181 4.21058 28.5576C4.17961 28.6815 4.15661 28.821 4.14097 28.9449Z" fill="#FFB74D"/>
<path d="M49.4054 29.8903C48.9638 28.6124 48.3443 27.3885 47.9104 26.1106C47.3295 24.3911 46.9192 22.6174 46.2994 20.9132C45.7339 19.3719 44.944 17.9159 44.3165 16.3899C43.8363 15.2206 43.4956 13.9967 43.023 12.835C42.2253 10.8907 40.5988 10.178 38.6548 10.914C37.7716 11.2471 36.943 11.7117 36.0831 12.099C34.7123 12.7108 33.3645 13.3848 31.9548 13.8571C31.5987 13.9733 31.1185 13.7179 30.6536 13.532C30.4834 13.4621 30.3981 13.2763 30.4524 13.1058C30.5763 12.7341 30.6459 12.3314 30.9014 12.0604C31.9937 10.8984 32.2958 10.4801 31.9781 9.45C31.5907 8.19542 30.3438 6.41399 29.36 6.08095C26.6957 5.15911 23.0709 7.0721 23.4349 10.2013C23.5432 11.1385 23.5665 12.099 23.5278 13.0362C23.4812 14.2677 22.7921 14.717 21.7851 14.0819C19.4847 12.6335 17.2231 11.1075 15 9.54292C13.939 8.79159 11.9251 8.55944 10.9802 9.38805C10.3295 9.96121 9.69438 10.6353 9.29172 11.3863C7.78138 14.2135 6.30969 17.0639 4.92324 19.9531C3.92412 22.0286 3.21143 24.2439 2.11938 26.2655C1.13559 28.0856 0.392231 29.9289 0.144443 31.9815C-0.180931 34.6847 -0.0570382 37.3337 1.57719 39.6417C1.87159 40.06 2.47573 40.7494 3.14948 40.3777C3.64536 40.1066 3.48252 39.5335 3.39726 39.3396C3.01792 38.4414 2.44476 37.8836 2.23561 36.9621C1.92587 35.56 1.73973 34.0729 1.85595 32.6555C1.93354 31.6641 3.37427 26.4513 3.48252 26.1879C3.93179 25.1192 4.37339 24.0581 4.8846 23.02C6.49553 19.7206 8.09112 16.4055 9.7873 13.1447C10.2675 12.2152 11.0189 11.5105 11.8708 10.9683C13.3968 9.99219 14.636 10.7282 15.8599 11.6188C17.5484 12.8427 19.0198 14.3763 21.119 14.9881C22.0561 15.2592 22.1258 15.9563 21.2895 16.4908C19.9883 17.3194 19.2599 18.5277 18.9039 19.9531C18.4933 21.6106 18.2065 23.2991 17.8891 24.972C17.3237 27.9307 17.5714 30.6107 20.329 32.5237C20.9255 32.9343 21.3977 33.608 21.0647 34.4446C20.0579 36.9851 18.6715 39.27 16.3322 40.8037C15.2788 41.4931 14.6826 42.3836 14.4811 43.5919C14.3339 44.4904 14.8295 45.1488 15.736 45.1255C16.2006 45.1179 17.1611 44.2893 17.6334 44.2503C18.0906 44.2117 18.3927 44.8545 18.7101 45.0946C19.9493 46.0474 20.1818 45.5285 21.3281 44.4285C21.9632 43.8167 22.3039 44.0335 22.8694 44.7306C23.6674 45.722 24.4417 46.1017 25.5494 45.4975C26.378 45.0483 27.1293 45.0869 27.9426 45.5052C29.8016 46.4657 29.9412 45.9468 31.5055 44.6453C31.8928 44.3202 32.6208 44.5913 33.132 44.6686C33.9686 44.7925 34.5108 44.6453 34.7976 43.832C35.0297 43.1816 35.4247 42.8795 36.1684 43.0577C36.974 43.2589 37.3303 42.771 37.4153 42.0353C37.5395 40.9895 36.912 39.9748 35.9979 39.4405C34.8982 38.7975 33.6512 38.2323 32.8456 37.3028C32.1562 36.5128 31.9548 35.2656 31.6527 34.1968C31.5677 33.8871 31.7922 33.2983 32.0633 33.1201C33.8681 31.8885 34.3017 30.0452 34.5804 28.0393C34.7896 26.5366 34.8748 23.02 34.1934 21.1613C35.0996 22.9348 36.61 28.1632 37.3613 29.9599C37.5471 30.3939 37.8259 30.8121 38.1513 31.1529C38.2985 31.3077 38.7554 31.393 38.887 31.2844C39.0728 31.1295 39.2124 30.7422 39.1581 30.4944C39.0498 29.9523 38.8097 29.4334 38.6239 28.9065C37.3923 25.4909 36.1451 22.0829 34.9524 18.6595C34.7356 18.0398 34.3793 17.6834 33.8138 17.9159C33.0934 18.2103 33.8138 20.1619 33.8138 20.1619C33.8138 20.1619 32.4197 17.3737 31.707 17.1802C31.2967 16.6223 30.6303 16.4518 30.0571 17.1492C30.584 17.6914 31.2267 18.1017 31.5288 18.6905C33.1787 20.7663 34.0616 23.7637 33.566 27.0478C33.3102 28.744 32.9695 30.4944 31.4745 31.7337C31.0332 32.0977 30.6149 32.7794 30.6149 33.3139C30.5763 36.6443 30.9403 38.6506 34.325 39.7812C34.5574 39.8588 34.8129 39.9594 34.9678 40.1299C35.1226 40.3081 35.4017 40.5792 35.6648 40.8423C35.9749 41.16 35.7424 42.012 35.3784 41.7718C34.9291 41.4774 34.3793 41.617 34.2088 42.2211C34.0152 42.9182 33.233 43.2898 32.4583 42.8409C31.5135 42.2987 30.6612 42.9105 29.9332 43.6772C29.3834 44.2503 28.6553 44.8081 27.8653 43.9559C26.9821 43.0111 26.0606 43.0111 25.0691 43.7391C24.5656 44.1031 24.2945 43.9329 24.0081 43.414C23.2101 41.9423 22.2886 41.8028 20.8325 42.771C20.6464 42.8948 19.8411 43.871 19.7016 43.7314C18.8187 42.8485 17.4709 41.9577 16.162 43.5299C16.1464 43.5609 16.154 42.7167 17.2074 41.8647C19.0898 40.3467 20.5614 38.3948 21.5682 36.1874C21.7541 35.7848 21.9709 35.3974 22.2267 35.0334C23.1792 33.6933 23.009 32.4927 21.6069 31.6717C19.8021 30.6183 18.8883 29.0927 18.9425 27.0245C18.9735 25.8086 19.0664 24.5847 19.229 23.3687C19.5777 20.7121 20.5535 18.3805 22.8461 16.7619C23.1948 16.5141 23.6594 16.0878 23.9385 15.7238C24.9995 14.3297 24.7981 12.6645 24.6509 11.1075C24.4031 8.48185 25.3479 6.94054 28.3376 7.0721C29.1199 7.10307 29.5459 7.43611 30.0341 8.07153C30.5143 8.69866 30.7235 9.86063 30.0961 10.5267C29.1432 11.5491 29.2208 12.5406 29.3833 13.7102C29.5459 14.8719 30.127 15.3521 31.2733 15.1353C32.3654 14.9262 33.4341 14.5545 34.4645 14.1438C35.9592 13.5474 36.9583 12.9432 38.461 12.3778C40.1652 11.7426 41.9077 12.4553 42.4035 14.2211C42.8448 15.7937 43.4103 17.335 43.9991 18.8607C44.6729 20.5882 45.5248 22.2457 46.1289 23.9962C46.9579 26.4047 47.6702 28.8679 48.3366 31.3234C49.0027 33.7942 49.2039 36.2337 47.2522 38.3252C46.7797 38.8364 46.2528 39.3087 45.8578 39.8742C45.8039 39.9594 45.7573 40.0523 45.7186 40.1529C45.5095 40.6951 46.0207 41.2763 46.5782 41.0901C46.6401 41.0671 46.6944 41.0438 46.7487 41.0052C49.1729 39.2391 50.575 36.8149 50.544 33.8172C50.4897 32.5393 49.8546 31.1992 49.4054 29.8903Z" fill="#FFB74D"/>
<path d="M49.4054 29.8903C48.9638 28.6124 48.3443 27.3885 47.9104 26.1106C47.3295 24.3911 46.9192 22.6174 46.2994 20.9132C45.7339 19.3719 44.944 17.9159 44.3165 16.3899C43.8363 15.2206 43.4956 13.9967 43.023 12.835C42.2253 10.8907 40.5988 10.178 38.6548 10.914C37.7716 11.2471 36.943 11.7117 36.0831 12.099C34.7123 12.7108 33.3645 13.3848 31.9548 13.8571C31.5987 13.9733 31.1185 13.7179 30.6536 13.532C30.4834 13.4621 30.3981 13.2763 30.4524 13.1058C30.5763 12.7341 30.6459 12.3314 30.9014 12.0604C31.9937 10.8984 32.2958 10.4801 31.9781 9.45C31.5907 8.19542 30.3438 6.41399 29.36 6.08095C26.6957 5.15911 23.0709 7.0721 23.4349 10.2013C23.5432 11.1385 23.5665 12.099 23.5278 13.0362C23.4812 14.2677 22.7921 14.717 21.7851 14.0819C19.4847 12.6335 17.2231 11.1075 15 9.54292C13.939 8.79159 11.9251 8.55944 10.9802 9.38805C10.3295 9.96121 9.69438 10.6353 9.29172 11.3863C7.78138 14.2135 6.30969 17.0639 4.92324 19.9531C3.92412 22.0286 3.21143 24.2439 2.11938 26.2655C1.13559 28.0856 0.392231 29.9289 0.144443 31.9815C-0.180931 34.6847 -0.0570382 37.3337 1.57719 39.6417C1.87159 40.06 2.47573 40.7494 3.14948 40.3777C3.64536 40.1066 3.48252 39.5335 3.39726 39.3396C3.01792 38.4414 2.44476 37.8836 2.23561 36.9621C1.92587 35.56 1.73973 34.0729 1.85595 32.6555C1.93354 31.6641 3.37427 26.4513 3.48252 26.1879C3.93179 25.1192 4.37339 24.0581 4.8846 23.02C6.49553 19.7206 8.09112 16.4055 9.7873 13.1447C10.2675 12.2152 11.0189 11.5105 11.8708 10.9683C13.3968 9.99219 14.636 10.7282 15.8599 11.6188C17.5484 12.8427 19.0198 14.3763 21.119 14.9881C22.0561 15.2592 22.1258 15.9563 21.2895 16.4908C19.9883 17.3194 19.2599 18.5277 18.9039 19.9531C18.4933 21.6106 18.2065 23.2991 17.8891 24.972C17.3237 27.9307 17.5714 30.6107 20.329 32.5237C20.9255 32.9343 21.3977 33.608 21.0647 34.4446C20.0579 36.9851 18.6715 39.27 16.3322 40.8037C15.2788 41.4931 14.6826 42.3836 14.4811 43.5919C14.3339 44.4904 14.8295 45.1488 15.736 45.1255C16.2006 45.1179 17.1611 44.2893 17.6334 44.2503C18.0906 44.2117 18.3927 44.8544 18.7101 45.0946C19.9493 46.0474 20.1818 45.5285 21.3281 44.4285C21.9632 43.8167 22.3039 44.0335 22.8694 44.7306C23.6674 45.722 24.4417 46.1017 25.5494 45.4975C26.378 45.0483 27.1293 45.0869 27.9426 45.5052C29.8016 46.4657 29.9412 45.9468 31.5055 44.6453C31.8928 44.3202 32.6208 44.5913 33.132 44.6686C33.9686 44.7925 34.5108 44.6453 34.7976 43.832C35.0297 43.1816 35.4247 42.8795 36.1684 43.0577C36.974 43.2589 37.3303 42.7709 37.4153 42.0353C37.5395 40.9895 36.912 39.9748 35.9979 39.4405C34.8982 38.7975 33.6512 38.2323 32.8456 37.3028C32.1562 36.5128 31.9548 35.2656 31.6527 34.1968C31.5677 33.8871 31.7922 33.2983 32.0633 33.1201C33.8681 31.8885 34.3017 30.0452 34.5804 28.0393C34.7896 26.5366 34.8748 23.02 34.1934 21.1613C35.0996 22.9348 36.61 28.1632 37.3613 29.9599C37.5471 30.3939 37.8259 30.8121 38.1513 31.1529C38.2985 31.3077 38.7554 31.393 38.887 31.2844C39.0728 31.1295 39.2123 30.7422 39.1581 30.4944C39.0498 29.9523 38.8097 29.4334 38.6239 28.9065C37.3923 25.4909 36.1451 22.0829 34.9524 18.6595C34.7356 18.0398 34.3793 17.6834 33.8138 17.9159C33.0934 18.2103 33.8138 20.1619 33.8138 20.1619C33.8138 20.1619 32.4197 17.3737 31.707 17.1802C31.2967 16.6223 30.6303 16.4518 30.0571 17.1492C30.584 17.6914 31.2267 18.1017 31.5288 18.6905C33.1787 20.7663 34.0616 23.7637 33.566 27.0478C33.3102 28.744 32.9695 30.4944 31.4745 31.7337C31.0332 32.0977 30.6149 32.7794 30.6149 33.3139C30.5763 36.6443 30.9403 38.6506 34.325 39.7812C34.5574 39.8588 34.8129 39.9594 34.9678 40.1299C35.1226 40.3081 35.4017 40.5792 35.6648 40.8423C35.9749 41.16 35.7424 42.012 35.3784 41.7718C34.9291 41.4774 34.3793 41.617 34.2088 42.2211C34.0152 42.9182 33.233 43.2898 32.4583 42.8409C31.5135 42.2987 30.6612 42.9105 29.9332 43.6772C29.3834 44.2503 28.6553 44.8081 27.8653 43.9559C26.9821 43.0111 26.0606 43.0111 25.0691 43.7391C24.5656 44.1031 24.2945 43.9329 24.0081 43.414C23.2101 41.9423 22.2886 41.8028 20.8325 42.771C20.6464 42.8948 19.8411 43.871 19.7016 43.7314C18.8187 42.8485 17.4709 41.9577 16.162 43.5299C16.1464 43.5609 16.154 42.7167 17.2074 41.8647C19.0898 40.3467 20.5614 38.3948 21.5682 36.1874C21.7541 35.7848 21.9709 35.3974 22.2267 35.0334C23.1792 33.6933 23.009 32.4927 21.6069 31.6717C19.8021 30.6183 18.8883 29.0927 18.9425 27.0245C18.9735 25.8086 19.0664 24.5847 19.229 23.3687C19.5777 20.7121 20.5535 18.3805 22.8461 16.7619C23.1948 16.5141 23.6594 16.0878 23.9385 15.7238C24.9995 14.3297 24.7981 12.6645 24.6509 11.1075C24.4031 8.48185 25.3479 6.94054 28.3376 7.0721C29.1199 7.10307 29.5459 7.43611 30.0341 8.07153C30.5143 8.69866 30.7235 9.86063 30.0961 10.5267C29.1432 11.5491 29.2208 12.5406 29.3833 13.7102C29.5459 14.8719 30.127 15.3521 31.2733 15.1353C32.3654 14.9262 33.4341 14.5545 34.4645 14.1438C35.9592 13.5474 36.9583 12.9432 38.461 12.3778C40.1652 11.7426 41.9077 12.4553 42.4035 14.2211C42.8448 15.7937 43.4103 17.335 43.9991 18.8607C44.6729 20.5882 45.5248 22.2457 46.1289 23.9962C46.9579 26.4047 47.6702 28.8679 48.3366 31.3234C49.0027 33.7942 49.2039 36.2337 47.2522 38.3252C46.7797 38.8364 46.2528 39.3087 45.8578 39.8742C45.8039 39.9594 45.7572 40.0523 45.7186 40.1529C45.5095 40.6951 46.0207 41.2763 46.5782 41.0901C46.6401 41.0671 46.6944 41.0438 46.7487 41.0052C49.1729 39.2391 50.575 36.8149 50.544 33.8172C50.4897 32.5393 49.8546 31.1992 49.4054 29.8903Z" fill="#FFB74D"/>
<path d="M34.6967 3.48644C33.992 4.5242 32.1796 4.03629 31.9937 3.09911C31.9238 2.74277 31.5598 2.464 31.343 2.70412C30.5607 3.56371 28.8488 3.90442 28.2913 2.98289C27.0521 0.93803 26.9822 0.999974 26.3704 2.85102C26.3084 3.03717 26.045 3.52507 25.588 3.54041C24.465 3.57138 24.0314 2.5879 23.6208 2.71946C23.1329 2.87433 23.311 3.68761 22.219 3.95104C20.7317 4.30738 20.0812 2.88997 20.0812 2.88997C20.0812 2.88997 20.7393 4.9658 20.8092 5.32184C20.9718 6.1431 21.0261 6.99502 21.0028 7.8316C20.9874 8.30387 20.7936 9.10949 20.5382 9.17144C19.9184 9.31864 19.0665 9.33397 18.5862 9.00093C17.5638 8.28854 16.6809 7.35136 15.8057 6.44516C14.9071 5.51565 14.0552 4.53953 13.2573 3.52507C13.0171 3.21534 12.816 2.46401 12.9632 2.33981C13.482 1.89085 13.8847 2.27786 14.3573 2.82005C15.5269 4.16018 16.5493 5.41476 17.7576 6.73159C17.8505 6.83218 19.3762 8.00181 19.7016 7.83927C20.0036 7.69207 19.9184 6.49913 19.8797 6.19707C19.7325 5.09736 19.3066 4.09823 19.0974 3.00619C19.0278 2.6342 18.834 2.25486 18.865 1.89851C18.8883 1.64275 19.1517 1.27874 19.3842 1.20146C19.5853 1.13951 19.9727 1.35632 20.1352 1.56547C21.2815 3.3469 22.2034 3.51741 22.916 2.07669C23.5202 0.876082 23.8919 0.83744 24.3178 1.728C24.8524 2.85102 25.4875 2.50264 25.9211 1.34068C26.0916 0.883746 26.2078 0.0241588 26.9202 0.000852124C27.8344 -0.0301213 27.7878 0.790827 28.2447 1.23243C28.4848 1.46458 28.694 1.88287 28.9497 2.09202C29.5848 2.6109 30.2353 2.52595 30.8164 1.94482C31.6917 1.07756 32.2801 0.953666 32.6288 2.09999C32.9772 3.24631 33.6743 3.52507 34.8749 2.36311C35.2079 2.03774 35.6029 1.42594 36.1141 1.68936C36.6719 1.97579 36.215 2.77374 36.0288 3.1997C35.6728 4.00531 35.3088 5.5776 35.115 6.73926C35.053 7.0956 35.0144 8.05609 35.4094 8.17231C35.7811 8.28057 36.6176 7.56051 36.7572 7.25047C37.4153 5.81772 38.066 4.29941 38.6778 2.85102C38.856 2.43303 38.6625 1.96045 38.9413 1.62741C39.0728 1.47255 39.2666 1.37963 39.4834 1.29437C39.7389 1.19348 40.0256 1.31768 40.1342 1.57314C40.2191 1.77462 40.2811 1.96813 40.2271 2.12299C39.7079 3.56372 39.1194 4.9888 38.492 6.39088C38.1976 7.05696 37.7407 7.65343 37.3766 8.29621C36.8035 9.29533 35.7114 9.79888 34.7356 9.49681C33.9763 9.26436 33.5504 8.24193 33.7442 7.08027C33.8215 6.60003 33.9223 6.11979 34.0073 5.63188C34.0772 5.19795 34.6424 3.85045 34.6967 3.48644Z" fill="#FFB74D"/>
<path d="M14.0168 18.969C14.2337 19.1782 14.3033 19.4956 14.218 19.79C14.187 19.9062 14.1484 19.9991 14.1098 20.0921C12.7773 22.8263 11.4298 25.5526 10.0976 28.2868C9.74896 29.0072 9.5398 29.8048 9.13715 30.4865C8.77313 31.0983 8.26192 31.6329 7.74273 32.1284C7.58787 32.2756 7.09229 32.2756 6.91412 32.1364C6.72828 31.9892 6.61205 31.5633 6.674 31.3231C6.84451 30.688 7.0923 30.0606 7.3867 29.4641C8.68789 26.8694 10.0044 24.2824 11.3369 21.7033C11.7705 20.8667 12.2041 20.0148 12.7543 19.2555C12.9401 18.9923 13.4667 18.9071 13.8463 18.8838C13.9006 18.8761 13.9626 18.9148 14.0168 18.969Z" fill="#FFB74D"/>
<path d="M42.3261 29.2321C42.4113 29.5341 42.357 29.8595 42.1712 30.1153C42.055 30.2778 41.9387 30.4173 41.8691 30.394C41.5207 30.3011 41.0868 30.0144 40.9629 29.7046C40.3744 28.171 39.9095 26.591 39.352 25.0418C38.647 23.0668 37.9036 21.1072 37.1753 19.132C37.0903 18.8998 36.9275 18.6597 36.9585 18.4426C37.0051 18.1019 36.9585 17.552 37.2995 17.4358C37.6245 17.3272 38.0275 17.7535 38.1281 18.0166C39.4216 21.3084 40.6765 24.6081 41.9234 27.9155C42.0629 28.3182 42.1789 28.7365 42.3261 29.2321Z" fill="#FFB74D"/>
<path d="M46.1134 27.0173C46.3069 27.3967 46.2839 27.8616 46.0049 28.1869C45.9352 28.2642 45.8656 28.3262 45.7881 28.3418C45.5246 28.3961 45.0367 28.21 44.9128 27.9778C44.2854 26.8545 43.7355 25.6928 43.1857 24.5309C42.1865 22.4164 41.2028 20.2943 40.2113 18.1718C40.134 18.0169 40.0178 17.8544 39.9559 17.7228C39.7467 17.3122 39.8473 16.8553 40.157 16.6771C40.4361 16.5146 40.893 16.7854 41.0402 16.9945C41.745 17.9939 42.078 18.9621 42.6202 20.0541C43.1314 21.0766 43.7588 22.2692 44.2081 23.3226C44.6031 24.2444 45.1296 25.1197 45.5946 26.0182C45.7571 26.3433 45.9276 26.6686 46.1134 27.0173Z" fill="#FFB74D"/>
<path d="M11.1195 32.8799C11.0345 32.7327 11.0189 32.5469 11.0731 32.3843C11.2203 31.9661 11.3442 31.5787 11.5301 31.2224C12.6378 29.0383 13.7918 26.8695 14.8838 24.6775C15.2558 23.9261 15.457 23.1052 15.7747 22.3306C15.9219 21.9822 16.1 21.6105 16.3632 21.3471C16.3711 21.3394 16.3555 21.3547 16.3632 21.3471C16.859 20.7273 17.7576 21.014 17.6104 21.7807C17.6024 21.835 17.5947 21.8813 17.5714 21.9279C16.7428 23.8179 15.8366 25.6766 14.9924 27.5589C14.5274 28.6123 14.1634 29.712 13.7221 30.7811C13.4201 31.5244 13.118 32.2835 12.6997 32.9652C12.5448 33.213 12.049 33.3602 11.7159 33.3448C11.592 33.3448 11.259 33.1124 11.1195 32.8799Z" fill="#FFB74D"/>
<path d="M28.3226 41.811C28.1211 41.7181 27.9972 41.4936 28.0668 41.2922C28.8414 38.9299 28.1677 36.9626 27.4397 35.003C27.3621 34.7086 27.4087 34.1741 27.6951 34.0346C28.0049 33.8797 28.4155 34.3679 28.5241 34.639C29.1126 36.0874 28.7951 36.521 29.3294 37.9927C29.376 38.1243 29.7943 39.3402 29.9025 39.4874C30.2665 39.9753 30.6152 40.8119 30.3984 41.1839C30.2589 41.424 29.6704 41.0444 29.314 41.1529C29.0273 41.2379 28.9963 41.8267 28.7332 41.8886C28.6013 41.9196 28.4621 41.873 28.3226 41.811Z" fill="#FFB74D"/>
<path d="M25.0532 34.042C25.2001 34.073 25.3087 34.2122 25.293 34.3674C25.27 34.6848 25.2621 35.0178 25.1305 35.2812C24.6969 36.8922 24.201 38.542 24.139 40.2769C24.1314 40.6022 24.1237 41.2683 23.7907 41.2916C23.3567 41.3149 23.1942 40.2382 22.8845 40.153C22.4662 40.037 22.0479 40.827 21.529 40.6951C21.3428 40.6488 21.2423 40.432 21.3198 40.2615C21.4437 40.0061 21.552 39.7503 21.7535 39.6031C23.1632 38.5653 23.6278 37.0627 23.9918 35.4671C24.0927 35.0411 24.2939 34.6385 24.48 34.2278C24.542 34.0883 24.6889 34.0187 24.8361 34.0497L25.0532 34.042Z" fill="#FFB74D"/>
<path d="M27.0285 8.31961C27.3925 7.90131 28.2911 7.83937 28.6861 8.22669C29.0038 8.54409 28.9725 8.83082 28.9415 9.04763C28.8875 9.52021 28.1515 10.3335 27.8651 10.2712C27.5551 10.2093 27.2763 9.99248 27.0129 9.74469C26.6335 9.39601 26.6026 8.80752 26.9356 8.4202C26.9666 8.38922 26.9976 8.35825 27.0285 8.31961Z" fill="#FFB74D"/>
</svg>
