<?xml version="1.0" encoding="utf-8"?>
<!-- Generator: Adobe Illustrator 22.0.1, SVG Export Plug-In . SVG Version: 6.00 Build 0)  -->
<svg version="1.1" id="Calque_1" xmlns="http://www.w3.org/2000/svg" xmlns:xlink="http://www.w3.org/1999/xlink" x="0px" y="0px"
	 viewBox="0 0 1366 768" style="enable-background:new 0 0 1366 768;" xml:space="preserve">
<style type="text/css">
	.st0{fill:url(#SVGID_1_);}
	.st1{fill:url(#SVGID_2_);}
	.st2{fill:url(#SVGID_3_);}
	.st3{fill:url(#SVGID_4_);}
	.st4{fill:url(#SVGID_5_);}
	.st5{fill:url(#SVGID_6_);}
	.st6{fill:url(#SVGID_7_);}
	.st7{fill:url(#SVGID_8_);}
	.st8{fill:url(#SVGID_9_);}
	.st9{fill:url(#SVGID_10_);}
	.st10{fill:url(#SVGID_11_);}
	.st11{fill:url(#SVGID_12_);}
	.st12{fill:url(#SVGID_13_);}
	.st13{fill:url(#SVGID_14_);}
	.st14{fill:url(#SVGID_15_);}
	.st15{fill:url(#SVGID_16_);}
	.st16{fill:url(#SVGID_17_);}
	.st17{fill:url(#SVGID_18_);}
	.st18{fill:url(#SVGID_19_);}
	.st19{fill:url(#SVGID_20_);}
	.st20{fill:url(#SVGID_21_);}
	.st21{fill:url(#SVGID_22_);}
	.st22{fill:url(#SVGID_23_);}
	.st23{fill:url(#SVGID_24_);}
	.st24{fill:url(#SVGID_25_);}
	.st25{fill:url(#SVGID_26_);}
</style>
<g>
	<linearGradient id="SVGID_1_" gradientUnits="userSpaceOnUse" x1="734.0519" y1="353.3275" x2="1134.3773" y2="85.0682">
		<stop  offset="0" style="stop-color:#8C5E50"/>
		<stop  offset="9.829696e-02" style="stop-color:#9D6E52"/>
		<stop  offset="0.1854" style="stop-color:#B07F54"/>
		<stop  offset="0.3916" style="stop-color:#8C5E50"/>
		<stop  offset="0.6151" style="stop-color:#D3BAA3"/>
		<stop  offset="0.6682" style="stop-color:#E5D0B8"/>
		<stop  offset="0.9494" style="stop-color:#B07F54"/>
	</linearGradient>
	<path class="st0" d="M818,311.8c-3.9-3.7-5.9-8.2-5.9-13.5h3.9c0,4.3,1.6,7.9,4.8,11c3.2,3,7,4.6,11.4,4.6c4.8,0,9-1.3,12.5-3.9
		c3.4-2.6,5.1-5.7,5.1-9.4c0-3.2-1.5-5.8-4.6-8c-3-2.1-7-3.4-12-3.9c-6.1-0.5-11.1-2.3-14.7-5.2c-3.7-3-5.5-6.6-5.5-11
		c0-4.3,1.9-7.9,5.6-11c3.7-3,8.3-4.6,13.6-4.6c5.7,0,10.6,1.6,14.6,4.8c4,3.2,6,7,6,11.4H849c0-3.4-1.6-6.4-4.9-8.8
		c-3.2-2.5-7.2-3.7-11.8-3.7c-4.2,0-7.8,1.2-10.9,3.5c-3,2.3-4.5,5-4.5,8.3c0,3.2,1.6,5.9,4.7,8.1c3.2,2.2,7.3,3.5,12.5,4
		c5.9,0.5,10.7,2.2,14.3,5.1c3.6,2.9,5.3,6.5,5.3,10.8c0,4.7-2.1,8.6-6.3,11.9c-4.2,3.3-9.3,4.9-15.2,4.9
		C826.6,317.4,821.9,315.5,818,311.8z"/>
	<linearGradient id="SVGID_2_" gradientUnits="userSpaceOnUse" x1="751.064" y1="378.7148" x2="1151.3894" y2="110.4554">
		<stop  offset="0" style="stop-color:#8C5E50"/>
		<stop  offset="9.829696e-02" style="stop-color:#9D6E52"/>
		<stop  offset="0.1854" style="stop-color:#B07F54"/>
		<stop  offset="0.3916" style="stop-color:#8C5E50"/>
		<stop  offset="0.6151" style="stop-color:#D3BAA3"/>
		<stop  offset="0.6682" style="stop-color:#E5D0B8"/>
		<stop  offset="0.9494" style="stop-color:#B07F54"/>
	</linearGradient>
	<path class="st1" d="M869.5,308.6c-4.7-5.4-7-12.5-7-21.3c0-9.2,2.3-16.5,7-22c4.7-5.5,10.9-8.2,18.6-8.2c7.8,0,14,2.7,18.6,8.2
		c4.7,5.5,7,12.8,7,22c0,8.9-2.3,16-7,21.3c-4.7,5.4-10.9,8-18.6,8C880.4,316.6,874.2,314,869.5,308.6z M903.9,306
		c3.9-4.7,5.9-10.9,5.9-18.7c0-8-2-14.4-5.9-19.3c-3.9-4.8-9.2-7.3-15.8-7.3c-6.6,0-11.9,2.4-15.8,7.3c-3.9,4.8-5.9,11.3-5.9,19.3
		c0,7.8,2,14.1,5.9,18.7c3.9,4.7,9.2,7.1,15.8,7.1C894.7,313.1,900,310.7,903.9,306z"/>
	<linearGradient id="SVGID_3_" gradientUnits="userSpaceOnUse" x1="770.2863" y1="407.4004" x2="1170.6117" y2="139.1411">
		<stop  offset="0" style="stop-color:#8C5E50"/>
		<stop  offset="9.829696e-02" style="stop-color:#9D6E52"/>
		<stop  offset="0.1854" style="stop-color:#B07F54"/>
		<stop  offset="0.3916" style="stop-color:#8C5E50"/>
		<stop  offset="0.6151" style="stop-color:#D3BAA3"/>
		<stop  offset="0.6682" style="stop-color:#E5D0B8"/>
		<stop  offset="0.9494" style="stop-color:#B07F54"/>
	</linearGradient>
	<path class="st2" d="M930.8,308.6c-5.2-5.9-7.8-13-7.8-21.3s2.6-15.5,7.8-21.4c5.1-5.9,11.3-8.8,18.6-8.8c6,0,11.1,1.6,15.2,4.8
		c4.1,3.2,6.7,7.4,7.7,12.8h-3.9c-0.7-4-2.9-7.3-6.5-10c-3.6-2.6-7.7-4-12.5-4c-6.2,0-11.5,2.6-15.9,7.8c-4.4,5.2-6.6,11.5-6.6,18.8
		c0,7.3,2.2,13.6,6.6,18.8c4.4,5.2,9.7,7.8,15.9,7.8c5.3,0,9.7-1.6,13.1-4.7c3.5-3.1,5.5-7.2,5.9-12.4h3.9c-0.5,6.3-2.9,11.3-7.1,15
		c-4.1,3.7-9.4,5.6-15.8,5.6C942.1,317.4,935.9,314.5,930.8,308.6z"/>
	<linearGradient id="SVGID_4_" gradientUnits="userSpaceOnUse" x1="781.4058" y1="423.9942" x2="1181.7313" y2="155.7349">
		<stop  offset="0" style="stop-color:#8C5E50"/>
		<stop  offset="9.829696e-02" style="stop-color:#9D6E52"/>
		<stop  offset="0.1854" style="stop-color:#B07F54"/>
		<stop  offset="0.3916" style="stop-color:#8C5E50"/>
		<stop  offset="0.6151" style="stop-color:#D3BAA3"/>
		<stop  offset="0.6682" style="stop-color:#E5D0B8"/>
		<stop  offset="0.9494" style="stop-color:#B07F54"/>
	</linearGradient>
	<path class="st3" d="M983.6,316v-57.5h3.9V316H983.6z"/>
	<linearGradient id="SVGID_5_" gradientUnits="userSpaceOnUse" x1="792.6819" y1="440.8216" x2="1193.0073" y2="172.5622">
		<stop  offset="0" style="stop-color:#8C5E50"/>
		<stop  offset="9.829696e-02" style="stop-color:#9D6E52"/>
		<stop  offset="0.1854" style="stop-color:#B07F54"/>
		<stop  offset="0.3916" style="stop-color:#8C5E50"/>
		<stop  offset="0.6151" style="stop-color:#D3BAA3"/>
		<stop  offset="0.6682" style="stop-color:#E5D0B8"/>
		<stop  offset="0.9494" style="stop-color:#B07F54"/>
	</linearGradient>
	<path class="st4" d="M1003.1,316v-57.5h37.5v3.8H1007v22.1h30.7v3.6H1007v24.3h33.6v3.7H1003.1z"/>
	<linearGradient id="SVGID_6_" gradientUnits="userSpaceOnUse" x1="803.6124" y1="457.1333" x2="1203.9379" y2="188.8739">
		<stop  offset="0" style="stop-color:#8C5E50"/>
		<stop  offset="9.829696e-02" style="stop-color:#9D6E52"/>
		<stop  offset="0.1854" style="stop-color:#B07F54"/>
		<stop  offset="0.3916" style="stop-color:#8C5E50"/>
		<stop  offset="0.6151" style="stop-color:#D3BAA3"/>
		<stop  offset="0.6682" style="stop-color:#E5D0B8"/>
		<stop  offset="0.9494" style="stop-color:#B07F54"/>
	</linearGradient>
	<path class="st5" d="M1065.1,316v-53.7h-19.7v-3.8h43.4v3.8H1069V316H1065.1z"/>
	<linearGradient id="SVGID_7_" gradientUnits="userSpaceOnUse" x1="822.2944" y1="485.0124" x2="1222.6198" y2="216.7531">
		<stop  offset="0" style="stop-color:#8C5E50"/>
		<stop  offset="9.829696e-02" style="stop-color:#9D6E52"/>
		<stop  offset="0.1854" style="stop-color:#B07F54"/>
		<stop  offset="0.3916" style="stop-color:#8C5E50"/>
		<stop  offset="0.6151" style="stop-color:#D3BAA3"/>
		<stop  offset="0.6682" style="stop-color:#E5D0B8"/>
		<stop  offset="0.9494" style="stop-color:#B07F54"/>
	</linearGradient>
	<path class="st6" d="M1098.7,316v-57.5h37.5v3.8h-33.6v22.1h30.7v3.6h-30.7v24.3h33.6v3.7H1098.7z"/>
	<linearGradient id="SVGID_8_" gradientUnits="userSpaceOnUse" x1="780.5543" y1="422.7234" x2="1180.8798" y2="154.4641">
		<stop  offset="0" style="stop-color:#8C5E50"/>
		<stop  offset="9.829696e-02" style="stop-color:#9D6E52"/>
		<stop  offset="0.1854" style="stop-color:#B07F54"/>
		<stop  offset="0.3916" style="stop-color:#8C5E50"/>
		<stop  offset="0.6151" style="stop-color:#D3BAA3"/>
		<stop  offset="0.6682" style="stop-color:#E5D0B8"/>
		<stop  offset="0.9494" style="stop-color:#B07F54"/>
	</linearGradient>
	<path class="st7" d="M815.9,409.6v-57.5h6.1l21,52.6l20.9-52.6h6.1v57.5h-3.9v-53l-21.4,53h-3.6l-21.4-53v53H815.9z"/>
	<linearGradient id="SVGID_9_" gradientUnits="userSpaceOnUse" x1="800.6263" y1="452.6771" x2="1200.9518" y2="184.4177">
		<stop  offset="0" style="stop-color:#8C5E50"/>
		<stop  offset="9.829696e-02" style="stop-color:#9D6E52"/>
		<stop  offset="0.1854" style="stop-color:#B07F54"/>
		<stop  offset="0.3916" style="stop-color:#8C5E50"/>
		<stop  offset="0.6151" style="stop-color:#D3BAA3"/>
		<stop  offset="0.6682" style="stop-color:#E5D0B8"/>
		<stop  offset="0.9494" style="stop-color:#B07F54"/>
	</linearGradient>
	<path class="st8" d="M889.7,402.3c-4.7-5.4-7-12.5-7-21.3c0-9.2,2.3-16.5,7-22c4.7-5.5,10.9-8.2,18.6-8.2c7.8,0,14,2.7,18.6,8.2
		c4.7,5.5,7,12.8,7,22c0,8.9-2.3,16-7,21.3c-4.7,5.4-10.9,8-18.6,8C900.5,410.3,894.3,407.6,889.7,402.3z M924.1,399.6
		c3.9-4.7,5.9-10.9,5.9-18.7c0-8-2-14.4-5.9-19.3c-3.9-4.8-9.2-7.3-15.8-7.3c-6.6,0-11.9,2.4-15.8,7.3c-3.9,4.8-5.9,11.3-5.9,19.3
		c0,7.8,2,14.1,5.9,18.7c3.9,4.7,9.2,7.1,15.8,7.1C914.9,406.7,920.1,404.4,924.1,399.6z"/>
	<linearGradient id="SVGID_10_" gradientUnits="userSpaceOnUse" x1="816.9771" y1="477.0775" x2="1217.3026" y2="208.8181">
		<stop  offset="0" style="stop-color:#8C5E50"/>
		<stop  offset="9.829696e-02" style="stop-color:#9D6E52"/>
		<stop  offset="0.1854" style="stop-color:#B07F54"/>
		<stop  offset="0.3916" style="stop-color:#8C5E50"/>
		<stop  offset="0.6151" style="stop-color:#D3BAA3"/>
		<stop  offset="0.6682" style="stop-color:#E5D0B8"/>
		<stop  offset="0.9494" style="stop-color:#B07F54"/>
	</linearGradient>
	<path class="st9" d="M946.5,352.1h22.8c6.1,0,11.3,2.7,15.6,8.2c4.3,5.4,6.4,12,6.4,19.8c0,8.1-2.1,15.1-6.4,20.8
		c-4.3,5.8-9.5,8.6-15.6,8.6h-22.8V352.1z M969.3,405.9c5,0,9.2-2.5,12.8-7.6c3.6-5,5.3-11.1,5.3-18.2c0-6.7-1.8-12.4-5.3-17.2
		c-3.6-4.7-7.8-7.1-12.8-7.1h-18.9v50H969.3z"/>
	<linearGradient id="SVGID_11_" gradientUnits="userSpaceOnUse" x1="836.15" y1="505.6892" x2="1236.4753" y2="237.4299">
		<stop  offset="0" style="stop-color:#8C5E50"/>
		<stop  offset="9.829696e-02" style="stop-color:#9D6E52"/>
		<stop  offset="0.1854" style="stop-color:#B07F54"/>
		<stop  offset="0.3916" style="stop-color:#8C5E50"/>
		<stop  offset="0.6151" style="stop-color:#D3BAA3"/>
		<stop  offset="0.6682" style="stop-color:#E5D0B8"/>
		<stop  offset="0.9494" style="stop-color:#B07F54"/>
	</linearGradient>
	<path class="st10" d="M1003.7,409.6v-57.5h37.5v3.8h-33.6V378h30.7v3.6h-30.7v24.3h33.6v3.7H1003.7z"/>
	<linearGradient id="SVGID_12_" gradientUnits="userSpaceOnUse" x1="851.6926" y1="528.8837" x2="1252.0181" y2="260.6244">
		<stop  offset="0" style="stop-color:#8C5E50"/>
		<stop  offset="9.829696e-02" style="stop-color:#9D6E52"/>
		<stop  offset="0.1854" style="stop-color:#B07F54"/>
		<stop  offset="0.3916" style="stop-color:#8C5E50"/>
		<stop  offset="0.6151" style="stop-color:#D3BAA3"/>
		<stop  offset="0.6682" style="stop-color:#E5D0B8"/>
		<stop  offset="0.9494" style="stop-color:#B07F54"/>
	</linearGradient>
	<path class="st11" d="M1051.7,409.6v-57.5h27.4c3.9,0,7.3,1.5,10.1,4.5c2.8,2.9,4.2,6.5,4.2,10.7c0,3.7-0.8,6.9-2.5,9.6
		c-1.7,2.7-3.9,4.3-6.5,4.8c2.4,0.6,4.3,2.7,5.8,6.1c1.5,3.4,2.2,7.6,2.2,12.4c0,2.7,0.1,4.8,0.2,6.1c0.1,1.6,0.4,2.7,0.8,3.4h-3.9
		c-0.6-0.8-1.1-2.2-1.3-4.3l-0.3-8.2c0-3.9-0.9-7.2-2.8-10c-1.8-2.7-4-4.1-6.7-4.1h-22.9v26.6H1051.7z M1078.5,379.5
		c3,0,5.7-1.2,7.9-3.5c2.1-2.3,3.2-5,3.2-8.3c0-3.2-1.1-6-3.2-8.3c-2.2-2.3-4.8-3.4-7.9-3.4h-22.9v23.6H1078.5z"/>
	<linearGradient id="SVGID_13_" gradientUnits="userSpaceOnUse" x1="869.1281" y1="554.9026" x2="1269.4535" y2="286.6433">
		<stop  offset="0" style="stop-color:#8C5E50"/>
		<stop  offset="9.829696e-02" style="stop-color:#9D6E52"/>
		<stop  offset="0.1854" style="stop-color:#B07F54"/>
		<stop  offset="0.3916" style="stop-color:#8C5E50"/>
		<stop  offset="0.6151" style="stop-color:#D3BAA3"/>
		<stop  offset="0.6682" style="stop-color:#E5D0B8"/>
		<stop  offset="0.9494" style="stop-color:#B07F54"/>
	</linearGradient>
	<path class="st12" d="M1106.9,409.6v-57.5h5.3l34.7,52.7v-52.7h3.9v57.5h-5.3l-34.7-52v52H1106.9z"/>
	<linearGradient id="SVGID_14_" gradientUnits="userSpaceOnUse" x1="886.6084" y1="580.9887" x2="1286.9338" y2="312.7294">
		<stop  offset="0" style="stop-color:#8C5E50"/>
		<stop  offset="9.829696e-02" style="stop-color:#9D6E52"/>
		<stop  offset="0.1854" style="stop-color:#B07F54"/>
		<stop  offset="0.3916" style="stop-color:#8C5E50"/>
		<stop  offset="0.6151" style="stop-color:#D3BAA3"/>
		<stop  offset="0.6682" style="stop-color:#E5D0B8"/>
		<stop  offset="0.9494" style="stop-color:#B07F54"/>
	</linearGradient>
	<path class="st13" d="M1166.5,409.6v-57.5h37.5v3.8h-33.6V378h30.7v3.6h-30.7v24.3h33.6v3.7H1166.5z"/>
	<linearGradient id="SVGID_15_" gradientUnits="userSpaceOnUse" x1="819.8298" y1="481.3345" x2="1220.1552" y2="213.0752">
		<stop  offset="0" style="stop-color:#8C5E50"/>
		<stop  offset="9.829696e-02" style="stop-color:#9D6E52"/>
		<stop  offset="0.1854" style="stop-color:#B07F54"/>
		<stop  offset="0.3916" style="stop-color:#8C5E50"/>
		<stop  offset="0.6151" style="stop-color:#D3BAA3"/>
		<stop  offset="0.6682" style="stop-color:#E5D0B8"/>
		<stop  offset="0.9494" style="stop-color:#B07F54"/>
	</linearGradient>
	<path class="st14" d="M815.9,445.8h22.8c6.1,0,11.3,2.7,15.6,8.2c4.3,5.4,6.4,12,6.4,19.8c0,8.1-2.1,15.1-6.4,20.8
		c-4.3,5.8-9.5,8.6-15.6,8.6h-22.8V445.8z M838.7,499.6c5,0,9.2-2.5,12.8-7.6c3.6-5,5.3-11.1,5.3-18.2c0-6.7-1.8-12.4-5.3-17.2
		c-3.6-4.7-7.8-7.1-12.8-7.1h-18.9v50H838.7z"/>
	<linearGradient id="SVGID_16_" gradientUnits="userSpaceOnUse" x1="839.0034" y1="509.9475" x2="1239.3289" y2="241.6882">
		<stop  offset="0" style="stop-color:#8C5E50"/>
		<stop  offset="9.829696e-02" style="stop-color:#9D6E52"/>
		<stop  offset="0.1854" style="stop-color:#B07F54"/>
		<stop  offset="0.3916" style="stop-color:#8C5E50"/>
		<stop  offset="0.6151" style="stop-color:#D3BAA3"/>
		<stop  offset="0.6682" style="stop-color:#E5D0B8"/>
		<stop  offset="0.9494" style="stop-color:#B07F54"/>
	</linearGradient>
	<path class="st15" d="M873.1,503.3v-57.5h37.5v3.8H877v22.1h30.7v3.6H877v24.3h33.6v3.7H873.1z"/>
	<linearGradient id="SVGID_17_" gradientUnits="userSpaceOnUse" x1="865.9487" y1="550.1582" x2="1266.2742" y2="281.8989">
		<stop  offset="0" style="stop-color:#8C5E50"/>
		<stop  offset="9.829696e-02" style="stop-color:#9D6E52"/>
		<stop  offset="0.1854" style="stop-color:#B07F54"/>
		<stop  offset="0.3916" style="stop-color:#8C5E50"/>
		<stop  offset="0.6151" style="stop-color:#D3BAA3"/>
		<stop  offset="0.6682" style="stop-color:#E5D0B8"/>
		<stop  offset="0.9494" style="stop-color:#B07F54"/>
	</linearGradient>
	<path class="st16" d="M959.9,495.9c-5.2-5.9-7.8-13-7.8-21.3c0-8.3,2.6-15.5,7.8-21.4c5.1-5.9,11.3-8.8,18.6-8.8
		c6,0,11.1,1.6,15.2,4.8c4.1,3.2,6.7,7.4,7.7,12.8h-3.9c-0.7-4-2.9-7.3-6.5-10c-3.6-2.6-7.7-4-12.5-4c-6.2,0-11.5,2.6-15.9,7.8
		c-4.4,5.2-6.6,11.5-6.6,18.8c0,7.3,2.2,13.6,6.6,18.8c4.4,5.2,9.7,7.8,15.9,7.8c5.3,0,9.7-1.6,13.1-4.7c3.5-3.1,5.5-7.2,5.9-12.4
		h3.9c-0.5,6.3-2.9,11.3-7.1,15c-4.1,3.7-9.4,5.6-15.8,5.6C971.2,504.7,965,501.8,959.9,495.9z"/>
	<linearGradient id="SVGID_18_" gradientUnits="userSpaceOnUse" x1="880.8831" y1="572.4448" x2="1281.2085" y2="304.1855">
		<stop  offset="0" style="stop-color:#8C5E50"/>
		<stop  offset="9.829696e-02" style="stop-color:#9D6E52"/>
		<stop  offset="0.1854" style="stop-color:#B07F54"/>
		<stop  offset="0.3916" style="stop-color:#8C5E50"/>
		<stop  offset="0.6151" style="stop-color:#D3BAA3"/>
		<stop  offset="0.6682" style="stop-color:#E5D0B8"/>
		<stop  offset="0.9494" style="stop-color:#B07F54"/>
	</linearGradient>
	<path class="st17" d="M1018.1,498.9c-4.2-3.9-6.3-8.6-6.3-14.1v-39.1h3.9v39.1c0,4.5,1.7,8.4,5.2,11.5c3.4,3.2,7.6,4.8,12.5,4.8
		c4.7,0,8.7-1.6,12-4.8c3.3-3.2,4.9-7,4.9-11.5v-39.1h3.9v39.1c0,5.5-2,10.2-6.1,14.1c-4.1,3.9-9,5.8-14.7,5.8
		C1027.4,504.7,1022.3,502.8,1018.1,498.9z"/>
	<linearGradient id="SVGID_19_" gradientUnits="userSpaceOnUse" x1="894.4887" y1="592.7486" x2="1294.8141" y2="324.4893">
		<stop  offset="0" style="stop-color:#8C5E50"/>
		<stop  offset="9.829696e-02" style="stop-color:#9D6E52"/>
		<stop  offset="0.1854" style="stop-color:#B07F54"/>
		<stop  offset="0.3916" style="stop-color:#8C5E50"/>
		<stop  offset="0.6151" style="stop-color:#D3BAA3"/>
		<stop  offset="0.6682" style="stop-color:#E5D0B8"/>
		<stop  offset="0.9494" style="stop-color:#B07F54"/>
	</linearGradient>
	<path class="st18" d="M1069,503.3v-57.5h3.9v57.5H1069z"/>
	<linearGradient id="SVGID_20_" gradientUnits="userSpaceOnUse" x1="902.2047" y1="604.2632" x2="1302.5302" y2="336.0039">
		<stop  offset="0" style="stop-color:#8C5E50"/>
		<stop  offset="9.829696e-02" style="stop-color:#9D6E52"/>
		<stop  offset="0.1854" style="stop-color:#B07F54"/>
		<stop  offset="0.3916" style="stop-color:#8C5E50"/>
		<stop  offset="0.6151" style="stop-color:#D3BAA3"/>
		<stop  offset="0.6682" style="stop-color:#E5D0B8"/>
		<stop  offset="0.9494" style="stop-color:#B07F54"/>
	</linearGradient>
	<path class="st19" d="M1103.8,503.3l-20.6-57.5h4.4l18.4,52.4l18.4-52.4h4.5l-20.7,57.5H1103.8z"/>
	<linearGradient id="SVGID_21_" gradientUnits="userSpaceOnUse" x1="922.1485" y1="634.0255" x2="1322.4739" y2="365.7662">
		<stop  offset="0" style="stop-color:#8C5E50"/>
		<stop  offset="9.829696e-02" style="stop-color:#9D6E52"/>
		<stop  offset="0.1854" style="stop-color:#B07F54"/>
		<stop  offset="0.3916" style="stop-color:#8C5E50"/>
		<stop  offset="0.6151" style="stop-color:#D3BAA3"/>
		<stop  offset="0.6682" style="stop-color:#E5D0B8"/>
		<stop  offset="0.9494" style="stop-color:#B07F54"/>
	</linearGradient>
	<path class="st20" d="M1139.3,503.3v-57.5h27.4c3.9,0,7.3,1.5,10.1,4.5c2.8,2.9,4.2,6.5,4.2,10.7c0,3.7-0.8,6.9-2.5,9.6
		c-1.7,2.7-3.9,4.3-6.5,4.8c2.4,0.6,4.3,2.7,5.8,6.1c1.5,3.4,2.2,7.6,2.2,12.4c0,2.7,0.1,4.8,0.2,6.1c0.1,1.6,0.4,2.7,0.8,3.4h-3.9
		c-0.6-0.8-1.1-2.2-1.3-4.3l-0.3-8.2c0-3.9-0.9-7.2-2.8-10c-1.8-2.7-4-4.1-6.7-4.1h-22.9v26.6H1139.3z M1166.1,473.1
		c3,0,5.7-1.2,7.9-3.5c2.1-2.3,3.2-5,3.2-8.3c0-3.2-1.1-6-3.2-8.3c-2.2-2.3-4.8-3.4-7.9-3.4h-22.9v23.6H1166.1z"/>
	<linearGradient id="SVGID_22_" gradientUnits="userSpaceOnUse" x1="938.5922" y1="658.5645" x2="1338.9176" y2="390.3052">
		<stop  offset="0" style="stop-color:#8C5E50"/>
		<stop  offset="9.829696e-02" style="stop-color:#9D6E52"/>
		<stop  offset="0.1854" style="stop-color:#B07F54"/>
		<stop  offset="0.3916" style="stop-color:#8C5E50"/>
		<stop  offset="0.6151" style="stop-color:#D3BAA3"/>
		<stop  offset="0.6682" style="stop-color:#E5D0B8"/>
		<stop  offset="0.9494" style="stop-color:#B07F54"/>
	</linearGradient>
	<path class="st21" d="M1194.5,503.3v-57.5h37.5v3.8h-33.6v22.1h30.7v3.6h-30.7v24.3h33.6v3.7H1194.5z"/>
</g>
<g>
	<linearGradient id="SVGID_23_" gradientUnits="userSpaceOnUse" x1="739.1233" y1="391.2626" x2="739.1233" y2="391.2626">
		<stop  offset="0" style="stop-color:#8C5E50"/>
		<stop  offset="9.829696e-02" style="stop-color:#9D6E52"/>
		<stop  offset="0.1854" style="stop-color:#B07F54"/>
		<stop  offset="0.3916" style="stop-color:#8C5E50"/>
		<stop  offset="0.6151" style="stop-color:#D3BAA3"/>
		<stop  offset="0.6682" style="stop-color:#E5D0B8"/>
		<stop  offset="0.9494" style="stop-color:#B07F54"/>
	</linearGradient>
	<line class="st22" x1="739.1" y1="253" x2="739.1" y2="529.5"/>
	<linearGradient id="SVGID_24_" gradientUnits="userSpaceOnUse" x1="738.4361" y1="391.2621" x2="739.8118" y2="391.2621">
		<stop  offset="0" style="stop-color:#8C5E50"/>
		<stop  offset="9.829696e-02" style="stop-color:#9D6E52"/>
		<stop  offset="0.1854" style="stop-color:#B07F54"/>
		<stop  offset="0.3916" style="stop-color:#8C5E50"/>
		<stop  offset="0.6151" style="stop-color:#D3BAA3"/>
		<stop  offset="0.6682" style="stop-color:#E5D0B8"/>
		<stop  offset="0.9494" style="stop-color:#B07F54"/>
	</linearGradient>
	<rect x="738.4" y="253" class="st23" width="1.4" height="276.5"/>
</g>
<g>
	<linearGradient id="SVGID_25_" gradientUnits="userSpaceOnUse" x1="134.606" y1="383.7451" x2="690.0962" y2="383.7451">
		<stop  offset="0" style="stop-color:#8C5E50"/>
		<stop  offset="9.829696e-02" style="stop-color:#9D6E52"/>
		<stop  offset="0.1854" style="stop-color:#B07F54"/>
		<stop  offset="0.3916" style="stop-color:#8C5E50"/>
		<stop  offset="0.6151" style="stop-color:#D3BAA3"/>
		<stop  offset="0.6682" style="stop-color:#E5D0B8"/>
		<stop  offset="0.9494" style="stop-color:#B07F54"/>
	</linearGradient>
	<path class="st24" d="M637.9,463.3c-1.5,0-3.5,0-6,0h-8c-6-0.8-11.2-2-15.6-3.5c-4.4-1.5-8.4-3.4-11.9-5.7
		c-4.9-3.1-9-7.4-12.3-13.1c-3.3-5.6-5.7-12.1-7.2-19.3c-1.5-7.2-2.2-15-2-23.4c0.2-8.4,1.4-17.1,3.7-25.9c2.3-9,5.3-18,9.1-27
		c3.8-8.9,8.3-17.2,13.4-24.8c10.9-16.6,23-27.3,36.4-32.1c8.4-2.9,16.9-2.9,25.3,0c5,1.7,9.3,4,12.9,6.7
		c-37-110-140.9-189.2-263.3-189.2C259,106,134.6,230.4,134.6,383.7c0,43.7,10.1,85,28.1,121.8c0.8-0.2,1.7-0.4,2.5-0.6
		c2.1-0.6,3.9-1.1,5.5-1.5c6.4-2.5,11.7-7.5,15.9-15.1c4.2-7.6,7-17.2,8.5-28.7c0.2-1.2,0.4-2.8,0.5-4.8c0.1-2,0.2-4,0.2-6.2
		c0-2.2-0.1-4.3-0.2-6.3c-0.1-2.1-0.2-3.7-0.2-4.9c-0.6-4.3-1.3-8.4-2.2-12.2c-0.8-3.8-1.9-7.8-3.2-11.9c-1.3-4.1-3.1-8.6-5.2-13.6
		s-4.8-10.6-7.9-17c-4.1-8.6-7.3-15.7-9.6-21.1c-2.3-5.4-4.2-10.5-5.9-15.3c-2.7-9.7-4-18.4-3.9-26.2c0.1-7.8,1.8-15.3,5.1-22.5
		c2.1-4.7,4.8-9.2,8.2-13.4c3.4-4.2,7.1-8,11.1-11.4c4-3.4,8.3-6.2,12.8-8.5c4.5-2.3,8.9-3.8,13.3-4.6c1.8-0.4,4.1-0.6,6.8-0.6
		c2.7,0,4.9,0.2,6.8,0.6c2.9,0.4,5.9,1.2,9.1,2.5c3.2,1.2,5.9,2.7,8.2,4.3c1.2,0.8,2.7,2.2,4.5,4c1.7,1.8,2.9,3.4,3.5,4.6
		c1,1.2,1.8,2.6,2.3,4.2c0.5,1.5,1,3.2,1.4,5.1c0.4,1.6,0.6,3,0.6,4.2c0,1.1,0,3.4,0,6.9c0,3.1,0,5.5,0,7.4c0,1.9-0.2,3.6-0.6,5.2
		c-1,8.6-2.4,15.7-4.2,21.3c-1.7,5.5-4,10.1-6.6,13.6c-1.6,1.9-3.2,3.1-4.8,3.9c-1.5,0.7-3.7,0.9-6.3,0.5c-2.7-0.4-5-1.2-6.9-2.5
		c-2-1.2-2.9-2.5-2.9-3.7c0-0.2,0.2-0.9,0.5-2c0.3-1.1,0.8-2.3,1.4-3.5c1.8-6.6,3.3-12.7,4.3-18.5c1-5.8,1.5-11.9,1.5-18.5
		c0.2-4.7,0.2-8.8-0.2-12.2c-0.3-3.4-1-6.3-2-8.8c-0.2-1-0.4-1.6-0.5-1.9c-0.1-0.2-0.4-0.3-0.8-0.3c-0.6,0.2-1.8,0.8-3.7,1.7
		c-1.9,0.9-3.5,1.9-4.9,2.9c-5.3,3.7-10.4,8.6-15.3,14.8c-4.8,6.2-8.4,12.4-10.6,18.8c-1.6,5.3-2.5,10.6-2.5,15.9
		c0,5.2,0.8,11.5,2.5,18.7c0.6,2.5,1.3,5,2.2,7.6c0.8,2.6,1.9,5.4,3.2,8.6c1.3,3.2,2.9,6.8,4.8,10.9c1.9,4.1,4.1,9,6.8,14.8
		c2.5,5.3,4.6,10.2,6.5,14.5c1.9,4.3,3.4,8.3,4.6,12c1.2,3.7,2.2,7.2,2.9,10.6c0.7,3.4,1.4,6.9,2,10.6c0.2,1.2,0.3,2.9,0.3,5.1
		s0,4.4,0,6.8c0,2.4,0,4.6,0,6.8c0,2.2-0.1,3.9-0.3,5.1c-1.4,9.2-4,17.4-7.6,24.5c-3.6,7.1-8.3,12.8-14,17.1
		c-8.2,6-19.2,9.7-32.9,11c46.7,87.6,139,147.1,245.2,147.1c134.2,0,246.2-95.2,272.1-221.8c-12.7,12.3-26.8,20-42.4,23
		C640.9,463.1,639.5,463.3,637.9,463.3z M563.2,311.9c-0.4,3.7-1.2,8.7-2.3,15c-1.1,6.3-2.7,14.1-4.8,23.6c-2.1,9.5-4.7,21.4-8,35.8
		c-2.1,9-3.9,17.3-5.5,24.8c-1.6,7.5-3.1,14.4-4.3,20.8c-1.2,6.4-2.3,12.4-3.2,18.2c-0.9,5.8-1.8,11.4-2.6,17
		c-2.7,18.1-3,31.9-0.9,41.3c0.4,2.1,0.6,3.2,0.6,3.4c0.2,0.2,1-0.4,2.5-1.8c1.2-1.6,2.3-2.6,3.1-2.8c1.4-0.6,3.6-0.7,6.5-0.3
		c2.3,0.4,4.2,1.1,5.7,2c1.5,0.9,2.3,1.9,2.3,2.9c0,0.4-0.7,1.5-2,3.2c-1.3,1.7-2.8,3.4-4.5,5.1c-0.8,0.6-1.6,1.2-2.3,1.7
		c-0.7,0.5-1.5,1-2.3,1.4c-1,0.4-1.8,0.7-2.5,0.9c-0.6,0.2-1.7,0.3-3.4,0.3h-4.6c-9-1.6-14.7-7.3-17-17c-2.1-7.6-2.8-17.1-2.2-28.5
		c0.6-11.4,2.5-26.6,5.5-45.5c1.8-10.7,3.6-20.2,5.4-28.7c1.7-8.4,3.7-17.4,6-26.8c0.6-2.7,1.3-5.2,2-7.6c0.7-2.4,1.4-5,2.2-8
		c0.7-3,1.6-6.4,2.6-10.3c1-3.9,2.4-8.6,4-14.2c1.4-5.5,2.7-10.4,3.7-14.6c1-4.2,1.7-7.9,2.2-10.9c0.6-3.3,0.9-5.1,0.9-5.5
		c0-0.4-0.4-0.1-1.2,0.9c-1.4,1.6-3.3,4.1-5.5,7.2c-2.3,3.2-4.7,6.6-7.4,10.3c-2.7,3.7-5.3,7.6-7.9,11.6c-2.6,4-4.9,7.7-6.9,10.9
		c-4.7,7.6-9.4,15.4-13.9,23.3c-4.5,7.9-9.1,16.4-13.7,25.6c-4.6,9.1-9.5,19.2-14.6,30.2c-5.1,11-10.8,23.4-17,37.1
		c-8.6,19.5-14.3,31.2-17,35.1c-1,1.6-2,2.9-2.9,3.9c-0.9,0.9-1.8,1.7-2.6,2.3c-2.3,1-5.4,1.5-9.6,1.4c-4.1-0.1-7.6-0.8-10.5-2
		s-5-2.6-6.3-4.2c-1.3-1.5-2.4-3.8-3.2-6.6c-1.2-4.9-1.6-12.7-1.2-23.3c0.4-10.6,1.5-22.7,3.4-36.2c2.3-14,5.3-29.3,9.2-45.9
		c3.9-16.6,8.5-33.9,13.9-51.8c2.7-8.6,6.2-19.2,10.5-31.6c4.3-12.4,8.9-25.5,13.9-39.3c0.6-1.9,1.2-3.6,1.9-5.2
		c0.6-1.6,1.1-3.1,1.5-4.3c0.6-1.4,1.1-2.8,1.5-4c-1.6,2.7-3.1,5.1-4.3,7.2s-2.6,4.6-4,7.2c-1.4,2.7-2.8,5.3-4,8
		c-1.6,2.9-3.5,6.4-5.7,10.5c-2.2,4.1-4.4,8.5-6.8,13.3c-2.4,4.7-4.7,9.5-7.1,14.2c-2.4,4.7-4.5,8.9-6.3,12.6
		c-4.3,9-8.4,17.5-12.2,25.4c-3.8,7.9-7.6,16-11.4,24.4c-3.8,8.3-7.8,17.2-11.9,26.5c-4.1,9.4-8.6,20-13.6,31.9
		c-3.1,7.2-5.7,13.2-7.7,17.9c-2.1,4.7-3.9,8.8-5.4,12.3c-1.5,3.5-2.9,6.5-4.2,9.1c-1.2,2.6-2.5,5.2-3.7,7.9
		c-5.1,10.3-9.5,17.9-13.1,23c-3.6,5-7.1,8.4-10.6,10c-1.9,0.8-4,1.3-6.5,1.5c-2.5,0.2-5,0.1-7.6-0.3c-2.6-0.4-5-1.1-7.2-2.2
		c-2.3-1-4.1-2.3-5.5-3.7c-1.8-1.8-3.4-4.8-4.6-8.9c-0.8-2.9-1.3-5.4-1.5-7.7c-0.2-2.3-0.2-6.4,0-12.3c0-4.7,0-8.2,0.2-10.3
		c0.1-2.2,0.4-4.6,0.8-7.2c1-9,2.5-18.5,4.5-28.5c2-10,4.9-22.2,8.8-36.8c0.8-3.1,1.7-6.4,2.6-10c0.9-3.6,1.8-7,2.8-10.3
		c0.9-3.3,1.7-6.1,2.3-8.3c0.6-2.3,0.9-3.5,0.9-3.7c0.2-0.6-0.1-0.5-0.8,0.5c-0.7,0.9-2.2,2.9-4.5,6c-3.7,5.3-7.5,10.8-11.3,16.5
		c-3.8,5.7-7.2,11.1-10.3,16.5c-3.1,5.3-5.8,10.2-8.2,14.5c-2.4,4.3-4,7.7-4.8,10.2c-0.4,1-0.6,1.7-0.6,2.2c0,0.4,0,0.8,0,1.2
		c0.4,0.8,0.4,1.4,0,1.8c-0.2,0.4-0.9,1-2.2,1.9c-0.6,0.4-1.1,0.6-1.5,0.6c-0.4,0-1.3-0.1-2.8-0.3c-1.6,0-2.9-0.1-3.9-0.3
		c-0.9-0.2-2-0.7-3.2-1.5c-2.1-1-3.1-2.9-3.1-5.5c0-2.5,0.7-6,2.2-10.6c1.4-4.6,3.4-9.8,5.9-15.4c2.5-5.7,5.3-11.7,8.5-18
		c3.2-6.4,6.5-12.6,10-18.8c4.3-7,8.5-13.4,12.6-19.1c4.1-5.8,8.8-11.8,14.2-18.2c2.3-2.7,4.2-4.9,5.7-6.6c1.5-1.7,2.9-3.1,4-4
		c1.1-0.9,2.2-1.6,3.2-2c1-0.4,2.2-0.7,3.4-0.9c3.5-0.4,7.4,0.3,11.9,2c4.4,1.7,7.8,4.1,10,6.9c1,1,1.6,2.1,1.8,3.2
		c0.2,1.1,0.3,2.9,0.3,5.4c0,1.6-0.1,3.4-0.3,5.4c-0.2,2-0.6,4.3-1.2,7.1c-0.6,2.8-1.4,6.2-2.3,10.2s-2.1,8.9-3.5,14.6
		c-0.8,3.3-2,8-3.5,14.2c-1.5,6.2-3,12-4.5,17.6c-3.5,14.4-6.3,26.4-8.5,35.9c-2.2,9.6-4,18.5-5.4,27c-0.4,2.9-0.8,5.6-1.2,8.2
		c-0.4,2.6-0.8,4.9-1.1,6.9c-0.3,2.1-0.5,3.7-0.5,4.9c0,1.2,0.1,1.7,0.3,1.5c0.4-0.4,1.5-2.3,3.2-5.5c1.7-3.3,3.2-6.4,4.5-9.2
		c1.2-2.5,2.5-5.1,3.7-7.9c1.2-2.8,2.7-6,4.3-9.7c1.6-3.7,3.6-8.1,5.9-13.1c2.3-5,4.9-11.3,8-18.6c4.1-9.5,7.7-17.7,10.8-24.8
		c3.1-7.1,5.9-13.5,8.3-19.3c2.5-5.8,4.9-11.1,7.2-16.2c2.4-5,4.8-10.3,7.2-15.9c10.3-21.6,21.4-43.9,33.4-66.9
		c12-23,23.9-44.5,35.6-64.4c1.9-3.1,4.3-7.1,7.2-12.2c3-5,6-10.1,9.1-15.3c3.1-5.1,5.9-9.8,8.3-13.9c2.5-4.1,4.1-6.7,4.9-7.7
		c2.9-4.5,5.1-6.9,6.8-7.1h3.4c3.1,0.2,6.6,1.6,10.5,4.3c3.9,2.7,6.6,5.5,8,8.6l0.9,2.2v5.2c0,3.1-0.3,6.2-0.8,9.4
		c-0.5,3.2-1.6,8.1-3.2,14.6c-1,3.9-2.1,7.9-3.1,12c-1,4.1-2.4,8.9-4,14.3c-1.6,5.4-3.6,11.8-5.9,19.1c-2.3,7.3-5,16-8.3,26
		c-6,18.3-11,34.4-15.3,48.4c-4.2,14-8,26.9-11.4,38.7c-3.4,11.8-6.4,23.1-9.1,33.9c-2.7,10.8-5.3,22.1-8,34.1
		c-0.6,2.7-1.1,5-1.5,6.9c-0.4,2-0.7,3-0.9,3.2l3.4-5.9c4.7-9.9,9.1-18.8,13.3-26.8c4.1-8,8.2-15.6,12.3-22.8
		c4.1-7.2,8.2-14.1,12.3-20.8c4.1-6.7,8.5-13.6,13.3-20.8c2.7-3.9,5.5-8.1,8.6-12.5c3.1-4.4,6.1-8.7,8.9-12.8
		c2.9-4.1,5.5-7.9,8-11.3c2.5-3.4,4.5-6,6.2-7.9c2.1-2.3,4.3-4.5,6.6-6.8c2.4-2.3,4.2-3.7,5.4-4.3c1-0.6,1.7-1,2.2-1.1
		c0.4-0.1,1.4-0.2,3.1-0.2c1.6,0,2.8,0.1,3.4,0.2c0.6,0.1,1.6,0.5,3.1,1.1c3.7,1.6,6.3,3.5,7.9,5.7c1.5,2.2,2.5,5.3,2.9,9.4
		C563.8,305,563.6,308.2,563.2,311.9z"/>
	<linearGradient id="SVGID_26_" gradientUnits="userSpaceOnUse" x1="134.606" y1="378.1158" x2="690.0963" y2="378.1158">
		<stop  offset="0" style="stop-color:#8C5E50"/>
		<stop  offset="9.829696e-02" style="stop-color:#9D6E52"/>
		<stop  offset="0.1854" style="stop-color:#B07F54"/>
		<stop  offset="0.3916" style="stop-color:#8C5E50"/>
		<stop  offset="0.6151" style="stop-color:#D3BAA3"/>
		<stop  offset="0.6682" style="stop-color:#E5D0B8"/>
		<stop  offset="0.9494" style="stop-color:#B07F54"/>
	</linearGradient>
	<path class="st25" d="M681.1,346.2c-1.1,1.6-2.2,2.8-3.2,3.4c-0.6,0.4-1.6,0.6-3.1,0.6c-2.1-0.2-4.1-0.9-6.2-2
		c-2.1-1.1-3.4-2.5-4-4.2c-0.4-0.4-0.6-0.9-0.5-1.5c0.1-0.6,0.6-2.1,1.4-4.3c1.2-3.9,2.1-6.9,2.6-9.1c0.5-2.2,0.8-5,0.8-8.5
		c0-2.7-0.1-4.5-0.2-5.4c-0.1-0.9-0.4-2.1-0.8-3.5c-0.6-1.9-1.2-3.4-1.7-4.8c-0.5-1.3-1-2-1.4-2c-0.4,0-1.2,0.2-2.5,0.6
		c-1.2,0.4-2.4,0.8-3.4,1.2c-7.2,3.5-14.5,10.1-21.9,19.7c-7.4,9.7-13.9,21-19.4,33.9c-11.9,28.2-15.8,52-11.7,71.5
		c1,5.1,2.4,9.5,4.2,12.9c1.7,3.5,3.6,5.4,5.7,5.9c0.4,0.2,1.1,0.3,2.2,0.3c1,0,2.1,0.1,3.1,0.3c5.1,0.4,10.5-0.3,16.2-2.2
		c5.7-1.9,11.4-4.5,17.1-8c3.3-2.1,6.2-4.2,8.8-6.3c2.6-2.2,5.7-5,9.4-8.5c3.3-3.5,5.3-5.6,6-6.3c0.7-0.7,1.5-1.1,2.3-1.1
		c2.3-0.3,4.6,0,6.9,0.7c1.5-11.7,2.3-23.7,2.3-35.9c0-16.2-1.4-32.1-4.1-47.5c-0.5,1.5-1.1,2.9-1.7,4.2
		C683.3,342.6,682.2,344.5,681.1,346.2z"/>
</g>
</svg>
