<svg width="69" height="71" viewBox="0 0 69 71" fill="none" xmlns="http://www.w3.org/2000/svg">
<g filter="url(#filter0_d)">
<circle cx="32.5" cy="30.5" r="29.5" fill="white" stroke="#7F6A23" stroke-width="2"/>
<path d="M23.228 39.524C22.652 40.412 22.364 40.988 22.364 41.252C22.364 41.516 22.472 41.708 22.688 41.828C22.688 41.852 22.472 42.032 22.04 42.368C21.656 42.56 21.224 42.656 20.744 42.656C20.264 42.656 19.916 42.596 19.7 42.476C19.484 42.38 19.412 42.212 19.484 41.972C19.82 40.892 21.08 38.732 23.264 35.492C25.448 32.228 26.912 29.924 27.656 28.58C29.264 25.676 30.068 23.36 30.068 21.632C30.068 20.912 29.948 20.3 29.708 19.796C29.228 18.812 28.088 18.32 26.288 18.32C23.48 18.32 20.576 19.532 17.576 21.956C15.176 23.9 13.34 25.964 12.068 28.148C10.796 30.308 10.16 32.24 10.16 33.944C10.16 36.392 11.24 37.64 13.4 37.688C13.496 37.688 13.592 37.688 13.688 37.688C16.448 37.688 18.584 36.692 20.096 34.7C20.672 33.908 20.96 33.236 20.96 32.684C20.96 32.132 20.84 31.784 20.6 31.64C20.576 31.616 20.564 31.568 20.564 31.496C20.564 31.424 20.636 31.388 20.78 31.388C21.404 31.388 21.716 31.796 21.716 32.612C21.716 33.116 21.464 33.8 20.96 34.664C20.48 35.528 19.616 36.344 18.368 37.112C17.12 37.88 15.668 38.264 14.012 38.264C12.356 38.264 11.036 37.748 10.052 36.716C9.068 35.684 8.576 34.328 8.576 32.648C8.576 28.856 11.048 24.98 15.992 21.02C17.264 20.012 18.932 19.184 20.996 18.536C23.084 17.888 25.076 17.564 26.972 17.564C28.868 17.564 30.152 17.9 30.824 18.572C31.52 19.22 31.868 20.096 31.868 21.2C31.868 22.88 31.184 25.148 29.816 28.004C29.384 28.892 28.412 30.512 26.9 32.864L29.672 29.336C31.016 27.584 33.344 25.088 36.656 21.848C37.376 21.152 38.168 20.576 39.032 20.12C39.92 19.64 40.676 19.4 41.3 19.4C42.164 19.4 42.596 19.856 42.596 20.768C42.596 21.56 42.212 22.76 41.444 24.368C40.7 25.952 39.944 27.464 39.176 28.904C38.408 30.32 37.94 31.256 37.772 31.712C37.604 32.144 37.484 32.492 37.412 32.756C37.34 33.02 37.292 33.164 37.268 33.188C37.34 33.068 38.132 32.156 39.644 30.452C41.156 28.724 43.388 26.576 46.34 24.008L52.1 19.256C52.556 18.872 52.964 18.68 53.324 18.68C53.684 18.68 53.972 18.98 54.188 19.58C54.428 20.18 54.548 20.672 54.548 21.056C54.548 21.416 53.972 22.184 52.82 23.36C49.82 26.432 47.276 29.792 45.188 33.44C43.1 37.088 42.056 39.692 42.056 41.252C42.056 41.66 42.128 41.936 42.272 42.08C42.416 42.248 42.644 42.296 42.956 42.224C43.268 42.176 43.916 41.936 44.9 41.504C45.908 41.072 46.568 40.82 46.88 40.748C47 40.796 47.06 40.856 47.06 40.928C47.06 41.288 46.424 41.792 45.152 42.44C43.904 43.088 42.956 43.412 42.308 43.412C41.684 43.412 41.3 43.304 41.156 43.088C40.724 42.464 40.508 41.708 40.508 40.82C40.508 38.756 41.612 35.792 43.82 31.928C45.236 29.504 47.42 26.24 50.372 22.136C48.068 24.008 44.948 26.876 41.012 30.74C37.076 34.604 34.496 37.628 33.272 39.812C32.648 40.94 31.892 41.504 31.004 41.504C30.596 41.504 30.392 41.36 30.392 41.072C30.392 40.976 30.632 40.544 31.112 39.776C31.616 39.008 32.708 37.208 34.388 34.376C38.516 27.2 40.58 22.88 40.58 21.416C40.58 21.032 40.448 20.84 40.184 20.84C39.8 20.84 39.236 21.164 38.492 21.812C35.828 24.044 32.996 26.96 29.996 30.56C26.996 34.16 24.74 37.148 23.228 39.524Z" fill="#7F6A23"/>
</g>
<defs>
<filter id="filter0_d" x="0" y="0" width="69" height="71" filterUnits="userSpaceOnUse" color-interpolation-filters="sRGB">
<feFlood flood-opacity="0" result="BackgroundImageFix"/>
<feColorMatrix in="SourceAlpha" type="matrix" values="0 0 0 0 0 0 0 0 0 0 0 0 0 0 0 0 0 0 127 0"/>
<feOffset dx="2" dy="6"/>
<feGaussianBlur stdDeviation="2"/>
<feColorMatrix type="matrix" values="0 0 0 0 0 0 0 0 0 0 0 0 0 0 0 0 0 0 0.25 0"/>
<feBlend mode="normal" in2="BackgroundImageFix" result="effect1_dropShadow"/>
<feBlend mode="normal" in="SourceGraphic" in2="effect1_dropShadow" result="shape"/>
</filter>
</defs>
</svg>
