<svg width="48" height="40" viewBox="0 0 48 40" fill="none" xmlns="http://www.w3.org/2000/svg">
<path d="M31.1065 8.90967H5.75293V31.4855H31.1065V8.90967Z" fill="#CCCC99"/>
<path d="M38.7069 13.539C37.5616 13.539 36.6245 12.3976 36.6245 11.0024C36.6245 9.60729 37.5616 8.46582 38.7069 8.46582C39.8523 8.46582 40.7894 9.60729 40.7894 11.0024C40.7894 12.3976 39.8523 13.539 38.7069 13.539ZM38.7069 9.41705C37.9781 9.41705 37.4054 10.1146 37.4054 11.0024C37.4054 11.8902 37.9781 12.5878 38.7069 12.5878C39.4358 12.5878 40.0085 11.8902 40.0085 11.0024C40.0085 10.1146 39.4098 9.41705 38.7069 9.41705Z" fill="#666633"/>
<path d="M40.5294 16.7097C40.8169 16.7097 41.05 16.4258 41.05 16.0756C41.05 15.7253 40.8169 15.4414 40.5294 15.4414C40.2419 15.4414 40.0088 15.7253 40.0088 16.0756C40.0088 16.4258 40.2419 16.7097 40.5294 16.7097Z" fill="#666633"/>
<path d="M40.5292 16.8368C40.1648 16.8368 39.8784 16.4881 39.8784 16.0442C39.8784 15.6002 40.1648 15.2515 40.5292 15.2515C40.8936 15.2515 41.1799 15.6002 41.1799 16.0442C41.1799 16.4881 40.8676 16.8368 40.5292 16.8368ZM40.5292 15.5685C40.3209 15.5685 40.1387 15.7905 40.1387 16.0442C40.1387 16.2978 40.3209 16.5198 40.5292 16.5198C40.7374 16.5198 40.9196 16.2978 40.9196 16.0442C40.9196 15.7905 40.7374 15.5685 40.5292 15.5685Z" fill="#666633"/>
<path d="M37.1456 16.7097C37.4331 16.7097 37.6662 16.4258 37.6662 16.0756C37.6662 15.7253 37.4331 15.4414 37.1456 15.4414C36.8581 15.4414 36.625 15.7253 36.625 16.0756C36.625 16.4258 36.8581 16.7097 37.1456 16.7097Z" fill="#666633"/>
<path d="M37.1454 16.8368C36.781 16.8368 36.4946 16.4881 36.4946 16.0442C36.4946 15.6002 36.781 15.2515 37.1454 15.2515C37.5098 15.2515 37.7961 15.6002 37.7961 16.0442C37.7961 16.4881 37.4838 16.8368 37.1454 16.8368ZM37.1454 15.5685C36.9371 15.5685 36.7549 15.7905 36.7549 16.0442C36.7549 16.2978 36.9371 16.5198 37.1454 16.5198C37.3536 16.5198 37.5358 16.2978 37.5358 16.0442C37.5358 15.7905 37.3536 15.5685 37.1454 15.5685Z" fill="#666633"/>
<path d="M40.5294 20.0388C40.8169 20.0388 41.05 19.7549 41.05 19.4047C41.05 19.0544 40.8169 18.7705 40.5294 18.7705C40.2419 18.7705 40.0088 19.0544 40.0088 19.4047C40.0088 19.7549 40.2419 20.0388 40.5294 20.0388Z" fill="#666633"/>
<path d="M40.5292 20.1659C40.1648 20.1659 39.8784 19.8172 39.8784 19.3733C39.8784 18.9293 40.1648 18.5806 40.5292 18.5806C40.8936 18.5806 41.1799 18.9293 41.1799 19.3733C41.1799 19.8172 40.8676 20.1659 40.5292 20.1659ZM40.5292 18.8976C40.3209 18.8976 40.1387 19.1196 40.1387 19.3733C40.1387 19.6269 40.3209 19.8489 40.5292 19.8489C40.7374 19.8489 40.9196 19.6269 40.9196 19.3733C40.9196 19.1196 40.7374 18.8976 40.5292 18.8976Z" fill="#666633"/>
<path d="M37.1456 20.1975C37.4331 20.1975 37.6662 19.9136 37.6662 19.5634C37.6662 19.2131 37.4331 18.9292 37.1456 18.9292C36.8581 18.9292 36.625 19.2131 36.625 19.5634C36.625 19.9136 36.8581 20.1975 37.1456 20.1975Z" fill="#666633"/>
<path d="M37.1454 20.3246C36.781 20.3246 36.4946 19.9759 36.4946 19.5319C36.4946 19.088 36.781 18.7393 37.1454 18.7393C37.5098 18.7393 37.7961 19.088 37.7961 19.5319C37.7961 19.9759 37.4838 20.3246 37.1454 20.3246ZM37.1454 19.0563C36.9371 19.0563 36.7549 19.2783 36.7549 19.5319C36.7549 19.7856 36.9371 20.0076 37.1454 20.0076C37.3536 20.0076 37.5358 19.7856 37.5358 19.5319C37.5358 19.2783 37.3536 19.0563 37.1454 19.0563Z" fill="#666633"/>
<path d="M40.5294 23.3684C40.8169 23.3684 41.05 23.0845 41.05 22.7342C41.05 22.384 40.8169 22.1001 40.5294 22.1001C40.2419 22.1001 40.0088 22.384 40.0088 22.7342C40.0088 23.0845 40.2419 23.3684 40.5294 23.3684Z" fill="#666633"/>
<path d="M40.5292 23.495C40.1648 23.495 39.8784 23.1463 39.8784 22.7024C39.8784 22.2585 40.1648 21.9097 40.5292 21.9097C40.8936 21.9097 41.1799 22.2585 41.1799 22.7024C41.1799 23.1463 40.8676 23.495 40.5292 23.495ZM40.5292 22.2267C40.3209 22.2267 40.1387 22.4487 40.1387 22.7024C40.1387 22.956 40.3209 23.178 40.5292 23.178C40.7374 23.178 40.9196 22.956 40.9196 22.7024C40.9196 22.4487 40.7374 22.2267 40.5292 22.2267Z" fill="#666633"/>
<path d="M37.1456 23.3684C37.4331 23.3684 37.6662 23.0845 37.6662 22.7342C37.6662 22.384 37.4331 22.1001 37.1456 22.1001C36.8581 22.1001 36.625 22.384 36.625 22.7342C36.625 23.0845 36.8581 23.3684 37.1456 23.3684Z" fill="#666633"/>
<path d="M37.1454 23.495C36.781 23.495 36.4946 23.1463 36.4946 22.7024C36.4946 22.2585 36.781 21.9097 37.1454 21.9097C37.5098 21.9097 37.7961 22.2585 37.7961 22.7024C37.7961 23.1463 37.4838 23.495 37.1454 23.495ZM37.1454 22.2267C36.9371 22.2267 36.7549 22.4487 36.7549 22.7024C36.7549 22.956 36.9371 23.178 37.1454 23.178C37.3536 23.178 37.5358 22.956 37.5358 22.7024C37.5358 22.4487 37.3536 22.2267 37.1454 22.2267Z" fill="#666633"/>
<path d="M41.4405 32.0881H36.2345C35.9481 32.0881 35.7139 31.8028 35.7139 31.454C35.7139 31.1052 35.9481 30.8198 36.2345 30.8198H41.4405C41.7269 30.8198 41.9612 31.1052 41.9612 31.454C41.9612 31.8028 41.7269 32.0881 41.4405 32.0881Z" fill="#666633"/>
<path d="M42.0911 39.0954H5.90889C2.6551 39.0954 0 35.893 0 31.9295V7.19762C0 3.23417 2.6551 0 5.90889 0H42.0911C45.3449 0 48 3.23417 48 7.19762V31.9295C47.974 35.893 45.3449 39.0954 42.0911 39.0954ZM5.90889 0.951227C3.07158 0.951227 0.780911 3.74149 0.780911 7.19762V31.9295C0.780911 35.354 3.07158 38.1759 5.90889 38.1759H42.0911C44.9024 38.1759 47.2191 35.3857 47.2191 31.9295V7.19762C47.2191 3.7732 44.9284 0.951227 42.0911 0.951227H5.90889Z" fill="#666633"/>
</svg>
