<svg height="511pt" viewBox="-51 1 511 511.99967" width="511pt" xmlns="http://www.w3.org/2000/svg"><path d="m401.566406 256h-8.535156v-128c0-4.714844-3.820312-8.535156-8.53125-8.535156h-10.105469c1.011719-2.730469 1.542969-5.617188 1.570313-8.53125v-27.070313c.015625-6.789062-2.683594-13.308593-7.5-18.097656l-12.066406-12.066406c-3.332032-3.332031-8.734376-3.332031-12.066407 0l-12.066406 12.066406c-4.816406 4.789063-7.519531 11.304687-7.5 18.097656v27.070313c.027344 2.914062.558594 5.800781 1.570313 8.53125h-10.101563c-4.714844 0-8.535156 3.820312-8.535156 8.535156v128h-8.53125c-4.714844 0-8.535157 3.820312-8.535157 8.53125v42.667969c.035157 26.074219 19.640626 47.96875 45.550782 50.867187-9.808594 21.011719-30.894532 34.449219-54.082032 34.464844h-68.269531v-34.132812c28.265625-.027344 51.171875-22.933594 51.199219-51.199219v-42.667969c0-4.710938-3.820312-8.53125-8.53125-8.53125h-8.535156v-179.203125c0-4.710937-3.820313-8.53125-8.53125-8.53125h-10.105469c1.011719-2.734375 1.542969-5.621094 1.570313-8.535156v-27.066407c.015624-6.792968-2.683594-13.308593-7.5-18.097656l-12.066407-12.066406c-3.332031-3.332031-8.734375-3.332031-12.066406 0l-12.066406 12.066406c-4.820313 4.785156-7.519531 11.304688-7.5 18.097656v27.066407c.027343 2.914062.558593 5.800781 1.570312 8.535156h-10.105469c-4.710937 0-8.53125 3.820313-8.53125 8.53125v179.203125h-8.535156c-4.710937 0-8.53125 3.820312-8.53125 8.53125v42.667969c.027344 28.265625 22.933594 51.171875 51.199219 51.199219v34.132812h-68.265625c-23.191406-.015625-44.277344-13.453125-54.085938-34.464844 25.914063-2.898437 45.515626-24.792968 45.550782-50.867187v-42.667969c0-4.710938-3.820313-8.53125-8.53125-8.53125h-8.535156v-128c0-4.714844-3.820313-8.535156-8.53125-8.535156h-10.105469c1.011719-2.730469 1.542969-5.617188 1.570312-8.53125v-27.070313c.015625-6.789062-2.683593-13.308593-7.5-18.097656l-12.066406-12.066406c-3.332031-3.332031-8.734375-3.332031-12.066406 0l-12.066407 12.066406c-4.820312 4.789063-7.519531 11.304687-7.5 18.097656v27.070313c.027344 2.914062.558594 5.800781 1.570313 8.53125h-10.105469c-4.710937 0-8.53125 3.820312-8.53125 8.535156v128h-8.535156c-4.710938 0-8.53125 3.820312-8.53125 8.53125v42.667969c.027344 28.265625 22.933594 51.171875 51.199219 51.199219h4.359375c10.855468 30.695312 39.882812 51.214843 72.441406 51.199218h68.265625v51.203125h-93.867187c-23.554688.027344-42.640626 19.113281-42.667969 42.664063 0 4.714844 3.820312 8.535156 8.535156 8.535156h273.066406c4.714844 0 8.535157-3.820312 8.535157-8.535156-.03125-23.550782-19.117188-42.636719-42.667969-42.664063h-93.867188v-51.203125h68.265625c32.558594.015625 61.585938-20.503906 72.441406-51.199218h4.359376c28.265624-.027344 51.171874-22.933594 51.199218-51.199219v-42.667969c0-4.710938-3.820312-8.53125-8.53125-8.53125zm-204.800781-196.269531v-27.066407c0-2.261718.898437-4.433593 2.5-6.035156l6.03125-6.03125 6.035156 6.03125c1.601563 1.601563 2.5 3.773438 2.5 6.035156v27.066407c0 4.714843-3.820312 8.535156-8.53125 8.535156-4.714843 0-8.535156-3.820313-8.535156-8.535156zm-17.066406 25.601562h51.199219v170.667969h-51.199219zm-17.066407 221.867188v-34.132813h85.332032v34.132813c0 18.851562-15.28125 34.132812-34.132813 34.132812h-17.066406c-18.851563 0-34.132813-15.28125-34.132813-34.132812zm-110.933593-196.265625v-27.070313c0-2.261719.898437-4.433593 2.5-6.03125l6.03125-6.035156 6.035156 6.035156c1.597656 1.597657 2.5 3.769531 2.5 6.03125v27.070313c0 4.710937-3.820313 8.53125-8.535156 8.53125-4.710938 0-8.53125-3.820313-8.53125-8.53125zm-17.066407 25.597656h51.199219v119.46875h-51.199219zm-17.070312 170.667969v-34.132813h85.335938v34.132813c0 18.851562-15.28125 34.132812-34.132813 34.132812h-17.066406c-18.851563 0-34.136719-15.28125-34.136719-34.132812zm314.277344 187.734375h-253.082032c3.628907-10.222656 13.292969-17.054688 24.140626-17.066406h204.800781c10.84375.011718 20.511719 6.847656 24.140625 17.066406zm9.992187-384v-27.070313c0-2.261719.898438-4.433593 2.5-6.03125l6.035157-6.035156 6.03125 6.035156c1.601562 1.597657 2.5 3.769531 2.5 6.03125v27.070313c0 4.710937-3.820313 8.53125-8.53125 8.53125-4.714844 0-8.535157-3.820313-8.535157-8.53125zm-17.066406 25.597656h51.199219v119.46875h-51.199219zm68.265625 170.667969c0 18.851562-15.28125 34.132812-34.132812 34.132812h-17.066407c-18.851562 0-34.132812-15.28125-34.132812-34.132812v-34.132813h85.332031zm0 0"/></svg>